<?xml version="1.0" encoding="UTF-8" standalone="no"?>
<svg
   xmlns:dc="http://purl.org/dc/elements/1.1/"
   xmlns:cc="http://creativecommons.org/ns#"
   xmlns:rdf="http://www.w3.org/1999/02/22-rdf-syntax-ns#"
   xmlns:svg="http://www.w3.org/2000/svg"
   xmlns="http://www.w3.org/2000/svg"
   xmlns:sodipodi="http://sodipodi.sourceforge.net/DTD/sodipodi-0.dtd"
   xmlns:inkscape="http://www.inkscape.org/namespaces/inkscape"
   version="1.1"
   id="Ebene_1"
   x="0px"
   y="0px"
   viewBox="0 0.0 150 150"
   enable-background="new 0 0 150 150"
   xml:space="preserve"
   height="150px"
   width="150px"
   inkscape:version="0.91 r13725"
   sodipodi:docname="alien.svg"><metadata
     id="metadata13"><rdf:RDF><cc:Work
         rdf:about=""><dc:format>image/svg+xml</dc:format><dc:type
           rdf:resource="http://purl.org/dc/dcmitype/StillImage" /></cc:Work></rdf:RDF></metadata><defs
     id="defs11" /><sodipodi:namedview
     pagecolor="#ffffff"
     bordercolor="#666666"
     borderopacity="1"
     objecttolerance="10"
     gridtolerance="10"
     guidetolerance="10"
     inkscape:pageopacity="0"
     inkscape:pageshadow="2"
     inkscape:window-width="1247"
     inkscape:window-height="755"
     id="namedview9"
     showgrid="false"
     inkscape:zoom="4.4500587"
     inkscape:cx="69.067219"
     inkscape:cy="63.44326"
     inkscape:window-x="33"
     inkscape:window-y="0"
     inkscape:window-maximized="1"
     inkscape:current-layer="Ebene_1" /><g
     id="g3"
     transform="matrix(2.0264748,0,0,1.9244136,-24.961405,-22.527044)"><path
       d="m 49.5,35.7 c -2.6,0 -4.7,2.1 -4.7,4.7 0,2.6 2.1,4.7 4.7,4.7 2.6,0 4.7,-2.1 4.7,-4.7 0,-2.6 -2.1,-4.7 -4.7,-4.7 z m 0.8,3.9 c -0.7,0 -1.2,-0.5 -1.2,-1.2 0,-0.7 0.5,-1.2 1.2,-1.2 0.7,0 1.2,0.5 1.2,1.2 0,0.6 -0.5,1.2 -1.2,1.2 z"
       id="path5"
       inkscape:connector-curvature="0"
       style="fill:#fde910;fill-opacity:1" /><path
       d="M 68.9,41.4 C 68.9,31.9 62,24 53,22.3 l 0,-6.9 c 0,-0.1 0.6,-0.2 0.8,-0.5 0.5,-0.6 0.5,-1.5 -0.1,-2 -0.6,-0.5 -1.5,-0.5 -2,0.1 -0.5,0.6 -0.7,1.5 -0.1,2 0.2,0.2 0.5,0.3 0.5,0.3 l 0,6.7 c -0.8,-0.1 -1.6,-0.2 -2.5,-0.2 -0.7,0 -1.4,0 -2,0.1 -0.2,0 -0.3,0.1 -0.5,0.1 l 0,-6.8 c 0,-0.1 0.5,-0.2 0.7,-0.5 0.5,-0.6 0.4,-1.5 -0.2,-2 -0.6,-0.5 -1.6,-0.5 -2.1,0.1 -0.5,0.6 -0.6,1.5 0,2 0.2,0.2 0.6,0.3 0.6,0.3 l 0,6.9 c -9,1.7 -15.9,9.6 -15.9,19.1 0,8 4.9,14.9 11.8,17.9 l -2.8,6.6 0,0 c -0.2,0.1 -0.4,0.3 -0.5,0.6 -0.7,0.9 -0.3,1.1 -0.1,1.1 0.1,0.8 0.3,2 0.8,1.8 0,0 0.5,-0.2 0.2,-1 0.2,-0.1 0.4,-0.2 0.4,-0.2 1,-0.2 0.8,-1.8 0.8,-2 l 0,-0.2 0,0 0,0.2 2.5,-5.8 c -0.4,3 -1.1,6 -1.7,8.9 -0.6,1.9 0.4,4.9 2.4,7 l 0,1.4 c 0,3.1 0.3,5.6 0.3,5.6 l 0,0 C 41.6,83 39,85.2 39,87.9 l 0,0.4 c 1,0.4 2.4,0.7 5,0.7 2.6,0 5,-0.3 5,-0.7 l 0,-0.4 0,-1.4 C 48,85.3 47,81.8 47,78.7 L 47,78 c 1,0.2 1.8,0.3 2.5,0.4 0.7,0 1.5,-0.1 2.5,-0.4 l 0,0.7 c 0,3.1 -1,6.6 -2,7.8 l 0,1.4 0,0.4 c 0,0.4 2.4,0.7 5,0.7 2.6,0 5,-0.3 5,-0.7 l 0,-0.4 C 60,85.2 57.4,83 54.8,83 l 0,0 c 0,0 0.3,-2.5 0.3,-5.6 l 0,-1.4 c 2,-2.1 3,-5.1 2.5,-6.6 -0.7,-3.1 -1.3,-6.3 -1.7,-9.5 l 2.7,6.3 0,0.1 c 0,0.2 -0.2,1.8 0.8,1.9 0,0 0.2,0.2 0.3,0.3 -0.3,0.8 0.2,1 0.2,1 0.5,0.2 0.8,-1 0.8,-1.8 0.2,-0.1 0.6,-0.3 -0.1,-1.1 -0.1,-0.4 -0.3,-0.5 -0.5,-0.6 l 0,0 -2.8,-6.6 c 6.8,-3.2 11.6,-10 11.6,-18 z M 58.5,66 l 0,0 0,0 0,0 z m -9,-14.1 c -6.4,0 -11.6,-5.2 -11.6,-11.6 0,-6.4 5.2,-11.6 11.6,-11.6 6.4,0 11.6,5.2 11.6,11.6 0,6.5 -5.2,11.6 -11.6,11.6 z"
       id="path7"
       inkscape:connector-curvature="0"
       style="fill:#decc02;fill-opacity:1" /></g></svg>