<svg xmlns="http://www.w3.org/2000/svg" xmlns:xlink="http://www.w3.org/1999/xlink" version="1.1" id="&#1057;&#1083;&#1086;&#1081;_1" x="0px" y="0px" viewBox="5.0 -10.0 100.0 135.0" enable-background="new 0 0 100 100" xml:space="preserve" height="100px" width="100px">
<g>
	<path fill="none" stroke="#000000" stroke-width="4.843" stroke-miterlimit="10" d="M68.4,93.2H31.6c-1.8,0-3.5-1.6-3.9-4   L12.6,13.6c-0.7-3.4,1.3-6.8,3.9-6.8h66.9c2.7,0,4.6,3.3,3.9,6.8L72.3,89.2C71.9,91.5,70.3,93.2,68.4,93.2z"/>
	<path stroke="#000000" stroke-width="3.1544" stroke-miterlimit="10" d="M62.7,86.5H36.9c-1.3,0-2.4-1-2.8-2.4   c0,0-10.5-45.7-10.6-45.7c-0.3-1.4,0.4-3.9,2.2-4.1c1.2-0.1,3.3,2.2,4.4,2.8c3.5,1.7,7.7,1.9,11.2,0.2c2-1,3.9-2.5,6.1-2.9   c3.7-0.5,6.8,2.4,10.3,3.8c3.5,1.5,7.7,1.2,11.1-0.5c1.2-0.6,3.4-3.3,4.4-3.4c2-0.3,3,2.5,2.6,4L65.4,84.1   C65.1,85.5,64,86.5,62.7,86.5z"/>
</g>
<text x="0.0" y="117.5" font-size="5.0" font-weight="bold" font-family="Helvetica Neue, Helvetica, Arial-Unicode, Arial, Sans-serif" fill="#000000">Created by Roman Shlyakov</text><text x="0.0" y="122.5" font-size="5.0" font-weight="bold" font-family="Helvetica Neue, Helvetica, Arial-Unicode, Arial, Sans-serif" fill="#000000">from the Noun Project</text></svg>