<svg xmlns="http://www.w3.org/2000/svg" xmlns:xlink="http://www.w3.org/1999/xlink" version="1.1" id="Layer_1" x="0px" y="0px" width="100px" height="100px" viewBox="5.0 -10.0 100.0 135.0" enable-background="new 0 0 100 100" xml:space="preserve">
<path d="M87.437,73.204h4.994c0,0-6.56-10.016-25.903-8.023c7.649-8.731,7.317-22.062-1.008-30.387s-21.656-8.658-30.388-1.008  c1.993-19.344-8.023-25.902-8.023-25.902v4.993h-4.993v4.993h-4.994v4.994h-4.993v4.993H7.135c0,0,6.559,10.016,25.902,8.023  c-7.649,8.732-7.317,22.062,1.008,30.388s21.656,8.658,30.388,1.008c-1.992,19.344,8.023,25.903,8.023,25.903v-4.994h4.993v-4.992  h4.994v-4.994h4.992V73.204z M39.495,33.141c7.634-3.146,16.739-1.656,22.99,4.505c6.237,6.145,7.863,15.193,4.861,22.86  c-0.463,0.817-0.989,1.608-1.576,2.367c1.938-6.076-0.813-14.517-7.422-21.028c-6.62-6.522-15.118-9.147-21.166-7.104  C37.924,34.149,38.696,33.613,39.495,33.141z M36.465,35.345c4.203-0.284,11.471,3.683,18.162,10.276  c6.683,6.584,10.755,13.782,10.544,17.991c-0.216,0.254-0.439,0.503-0.67,0.748c-1.13-2.785-6.218-9.006-12.939-15.628  c-6.729-6.63-13.033-11.63-15.829-12.711C35.973,35.789,36.216,35.562,36.465,35.345z M60.954,67.364  c-7.686,3.287-16.925,1.835-23.247-4.396c-6.678-6.58-8.072-16.49-4.155-24.468c0.18-0.243,0.364-0.483,0.557-0.72  c-2.208,6.102,0.515,14.787,7.279,21.451c6.503,6.408,14.819,9.051,20.844,7.203C61.815,66.763,61.391,67.074,60.954,67.364z   M63.455,65.398c-4.226,0.179-11.398-3.771-18.009-10.284c-6.829-6.729-10.932-14.099-10.525-18.264  c0.084-0.092,0.172-0.182,0.259-0.272c1.013,2.713,6.16,9.034,12.994,15.768c6.625,6.527,12.837,11.475,15.697,12.657  C63.733,65.137,63.596,65.27,63.455,65.398z"/>
<text x="0.0" y="117.5" font-size="5.0" font-weight="bold" font-family="Helvetica Neue, Helvetica, Arial-Unicode, Arial, Sans-serif" fill="#000000">Created by Stephen Plaster</text><text x="0.0" y="122.5" font-size="5.0" font-weight="bold" font-family="Helvetica Neue, Helvetica, Arial-Unicode, Arial, Sans-serif" fill="#000000">from the Noun Project</text></svg>