<svg xmlns="http://www.w3.org/2000/svg" xmlns:xlink="http://www.w3.org/1999/xlink" version="1.1" id="Layer_1" x="0px" y="0px" viewBox="4.5 -9.0 90.0 121.5" enable-background="new 0 0 90 90" xml:space="preserve" height="100px" width="100px">
<path fill="#000000" d="M47.2,13.9l25.1,23.6c3.4,3.2,1.1,8.8-3.5,8.8l-50.2-0.1c-4.6,0-6.8-5.7-3.5-8.8l25.2-23.5  C42.3,12.1,45.3,12.1,47.2,13.9z M69,49.2v18.6c0,5.3-4.3,9.7-9.7,9.7H28.2c-5.3,0-9.7-4.3-9.7-9.7V49.1c0,0,0.1,0,0.1,0l50.2,0.1  C68.9,49.2,68.9,49.2,69,49.2z M33,57.5h-5.4v5.7H33V57.5z M33,51.5h-5.4v5.1H33V51.5z M39.3,57.5h-5.4v5.7h5.4V57.5z M39.3,51.5  h-5.4v5.1h5.4V51.5z"/>
<text x="0.0" y="105.75" font-size="4.5" font-weight="bold" font-family="Helvetica Neue, Helvetica, Arial-Unicode, Arial, Sans-serif" fill="#000000">Created by Tommy Lau</text><text x="0.0" y="110.25" font-size="4.5" font-weight="bold" font-family="Helvetica Neue, Helvetica, Arial-Unicode, Arial, Sans-serif" fill="#000000">from the Noun Project</text></svg>