<svg xmlns="http://www.w3.org/2000/svg" xmlns:xlink="http://www.w3.org/1999/xlink" version="1.1" x="0px" y="0px" width="100px" height="100px" viewBox="0 0 100 100" enable-background="new 0 0 100 100" xml:space="preserve">
<g id="Captions">
</g>
<g id="Your_Icon">
	<path fill-rule="evenodd" clip-rule="evenodd" fill="#000000" d="M50.2,58.43l41.366-8.59c1.758-0.156,3.343-1.749,3.503-4.615   l0.013,0.039c2.914-0.871,4.919-3.607,4.919-6.716c0-3.871-3.065-7.006-6.841-7.006c-3.771,0-6.837,3.135-6.837,7.006   c0,2.779,1.615,5.309,4.108,6.417l0.022-0.057c-0.477,0.472-0.953,0.957-2.065,0.801L46.065,41.73   c-1.112,0-1.594-0.325-1.905-0.957l-2.866-4.46c-0.16-0.472-0.797-0.632-1.272-0.792v-1.909l37.231-3.975   c0.792-2.07,0.792-3.026-0.481-4.937L44.953,28.2c-1.113,1.753-3.019,3.187-6.049,3.187c-3.018,0-5.088-1.749-5.884-3.022   L1.045,24.866c-1.117,1.272-1.433,2.861-0.48,4.771l37.227,3.975v1.909c-0.627,0-0.952,0.48-1.272,0.792l-1.905,3.026   c-0.16,0.481-0.952,1.273-2.39,0.637c-1.594-0.477-6.045-1.429-9.387-1.429c-3.499,0-7.954,0.632-10.34,2.065   c-2.226,1.589-4.295,4.932-4.295,10.184c0,4.455,1.594,8.595,2.866,10.179c1.745,2.23,4.767,4.455,7.152,4.455h3.026   c0.957,0,1.273,0.637,1.273,1.434v4.615c0,0.793-0.316,1.113-1.273,1.113H15.52c-0.953,0-1.745-0.32-2.862-1.754   c-0.477-0.472-1.438-0.312-1.749,0c-0.32,0.32-0.637,1.273,0,2.069c0.637,0.957,1.589,1.75,2.386,1.91   c0.792,0.315,1.589,0.48,2.386,0.48h33.729c0.792,0,1.749-0.32,2.386-0.48c0.48-0.316,1.272-0.793,2.069-1.59   c0.797-0.796,0.957-1.593,0.316-2.225c-0.628-0.637-1.594-0.477-2.226,0.315c-0.637,0.793-1.434,1.434-2.706,1.273h-4.615   c-0.473,0.16-0.953-0.48-0.953-0.957v-6.365C43.84,62.253,45.745,59.392,50.2,58.43 M16.477,56.681H30.63l3.823-10.815   c0.48-0.957,0.48-2.229-1.272-3.022c-1.745-0.641-6.365-1.749-10.82-1.749c-4.771,0-7.001,0.952-9.066,2.862   c-2.226,2.069-2.706,4.767-2.706,6.204c0,1.429,0.48,3.022,1.272,4.451C12.657,56.364,14.566,56.681,16.477,56.681 M41.134,71.636   v-5.092c0-0.792-0.797-1.113-1.429-1.113H26.339c-0.956,0-1.276,0.481-1.116,1.434v4.615c0,0.953,0.324,1.113,1.272,1.113h13.526   C40.657,72.753,41.134,72.272,41.134,71.636 M94.598,37.907l0.312,4.936l-0.005-0.025c1.736-0.706,2.871-2.399,2.871-4.27   c0-2.55-2.065-4.615-4.615-4.615c-2.546,0-4.616,2.065-4.616,4.615c0,1.671,0.909,3.208,2.369,4.026l0.021-0.052l1.593-4.771   C92.84,36.634,94.433,36.313,94.598,37.907"/>
</g>
</svg>