<svg xmlns="http://www.w3.org/2000/svg" xmlns:xlink="http://www.w3.org/1999/xlink" version="1.1" id="Glyphs_-_Outdoors" x="0px" y="0px" viewBox="2.0 -4.0 40.0 54.0" enable-background="new 0 0 40 40" xml:space="preserve" height="100px" width="100px">
<path id="Wigwam_1_" fill-rule="evenodd" clip-rule="evenodd" d="M14.8,20.1l2.7-2l2.7,1.9l2.7-2l2.7,1.9l0.3-0.2l-4.3-8.6l1-4  c0.1-0.3-0.1-0.5-0.4-0.6c-0.3-0.1-0.5,0.1-0.6,0.4l-0.5,2V6c0-0.5-0.4-1-1-1s-1,0.4-1,1v2.9l-0.5-2c-0.1-0.3-0.3-0.4-0.6-0.4  c-0.3,0.1-0.4,0.3-0.4,0.6l1,3.9l-4.4,8.7L14.8,20.1z M28.1,23.9l-2.4,1.8l-2.7-1.9l-2.7,2l-2.7-1.9l-2.7,2L12.1,24l-0.1,0L6.5,35  h11v-6l6,6h10L28.1,23.9z M17.5,21.4l2.7,1.9l2.7-2l2.7,1.9l1.5-1.2l-0.8-1.5l-0.7,0.6l-2.7-1.9l-2.7,2l-2.7-1.9l-2.7,2l-1-0.7  L13,22.2l1.8,1.3L17.5,21.4z"/>
<text x="0.0" y="47.0" font-size="2.0" font-weight="bold" font-family="Helvetica Neue, Helvetica, Arial-Unicode, Arial, Sans-serif" fill="#000000">Created by Hello Many</text><text x="0.0" y="49.0" font-size="2.0" font-weight="bold" font-family="Helvetica Neue, Helvetica, Arial-Unicode, Arial, Sans-serif" fill="#000000">from the Noun Project</text></svg>