<svg xmlns="http://www.w3.org/2000/svg" xmlns:xlink="http://www.w3.org/1999/xlink" version="1.1" id="Ebene_1" x="0px" y="0px" viewBox="5.0 -10.0 100.0 135.0" enable-background="new 0 0 100 100" xml:space="preserve" height="100px" width="100px">
<g>
	<path fill="#000000" d="M49.5,35.7c-2.6,0-4.7,2.1-4.7,4.7c0,2.6,2.1,4.7,4.7,4.7s4.7-2.1,4.7-4.7C54.2,37.8,52.1,35.7,49.5,35.7z    M50.3,39.6c-0.7,0-1.2-0.5-1.2-1.2c0-0.7,0.5-1.2,1.2-1.2c0.7,0,1.2,0.5,1.2,1.2C51.5,39,51,39.6,50.3,39.6z"/>
	<path fill="#000000" d="M68.9,41.4C68.9,31.9,62,24,53,22.3v-6.9c0-0.1,0.6-0.2,0.8-0.5c0.5-0.6,0.5-1.5-0.1-2   c-0.6-0.5-1.5-0.5-2,0.1c-0.5,0.6-0.7,1.5-0.1,2c0.2,0.2,0.5,0.3,0.5,0.3v6.7c-0.8-0.1-1.6-0.2-2.5-0.2c-0.7,0-1.4,0-2,0.1   c-0.2,0-0.3,0.1-0.5,0.1v-6.8c0-0.1,0.5-0.2,0.7-0.5c0.5-0.6,0.4-1.5-0.2-2c-0.6-0.5-1.6-0.5-2.1,0.1c-0.5,0.6-0.6,1.5,0,2   c0.2,0.2,0.6,0.3,0.6,0.3v6.9c-9,1.7-15.9,9.6-15.9,19.1c0,8,4.9,14.9,11.8,17.9l-2.8,6.6l0,0c-0.2,0.1-0.4,0.3-0.5,0.6   c-0.7,0.9-0.3,1.1-0.1,1.1c0.1,0.8,0.3,2,0.8,1.8c0,0,0.5-0.2,0.2-1c0.2-0.1,0.4-0.2,0.4-0.2c1-0.2,0.8-1.8,0.8-2l0-0.2h0l0,0.2   l2.5-5.8c-0.4,3-1.1,6-1.7,8.9C41,70.9,42,73.9,44,76v1.4c0,3.1,0.3,5.6,0.3,5.6h0c-2.7,0-5.3,2.2-5.3,4.9v0.4c1,0.4,2.4,0.7,5,0.7   s5-0.3,5-0.7v-0.4v-1.4c-1-1.2-2-4.7-2-7.8v-0.7c1,0.2,1.8,0.3,2.5,0.4c0.7,0,1.5-0.1,2.5-0.4v0.7c0,3.1-1,6.6-2,7.8v1.4v0.4   c0,0.4,2.4,0.7,5,0.7c2.6,0,5-0.3,5-0.7v-0.4c0-2.7-2.6-4.9-5.2-4.9h0c0,0,0.3-2.5,0.3-5.6V76c2-2.1,3-5.1,2.5-6.6   c-0.7-3.1-1.3-6.3-1.7-9.5l2.7,6.3l0,0.1c0,0.2-0.2,1.8,0.8,1.9c0,0,0.2,0.2,0.3,0.3c-0.3,0.8,0.2,1,0.2,1c0.5,0.2,0.8-1,0.8-1.8   c0.2-0.1,0.6-0.3-0.1-1.1c-0.1-0.4-0.3-0.5-0.5-0.6l0,0l-2.8-6.6C64.1,56.2,68.9,49.4,68.9,41.4z M58.5,66L58.5,66L58.5,66L58.5,66   z M49.5,51.9c-6.4,0-11.6-5.2-11.6-11.6c0-6.4,5.2-11.6,11.6-11.6c6.4,0,11.6,5.2,11.6,11.6C61.1,46.8,55.9,51.9,49.5,51.9z"/>
</g>
<text x="0.0" y="117.5" font-size="5.0" font-weight="bold" font-family="Helvetica Neue, Helvetica, Arial-Unicode, Arial, Sans-serif" fill="#000000">Created by Andr&#233; Schulz</text><text x="0.0" y="122.5" font-size="5.0" font-weight="bold" font-family="Helvetica Neue, Helvetica, Arial-Unicode, Arial, Sans-serif" fill="#000000">from the Noun Project</text></svg>