<svg xmlns="http://www.w3.org/2000/svg" xmlns:xlink="http://www.w3.org/1999/xlink" version="1.1" id="Layer_1" x="0px" y="0px" width="100px" height="72.241px" viewBox="4.998 9.7069 100.0 97.52535" enable-background="new -0.002 16.931 100 72.241" xml:space="preserve">
<g id="Your_Icon">
	<path d="M98.55,26.94c-0.333-0.167-2.786-0.749-4.823-1.163c-2.037-0.415-1.871-1.623-2.245-2.289   c-0.374-0.666-0.941-1.661-2.272-2.051c-0.739-0.213-2.082-0.593-3.638-0.799c-0.106-0.081-0.225-0.154-0.354-0.209   c-0.521-0.226-0.823-0.55-2.322-0.536c-1.368,0.012-2.755,1.005-3.029,1.429c0,0,0.013,0.011,0.015,0.012   c-1.986,1.142-3.293,3.263-3.949,3.986c-0.832,0.913-3.16,3.825-5.488,5.821c-2.328,1.993-3.494,3.407-5.489,4.24   c-1.992,0.833-4.073,0.666-5.987,1.514c-1.911,0.849-4.739,1.148-8.646,0.649c-3.908-0.501-10.727-0.917-14.469-1.247   c-3.744-0.335-8.646,1.173-8.898,1.247c-0.68,0.197-1.053,0.026-2.662-0.527c-1.607-0.556-8.481-2.44-12.196-4.047   c-3.713-1.607-6.208-6.319-7.982-10.423c-0.924-2.131-1.95-3.559-2.722-4.439c-0.716-0.814-1.021-1.279-1.215-1.159   c-0.194,0.119-0.24,0.241-0.082,1.526c0.123,0.993,0.022,1.511,0.41,4.414c0.887,6.654,5.271,11.192,7.822,13.13   c2.551,1.942,13.307,5.437,13.804,5.712c0.499,0.277,0.555,0.887,0.444,1.72c-0.111,0.831-0.444,1.219-0.887,1.608   c-0.444,0.386-1.274,3.214-1.441,4.268c-0.166,1.05,0.222,4.766,0.776,5.504c0.555,0.743,0.887,3.2,1.164,4.639   c0.277,1.439,0.61,4.324,0.057,4.988c-0.556,0.665-0.444,1.055-0.942,1.499c-0.5,0.444-1.289,3.562-1.528,4.805   c-0.242,1.241-0.247,1.735-0.247,1.735s-0.499,0.777-0.998,1.22c-0.498,0.444-0.333,0.776-0.277,1.109   c0.056,0.332-0.054,1.83,0,2.327c0.056,0.499,0.555,1.662,0.611,2.327c0.055,0.665,0.831,4.712,0.942,5.214   c0.11,0.498,0.611,1.661,0.611,2.16c0,0.497,0.941,1.385,1.664,1.886c0.72,0.499,1.772,0.499,2.826,0.331   c1.053-0.168,0.832-0.498,1.332-0.773c0.499-0.28,0.555-0.613,0.387-1.11c-0.166-0.5-1.496-1.72-2.218-1.773   c-0.72-0.056-1.519-0.556-1.783-0.989c-0.252-0.418,0.07-2.448,0.07-2.448s0.882,0.331,1.658,0.221   c0.776-0.11,0.832-0.499,1.275-0.555s0.555-0.497,0.665-0.996c0.111-0.501-0.166-1.109-0.941-1.389   c-0.776-0.276-1.831-0.33-2.386-0.664c-0.555-0.332-0.11-1.884,0-2.437c0.11-0.556,1.774-3.606,2.772-4.604   c0.999-1,2.329-2.494,3.105-3.992c0.776-1.497,1.607-1.773,2.938-4.879c1.331-3.105,2.495-6.374,2.826-6.763   c0.333-0.39,3.771,0.444,6.543,0.557c2.771,0.108,7.262,1.606,12.307,3.491c5.044,1.888,10.866,2.161,11.475,2.329   c0.611,0.164,0.457,0.119,0.657,0.578c0.194,0.443,0.063,1.915-0.046,2.523c-0.112,0.61,0.331,1.275,0.277,1.995   c-0.056,0.725,0.444,6.487,0.61,8.764c0.166,2.271,0.108,4.821,0.666,5.374c0.552,0.556,0.884,2.055,1.164,2.773   c0.275,0.72,0.387,2.051,2.05,3.159c1.664,1.109,2.997,0.39,4.438,0.168c1.44-0.222,1.438-0.832,0.828-1.941   c-0.609-1.108-2.161-1.498-2.771-1.773c-0.61-0.276-1.164-1.996-1.164-1.996s1.164,0.112,1.663,0   c0.498-0.11,0.665-0.498,1.054-0.332c0.388,0.168,0.83-0.332,0.998-0.718c0.165-0.391,0-1.109-0.223-1.5   c-0.222-0.388-1.164-1.054-1.663-1.163c-0.497-0.112-1.441-0.167-1.718-0.501c-0.277-0.331-0.724-1.938-0.777-2.381   c-0.056-0.444,0.166-1.888,0.276-2.883c0.111-1,0.501-5.712,0.723-6.931c0.221-1.218,0.775-2.439,1.108-3.271   c0.332-0.83,1.052-1.884,1.496-2.215c0.444-0.335,1.886-2.108,2.606-3.606c0.72-1.494,1.387-3.102,1.607-3.381   c0.221-0.278,0.887-0.998,1.219-2.16c0.332-1.167-0.124-2.691,0.082-3.188c0.21-0.499,1.083-1.331,1.79-2.163   c0.706-0.83,1.082-1.704,1.621-2.578c0.539-0.871,1.08-2.993,1.206-3.448c0.124-0.459,1.496-2.372,2.122-3.536   c0.621-1.163,2.325-1.621,3.614-1.163c1.288,0.457,2.788,0.251,3.119,0c0.333-0.251,1.361-0.575,1.66-0.536   c0.482,0.063,0.792,0.039,1.623-0.422c0.831-0.456,1.955-2.159,2.328-2.867c0.374-0.707,0.208-1.414,0.208-1.414   s0.309,0.181,0.584-1.057C100.218,27.368,98.882,27.108,98.55,26.94z"/>
</g>
<text x="-0.002" y="101.814175" font-size="3.61205" font-weight="bold" font-family="Helvetica Neue, Helvetica, Arial-Unicode, Arial, Sans-serif" fill="#000000">Created by Daniel Schroeder</text><text x="-0.002" y="105.426225" font-size="3.61205" font-weight="bold" font-family="Helvetica Neue, Helvetica, Arial-Unicode, Arial, Sans-serif" fill="#000000">from the Noun Project</text></svg>