<svg xmlns="http://www.w3.org/2000/svg" xmlns:xlink="http://www.w3.org/1999/xlink" xmlns:sketch="http://www.bohemiancoding.com/sketch/ns" width="26px" height="33px" viewBox="1.3 -3.3 26.0 44.55" version="1.1">
    <title>strawberry</title>
    <description>Created with Sketch (http://www.bohemiancoding.com/sketch)</description>
    <defs/>
    <g id="Fruits" stroke="none" stroke-width="1" fill="none" fill-rule="evenodd" sketch:type="MSPage">
        <path d="M23.6346159,10.9823941 C25.1098527,12.8950199 25.3057438,15.5510266 25.3057438,17.5 C25.3057438,22.1944206 17.3557316,32.9999981 12.8057438,33 C8.25575599,33.0000017 0.305743781,22.1944206 0.305743781,17.5 C0.305743781,15.3746336 0.861260729,12.7041065 2.4440393,10.8619378 C3.14628099,10.5661378 5.22308363,9.73657236 6.42765149,9.73657223 C7.8935727,9.73657223 8.89990052,10.0473632 8.89990052,10.0473632 C8.89990052,10.0473632 7.91235186,10.6187408 6.74999818,12.4587473 C5.58764443,14.2987539 5.55663904,16.2242026 5.55663904,16.2242026 C5.55663904,16.2242026 6.80822616,14.9404729 9.30956849,14.6587729 C11.8109108,14.3770728 12.5671373,12.4587473 12.5671373,12.4587473 C12.5671373,12.4587473 12.9270512,13.4016509 14.5280748,14.3369956 C16.1290985,15.2723403 19.0069977,16.2242026 19.0069977,16.2242026 C19.0069977,16.2242026 18.3716141,13.5045769 17.8764635,11.983968 C17.3813128,10.4633591 16.681151,10.2918294 16.681151,10.2918294 C16.681151,10.2918294 17.7127272,10.071045 19.0069977,10.2918294 C19.9718172,10.4564141 22.4403972,10.8120215 23.6346159,10.9823941 L23.6346159,10.9823941 Z M12.8057438,24 C13.0818862,24 13.3057438,23.7761424 13.3057438,23.5 C13.3057438,23.2238576 13.0818862,23 12.8057438,23 C12.5296014,23 12.3057438,23.2238576 12.3057438,23.5 C12.3057438,23.7761424 12.5296014,24 12.8057438,24 Z M19.8057438,16 C20.0818862,16 20.3057438,15.7761424 20.3057438,15.5 C20.3057438,15.2238576 20.0818862,15 19.8057438,15 C19.5296014,15 19.3057438,15.2238576 19.3057438,15.5 C19.3057438,15.7761424 19.5296014,16 19.8057438,16 Z M16.8057438,19 C17.0818862,19 17.3057438,18.7761424 17.3057438,18.5 C17.3057438,18.2238576 17.0818862,18 16.8057438,18 C16.5296014,18 16.3057438,18.2238576 16.3057438,18.5 C16.3057438,18.7761424 16.5296014,19 16.8057438,19 Z M8.80574378,28 C9.08188617,28 9.30574378,27.7761424 9.30574378,27.5 C9.30574378,27.2238576 9.08188617,27 8.80574378,27 C8.52960139,27 8.30574378,27.2238576 8.30574378,27.5 C8.30574378,27.7761424 8.52960139,28 8.80574378,28 Z M18.8057438,23 C19.0818862,23 19.3057438,22.7761424 19.3057438,22.5 C19.3057438,22.2238576 19.0818862,22 18.8057438,22 C18.5296014,22 18.3057438,22.2238576 18.3057438,22.5 C18.3057438,22.7761424 18.5296014,23 18.8057438,23 Z M14.8057438,27 C15.0818862,27 15.3057438,26.7761424 15.3057438,26.5 C15.3057438,26.2238576 15.0818862,26 14.8057438,26 C14.5296014,26 14.3057438,26.2238576 14.3057438,26.5 C14.3057438,26.7761424 14.5296014,27 14.8057438,27 Z M13.8057438,30 C14.0818862,30 14.3057438,29.7761424 14.3057438,29.5 C14.3057438,29.2238576 14.0818862,29 13.8057438,29 C13.5296014,29 13.3057438,29.2238576 13.3057438,29.5 C13.3057438,29.7761424 13.5296014,30 13.8057438,30 Z M5.80574378,22 C6.08188617,22 6.30574378,21.7761424 6.30574378,21.5 C6.30574378,21.2238576 6.08188617,21 5.80574378,21 C5.52960139,21 5.30574378,21.2238576 5.30574378,21.5 C5.30574378,21.7761424 5.52960139,22 5.80574378,22 Z M6.80574378,17 C7.08188617,17 7.30574378,16.7761424 7.30574378,16.5 C7.30574378,16.2238576 7.08188617,16 6.80574378,16 C6.52960139,16 6.30574378,16.2238576 6.30574378,16.5 C6.30574378,16.7761424 6.52960139,17 6.80574378,17 Z M11.8057438,15 C12.0818862,15 12.3057438,14.7761424 12.3057438,14.5 C12.3057438,14.2238576 12.0818862,14 11.8057438,14 C11.5296014,14 11.3057438,14.2238576 11.3057438,14.5 C11.3057438,14.7761424 11.5296014,15 11.8057438,15 Z M22.8057438,14 C23.0818862,14 23.3057438,13.7761424 23.3057438,13.5 C23.3057438,13.2238576 23.0818862,13 22.8057438,13 C22.5296014,13 22.3057438,13.2238576 22.3057438,13.5 C22.3057438,13.7761424 22.5296014,14 22.8057438,14 Z M14.8057438,16 C15.0818862,16 15.3057438,15.7761424 15.3057438,15.5 C15.3057438,15.2238576 15.0818862,15 14.8057438,15 C14.5296014,15 14.3057438,15.2238576 14.3057438,15.5 C14.3057438,15.7761424 14.5296014,16 14.8057438,16 Z M2.80574378,14 C3.08188617,14 3.30574378,13.7761424 3.30574378,13.5 C3.30574378,13.2238576 3.08188617,13 2.80574378,13 C2.52960139,13 2.30574378,13.2238576 2.30574378,13.5 C2.30574378,13.7761424 2.52960139,14 2.80574378,14 Z M3.80574378,18 C4.08188617,18 4.30574378,17.7761424 4.30574378,17.5 C4.30574378,17.2238576 4.08188617,17 3.80574378,17 C3.52960139,17 3.30574378,17.2238576 3.30574378,17.5 C3.30574378,17.7761424 3.52960139,18 3.80574378,18 Z M20.8057438,18 C21.0818862,18 21.3057438,17.7761424 21.3057438,17.5 C21.3057438,17.2238576 21.0818862,17 20.8057438,17 C20.5296014,17 20.3057438,17.2238576 20.3057438,17.5 C20.3057438,17.7761424 20.5296014,18 20.8057438,18 Z M23.8057438,19 C24.0818862,19 24.3057438,18.7761424 24.3057438,18.5 C24.3057438,18.2238576 24.0818862,18 23.8057438,18 C23.5296014,18 23.3057438,18.2238576 23.3057438,18.5 C23.3057438,18.7761424 23.5296014,19 23.8057438,19 Z M10.8057438,18 C11.0818862,18 11.3057438,17.7761424 11.3057438,17.5 C11.3057438,17.2238576 11.0818862,17 10.8057438,17 C10.5296014,17 10.3057438,17.2238576 10.3057438,17.5 C10.3057438,17.7761424 10.5296014,18 10.8057438,18 Z M18.8057438,26 C19.0818862,26 19.3057438,25.7761424 19.3057438,25.5 C19.3057438,25.2238576 19.0818862,25 18.8057438,25 C18.5296014,25 18.3057438,25.2238576 18.3057438,25.5 C18.3057438,25.7761424 18.5296014,26 18.8057438,26 Z M13.8057438,21 C14.0818862,21 14.3057438,20.7761424 14.3057438,20.5 C14.3057438,20.2238576 14.0818862,20 13.8057438,20 C13.5296014,20 13.3057438,20.2238576 13.3057438,20.5 C13.3057438,20.7761424 13.5296014,21 13.8057438,21 Z M15.1439438,0.365631065 C14.758023,0.634765542 12.0496822,8.54014011 12.0496822,8.54014011 C12.0496822,8.54014011 10.5798547,7.69329163 8.02907344,7.6932921 C5.47829219,7.69329238 2.83120176,10.4323816 2.83120176,10.4323816 C2.83120176,10.4323816 5.09723103,9.37540448 6.56315224,9.37540432 C8.02907344,9.37540432 9.63704273,9.91231152 9.63704273,9.91231152 C9.63704273,9.91231152 8.4252212,10.7293872 7.4941868,12.0066003 C6.56315228,13.2838134 5.97369415,15.4907086 5.97369415,15.4907086 C5.97369415,15.4907086 6.92085664,14.4622419 9.42219898,14.180542 C11.9235413,13.8988418 12.5839294,11.5010121 12.5839294,11.5010121 C12.5839294,11.5010121 13.0340571,12.9634971 14.6350807,13.8988418 C16.2361044,14.8341865 18.4397919,15.5692267 18.4397919,15.5692267 C18.4397919,15.5692267 17.9947256,13.6958513 17.4995751,12.1752424 C17.0044244,10.6546335 16.091885,10.1531515 16.091885,10.1531515 C16.091885,10.1531515 17.4790865,9.67147156 18.8884482,9.91231152 C20.2978098,10.1531515 23.6255182,10.6100483 23.6255182,10.6100483 C23.6255182,10.6100483 21.3252749,8.25700422 18.6474737,7.96742865 C15.9696726,7.67785328 13.5551331,8.54014011 13.5551331,8.54014011 C13.5551331,8.54014011 13.2283604,7.26245113 14.3963196,4.6643066 C15.5642789,2.0661621 15.9626038,1.82238766 15.9626038,1.35040285 C15.9626037,0.878418049 15.5298645,0.0964965731 15.1439438,0.365631065 Z" id="strawberry" fill="#000000" sketch:type="MSShapeGroup"/>
    </g>
<text x="0.0" y="38.775" font-size="1.65" font-weight="bold" font-family="Helvetica Neue, Helvetica, Arial-Unicode, Arial, Sans-serif" fill="#000000">Created by Pham Thi Dieu Linh</text><text x="0.0" y="40.425" font-size="1.65" font-weight="bold" font-family="Helvetica Neue, Helvetica, Arial-Unicode, Arial, Sans-serif" fill="#000000">from the Noun Project</text></svg>