<svg xmlns="http://www.w3.org/2000/svg" xmlns:xlink="http://www.w3.org/1999/xlink" version="1.1" id="Layer_1" x="0px" y="0px" width="93.953px" height="100px" viewBox="8.67165 -9.776 93.953 135.0" enable-background="new 3.974 0.224 93.953 100" xml:space="preserve">
<g id="Your_Icon">
	<path d="M4.128,22.292c0.167-1.373,1.26-2.294,3.277-2.757l1.138,0.135c1.347,0.168,2.301,1.222,2.86,3.158l7.072,2.603   c1.364-3.63,3.447-6.445,6.245-8.444c2.393-1.638,5.234-2.639,8.512-3.008l0.016-0.129l-1.717-6.309l-0.219-0.026   c-2.325-0.644-3.368-1.945-3.127-3.901l0.086-0.704c0.161-1.313,1.174-2.196,3.042-2.653l0.806-0.033l0.523,0.066   c1.52,0.188,2.477,1.356,2.863,3.511l-0.069,0.569c-0.097,0.792-0.538,1.612-1.328,2.465l1.957,7.271l1.227,0.151   c4.824,0.593,8.818,3.458,11.986,8.592c0.577,1.11,0.891,1.937,0.944,2.477c5.204-1.32,9.898-1.725,14.077-1.212l2.017,0.251   c8.535,1.047,16.138,5.227,22.808,12.546c6.952,8.625,9.789,18.157,8.504,28.594l-0.079,0.658   c-1.091,8.887-4.979,16.615-11.656,23.183l-0.135-0.018L42.79,40.527l-0.017,0.13c16.236,23.415,28.433,41.293,36.591,53.63   l-0.017,0.133c-3.64,2.31-7.146,3.812-10.523,4.495c-4.574,1.246-9.04,1.603-13.393,1.069l-1.755-0.218   c-9.266-1.137-17.351-5.867-24.249-14.194c-6.051-8.483-8.492-17.48-7.326-26.981l0.125-1.007c0.479-3.919,1.74-8.022,3.78-12.309   c-3.33-1.863-5.841-4.859-7.531-8.983c-0.801-2.651-1.023-5.438-0.664-8.358l-0.09-0.013l-7.072-2.559   c-0.943,1.16-2.104,1.652-3.477,1.486c-1.724-0.215-2.791-1.323-3.198-3.331L4.128,22.292z"/>
	<path stroke="#FFFFFF" stroke-width="4" stroke-miterlimit="3.8637" d="M84.743,71.848c2.57,0.317,4.51-0.96,5.813-3.826   l0.148-1.227c0.289-2.369-0.959-4.26-3.754-5.669l-0.867-0.197l-0.879-0.106c-2.219-0.272-3.996,0.903-5.327,3.53l-0.267,1.08   c-0.308,2.483,0.888,4.485,3.581,6.002L84.743,71.848z"/>
	<path stroke="#FFFFFF" stroke-width="4" stroke-miterlimit="3.8637" d="M78.318,50.229c2.396,0.292,4.247-0.888,5.555-3.549   l0.222-1.083c0.329-2.691-0.936-4.728-3.789-6.119l-1.209-0.282c-2.637-0.325-4.543,0.837-5.728,3.48L73.099,43.8l-0.01,0.089   c-0.298,2.425,0.786,4.338,3.256,5.742C76.787,49.923,77.443,50.123,78.318,50.229z"/>
	<path stroke="#FFFFFF" stroke-width="4" stroke-miterlimit="3.8637" d="M60.777,94.497c2.688,0.33,4.604-0.903,5.753-3.699   l0.237-0.859c0.337-2.721-0.96-4.763-3.875-6.132l-1.345-0.296c-2.427-0.301-4.276,0.869-5.549,3.5l-0.198,0.911l-0.041,0.307   c-0.344,2.81,1.067,4.863,4.229,6.171L60.777,94.497z"/>
	<path stroke="#FFFFFF" stroke-width="4" stroke-miterlimit="3.8637" d="M57.002,41.157c2.367,0.291,4.215-0.848,5.536-3.414   l0.211-0.998l0.068-0.571c0.305-2.456-0.971-4.376-3.829-5.767l-1.08-0.267l-0.131-0.016c-2.192-0.267-3.912,0.544-5.152,2.44   c-0.479,0.77-0.763,1.492-0.847,2.166c-0.33,2.688,0.966,4.731,3.878,6.128L57.002,41.157z"/>
	<path stroke="#FFFFFF" stroke-width="4" stroke-miterlimit="3.8637" d="M40.447,83.544c2.629,0.324,4.598-0.843,5.904-3.501   l0.241-1.221c0.304-2.484-0.851-4.436-3.468-5.851c-0.273-0.184-0.673-0.308-1.201-0.374l-0.57-0.07   c-2.368-0.288-4.161,0.782-5.377,3.215c-0.187,0.304-0.317,0.779-0.397,1.418c-0.327,2.661,0.896,4.649,3.671,5.97L40.447,83.544z"/>
	<path stroke="#FFFFFF" stroke-width="4" stroke-miterlimit="3.8637" d="M35.508,61.042l0.791,0.098   c2.31,0.282,4.081-0.851,5.311-3.4l0.229-1.127l0.027-0.222c0.313-2.543-0.888-4.501-3.597-5.871l-1.287-0.38   c-2.692-0.33-4.652,0.898-5.886,3.684l-0.165,1.356c-0.291,2.367,0.947,4.255,3.714,5.665L35.508,61.042z"/>
</g>
<text x="3.974" y="117.724" font-size="5.0" font-weight="bold" font-family="Helvetica Neue, Helvetica, Arial-Unicode, Arial, Sans-serif" fill="#000000">Created by Tiago Rodrigues</text><text x="3.974" y="122.724" font-size="5.0" font-weight="bold" font-family="Helvetica Neue, Helvetica, Arial-Unicode, Arial, Sans-serif" fill="#000000">from the Noun Project</text></svg>