<svg xmlns="http://www.w3.org/2000/svg" xmlns:xlink="http://www.w3.org/1999/xlink" version="1.1" id="Layer_1" x="0px" y="0px" width="100px" height="100px" viewBox="5.0 -10.0 100.0 135.0" enable-background="new 0 0 100 100" xml:space="preserve">
<path d="M71.624,32.16l4.62,0.356l-0.076,0.997l-4.544-0.35v0.435l3.448,1.8l-0.463,0.887l-2.985-1.558v0.987L58.875,35.44  l1.118,13.709h-6.508h-2.793V32.566l3.753-3.365h17.179v1.252l5.739-0.229l0.039,0.999l-5.778,0.23V32.16z M41.48,35.44  l-1.118,13.709h7.84h1.49V32.566l-3.753-3.365H28.731v1.151l-3.814-0.586l-0.152,0.988l3.967,0.609v1.055l-5.644,0.407l0.072,0.997  l5.571-0.402v0.492L25.303,34.6l0.195,0.98l3.233-0.646v0.779L41.48,35.44z M61.536,72.986L59,50h-5.515h-5.283h-6.661L38.16,71.384  l1.209,0.33l-1.229,3.617l0.947,0.321l1.248-3.674l0.433,0.118L39.781,77.2l0.982,0.189l0.973-5.03l0.625,0.17l-0.562,3.826  l0.99,0.146l0.545-3.707l1.625,0.443l3.733-12.725v26.415h3V61.512l3.105,12.441l1.521-0.218l0.389,2.979l0.992-0.129l-0.391-2.992  l0.452-0.065l1.069,3.969l0.965-0.26l-1.037-3.853l0.546-0.078l1.354,3.302l0.926-0.379l-1.259-3.069L61.536,72.986z M40.506,25.093  l3.226-1.785l-2.464,0.435l-0.312-1.766l3.325-0.587l-0.256-5.317l9.864-1.739l1.579,5.083l3.322-0.586l0.312,1.766l-3.304,0.583  c0.033,0.142,0.067,0.282,0.093,0.428l2.96,0.769L58.6,23.343l-2.602-0.676c0.005,0.113,0.015,0.225,0.015,0.339  c0,2.721-1.339,5.072-3.273,6.195c-0.771,0.447-1.633,0.706-2.547,0.706s-1.776-0.258-2.547-0.706  c-1.36-0.789-2.421-2.186-2.934-3.893l-0.958,0.967l-0.711-0.704l1.415-1.428c-0.004-0.029-0.008-0.059-0.012-0.089l-3.456,1.913  L40.506,25.093z M54.234,22.208l-1.688-0.438l0.005-0.019l-0.521,0.092l1.86,2.376l-0.787,0.616l-2.188-2.795l-2.654,0.468  l-0.246,2.603l-0.996-0.094l0.213-2.251l-1.077,1.087c0.323,2.456,2.004,4.34,4.038,4.34c2.264,0,4.105-2.327,4.105-5.187  C54.298,22.733,54.267,22.47,54.234,22.208z"/>
<text x="0.0" y="117.5" font-size="5.0" font-weight="bold" font-family="Helvetica Neue, Helvetica, Arial-Unicode, Arial, Sans-serif" fill="#000000">Created by Iain Hector</text><text x="0.0" y="122.5" font-size="5.0" font-weight="bold" font-family="Helvetica Neue, Helvetica, Arial-Unicode, Arial, Sans-serif" fill="#000000">from the Noun Project</text></svg>