<svg xmlns="http://www.w3.org/2000/svg" xmlns:xlink="http://www.w3.org/1999/xlink" version="1.1" x="0px" y="0px" viewBox="5.0 -10.0 100.0 135.0" enable-background="new 0 0 100 100" xml:space="preserve" height="100px" width="100px">
<g id="Layer_1">
</g>
<g id="Layer_2">
	<path d="M73.2,28.3C73.2,15.4,62.8,5,50,5S26.8,15.4,26.8,28.3c0,12.1,9.3,22.1,21.2,23.1v41c0,1.1,0.9,2.1,2.1,2.1   s2.1-0.9,2.1-2.1v-41C63.9,50.4,73.2,40.4,73.2,28.3z M64.4,12.1c0.3,0.3,0.6,0.6,0.9,0.9c2,2,3.6,4.3,4.6,6.9   c0.3,0.7,0.6,1.4,0.8,2.2c-1.1-2.1-2.7-3.9-4.9-5.1c-6.2-3.6-14.3-1.2-18.1,5.3c-0.7,1.2-1.2,2.4-1.5,3.6   c-2.2-4.2,0.4-10.1,5.8-13.2C56.4,10.1,61.2,10,64.4,12.1z M43.3,7.7C45.4,7,47.7,6.6,50,6.6c1.8,0,3.6,0.2,5.4,0.7   c-2.5-0.2-5.1,0.3-7.4,1.6c-6.2,3.6-8.3,11.8-4.5,18.3c0.7,1.2,1.5,2.2,2.4,3.1c-4.8-0.2-8.6-5.4-8.6-11.6   C37.3,13.6,39.8,9.3,43.3,7.7z M30.1,19.9c1-2.4,2.4-4.6,4.2-6.4c-1.4,2-2.1,4.4-2.1,7c0,7.2,6.1,13,13.6,13c1.3,0,2.6-0.2,3.9-0.5   c-2.6,4-8.9,4.7-14.4,1.6c-4.1-2.4-6.6-6.4-6.6-10C28.9,23,29.4,21.4,30.1,19.9z M36.6,45.3c-0.7-0.5-1.3-1.1-1.9-1.7   c-2-2-3.6-4.3-4.6-6.9c-0.2-0.5-0.4-1-0.6-1.6c1.1,1.9,2.7,3.6,4.7,4.8c6.2,3.6,14.3,1.2,18.1-5.3c0.7-1.2,1.2-2.4,1.5-3.6   c2.2,4.2-0.4,10.1-5.8,13.2C44,46.5,39.7,46.8,36.6,45.3z M58,48.4c-2.5,1-5.2,1.5-8,1.5c-1.3,0-2.7-0.1-4-0.4c2.1,0,4.1-0.6,6-1.7   c6.2-3.6,8.3-11.8,4.5-18.3c-0.7-1.2-1.5-2.2-2.4-3.1c4.8,0.2,8.6,5.4,8.6,11.6C62.7,42.6,60.8,46.5,58,48.4z M54.3,23.3   c-1.3,0-2.6,0.2-3.9,0.5c2.6-4,8.9-4.7,14.4-1.6c4,2.3,6.5,6.2,6.6,9.7c-0.3,1.6-0.7,3.2-1.4,4.7c-0.9,2.2-2.2,4.1-3.7,5.9   c1-1.8,1.6-4,1.6-6.2C67.9,29.2,61.8,23.3,54.3,23.3z"/>
</g>
<text x="0.0" y="117.5" font-size="5.0" font-weight="bold" font-family="Helvetica Neue, Helvetica, Arial-Unicode, Arial, Sans-serif" fill="#000000">Created by B Barrett</text><text x="0.0" y="122.5" font-size="5.0" font-weight="bold" font-family="Helvetica Neue, Helvetica, Arial-Unicode, Arial, Sans-serif" fill="#000000">from the Noun Project</text></svg>