<svg xmlns="http://www.w3.org/2000/svg" xmlns:xlink="http://www.w3.org/1999/xlink" version="1.1" id="Your_Icon" x="0px" y="0px" width="100px" height="100px" viewBox="5.0 -10.0 100.0 135.0" enable-background="new 0 0 100 100" xml:space="preserve">
<g>
	<path d="M56.476,94.203c0,0,7.53-8.492,8.999-10.481c1.098-1.486,1.069-1.857,1.069-3.49c0-1.634-4.448-54.494-4.804-58.044   s-0.958-3.528-2.068-3.957c-0.555-0.214-2.477-0.732-4.4-0.732c-1.923,0-3.845,0.517-4.4,0.732   c-1.11,0.429-1.711,0.407-2.068,3.957s-4.804,56.41-4.804,58.044c0,1.634-0.029,2.004,1.069,3.49   c1.469,1.989,8.999,10.481,8.999,10.481s0.441,0.544,1.204,0.544C56.035,94.747,56.476,94.203,56.476,94.203z"/>
	<g>
		<path d="M48.832,21.924c0.36-3.284,0.959-3.275,2.04-3.693c0.555-0.214,2.477-0.732,4.4-0.732c1.923,0,3.845,0.517,4.4,0.732    c1.11,0.429,1.711,0.407,2.068,3.957s4.804,56.41,4.804,58.044s0.029,2.004-1.069,3.49c-1.469,1.989-8.999,10.481-8.999,10.481    s-0.441,0.544-1.204,0.544c-0.763,0-1.204-0.544-1.204-0.544s-7.53-8.492-8.999-10.481c-1.098-1.486-1.069-1.857-1.069-3.49    c0-0.951,1.507-19.258,2.837-35.094"/>
	</g>
</g>
<path d="M55.581,15.172c3.124,0,5.953,1.292,5.953,1.292c0.549-0.691,0.806-1.927,0.806-1.927s0.77-3.353,1.182-5.78  c0.412-2.427-1.297-2.579-1.297-2.579c-2.883-0.837-6.871-0.925-6.871-0.925s-3.988,0.087-6.871,0.925c0,0-1.709,0.152-1.297,2.579  c0.412,2.427,1.182,5.78,1.182,5.78s0.258,1.236,0.806,1.927c0,0,2.829-1.292,5.953-1.292H55.581z"/>
<path d="M33.456,52.158c0.174,1.045,1.398,5.752,1.398,5.752s0.062,0.294,0.354,0.442c0.291,0.148,0.566,0.026,0.566,0.026  s4.527-1.778,5.474-2.251l3.123-6.14c0.752-8.989,1.504-17.842,1.963-23.15L33.456,52.158z"/>
<text x="0.0" y="117.5" font-size="5.0" font-weight="bold" font-family="Helvetica Neue, Helvetica, Arial-Unicode, Arial, Sans-serif" fill="#000000">Created by Laurent Canivet</text><text x="0.0" y="122.5" font-size="5.0" font-weight="bold" font-family="Helvetica Neue, Helvetica, Arial-Unicode, Arial, Sans-serif" fill="#000000">from the Noun Project</text></svg>