<svg xmlns="http://www.w3.org/2000/svg" xmlns:xlink="http://www.w3.org/1999/xlink" version="1.1" id="Capa_1" x="0px" y="0px" width="100px" height="100px" viewBox="5.0 -10.0 100.0 135.0" enable-background="new 0 0 100 100" xml:space="preserve">
<g id="Capa_25">
	<g>
		<path d="M52.419,58.061c2.701,2.703,4.19,6.312,4.19,10.16c0,3.85-1.489,7.459-4.19,10.161c-2.877,2.876-4.461,6.714-4.461,10.81    c0,4.095,1.584,7.935,4.461,10.81l0.647-0.647c-2.703-2.703-4.191-6.312-4.191-10.16c0-3.852,1.489-7.459,4.191-10.162    c2.877-2.875,4.459-6.713,4.459-10.809s-1.582-7.935-4.459-10.81L52.419,58.061z"/>
		<path d="M49.999,0C38.418,0,29.03,10.641,29.03,23.767c0,13.127,9.388,32.372,20.969,32.372c11.583,0,20.972-19.244,20.972-32.372    C70.971,10.641,61.582,0,49.999,0z M37.242,21.278c-1.019,4.598-0.817,10.436,0.496,15.751c-2.178-4.452-3.486-9.56-3.486-13.819    c0-9.958,7.122-18.028,15.906-18.028c1.063,0,2.101,0.121,3.105,0.346C45.802,6.43,39.154,12.631,37.242,21.278z"/>
		<path d="M49.454,60.854h1.657c1.423-0.028,1.752-0.726,0.99-1.498c-0.59-0.597-0.621-1.594-0.565-2.256h-2.504    c0.055,0.662,0.022,1.659-0.568,2.256C47.698,60.128,48.031,60.824,49.454,60.854z"/>
	</g>
</g>
<text x="0.0" y="117.5" font-size="5.0" font-weight="bold" font-family="Helvetica Neue, Helvetica, Arial-Unicode, Arial, Sans-serif" fill="#000000">Created by Juan Pablo Bravo</text><text x="0.0" y="122.5" font-size="5.0" font-weight="bold" font-family="Helvetica Neue, Helvetica, Arial-Unicode, Arial, Sans-serif" fill="#000000">from the Noun Project</text></svg>