<svg xmlns="http://www.w3.org/2000/svg" xmlns:xlink="http://www.w3.org/1999/xlink" version="1.1" id="Layer_1" x="0px" y="0px" width="100px" height="100px" viewBox="5.0 -10.0 100.0 135.0" enable-background="new 0 0 100 100" xml:space="preserve">
<path d="M89.171,55.392C86.314,46.896,80.5,38.732,73.5,32.923V32.5h-0.165c-8.426-6-19.164-10.001-31.002-7.358  C20.085,30.109,8.5,53.159,8.5,73.192V74.5h50.985h28.792H91.5v-9.809C91.5,61.285,90.672,58.1,89.171,55.392z M59.651,62.5H51.5v-8  h11.003C61.031,56.5,60.027,59.5,59.651,62.5z M31.974,64.5H49.5v8H31.526C31.347,69.5,31.508,67.5,31.974,64.5z M32.291,62.5  c0.443-3,1.057-6,1.827-8H49.5v8H32.291z M51.5,32.5v-5.413c2,1.497,3.929,3.413,5.604,5.413H51.5z M58.425,34.5  c1.541,3,2.828,5,3.954,8H51.5v-8H58.425z M49.5,32.5h-5.507c1.619-2,3.507-3.75,5.507-5.208V32.5z M49.5,34.5v8H38.394  c1.271-3,2.695-5,4.256-8H49.5z M49.5,44.5v8H34.694c0.812-3,1.767-6,2.85-8H49.5z M32.638,52.5H14.427c1.197-3,2.624-6,4.229-8  h16.761C34.357,47.5,33.427,49.5,32.638,52.5z M32.077,54.5c-0.749,2-1.342,5-1.768,8H11.414c0.555-3,1.311-6,2.238-8H32.077z   M63.957,52.5H51.5v-8h11.655c0.831,2,1.577,4.371,2.281,6.404C64.916,51.373,64.422,51.5,63.957,52.5z M67.046,49.565  c-0.569-1.637-1.166-3.065-1.814-5.065h16.348c1.273,2,2.409,3.839,3.394,5.837c-2.655-2.172-5.933-3.457-9.476-3.457  C72.396,46.88,69.5,47.864,67.046,49.565z M80.187,42.5H64.474c-1.079-3-2.308-5-3.772-8h11.967  C75.476,37.5,78.001,39.5,80.187,42.5z M59.48,32.5c-1.607-2-3.48-4.537-5.709-6.274c5.984,0.663,11.503,3.274,16.321,6.274H59.48z   M42.704,27.031c1.493-0.333,2.969-0.648,4.424-0.781c-1.979,1.719-3.825,4.25-5.518,6.25H30.093  C34.102,29.5,38.41,27.99,42.704,27.031z M27.51,34.5h12.833c-1.507,3-2.878,5-4.099,8H20.026C22.267,39.5,24.797,36.5,27.51,34.5z   M11.062,64.5h18.944c-0.439,3-0.59,5-0.425,8H10.339C10.385,69.5,10.635,66.5,11.062,64.5z M51.5,72.5v-8h7.996  c-0.006,0,0.004-0.016,0.004,0.191V72.5H51.5z M89.5,72.5h-1.223H87.5v-7.905c0-7.552-5.191-13.695-12.001-13.695  c-6.811,0-11.999,6.144-11.999,13.695V72.5h-2v-7.809c0-8.74,6.24-15.852,14-15.852c7.762,0,14,7.111,14,15.852V72.5z"/>
<g>
	<g>
		<path fill="#000000" stroke="#231F20" stroke-miterlimit="10" d="M70.242,72.462"/>
	</g>
</g>
<g>
	<g>
		<g>
			<path fill="#000000" stroke="#231F20" stroke-miterlimit="10" d="M61.722,79.333"/>
		</g>
	</g>
</g>
<text x="0.0" y="117.5" font-size="5.0" font-weight="bold" font-family="Helvetica Neue, Helvetica, Arial-Unicode, Arial, Sans-serif" fill="#000000">Created by albnz</text><text x="0.0" y="122.5" font-size="5.0" font-weight="bold" font-family="Helvetica Neue, Helvetica, Arial-Unicode, Arial, Sans-serif" fill="#000000">from the Noun Project</text></svg>