<svg xmlns="http://www.w3.org/2000/svg" xmlns:xlink="http://www.w3.org/1999/xlink" version="1.1" id="Your_Icon" x="0px" y="0px" width="100px" height="100px" viewBox="5.0 -10.0 100.0 135.0" enable-background="new 0 0 100 100" xml:space="preserve">
<path d="M94.869,40.995c0,0,0.068-9.61-10.367-13.074c0,0-2.479-1.071-5.285-5.231c0.584-0.109,0.918-0.177,0.918-0.177l0.4-9.369  l-2.332-1.091C67.715,20.212,53,18,53,18v4.425c0,0.333,0.97,0.615,1.431,0.858l-0.024,2.713c0,0-0.169,3.842-3.821,6.697  c0,0-12.585,12.306-31.171,5.735c0,0-10.409-6.062-12.762-5.44L3.436,35.1c0,0-0.874,10.522,11.697,16.83C36,65,68,44,59.703,31.157  c-0.42-0.65,0.135-3.958,0.619-6.691c0.281,0.015,0.57,0.025,0.859,0.034c0.66,2.204,1.319,4.398,1.32,4.406  C65,50,43,63,11.393,56.785l-2.751,3.727c0,0,3.578,12.906,21.587,14.24C30.466,74.688,76,72,73.807,36.949  c-0.091-1.448-1.697-2.363-2.654-3.382c0,0-2.416-2.59-2.832-9.346c0.879-0.08,1.744-0.172,2.588-0.271l2.576,3.047  c0,0,3.363,3.979,2.473,10.189C75.523,40.224,80,67,38.538,75.943c-0.259,0.056-4.759,1.951-5.268,2.787l-1.166,5.078  c0,0,15.416,19.047,46.678-5.328C78.781,78.48,96.693,63.338,94.869,40.995z"/>
<text x="0.0" y="117.5" font-size="5.0" font-weight="bold" font-family="Helvetica Neue, Helvetica, Arial-Unicode, Arial, Sans-serif" fill="#000000">Created by Yi Chen</text><text x="0.0" y="122.5" font-size="5.0" font-weight="bold" font-family="Helvetica Neue, Helvetica, Arial-Unicode, Arial, Sans-serif" fill="#000000">from the Noun Project</text></svg>