<svg xmlns="http://www.w3.org/2000/svg" xmlns:xlink="http://www.w3.org/1999/xlink" version="1.1" id="Layer_1" x="0px" y="0px" width="100px" height="100px" viewBox="5.0 -10.0 100.0 135.0" enable-background="new 0 0 100 100" xml:space="preserve">
<g>
	<path d="M60.114,63.323c0,0,24.172-1.649,27.093-3.774c1.064-2.833-1.916-16.975-2.11-18.231c-0.03-0.759-0.03-0.759-0.078-2.748   c-0.01-0.425,0.017-1.044,0.072-1.778c0.817-0.057,1.533-0.646,1.702-1.49c0.19-0.955-0.386-1.877-1.299-2.15   c0.015-0.108,0.031-0.217,0.046-0.326c0.821-0.115,1.496-0.762,1.598-1.624c0.094-0.793-0.324-1.523-0.991-1.873   c0.188-0.909,0.393-1.778,0.615-2.549c0.536-1.857,2.817-4.321,1.506-5.267c-1.666-1.201-2.744,0.06-3.913,2.511   c-3.27,6.858-19.171,1.544-27.504-1.136c-0.264,1.003-0.544,1.981-0.833,2.948l-1.315-0.156c-0.638-0.076-1.217,0.38-1.293,1.018   s0.38,1.216,1.018,1.292l0.881,0.105c-0.346,1.051-0.705,2.079-1.08,3.075l-0.974-0.462c-0.581-0.276-1.275-0.029-1.55,0.552   c-0.276,0.581-0.028,1.273,0.552,1.549l1.115,0.529c-0.387,0.934-0.792,1.829-1.204,2.701l-0.861-0.408   c-0.581-0.276-1.275-0.028-1.55,0.552c-0.276,0.581-0.028,1.273,0.552,1.549l0.819,0.389c-0.411,0.78-0.829,1.541-1.259,2.257   l-0.794-0.553c-0.528-0.367-1.253-0.237-1.62,0.291c-0.367,0.527-0.237,1.251,0.29,1.619l0.859,0.599   c-0.706,1.029-1.434,1.969-2.18,2.817l-0.56-0.68c-0.408-0.496-1.142-0.566-1.637-0.158c-0.496,0.408-0.567,1.141-0.159,1.637   l0.728,0.884c-0.667,0.613-1.346,1.157-2.035,1.614c-0.009-0.036-0.455,0.046-1.21,0.187l-0.121-0.542   c-0.139-0.627-0.761-1.023-1.387-0.883c-0.627,0.139-1.022,0.761-0.883,1.388l0.099,0.443c-3.644,0.604-9.445,1.329-14.041,0.438   c-9.857-2.284-14.026,5.938-14.161,10.636c2.231,1.519,5.593,4.835,21.269,6.621C45.211,68.203,56.415,64.43,60.114,63.323z"/>
	<path d="M88.537,62.554c-12.208,2.165-5.225,1.594-27.201,3.417C26.13,75.423,9.971,62.554,9.971,62.554L9.287,68.42l5.383,2.804   l1.306-1.263l2.191,0.532v1.793l2.854,0.764l0.666-1.561l2.157,0.299v1.858l3.776,0.739l0.971-1.368l2.888,0.532l0.587,1.598   l2.691,0.084l1.136-1.75l2.423,0.2l0.598,1.861h3.078l0.308-1.562l3.137-0.353l0.615,1.746l4.159-0.199l0.327-2.325l10.895-2.356   l2.374,4.348h3.588l0.622-1.958l2.167-0.364l0.734,2.057l3.314-0.532l0.532-2.092l3.153-0.532l1.029,2.359l2.954-0.532l0.532-2.176   l2.057-0.547l1.662,2.026l3.43-1.361L88.537,62.554z"/>
</g>
<text x="0.0" y="117.5" font-size="5.0" font-weight="bold" font-family="Helvetica Neue, Helvetica, Arial-Unicode, Arial, Sans-serif" fill="#000000">Created by Ivan Pletenac</text><text x="0.0" y="122.5" font-size="5.0" font-weight="bold" font-family="Helvetica Neue, Helvetica, Arial-Unicode, Arial, Sans-serif" fill="#000000">from the Noun Project</text></svg>