<svg xmlns="http://www.w3.org/2000/svg" xmlns:xlink="http://www.w3.org/1999/xlink" version="1.1" id="Layer_1" x="0px" y="0px" width="100px" height="100px" viewBox="5.0 -10.0 100.0 135.0" enable-background="new 0 0 100 100" xml:space="preserve">
<path d="M71.989,34.463H28.01v5.483h43.979V34.463L71.989,34.463z"/>
<path d="M71.989,41.454H28.01c0,12.481,18.001,5.677,18.001,14.338c0,5.358-3.225,17.778-3.225,25.609  c0,7.833,5.183,15.098,7.039,15.098h0.35c1.855,0,7.04-7.265,7.04-15.098c0-7.831-3.227-20.251-3.227-25.609  C53.988,47.131,71.989,53.936,71.989,41.454z M50,90.568c-0.969,0-1.752-0.785-1.752-1.752c0-0.968,0.784-1.753,1.752-1.753  c0.967,0,1.751,0.785,1.751,1.753C51.752,89.783,50.968,90.568,50,90.568z"/>
<path d="M33.653,3.5H28.01v12.019c0.015,0,0.029-0.004,0.043-0.004c2.55,0,0.542,5.232,4.483,5.232c3.546,0,1.418-7.161,6.46-7.161  c4.774,0,1.43,7.396,7.536,7.396c6.106,0,2.319-8.503,8.677-8.503c7.152,0,2.247,12.491,6.354,12.491  c3.164,0,0.181-10.614,4.74-10.614c3.384,0,0.851,6.748,5.687,6.869V3.5H35.284"/>
<g>
	<path d="M71.95,22.819c-0.44-0.011-0.835-0.066-1.196-0.149v9.048H29.247V20.849c-0.705-0.924-0.964-2.065-1.126-2.796   c-0.031-0.142-0.069-0.312-0.11-0.478v15.38h43.979V22.821L71.95,22.819z"/>
</g>
<text x="0.0" y="117.5" font-size="5.0" font-weight="bold" font-family="Helvetica Neue, Helvetica, Arial-Unicode, Arial, Sans-serif" fill="#000000">Created by Andrew Was</text><text x="0.0" y="122.5" font-size="5.0" font-weight="bold" font-family="Helvetica Neue, Helvetica, Arial-Unicode, Arial, Sans-serif" fill="#000000">from the Noun Project</text></svg>