<svg xmlns="http://www.w3.org/2000/svg" xmlns:xlink="http://www.w3.org/1999/xlink" version="1.1" id="Layer_1" x="0px" y="0px" width="100px" height="100px" viewBox="5.0 -10.0 100.0 135.0" enable-background="new 0 0 100 100" xml:space="preserve">
<path d="M15.234,47.254l28.182-5.583c0,0,11.77-20.652,2.545-25.261c-3.851-1.927-7.005,4.904-7.44,3.584  C35.455,10.775,30.367,0.476,20.693,2.39C1.225,6.245,15.234,47.254,15.234,47.254z"/>
<path d="M33.773,97.842c3.192,0,5.876-1.332,7.99-3.967c1.954-2.439,3.125-5.598,4.161-8.383c0.621-1.671,1.204-3.252,1.83-4.294  c0.436-0.723,0.769-0.984,0.917-0.984c1.365-0.02,1.769,0.39,2.339,4.148c0.213,1.404,0.432,2.857,0.982,4.166  c1.332,3.176,3.887,5.368,6.834,5.866c2.828,0.478,5.701-0.639,7.875-3.063c1.967-2.191,2.426-6.642,2.91-11.352  c0.303-2.973,0.684-6.671,1.443-7.743l-3.389-2.394c-1.383,1.96-1.756,5.555-2.18,9.712c-0.34,3.304-0.805,7.821-1.871,9.007  c-1.223,1.363-2.682,1.985-4.1,1.744c-1.561-0.264-2.91-1.494-3.699-3.384c-0.352-0.83-0.525-1.975-0.707-3.183  c-0.246-1.647-0.506-3.347-1.289-4.78c-1.055-1.921-2.846-2.916-5.196-2.895c-1.756,0.022-3.247,1.028-4.428,3  c-0.822,1.376-1.474,3.129-2.165,4.986c-2.301,6.212-4.196,10.235-9.332,9.572c-0.098-0.015-0.333-0.046-0.659-0.493  c-0.743-1.019-2.343-4.813-1.13-18.031c0.48-5.248,1.323-11.205,2.506-17.697c0.058-0.321,0.095-0.53,0.108-0.604l-4.098-0.633  c-0.009,0.064-0.045,0.233-0.09,0.492c-1.204,6.614-2.064,12.692-2.559,18.064c-0.999,10.903-0.374,17.725,1.916,20.855  c0.899,1.235,2.1,1.978,3.471,2.155C32.715,97.807,33.25,97.842,33.773,97.842z"/>
<polygon points="42.235,50.521 35.662,46.123 35.533,46.314 35.318,46.628 34.515,47.825 34.52,47.829 31.26,52.7 26.389,49.44   25.886,49.099 24.684,48.298 24.557,48.489 24.344,48.803 20.283,54.87 14.461,50.973 14.068,48.993 45.74,42.721 46.13,44.7 "/>
<polygon points="20.851,57.72 20.943,57.574 20.943,57.576 21.274,57.085 25.249,51.15 31.818,55.546 31.846,55.508 32.165,55.039   36.224,48.975 42.654,53.279 42.657,53.278 42.797,53.372 46.695,47.549 47.925,53.762 16.256,60.033 15.026,53.819 "/>
<path d="M85.988,62.466l-28.033-6.293c0,0-11.246-20.944-1.906-25.319c3.902-1.827,6.877,5.08,7.346,3.774  c3.303-9.14,8.645-19.308,18.27-17.149C101.025,21.823,85.988,62.466,85.988,62.466z"/>
<polygon points="58.916,65.05 65.594,60.82 65.721,61.017 65.926,61.334 66.697,62.553 66.693,62.556 69.83,67.507 74.783,64.371   75.291,64.042 76.516,63.269 76.637,63.465 76.846,63.784 80.748,69.948 86.67,66.204 87.109,64.231 55.605,57.167 55.166,59.134   "/>
<polygon points="80.111,72.785 80.021,72.64 80.021,72.64 79.699,72.139 75.881,66.104 69.199,70.337 69.172,70.297 68.867,69.818   64.961,63.657 58.426,67.797 58.424,67.794 58.281,67.884 54.529,61.966 53.141,68.146 84.645,75.215 86.033,69.032 "/>
<text x="0.0" y="117.5" font-size="5.0" font-weight="bold" font-family="Helvetica Neue, Helvetica, Arial-Unicode, Arial, Sans-serif" fill="#000000">Created by Jennifer Cozzette</text><text x="0.0" y="122.5" font-size="5.0" font-weight="bold" font-family="Helvetica Neue, Helvetica, Arial-Unicode, Arial, Sans-serif" fill="#000000">from the Noun Project</text></svg>