<svg xmlns="http://www.w3.org/2000/svg" xmlns:xlink="http://www.w3.org/1999/xlink" version="1.1" id="Your_Icon" x="0px" y="0px" width="100px" height="100px" viewBox="5.0 -10.0 100.0 135.0" enable-background="new 0 0 100 100" xml:space="preserve">
<path d="M24.101,44.961c0,0-1.539-1.385-2.155-2.463c-0.615-1.077-2.155-4.08-4.54-4.156c-2.386-0.076-3.156-0.77-3.771-0.308  c-0.617,0.461-1.155,0.616-1.155,0.616s-4.927-0.539-5.542,1.23c-0.616,1.77,0.385,2.156,0.54,2.617l0.46-0.691l0.54,0.769  l0.153-0.538l0.308,0.538l0.693-0.31l0.229,0.54l0.386-0.154l0.309,0.309l0.538-0.462l0.463,0.462l0.46-0.462l0.386,0.462  l0.384-0.154c0,0,0.462,0.771,0.385,1.386h-0.769l-0.308-0.385l-0.308,0.539L11.4,43.807l-0.153,0.461l-0.385-0.307l-0.308,0.23  l-0.463-0.309l-0.308,0.231l-0.461-0.308L8.477,43.5l-0.154,0.461c0,0-0.924,0.693,0.308,1.616c1.23,0.923,4.617,1.001,5.233,1.153  c0.616,0.154,0.926,0.539,1.31,1.078s1.076,0.694,1.539,0.924c0.462,0.23,1.001,1,1.309,1.387c0.307,0.384,1.385,0.691,1.615,1.076  c0.231,0.385,1.617,2.54,2.464,3.156c0,0-1.526,0.458-2.446,0.373c-0.922-0.082-1.368,0.558-0.978,1.145c0,0,0.084-0.67,0.474-0.697  c0,0,0.168,0.671,0.476,0.753c0,0-0.308-0.836,0.447-0.836c0,0,1.951-0.056,2.51,0.224c0,0-0.698,0.473-1.674,0.502  c-0.978,0.028-2.177,0.781-1.339,1.842c0,0-0.027-0.503,0.391-0.671c0,0,0.417,0.836,1.031,0.725c0,0-0.697-0.474-0.335-0.865  c0.363-0.39,2.539-0.976,3.181-0.446c0,0,6.249,7.45,9.791,8.146c0,0,0.934,3.695,0.081,7.444c-0.853,3.75-2.088,4.475-2.728,4.644  c-0.639,0.171-1.319,0.298-1.533,0.298c-0.213,0-2.002-0.255-2.087,0.725c0,0,0.596-0.469,1.192-0.127  c0.597,0.34,0.98,0.47,1.619,0.298c0.64-0.171,1.576-0.298,2.088-0.085c0.512,0.214,1.576,0.512,2.129-0.128  c0.555-0.639,1.193-1.832,1.577-1.832s0.512,0.213,0.512,0.554c0,0,0.426-0.129,0.469-0.767c0.043-0.64-0.129-1.108-0.085-1.662  c0.042-0.554,0.554-2.514,0.895-3.152c0.342-0.639,1.577-3.622,1.619-4.176c0.043-0.554,0.043-0.554,0.043-0.554l1.49,0.086  c0,0,3.408,3.493,4.091,3.919c0.682,0.427,2.258,1.662,2.215,2.258c-0.043,0.597,0.172,3.494-1.319,4.261c0,0-0.683,0.34-1.194,0.34  c-0.51,0-1.746,0.172-1.746,0.683c0,0,0.98-0.469,1.362-0.085c0,0,0.641,0.214,1.151,0.17c0.511-0.042,0.64-0.085,1.107,0  c0.469,0.086,2.557,0.128,2.77-0.17c0.213-0.299,0.299-0.853,0.299-0.853s0.511,0.298,0.511,0.554c0,0,0.129-1.278-0.214-1.832  c-0.34-0.553,0.087-2.002,0.257-2.471s0.596-0.852,0.17-1.321c-0.427-0.469-2.896-4.26-2.938-5.24l7.755,0.256  c0,0,12.738,2.003,19.129,1.662c0,0,6.306,0.383,9.332,0.852c3.024,0.468,9.373,1.491,10.692,2.684c0,0,0.98,0.214,0.556-0.213  c-0.427-0.426-1.791-1.235-1.791-1.235s-10.353-3.622-13.805-4.089c-3.451-0.47-10.524-1.834-12.568-2.516  c-2.045-0.682-9.587-3.067-10.353-3.535c-0.769-0.47-7.286-4.644-7.797-5.283c-0.513-0.639-4.177-4.176-6.69-4.645  s-7.201-1.96-9.033-2.301C31.025,47.617,27.274,47.972,24.101,44.961z"/>
<text x="0.0" y="117.5" font-size="5.0" font-weight="bold" font-family="Helvetica Neue, Helvetica, Arial-Unicode, Arial, Sans-serif" fill="#000000">Created by Dactrtr</text><text x="0.0" y="122.5" font-size="5.0" font-weight="bold" font-family="Helvetica Neue, Helvetica, Arial-Unicode, Arial, Sans-serif" fill="#000000">from the Noun Project</text></svg>