<svg xmlns="http://www.w3.org/2000/svg" xmlns:xlink="http://www.w3.org/1999/xlink" version="1.1" id="Layer_1" x="0px" y="0px" width="100px" height="100px" viewBox="5.0 -10.0 100.0 135.0" enable-background="new 0 0 100 100" xml:space="preserve">
<g id="Captions">
	<rect x="-192" width="185" height="99"/>
	<rect y="-36" width="100" height="30"/>
	<text transform="matrix(1 0 0 1 66 -19.5)" fill="#000000" font-family="'MyriadPro-Regular'" font-size="2.4">http:</text>
	<text transform="matrix(1 0 0 1 70.7832 -19.5)" fill="#000000" font-family="'HelveticaLTStd-Fraction'" font-size="2.4">//</text>
	<text transform="matrix(1 0 0 1 71.584 -19.5)" fill="#000000" font-family="'MyriadPro-Regular'" font-size="2.4">thenounproject.com</text>
	<text transform="matrix(1 0 0 1 7.166 -24.5)" fill="#000000" font-family="'MyriadPro-Regular'" font-size="6.1578">The</text>
	<text transform="matrix(1 0 0 1 16.7285 -24.5)" fill="#000000" font-family="'HelveticaLTStd-Fraction'" font-size="6.1578"> </text>
	<text transform="matrix(1 0 0 1 18.6377 -24.5)" fill="#000000" font-family="'MyriadPro-Regular'" font-size="6.1578">Noun</text>
	<text transform="matrix(1 0 0 1 32.8809 -24.5)" fill="#000000" font-family="'HelveticaLTStd-Fraction'" font-size="6.1578"> </text>
	<text transform="matrix(1 0 0 1 34.79 -24.5)" fill="#000000" font-family="'MyriadPro-Regular'" font-size="6.1578">Project</text>
	<text transform="matrix(1 0 0 1 8.2861 -19.7002)" fill="#000000" font-family="'MyriadPro-Regular'" font-size="4">Icon</text>
	<text transform="matrix(1 0 0 1 15.4502 -19.7002)" fill="#000000" font-family="'HelveticaLTStd-Fraction'" font-size="4"> </text>
	<text transform="matrix(1 0 0 1 16.6904 -19.7002)" fill="#000000" font-family="'MyriadPro-Regular'" font-size="4">Template</text>
	<text transform="matrix(1 0 0 1 -178.5 10.5)" fill="#000000" font-family="'MyriadPro-Regular'" font-size="6.1578">Reminders</text>
	<line fill="#000000" stroke="#FFFFFF" stroke-miterlimit="10" x1="8" y1="-14.5" x2="18" y2="-14.5"/>
	<line fill="#000000" stroke="#FFFFFF" stroke-miterlimit="10" x1="-179" y1="16.5" x2="-162" y2="16.5"/>
	<g>
		<g>
			<g>
				<rect x="-170.802" y="31.318" fill="#000000" width="8.721" height="8.642"/>
				<path fill="#000000" d="M-164.455,42.312h4.747v-4.703h-4.747V42.312z M-159.266,42.749h-5.63V37.17h5.63V42.749      L-159.266,42.749z M-166.221,44.062h8.279v-8.203h-8.279V44.062L-166.221,44.062z M-157.5,44.5h-9.163v-9.079h9.163V44.5      L-157.5,44.5z"/>
				<polygon fill="#000000" points="-166.149,44.133 -166.292,43.991 -158.013,35.787 -157.871,35.929     "/>
			</g>
		</g>
	</g>
	<rect x="-179" y="58" fill="none" width="35" height="32.5"/>
	<text transform="matrix(1 0 0 1 -179 60.1299)" fill="#000000" font-family="'MyriadPro-Regular'" font-size="3">Strokes</text>
	<text transform="matrix(1 0 0 1 -179 65.1299)" fill="#000000" font-family="'MyriadPro-Regular'" font-size="2.4">Try</text>
	<text transform="matrix(1 0 0 1 -175.8916 65.1299)" fill="#000000" font-family="'HelveticaLTStd-Fraction'" font-size="2.4"> </text>
	<text transform="matrix(1 0 0 1 -175.1484 65.1299)" fill="#000000" font-family="'MyriadPro-Regular'" font-size="2.4">to</text>
	<text transform="matrix(1 0 0 1 -173.0361 65.1299)" fill="#000000" font-family="'HelveticaLTStd-Fraction'" font-size="2.4"> </text>
	<text transform="matrix(1 0 0 1 -172.292 65.1299)" fill="#000000" font-family="'MyriadPro-Regular'" font-size="2.4">keep</text>
	<text transform="matrix(1 0 0 1 -167.3965 65.1299)" fill="#000000" font-family="'HelveticaLTStd-Fraction'" font-size="2.4"> </text>
	<text transform="matrix(1 0 0 1 -166.6523 65.1299)" fill="#000000" font-family="'MyriadPro-Regular'" font-size="2.4">strokes</text>
	<text transform="matrix(1 0 0 1 -159.5273 65.1299)" fill="#000000" font-family="'HelveticaLTStd-Fraction'" font-size="2.4"> </text>
	<text transform="matrix(1 0 0 1 -158.7832 65.1299)" fill="#000000" font-family="'MyriadPro-Regular'" font-size="2.4">at</text>
	<text transform="matrix(1 0 0 1 -156.832 65.1299)" fill="#000000" font-family="'HelveticaLTStd-Fraction'" font-size="2.4"> 4</text>
	<text transform="matrix(1 0 0 1 -154.7529 65.1299)" fill="#000000" font-family="'MyriadPro-Regular'" font-size="2.4">px</text>
	<text transform="matrix(1 0 0 1 -179 70.1299)" fill="#000000" font-family="'MyriadPro-Regular'" font-size="2.4">Minimum</text>
	<text transform="matrix(1 0 0 1 -169.29 70.1299)" fill="#000000" font-family="'HelveticaLTStd-Fraction'" font-size="2.4"> </text>
	<text transform="matrix(1 0 0 1 -168.5459 70.1299)" fill="#000000" font-family="'MyriadPro-Regular'" font-size="2.4">stroke</text>
	<text transform="matrix(1 0 0 1 -162.3711 70.1299)" fill="#000000" font-family="'HelveticaLTStd-Fraction'" font-size="2.4"> </text>
	<text transform="matrix(1 0 0 1 -161.627 70.1299)" fill="#000000" font-family="'MyriadPro-Regular'" font-size="2.4">weight</text>
	<text transform="matrix(1 0 0 1 -154.6279 70.1299)" fill="#000000" font-family="'HelveticaLTStd-Fraction'" font-size="2.4"> </text>
	<text transform="matrix(1 0 0 1 -153.8848 70.1299)" fill="#000000" font-family="'MyriadPro-Regular'" font-size="2.4">is</text>
	<text transform="matrix(1 0 0 1 -152.373 70.1299)" fill="#000000" font-family="'HelveticaLTStd-Fraction'" font-size="2.4"> 2</text>
	<text transform="matrix(1 0 0 1 -150.2939 70.1299)" fill="#000000" font-family="'MyriadPro-Regular'" font-size="2.4">px</text>
	<text transform="matrix(1 0 0 1 -179 74.6299)" fill="#000000" font-family="'MyriadPro-Regular'" font-size="2.4">For</text>
	<text transform="matrix(1 0 0 1 -175.7285 74.6299)" fill="#000000" font-family="'HelveticaLTStd-Fraction'" font-size="2.4"> </text>
	<text transform="matrix(1 0 0 1 -174.9854 74.6299)" fill="#000000" font-family="'MyriadPro-Regular'" font-size="2.4">thicker</text>
	<text transform="matrix(1 0 0 1 -168.1094 74.6299)" fill="#000000" font-family="'HelveticaLTStd-Fraction'" font-size="2.4"> </text>
	<text transform="matrix(1 0 0 1 -167.3652 74.6299)" fill="#000000" font-family="'MyriadPro-Regular'" font-size="2.4">strokes</text>
	<text transform="matrix(1 0 0 1 -160.2402 74.6299)" fill="#000000" font-family="'HelveticaLTStd-Fraction'" font-size="2.4"> </text>
	<text transform="matrix(1 0 0 1 -159.4961 74.6299)" fill="#000000" font-family="'MyriadPro-Regular'" font-size="2.4">use</text>
	<text transform="matrix(1 0 0 1 -156.0215 74.6299)" fill="#000000" font-family="'HelveticaLTStd-Fraction'" font-size="2.4"> </text>
	<text transform="matrix(1 0 0 1 -155.2764 74.6299)" fill="#000000" font-family="'MyriadPro-Regular'" font-size="2.4">even</text>
	<text transform="matrix(1 0 0 1 -150.3857 74.6299)" fill="#000000" font-family="'HelveticaLTStd-Fraction'" font-size="2.4"> </text>
	<text transform="matrix(1 0 0 1 -179 77.6299)" fill="#000000" font-family="'MyriadPro-Regular'" font-size="2.4">numbers:</text>
	<text transform="matrix(1 0 0 1 -169.5439 77.6299)" fill="#000000" font-family="'HelveticaLTStd-Fraction'" font-size="2.4"> 6</text>
	<text transform="matrix(1 0 0 1 -167.4658 77.6299)" fill="#000000" font-family="'MyriadPro-Regular'" font-size="2.4">px,</text>
	<text transform="matrix(1 0 0 1 -164.4922 77.6299)" fill="#000000" font-family="'HelveticaLTStd-Fraction'" font-size="2.4"> 8</text>
	<text transform="matrix(1 0 0 1 -162.4141 77.6299)" fill="#000000" font-family="'MyriadPro-Regular'" font-size="2.4">px</text>
	<text transform="matrix(1 0 0 1 -159.9375 77.6299)" fill="#000000" font-family="'HelveticaLTStd-Fraction'" font-size="2.4"> </text>
	<text transform="matrix(1 0 0 1 -159.1934 77.6299)" fill="#000000" font-family="'MyriadPro-Regular'" font-size="2.4">etc.</text>
	<text transform="matrix(1 0 0 1 -179 82.1299)" fill="#000000" font-family="'MyriadPro-Regular'" font-size="2.4">Remember</text>
	<text transform="matrix(1 0 0 1 -167.9482 82.1299)" fill="#000000" font-family="'HelveticaLTStd-Fraction'" font-size="2.4"> </text>
	<text transform="matrix(1 0 0 1 -167.2041 82.1299)" fill="#000000" font-family="'MyriadPro-Regular'" font-size="2.4">to</text>
	<text transform="matrix(1 0 0 1 -165.0918 82.1299)" fill="#000000" font-family="'HelveticaLTStd-Fraction'" font-size="2.4"> </text>
	<text transform="matrix(1 0 0 1 -164.3477 82.1299)" fill="#000000" font-family="'MyriadPro-Regular'" font-size="2.4">expand</text>
	<text transform="matrix(1 0 0 1 -156.8271 82.1299)" fill="#000000" font-family="'HelveticaLTStd-Fraction'" font-size="2.4"> </text>
	<text transform="matrix(1 0 0 1 -156.083 82.1299)" fill="#000000" font-family="'MyriadPro-Regular'" font-size="2.4">strokes</text>
	<text transform="matrix(1 0 0 1 -148.958 82.1299)" fill="#000000" font-family="'HelveticaLTStd-Fraction'" font-size="2.4"> </text>
	<text transform="matrix(1 0 0 1 -179 85.1299)" fill="#000000" font-family="'MyriadPro-Regular'" font-size="2.4">before</text>
	<text transform="matrix(1 0 0 1 -172.4268 85.1299)" fill="#000000" font-family="'HelveticaLTStd-Fraction'" font-size="2.4"> </text>
	<text transform="matrix(1 0 0 1 -171.6826 85.1299)" fill="#000000" font-family="'MyriadPro-Regular'" font-size="2.4">saving</text>
	<text transform="matrix(1 0 0 1 -165.1855 85.1299)" fill="#000000" font-family="'HelveticaLTStd-Fraction'" font-size="2.4"> </text>
	<text transform="matrix(1 0 0 1 -164.4424 85.1299)" fill="#000000" font-family="'MyriadPro-Regular'" font-size="2.4">as</text>
	<text transform="matrix(1 0 0 1 -162.335 85.1299)" fill="#000000" font-family="'HelveticaLTStd-Fraction'" font-size="2.4"> </text>
	<text transform="matrix(1 0 0 1 -161.5908 85.1299)" fill="#000000" font-family="'MyriadPro-Regular'" font-size="2.4">an</text>
	<text transform="matrix(1 0 0 1 -159.1016 85.1299)" fill="#000000" font-family="'HelveticaLTStd-Fraction'" font-size="2.4"> </text>
	<text transform="matrix(1 0 0 1 -158.3584 85.1299)" fill="#000000" font-family="'MyriadPro-Regular'" font-size="2.4">SVG</text>
	<text transform="matrix(1 0 0 1 -154.2852 85.1299)" fill="#000000" font-family="'HelveticaLTStd-Fraction'" font-size="2.4"> </text>
	<rect x="-136.5" y="58" fill="none" width="35" height="32.5"/>
	<text transform="matrix(1 0 0 1 -136.5 60.1299)" fill="#000000" font-family="'MyriadPro-Regular'" font-size="3">Size</text>
	<text transform="matrix(1 0 0 1 -136.5 65.1299)" fill="#000000" font-family="'MyriadPro-Regular'" font-size="2.4">Cannot</text>
	<text transform="matrix(1 0 0 1 -129.1748 65.1299)" fill="#000000" font-family="'HelveticaLTStd-Fraction'" font-size="2.4"> </text>
	<text transform="matrix(1 0 0 1 -128.4307 65.1299)" fill="#000000" font-family="'MyriadPro-Regular'" font-size="2.4">be</text>
	<text transform="matrix(1 0 0 1 -125.8633 65.1299)" fill="#000000" font-family="'HelveticaLTStd-Fraction'" font-size="2.4"> </text>
	<text transform="matrix(1 0 0 1 -125.1201 65.1299)" fill="#000000" font-family="'MyriadPro-Regular'" font-size="2.4">wider</text>
	<text transform="matrix(1 0 0 1 -119.4512 65.1299)" fill="#000000" font-family="'HelveticaLTStd-Fraction'" font-size="2.4"> </text>
	<text transform="matrix(1 0 0 1 -118.707 65.1299)" fill="#000000" font-family="'MyriadPro-Regular'" font-size="2.4">or</text>
	<text transform="matrix(1 0 0 1 -116.6035 65.1299)" fill="#000000" font-family="'HelveticaLTStd-Fraction'" font-size="2.4"> </text>
	<text transform="matrix(1 0 0 1 -115.8604 65.1299)" fill="#000000" font-family="'MyriadPro-Regular'" font-size="2.4">taller</text>
	<text transform="matrix(1 0 0 1 -110.79 65.1299)" fill="#000000" font-family="'HelveticaLTStd-Fraction'" font-size="2.4"> </text>
	<text transform="matrix(1 0 0 1 -110.0449 65.1299)" fill="#000000" font-family="'MyriadPro-Regular'" font-size="2.4">than</text>
	<text transform="matrix(1 0 0 1 -105.4297 65.1299)" fill="#000000" font-family="'HelveticaLTStd-Fraction'" font-size="2.4"> </text>
	<text transform="matrix(1 0 0 1 -136.5 68.6299)" fill="#000000" font-family="'HelveticaLTStd-Fraction'" font-size="2.4">100</text>
	<text transform="matrix(1 0 0 1 -132.4971 68.6299)" fill="#000000" font-family="'MyriadPro-Regular'" font-size="2.4">px</text>
	<text transform="matrix(1 0 0 1 -130.0195 68.6299)" fill="#000000" font-family="'HelveticaLTStd-Fraction'" font-size="2.4"> </text>
	<text transform="matrix(1 0 0 1 -129.2764 68.6299)" fill="#000000" font-family="'MyriadPro-Regular'" font-size="2.4">(artboard</text>
	<text transform="matrix(1 0 0 1 -119.8799 68.6299)" fill="#000000" font-family="'HelveticaLTStd-Fraction'" font-size="2.4"> </text>
	<text transform="matrix(1 0 0 1 -119.1357 68.6299)" fill="#000000" font-family="'MyriadPro-Regular'" font-size="2.4">size)</text>
	<text transform="matrix(1 0 0 1 -136.5 73.6299)" fill="#000000" font-family="'MyriadPro-Regular'" font-size="2.4">Scale</text>
	<text transform="matrix(1 0 0 1 -131.3164 73.6299)" fill="#000000" font-family="'HelveticaLTStd-Fraction'" font-size="2.4"> </text>
	<text transform="matrix(1 0 0 1 -130.5723 73.6299)" fill="#000000" font-family="'MyriadPro-Regular'" font-size="2.4">your</text>
	<text transform="matrix(1 0 0 1 -126.0166 73.6299)" fill="#000000" font-family="'HelveticaLTStd-Fraction'" font-size="2.4"> </text>
	<text transform="matrix(1 0 0 1 -125.2734 73.6299)" fill="#000000" font-family="'MyriadPro-Regular'" font-size="2.4">icon</text>
	<text transform="matrix(1 0 0 1 -120.9873 73.6299)" fill="#000000" font-family="'HelveticaLTStd-Fraction'" font-size="2.4"> </text>
	<text transform="matrix(1 0 0 1 -120.2432 73.6299)" fill="#000000" font-family="'MyriadPro-Regular'" font-size="2.4">to</text>
	<text transform="matrix(1 0 0 1 -118.1309 73.6299)" fill="#000000" font-family="'HelveticaLTStd-Fraction'" font-size="2.4"> </text>
	<text transform="matrix(1 0 0 1 -117.3867 73.6299)" fill="#000000" font-family="'MyriadPro-Regular'" font-size="2.4">fill</text>
	<text transform="matrix(1 0 0 1 -114.999 73.6299)" fill="#000000" font-family="'HelveticaLTStd-Fraction'" font-size="2.4"> </text>
	<text transform="matrix(1 0 0 1 -114.2549 73.6299)" fill="#000000" font-family="'MyriadPro-Regular'" font-size="2.4">as</text>
	<text transform="matrix(1 0 0 1 -112.1484 73.6299)" fill="#000000" font-family="'HelveticaLTStd-Fraction'" font-size="2.4"> </text>
	<text transform="matrix(1 0 0 1 -111.4043 73.6299)" fill="#000000" font-family="'MyriadPro-Regular'" font-size="2.4">much</text>
	<text transform="matrix(1 0 0 1 -105.6729 73.6299)" fill="#000000" font-family="'HelveticaLTStd-Fraction'" font-size="2.4"> </text>
	<text transform="matrix(1 0 0 1 -104.9287 73.6299)" fill="#000000" font-family="'MyriadPro-Regular'" font-size="2.4">of</text>
	<text transform="matrix(1 0 0 1 -102.9102 73.6299)" fill="#000000" font-family="'HelveticaLTStd-Fraction'" font-size="2.4"> </text>
	<text transform="matrix(1 0 0 1 -136.5 76.6299)" fill="#000000" font-family="'MyriadPro-Regular'" font-size="2.4">the</text>
	<text transform="matrix(1 0 0 1 -133.1709 76.6299)" fill="#000000" font-family="'HelveticaLTStd-Fraction'" font-size="2.4"> </text>
	<text transform="matrix(1 0 0 1 -132.4268 76.6299)" fill="#000000" font-family="'MyriadPro-Regular'" font-size="2.4">artboard</text>
	<text transform="matrix(1 0 0 1 -123.7129 76.6299)" fill="#000000" font-family="'HelveticaLTStd-Fraction'" font-size="2.4"> </text>
	<text transform="matrix(1 0 0 1 -122.9688 76.6299)" fill="#000000" font-family="'MyriadPro-Regular'" font-size="2.4">as</text>
	<text transform="matrix(1 0 0 1 -120.8623 76.6299)" fill="#000000" font-family="'HelveticaLTStd-Fraction'" font-size="2.4"> </text>
	<text transform="matrix(1 0 0 1 -120.1182 76.6299)" fill="#000000" font-family="'MyriadPro-Regular'" font-size="2.4">possible</text>
	<rect x="-94" y="58" fill="none" width="35" height="32.5"/>
	<text transform="matrix(1 0 0 1 -94 60.1299)" fill="#000000" font-family="'MyriadPro-Regular'" font-size="3">Ungroup</text>
	<text transform="matrix(1 0 0 1 -94 65.1299)" fill="#000000" font-family="'MyriadPro-Regular'" font-size="2.4">If</text>
	<text transform="matrix(1 0 0 1 -92.7256 65.1299)" fill="#000000" font-family="'HelveticaLTStd-Fraction'" font-size="2.4"> </text>
	<text transform="matrix(1 0 0 1 -91.9814 65.1299)" fill="#000000" font-family="'MyriadPro-Regular'" font-size="2.4">your</text>
	<text transform="matrix(1 0 0 1 -87.4268 65.1299)" fill="#000000" font-family="'HelveticaLTStd-Fraction'" font-size="2.4"> </text>
	<text transform="matrix(1 0 0 1 -86.6826 65.1299)" fill="#000000" font-family="'MyriadPro-Regular'" font-size="2.4">design</text>
	<text transform="matrix(1 0 0 1 -79.9414 65.1299)" fill="#000000" font-family="'HelveticaLTStd-Fraction'" font-size="2.4"> </text>
	<text transform="matrix(1 0 0 1 -79.1973 65.1299)" fill="#000000" font-family="'MyriadPro-Regular'" font-size="2.4">has</text>
	<text transform="matrix(1 0 0 1 -75.7578 65.1299)" fill="#000000" font-family="'HelveticaLTStd-Fraction'" font-size="2.4"> </text>
	<text transform="matrix(1 0 0 1 -75.0137 65.1299)" fill="#000000" font-family="'MyriadPro-Regular'" font-size="2.4">more</text>
	<text transform="matrix(1 0 0 1 -69.708 65.1299)" fill="#000000" font-family="'HelveticaLTStd-Fraction'" font-size="2.4"> </text>
	<text transform="matrix(1 0 0 1 -68.9639 65.1299)" fill="#000000" font-family="'MyriadPro-Regular'" font-size="2.4">than</text>
	<text transform="matrix(1 0 0 1 -64.3486 65.1299)" fill="#000000" font-family="'HelveticaLTStd-Fraction'" font-size="2.4"> </text>
	<text transform="matrix(1 0 0 1 -63.6035 65.1299)" fill="#000000" font-family="'MyriadPro-Regular'" font-size="2.4">one</text>
	<text transform="matrix(1 0 0 1 -59.7529 65.1299)" fill="#000000" font-family="'HelveticaLTStd-Fraction'" font-size="2.4"> </text>
	<text transform="matrix(1 0 0 1 -94 68.1299)" fill="#000000" font-family="'MyriadPro-Regular'" font-size="2.4">shape,</text>
	<text transform="matrix(1 0 0 1 -87.4961 68.1299)" fill="#000000" font-family="'HelveticaLTStd-Fraction'" font-size="2.4"> </text>
	<text transform="matrix(1 0 0 1 -86.752 68.1299)" fill="#000000" font-family="'MyriadPro-Regular'" font-size="2.4">make</text>
	<text transform="matrix(1 0 0 1 -81.2656 68.1299)" fill="#000000" font-family="'HelveticaLTStd-Fraction'" font-size="2.4"> </text>
	<text transform="matrix(1 0 0 1 -80.5225 68.1299)" fill="#000000" font-family="'MyriadPro-Regular'" font-size="2.4">sure</text>
	<text transform="matrix(1 0 0 1 -76.2617 68.1299)" fill="#000000" font-family="'HelveticaLTStd-Fraction'" font-size="2.4"> </text>
	<text transform="matrix(1 0 0 1 -75.5176 68.1299)" fill="#000000" font-family="'MyriadPro-Regular'" font-size="2.4">to</text>
	<text transform="matrix(1 0 0 1 -73.4063 68.1299)" fill="#000000" font-family="'HelveticaLTStd-Fraction'" font-size="2.4"> </text>
	<text transform="matrix(1 0 0 1 -72.6621 68.1299)" fill="#000000" font-family="'MyriadPro-Regular'" font-size="2.4">ungroup</text>
	<rect x="-50" y="58" fill="none" width="35" height="32.5"/>
	<text transform="matrix(1 0 0 1 -50 60.1299)" fill="#000000" font-family="'MyriadPro-Regular'" font-size="3">Save</text>
	<text transform="matrix(1 0 0 1 -44.1289 60.1299)" fill="#000000" font-family="'HelveticaLTStd-Fraction'" font-size="3"> </text>
	<text transform="matrix(1 0 0 1 -43.1992 60.1299)" fill="#000000" font-family="'MyriadPro-Regular'" font-size="3">as</text>
	<text transform="matrix(1 0 0 1 -50 65.1299)" fill="#000000" font-family="'MyriadPro-Regular'" font-size="2.4">Save</text>
	<text transform="matrix(1 0 0 1 -45.3027 65.1299)" fill="#000000" font-family="'HelveticaLTStd-Fraction'" font-size="2.4"> </text>
	<text transform="matrix(1 0 0 1 -44.5596 65.1299)" fill="#000000" font-family="'MyriadPro-Regular'" font-size="2.4">as</text>
	<text transform="matrix(1 0 0 1 -42.4521 65.1299)" fill="#000000" font-family="'HelveticaLTStd-Fraction'" font-size="2.4"> </text>
	<text transform="matrix(1 0 0 1 -41.708 65.1299)" fill="#000000" font-family="'MyriadPro-Regular'" font-size="2.4">.SVG</text>
	<text transform="matrix(1 0 0 1 -37.1387 65.1299)" fill="#000000" font-family="'HelveticaLTStd-Fraction'" font-size="2.4"> </text>
	<text transform="matrix(1 0 0 1 -36.3945 65.1299)" fill="#000000" font-family="'MyriadPro-Regular'" font-size="2.4">and</text>
	<text transform="matrix(1 0 0 1 -32.5518 65.1299)" fill="#000000" font-family="'HelveticaLTStd-Fraction'" font-size="2.4"> </text>
	<text transform="matrix(1 0 0 1 -31.8086 65.1299)" fill="#000000" font-family="'MyriadPro-Regular'" font-size="2.4">make</text>
	<text transform="matrix(1 0 0 1 -26.3223 65.1299)" fill="#000000" font-family="'HelveticaLTStd-Fraction'" font-size="2.4"> </text>
	<text transform="matrix(1 0 0 1 -25.5781 65.1299)" fill="#000000" font-family="'MyriadPro-Regular'" font-size="2.4">sure</text>
	<text transform="matrix(1 0 0 1 -21.3184 65.1299)" fill="#000000" font-family="'HelveticaLTStd-Fraction'" font-size="2.4"> </text>
	<text transform="matrix(1 0 0 1 -20.5742 65.1299)" fill="#000000" font-family="'MyriadPro-Regular'" font-size="2.4">&#8220;Use</text>
	<text transform="matrix(1 0 0 1 -16.0186 65.1299)" fill="#000000" font-family="'HelveticaLTStd-Fraction'" font-size="2.4"> </text>
	<text transform="matrix(1 0 0 1 -50 68.1299)" fill="#000000" font-family="'MyriadPro-Regular'" font-size="2.4">Artboards&#8221;</text>
	<text transform="matrix(1 0 0 1 -39.1738 68.1299)" fill="#000000" font-family="'HelveticaLTStd-Fraction'" font-size="2.4"> </text>
	<text transform="matrix(1 0 0 1 -38.4297 68.1299)" fill="#000000" font-family="'MyriadPro-Regular'" font-size="2.4">is</text>
	<text transform="matrix(1 0 0 1 -36.918 68.1299)" fill="#000000" font-family="'HelveticaLTStd-Fraction'" font-size="2.4"> </text>
	<text transform="matrix(1 0 0 1 -36.1738 68.1299)" fill="#000000" font-family="'MyriadPro-Regular'" font-size="2.4">checked</text>
	
		<text transform="matrix(1.0074 0 0 1 -125.542 30.5938)" fill="#000000" font-family="'HelveticaLTStd-Fraction'" font-size="2.5731">100</text>
	<text transform="matrix(1.0074 0 0 1 -121.2188 30.5938)" fill="#000000" font-family="'MyriadPro-Regular'" font-size="2.5731">px</text>
	<text transform="matrix(1.0074 0 0 1 -41 39)" fill="#000000" font-family="'MyriadPro-Regular'" font-size="5.1462">.SVG</text>
	<rect x="-126.514" y="34.815" fill="#000000" width="10.261" height="10.185"/>
	<rect x="-126.477" y="31.766" fill="#000000" width="0.522" height="2.337"/>
	<rect x="-116.813" y="31.766" fill="#000000" width="0.523" height="2.337"/>
	<rect x="-127" y="32.337" fill="#000000" width="11.233" height="0.572"/>
	<g>
		<rect x="-83.805" y="33.844" fill="#000000" width="10.305" height="10.156"/>
		<rect x="-76.809" y="28.707" fill="#000000" width="3.308" height="3.261"/>
	</g>
	<rect x="-178.5" y="22.5" fill="#000000" stroke="#FFFFFF" stroke-miterlimit="10" width="30" height="30"/>
	<rect x="-136.5" y="22.5" fill="#000000" stroke="#FFFFFF" stroke-miterlimit="10" width="30" height="30"/>
	<rect x="-93.5" y="22.5" fill="#000000" stroke="#FFFFFF" stroke-miterlimit="10" width="30" height="30"/>
	<rect x="-49.5" y="22.5" fill="#000000" stroke="#FFFFFF" stroke-miterlimit="10" width="30" height="30"/>
</g>
<path d="M81.626,62.159l-4.39-2.792l-0.578,2.541c-2.728-0.529-5.455-1.061-8.183-1.589c-0.168-0.205-0.334-0.403-0.487-0.582  c-1.278-1.505-3.081-2.767-2.89-4.944c0.347-3.93,0.133-8.477-3.375-11.107c-1.633-1.223-4.002-0.75-5.695-1.912  c-0.624-0.428-1.188-1.084-1.602-1.711c-0.101-0.151-0.781-1.68-0.862-1.682c2.464,0.042,4.996,0.121,7.403-0.497  c3.187-0.817,5.62-3.115,7.993-5.269c1.531-1.387,2.955-2.896,4.126-4.602c0.847-1.233,1.574-2.543,2.472-3.741  c0.841-1.125,2.109-2.776,3.719-2.557c1.428,0.194,2.469,1.711,3.301,2.74c0.218,0.27,1.192-1.786,1.227-1.927  c0.187-0.779,0.273-1.893,0.003-2.669c-0.642-1.841-3.409-3.009-5.137-3.282c-2.056-0.325-4.621,0.075-6.653,0.438  c-2.12,0.377-4.595,0.931-6.525,1.912c-2.033,1.033-3.648,2.585-5.306,4.117c-1.341,1.239-2.849,2.463-4.643,2.956  c-1.601,0.44-3.483,0.366-5.132,0.578c-1.384,0.178-2.756,0.427-4.113,0.75c-0.883,0.21-1.82,0.623-2.74,0.875  c-0.366,0.101-0.729,0.175-1.086,0.202c-0.034-0.373-0.021-0.747-0.021-1.121c0.072,0,1.078-0.003,1.078,0  c-0.029-1.24-0.189-1.725-0.943-2.693c0.195,0.244,1.25,0.374,1.532,0.459c0.214,0.064,2.893,0.861,1.928-0.421  c-0.318-0.411-3.612-0.884-3.594-1.25c0.092-1.828,1.054-4.174,1.784-5.811c1.434-3.212,5.74-4.634,8.813-5.618  c-0.896,0.287-1.828,0.065-2.746,0.077c-1.579,0.02-3.137,0.349-4.687,0.624c-2.602,0.463-5.241,1.173-7.433,2.706  c-0.909,0.636-1.713,1.403-2.428,2.249c-0.958,1.132-1.706,2.399-2.729,3.485c-0.202,0.214-1.641-0.481-1.85-0.542  s-2.276-0.354-2.09,0.398c0.088,0.352,1.447,0.616,1.724,0.662c0.756,0.127,1.478,0.374,2.216,0.559  c-0.233,0.666-0.47,1.261-0.366,1.979c0.213,1.471-0.582,2.807-0.527,4.297c0.263-0.039,0.505-0.133,0.758-0.217  c0.24,0.599,0.286,1.325,0.688,1.854c0.541,0.713,1.011,0.416,1.761,0.347c0.637-0.059,1.688,0.066,1.994,0.719  c0.435,0.929-0.349,2.309-0.34,3.294c0.009,0.935-0.541,2.184-0.848,3.061c-0.352,1.005-0.805,1.971-1.383,2.866  c-1.222,1.895-2.575,3.892-4.385,5.229c-1.7,1.256-3.395,2.855-5.386,3.501c-1.499,0.486-4.364,0.101-5.365,1.432  c-0.063,0.082-0.108,0.177-0.143,0.277c-5.381-1.043-10.761-2.088-16.141-3.133c-0.593-0.116-2.652,0.83-1.91,0.974  c6.091,1.183,12.182,2.365,18.273,3.547c0.13,0.197,0.293,0.356,0.487,0.437c0.693,0.282,1.495,0.001,2.214,0.196  c0.71,0.193,1.278,0.311,1.965,0.275c1.993,0.386,3.986,0.772,5.979,1.159c0.369,0.46,0.571,0.516,1.328,0.355  c-0.012,0.002-0.664,4.127-0.751,4.536c-0.366,1.701-0.681,3.428-0.666,5.174c0.007,0.796,0.061,1.655,0.396,2.391  c0.649,1.423,2.692,0.826,3.75,0.592c0.668-0.148,1.31-0.233,1.866,0.244c0.495,0.426,1.554,3.223,1.554,3.223  s-1.34,0.042-1.975,0.269c0.368-0.131,1.261,1.42,1.349,1.692c0.475,1.479-0.271,3.216-1.263,4.303  c-0.662,0.725-1.602,1.688-2.508,2.086c0.257-0.112,1.251,0.309,1.604,0.307c0.561-0.005,1.081-0.167,1.574-0.424  c0.814-0.426,2.284-1.434,2.714-2.27c0.322-0.625,0.347-1.392,0.569-2.058c0.358,0.718,0.718,1.436,1.077,2.153l1.616-0.808  c-0.134,0.067-0.229-2.4-0.245-2.55c-0.105-0.966-0.854-1.74-1.346-2.519c-0.616-0.975-0.782-2.058-1.102-3.146l2.154,0.404  c1.091,1.686,2.314,3.246,3.474,4.883c0.885,1.249,1.46,2.601,2.047,4.004c-0.674,0.045-1.347,0.091-2.02,0.135  c0.154-0.01,0.879,1.365,0.972,1.54c0.347,0.652,0.603,1.354,0.83,2.056c0.793,2.458-1.263,4.483-2.898,5.641  c-0.158,0.111,1.299,0.338,1.4,0.324c1.226-0.168,2.766-0.683,3.366-1.649c0.257-0.415,1.414-2.088,1.279-2.828  c0.017,0.019,1.381,1.516,1.381,1.516s1.086-0.966,1.208-1.069c-0.272-0.763-0.685-1.484-0.851-2.284  c-0.134-0.639,0.072-1.133-0.326-1.742c-0.288-0.442-0.708-0.652-1.109-0.964c-0.845-0.658-1.448-4.87-2.017-4.982  c2.975,0,6.071,0.297,8.619-1.63c1.585-1.198,2.451-2.795,4.42-3.562c2.085-0.813,4.076-0.155,6.153-0.525  c1.091-0.194,2.407-1.819,2.426-2.886c0.013-0.771-0.322-1.563-0.778-2.307c2.247,0.436,4.495,0.872,6.742,1.309l-0.495,2.177  l5.216-0.583l14.837,8.928c0,0,2.001-4.729,2.38-6.391c0.379-1.663,0.623-6.792,0.623-6.792L81.626,62.159z M34.821,49.374  c-2.233,1.44-2.258,0.938-3.445,1.237c-0.683,0.173-2.629,1.534-3.138,1.896c-0.599-0.117-1.198-0.233-1.797-0.35  c2.646-1.597,7.32-4.165,9.48-6.163c1.283-1.186,3.86-5.685,4.256-5.685C40.926,40.311,38.239,47.172,34.821,49.374z M43.326,48.684  c-0.722,0.358-3.442,0.906-3.843,1.591c0.176-0.301,1.498-1.52,2.228-2.794c1.228-2.144,2.335-4.458,2.522-4.354  c0.359,0.2,3.169,2.055,3.348,1.761C46.568,46.561,45.069,47.818,43.326,48.684z"/>
<text x="0.0" y="117.5" font-size="5.0" font-weight="bold" font-family="Helvetica Neue, Helvetica, Arial-Unicode, Arial, Sans-serif" fill="#000000">Created by Jennifer Cozzette</text><text x="0.0" y="122.5" font-size="5.0" font-weight="bold" font-family="Helvetica Neue, Helvetica, Arial-Unicode, Arial, Sans-serif" fill="#000000">from the Noun Project</text></svg>