<svg xmlns="http://www.w3.org/2000/svg" xmlns:xlink="http://www.w3.org/1999/xlink" version="1.1" id="Layer_1" x="0px" y="0px" viewBox="5.0 -10.0 100.0 135.0" enable-background="new 0 0 100 100" xml:space="preserve" height="100px" width="100px">
<g>
	<path d="M97.8,32.4C81.9,26.6,60.7,43,60.7,43l2.7-10.6c0,0-6.5,4.4-12.9,4.4c-6.4,0-13.6-4.4-13.6-4.4L39.5,43   c0,0-21.2-16.4-37.1-10.6c0,0,16.3,8.1,11,18.7c0,0,14.8-1.1,15.8,15.7c0,0,14.7,2.1,20.9,11c6.2-8.9,20.9-11,20.9-11   c1-16.8,15.8-15.7,15.8-15.7C81.5,40.5,97.8,32.4,97.8,32.4z M46,51.7c-1.8,0-3.2-2.1-3.2-4.7s1.4-4.7,3.2-4.7   c1.8,0,3.2,2.1,3.2,4.7S47.8,51.7,46,51.7z M54.1,51.7c-1.8,0-3.2-2.1-3.2-4.7s1.4-4.7,3.2-4.7s3.2,2.1,3.2,4.7   S55.9,51.7,54.1,51.7z"/>
</g>
<ellipse cx="46.8" cy="47" rx="1.7" ry="2.4"/>
<ellipse cx="53.4" cy="47" rx="1.7" ry="2.4"/>
<text x="0.0" y="117.5" font-size="5.0" font-weight="bold" font-family="Helvetica Neue, Helvetica, Arial-Unicode, Arial, Sans-serif" fill="#000000">Created by Megan Sheehan</text><text x="0.0" y="122.5" font-size="5.0" font-weight="bold" font-family="Helvetica Neue, Helvetica, Arial-Unicode, Arial, Sans-serif" fill="#000000">from the Noun Project</text></svg>