<svg xmlns="http://www.w3.org/2000/svg" xmlns:xlink="http://www.w3.org/1999/xlink" version="1.1" x="0px" y="0px" width="100px" height="100px" viewBox="5.0 -10.0 100.0 135.0" enable-background="new 0 0 100 100" xml:space="preserve">
<g id="Captions">
</g>
<g id="Your_Icon">
	<path fill="#000000" d="M93.732,14.804L28.318,2c-0.006,0-0.013,0-0.019,0h-1.634C24.862,2,23,3.445,23,5.224V6.86   c0,0,0,0.004,0,0.007l0.203,46.41c-2.894,0.085-5.822,0.663-8.815,1.929C4.269,59.487-1.33,69.224,1.826,76.952   c3.153,7.728,13.94,10.521,24.062,6.24c8.887-3.76,13.953-11.728,13.009-18.847C39.168,63.874,39,63.355,39,62.769V21.345l42,9.6   V66.08c-3,0.125-5.866,0.713-8.732,1.926c-10.118,4.28-15.859,14.018-12.703,21.745c3.152,7.729,13.871,10.522,23.989,6.241   c9.112-3.856,14.558-12.131,13.258-19.384C96.924,76.28,97,75.937,97,75.567v-55.9c0-0.004,0-0.004,0-0.004v-1.641   C97,16.245,95.537,14.804,93.732,14.804z"/>
</g>
<text x="0.0" y="117.5" font-size="5.0" font-weight="bold" font-family="Helvetica Neue, Helvetica, Arial-Unicode, Arial, Sans-serif" fill="#000000">Created by Chris Robinson</text><text x="0.0" y="122.5" font-size="5.0" font-weight="bold" font-family="Helvetica Neue, Helvetica, Arial-Unicode, Arial, Sans-serif" fill="#000000">from the Noun Project</text></svg>