<svg xmlns="http://www.w3.org/2000/svg" xmlns:xlink="http://www.w3.org/1999/xlink" version="1.1" x="0px" y="0px" width="100px" height="100px" viewBox="5.0 -10.0 100.0 135.0" enable-background="new 0 0 100 100" xml:space="preserve">
<g id="Captions">
</g>
<g id="Your_Icon">
	<g>
		<path d="M37,50c-1.048,7.799,3.27,10.057,3.27,19.602c0,25.398-40.086,30.333,9.642,30.396V100c0.083,0,0.161-0.001,0.245-0.001    S50.317,100,50.402,100v-0.002c18.305-0.023,24.432-1.323,24.877-3.995C51,81,45,67.179,37,50z"/>
	</g>
	<path d="M38.275,41.361C34,51,57,86,75,94c-4.397-4.956-14.957-15.013-14.957-24.398c0-12.317,10.133-12.792,1.993-28.24   c-8.139-15.448-1.162-19.435,1.993-22.757C67.187,15.282,62.701,9.801,60.376,0l-2.295,2.987c0.592,3.58-0.948,7.395-2.531,7.395   c-4.484,0-5.481,3.571-5.481,3.571s-1.495-3.571-5.316-3.571c-1.618,0-3.335-3.991-2.709-7.642L39.938,0   c-2.325,9.801-6.811,15.282-3.655,18.604C39.438,21.927,45.355,25.398,38.275,41.361z"/>
</g>
<text x="0.0" y="117.5" font-size="5.0" font-weight="bold" font-family="Helvetica Neue, Helvetica, Arial-Unicode, Arial, Sans-serif" fill="#000000">Created by Nicolas Mol&#232;s</text><text x="0.0" y="122.5" font-size="5.0" font-weight="bold" font-family="Helvetica Neue, Helvetica, Arial-Unicode, Arial, Sans-serif" fill="#000000">from the Noun Project</text></svg>