<svg xmlns="http://www.w3.org/2000/svg" xmlns:xlink="http://www.w3.org/1999/xlink" version="1.1" id="Calque_1" x="0px" y="0px" width="100px" height="56.123px" viewBox="4.138 16.9397 100.0 75.76605" enable-background="new -0.862 22.552 100 56.123" xml:space="preserve">
<path d="M98.712,54.193c-0.482-0.343-0.889-0.832-1.158-1.235c-0.135-0.201-0.235-0.378-0.302-0.503  c-0.067-0.12-0.087-0.169-0.087-0.169c-0.654-1.567-1.51-3.057-2.525-4.418c-0.167-0.222-0.36-0.422-0.536-0.639l-0.16-3.257  l-3.32-0.142c-3.534-2.729-7.946-4.377-12.752-4.377H65.632l4.02-7.164c1.652,0.017,3.151-0.026,3.639-0.094  c1.248-0.178,1.725-3.09,1.248-3.803c-0.474-0.713-4.458,0.059-6.419,0.059c-1.962,0-10.343-0.535-9.808,0.892  c0.535,1.426,5.527,1.605,5.706,2.318c0.078,0.307,1.571,0.481,3.347,0.566l-3.823,6.811c-0.344,0.1-0.654,0.327-0.844,0.664  l-5.02,8.875c-3.104-0.178-16.021-1.72-26.851-15.548c-0.048-0.061-0.116-0.096-0.172-0.147c0.685-3.292,1.244-5.992,1.526-7.358  c0.604,0.119,1.428,0.317,2.301,0.525c0.162,0.324,0.414,0.859,0.932,1.338c0.675,0.621,1.75,1.053,3.431,1.053  c0.012,0,0.024,0,0.035,0c0.463,0,0.972-0.03,1.541-0.094c0.389-0.045,0.672-0.398,0.627-0.79c-0.045-0.39-0.397-0.673-0.789-0.627  c-0.523,0.059-0.981,0.084-1.381,0.084c-1.866-0.027-2.391-0.498-2.742-0.95c0.001-0.001,0.004-0.002,0.007-0.004  c0.959,0.197,1.93,0.35,2.843,0.351c0.351,0,0.698-0.024,1.04-0.084c0.581-0.103,0.969-0.658,0.866-1.24  c-0.103-0.582-0.659-0.97-1.24-0.869c-0.181,0.033-0.409,0.05-0.666,0.05c-0.66,0.001-1.507-0.122-2.389-0.3  c-0.196-0.257-0.464-0.461-0.802-0.538c-1.662-0.369-3.176-0.852-4.467-0.876c-0.336,0.009-0.697,0.016-1.18,0.261  c-0.499,0.208-0.984,0.981-0.935,1.562c-0.001,0-0.007,0.259,0.093,0.515c0.141,0.375,0.424,0.652,0.763,0.802  c-0.311,1.507-0.826,3.989-1.439,6.933c-0.301,0.201-0.528,0.513-0.607,0.896c-0.51,2.447-1.225,5.114-2.005,7.737  c-2.592-1.151-5.454-1.805-8.472-1.805c-2.659,0-4.738,0.354-6.32,0.702c-1.568,0.353-2.692,0.67-3.177,0.655  c-0.56,0-1.013,0.452-1.013,1.013c0,0.559,0.453,1.013,1.013,1.013c1.05-0.018,2.103-0.378,3.612-0.702  c1.498-0.328,3.399-0.653,5.883-0.653c2.814,0.004,5.475,0.641,7.874,1.745c-0.062,0.199-0.124,0.395-0.186,0.592  c-2.366-1.116-4.999-1.757-7.788-1.757c-10.113,0-18.307,8.196-18.308,18.307c0.001,10.112,8.194,18.307,18.308,18.309  c10.111-0.002,18.307-8.196,18.307-18.309c0-6.277-3.163-11.813-7.98-15.112c0.065-0.205,0.129-0.415,0.195-0.622  c5.086,3.377,8.444,9.143,8.467,15.705c-0.001,0.032-0.003,0.09-0.003,0.166c0.019,0.506-0.014,1.859,0.488,2.976  c0.172,0.363,0.537,0.575,0.916,0.575c0.147,0,0.295-0.03,0.437-0.099c0.507-0.242,0.719-0.849,0.477-1.353  c-0.209-0.368-0.306-1.733-0.288-2.1c0-0.067,0.002-0.082,0.001-0.082l0.001-0.056c0-7.492-3.953-14.046-9.874-17.739  c0.113-0.372,0.226-0.741,0.335-1.115l16.975,17.606c-0.527,1.026-0.625,2.286-0.558,3.595c0.128,2.491,1.829,4.441,4.087,5.149  l-0.132,0.575c-0.049,0.211,0.001,0.437,0.14,0.606c0.134,0.168,0.339,0.268,0.558,0.268h3.058c0.394,0,0.712-0.319,0.712-0.712  c0-0.306-0.193-0.562-0.461-0.663c1.736-0.241,4.441-0.651,7.453-1.117c2.61,6.922,9.278,11.854,17.113,11.854  c10.114-0.001,18.309-8.196,18.309-18.308c0-1.266-0.129-2.497-0.371-3.689l2.577-0.681c0.382-0.102,0.667-0.408,0.738-0.797  C99.191,54.812,99.032,54.422,98.712,54.193z M32.189,60.368c-0.015,8.14-6.599,14.725-14.74,14.743  C9.307,75.093,2.723,68.508,2.708,60.368c0.015-8.141,6.599-14.726,14.741-14.741c0.131,0,0.258,0.017,0.386,0.019  c-0.007,0.069-0.027,0.133-0.019,0.204c0.058,0.558,0.559,0.962,1.114,0.904c0,0,0.054-0.006,0.201-0.006  c0.445-0.018,1.355,0.136,1.696,0.557c0.201,0.216,0.474,0.328,0.746,0.328c0.245,0,0.493-0.089,0.686-0.267  c0.231-0.212,0.327-0.506,0.314-0.797c0.531,0.198,1.045,0.421,1.545,0.675c-0.054,0.16-0.109,0.328-0.163,0.485  c-1.479,4.38-2.749,7.707-3.036,8.625c-0.121,0.509-0.771,1.137-1.563,1.625c-0.526-0.424-1.186-0.685-1.912-0.685  c-1.697,0-3.075,1.377-3.075,3.075c0,1.696,1.378,3.073,3.075,3.073c1.61,0,2.918-1.243,3.05-2.821  c1.192-0.679,2.577-1.672,3.151-3.429c0.196-0.649,1.488-4.066,2.946-8.358C29.994,51.531,32.179,55.688,32.189,60.368z   M51.387,65.837c-0.01,0-0.019-0.003-0.029-0.003l0.576-2.519c0.264-0.181,0.446-0.468,0.446-0.808c0-0.549-0.446-0.993-0.993-0.993  c-0.55,0-0.995,0.444-0.995,0.993c0,0.184,0.063,0.346,0.15,0.494l-0.573,2.507c-1.125-0.532-1.911-1.672-1.911-3.001  c0-1.838,1.491-3.328,3.329-3.328c1.839,0,3.328,1.49,3.328,3.328C54.715,64.347,53.226,65.837,51.387,65.837z M53.344,56.238  l0.022-0.1c0.043-0.208-0.009-0.43-0.146-0.597c-0.137-0.164-0.337-0.264-0.554-0.264h-2.484c-0.394,0-0.713,0.319-0.713,0.712  c0,0.395,0.32,0.714,0.713,0.714h0.387c-1.025,0.066-1.849,0.256-2.525,0.53L29.811,38.322c0.14-0.528,0.271-1.05,0.4-1.571  c9.958,11.495,21.193,14.016,25.922,14.556L53.344,56.238z M59.933,56.679c-1.251-0.001-2.451-0.003-3.559-0.003l7.977-14.107  l2.31,3.346C63.273,48.546,60.824,52.324,59.933,56.679z M68.69,48.855l1.15,1.667l-0.011,0.005  c-0.29,0.149-0.389,0.532-0.224,0.853l1.365,2.646c0.165,0.321,0.535,0.462,0.825,0.312l0.5-0.259l1.804,2.612  c-2.711-0.003-6.61-0.006-10.482-0.01C64.427,53.546,66.234,50.816,68.69,48.855z M74.658,45.994  c1.035-0.231,2.106-0.362,3.21-0.365c6.483,0.011,11.967,4.196,13.943,10.008l-10.787,2.849c-0.68-1.13-1.931-1.868-3.338-1.796  c-0.02,0.002-0.432,0.002-1.125,0.002l-5.574-8.077c0.049,0.007,0.097,0.021,0.146,0.021c0.326,0,0.643-0.155,0.839-0.444  c0.199-0.307,0.625-0.547,1.056-0.678c0.209-0.065,0.409-0.103,0.552-0.123c0.14-0.019,0.192-0.019,0.192-0.02  c0.559-0.025,0.991-0.5,0.967-1.06C74.732,46.199,74.697,46.095,74.658,45.994z M77.868,75.109  c-6.045-0.011-11.228-3.649-13.502-8.854c6.922-1.089,14.009-2.24,14.009-2.24V64c1.789-0.244,3.131-1.749,3.171-3.555l10.788-2.85  c0.173,0.899,0.273,1.823,0.273,2.772C92.593,68.509,86.007,75.093,77.868,75.109z M95.279,54.722  c-2.383-7.344-9.272-12.66-17.411-12.661c-3.5,0-6.757,1-9.539,2.703l-2.265-3.283h11.804c6.2,0,11.696,2.986,15.146,7.601  c0.918,1.231,1.688,2.576,2.288,4.008c0.033,0.059,0.296,0.678,0.853,1.4L95.279,54.722z"/>
<text x="-0.862" y="88.496525" font-size="2.80615" font-weight="bold" font-family="Helvetica Neue, Helvetica, Arial-Unicode, Arial, Sans-serif" fill="#000000">Created by Olivier Guin</text><text x="-0.862" y="91.302675" font-size="2.80615" font-weight="bold" font-family="Helvetica Neue, Helvetica, Arial-Unicode, Arial, Sans-serif" fill="#000000">from the Noun Project</text></svg>