<svg xmlns="http://www.w3.org/2000/svg" xmlns:xlink="http://www.w3.org/1999/xlink" version="1.1" id="Your_Icon" x="0px" y="0px" width="100px" height="100px" viewBox="5.0 -10.0 100.0 135.0" enable-background="new 0 0 100 100" xml:space="preserve">
<g>
	<g>
		<g>
		</g>
	</g>
	<g>
	</g>
</g>
<path d="M87.078,39.691l4.334-3.703l-0.904-5.06l-5.521,1.669l3.176-5.281l-3.072-3.253L73.532,40.144l-14.211-5.098l-17.588-0.623  L31.618,15.635l3.339-2.33l-0.331-3.184l-2.96-0.986l-2.94,1.919l0.805-3.521l-2.125-2.301l-3.258,0.887l-1.049,3.644l-2.097-3.229  l-2.166,0.672l-0.955,5.295l-9.96,5.769l9.235,0.643l-1.895,2.893l2.347,0.813l0.15,1.807l2.018-0.634l0.486,29.36l7.72,15.092  l13.39,6.65l1.087,3.13l8.191,4.216l1.684,4.096l-5.54,5.661L34.69,93.625l1.626,1.143h20.711l-1.743-1.143l-5.12-0.905l5.546-5.179  l-0.363-5.903l4.932-6.144l11.272-3.813l9.422-8.896l11.106-19.209v-3.069L87.078,39.691z M71.091,63.958l-15.796,3.868  l-12.982,0.361l-8.309-4.963l-3.503-9.551l5.316-8.805l0.499,0.304l-3.832,8.341l3.32,8.422l7.251,4.495l12.466,0.182l14.943-3.622  l0.92-2.232l-4.568,0.104l0.958-3.48l-4.602,0.567l-0.524-2.875l-5.824,1.211l6.359-2.221l0.673,2.961l4.845-0.504l-0.706,3.398  l4.903-0.25L71.091,63.958z"/>
<text x="0.0" y="117.5" font-size="5.0" font-weight="bold" font-family="Helvetica Neue, Helvetica, Arial-Unicode, Arial, Sans-serif" fill="#000000">Created by m. turan ercan</text><text x="0.0" y="122.5" font-size="5.0" font-weight="bold" font-family="Helvetica Neue, Helvetica, Arial-Unicode, Arial, Sans-serif" fill="#000000">from the Noun Project</text></svg>