<svg xmlns="http://www.w3.org/2000/svg" xmlns:xlink="http://www.w3.org/1999/xlink" version="1.1" x="0px" y="0px" width="100px" height="100px" viewBox="5.0 -10.0 100.0 135.0" enable-background="new 0 0 100 100" xml:space="preserve">
<g id="IceCream">
	<path d="M50,1.811c-0.45,0-0.895,0.022-1.336,0.055c-0.03,3.619-2.97,6.544-6.596,6.544c-0.02,0-0.038-0.002-0.058-0.003   c0.034,0.272,0.058,0.549,0.058,0.831c0,3.253-2.357,5.95-5.455,6.492c0.14,0.49,0.219,1.006,0.219,1.54   c0,2.691-1.896,4.938-4.425,5.482v48.346c0,0.973,0.789,1.76,1.761,1.76h11.855v21.355c0,2.196,1.781,3.977,3.977,3.977   c2.196,0,3.976-1.78,3.976-3.977V72.857h11.857c0.973,0,1.76-0.787,1.76-1.76V19.404C67.593,9.688,59.717,1.811,50,1.811z    M44.13,63.459c0,0.686-0.556,1.242-1.242,1.242s-1.242-0.557-1.242-1.242V23.505c0-0.686,0.557-1.242,1.242-1.242   s1.242,0.556,1.242,1.242V63.459z M58.19,63.459c0,0.686-0.554,1.242-1.24,1.242s-1.242-0.557-1.242-1.242V23.505   c0-0.686,0.556-1.242,1.242-1.242s1.24,0.556,1.24,1.242V63.459z"/>
</g>
<g id="ShoppingTroley" display="none">
	<g display="inline">
		<path d="M90.885,74.215c-0.408-1.64-2.072-2.639-3.713-2.232l-28.783,7.16c-0.106,0.027-0.202,0.071-0.301,0.109    c0.854,1.793,1.365,3.778,1.459,5.875c0.106-0.016,0.213-0.014,0.32-0.039l28.783-7.159    C90.294,77.519,91.293,75.857,90.885,74.215z"/>
		<path d="M37.709,71.998c1.797-0.854,3.785-1.366,5.886-1.458c-0.016-0.107-0.02-0.216-0.047-0.323l-14.357-57.72L13.774,2.318    c-1.413-0.933-3.311-0.543-4.245,0.871C8.599,4.599,8.987,6.5,10.398,7.433l13.424,8.862l13.783,55.399    C37.633,71.802,37.675,71.898,37.709,71.998z"/>
		<path d="M61.26,22.371c-0.205-0.808-1.026-1.293-1.835-1.088l-23.352,5.966c-0.805,0.205-1.292,1.026-1.087,1.833l4.144,16.224    c0.206,0.807,1.028,1.293,1.834,1.087l23.353-5.966c0.807-0.205,1.293-1.025,1.088-1.831L61.26,22.371z"/>
		<path d="M31.895,85.813c0-6.838,5.542-12.376,12.377-12.376l0,0c6.838,0,12.377,5.538,12.379,12.376l0,0    c-0.002,6.836-5.541,12.375-12.379,12.375l0,0C37.437,98.188,31.895,92.649,31.895,85.813L31.895,85.813z M34.521,85.813    c0.009,5.383,4.365,9.739,9.751,9.75l0,0c5.386-0.011,9.742-4.367,9.753-9.75l0,0c-0.011-5.385-4.367-9.741-9.753-9.753l0,0    C38.885,76.072,34.529,80.429,34.521,85.813L34.521,85.813z"/>
		<path d="M90.502,66.598l-6.821-26.703c-0.337-1.329-1.688-2.13-3.017-1.791l-38.437,9.817c-1.326,0.339-2.128,1.691-1.79,3.019    l4.98,19.493c5.036,0.369,9.388,3.147,11.93,7.194l31.363-8.012C90.041,69.277,90.841,67.925,90.502,66.598z"/>
		<path d="M37.736,85.812c0-3.609,2.928-6.534,6.535-6.534l0,0c3.609,0,6.533,2.925,6.536,6.534l0,0    c-0.003,3.608-2.927,6.532-6.536,6.532l0,0C40.665,92.345,37.736,89.421,37.736,85.812L37.736,85.812z M39.488,85.812    c0.005,2.646,2.143,4.781,4.784,4.783l0,0c2.644-0.002,4.781-2.138,4.785-4.783l0,0c-0.004-2.641-2.141-4.781-4.785-4.785l0,0    C41.631,81.031,39.493,83.172,39.488,85.812L39.488,85.812z"/>
	</g>
</g>
<g id="HotAirBalloon" display="none">
	<g display="inline">
		<path d="M50,1.811c-19.323,0-38.615,9.552-38.615,31.801c0,24.085,24.176,37.49,31.998,50.367h13.234    c7.822-12.877,31.998-26.282,31.998-50.367C88.615,11.362,69.322,1.811,50,1.811z M45.485,83.392    C41.167,63.005,5.668,35.35,32.741,5.202c1.677-0.551,2.387-0.826,5.04-1.458c-15.069,23.594,5.108,60.11,8.969,79.647    C46.057,83.392,46.021,83.392,45.485,83.392z M49.373,83.392c0-16.502-13.225-60.54-2.797-80.893    c1.438-0.101,5.014-0.191,7.074,0.015c8.945,20.449-2.907,64.572-2.907,80.878C49.706,83.392,50.294,83.392,49.373,83.392z     M54.515,83.392c-0.536,0-0.572,0-1.265,0c3.859-19.537,24.038-56.054,8.969-79.647c2.654,0.632,3.363,0.907,5.04,1.458    C94.332,35.35,58.832,63.005,54.515,83.392z"/>
		<path d="M54.18,93.067h-8.329c-0.233,0-0.422,0.189-0.422,0.423s0.189,0.423,0.422,0.423v3.442c0,0.461,0.373,0.834,0.833,0.834    h6.664c0.459,0,0.832-0.373,0.832-0.834v-3.442c0.233,0,0.423-0.189,0.423-0.423S54.413,93.067,54.18,93.067z"/>
	</g>
</g>
<g id="Pencil" display="none">
	<polygon display="inline" points="50,98.189 45.891,85.713 45.891,13.932 54.11,13.932 54.064,85.994  "/>
	<path display="inline" d="M54.259,6.285h-8.518V6.07c0-2.349,1.911-4.259,4.259-4.259c2.349,0,4.259,1.911,4.259,4.259V6.285z"/>
	<g display="inline">
		<path d="M53.564,9.518h-7.129c-0.49,0-0.888-0.398-0.888-0.888c0-0.491,0.397-0.888,0.888-0.888h7.129    c0.49,0,0.888,0.397,0.888,0.888C54.452,9.12,54.055,9.518,53.564,9.518z"/>
	</g>
	<g display="inline">
		<path d="M53.564,12.57h-7.129c-0.49,0-0.888-0.397-0.888-0.888c0-0.49,0.397-0.888,0.888-0.888h7.129    c0.49,0,0.888,0.398,0.888,0.888C54.452,12.173,54.055,12.57,53.564,12.57z"/>
	</g>
	<path display="inline" fill="#000000" d="M49.993,84.965c0.637,0,1.21,0.266,1.619,0.695V15.708H48.39v69.933   C48.796,85.223,49.363,84.965,49.993,84.965z"/>
</g>
<text x="0.0" y="117.5" font-size="5.0" font-weight="bold" font-family="Helvetica Neue, Helvetica, Arial-Unicode, Arial, Sans-serif" fill="#000000">by Luis Miguel Oliveira Caldeira</text><text x="0.0" y="122.5" font-size="5.0" font-weight="bold" font-family="Helvetica Neue, Helvetica, Arial-Unicode, Arial, Sans-serif" fill="#000000">from the Noun Project</text></svg>