<svg
   xmlns:dc="http://purl.org/dc/elements/1.1/"
   xmlns:cc="http://creativecommons.org/ns#"
   xmlns:rdf="http://www.w3.org/1999/02/22-rdf-syntax-ns#"
   xmlns:svg="http://www.w3.org/2000/svg"
   xmlns="http://www.w3.org/2000/svg"
   xmlns:sodipodi="http://sodipodi.sourceforge.net/DTD/sodipodi-0.dtd"
   xmlns:inkscape="http://www.inkscape.org/namespaces/inkscape"
   version="1.1"
   id="Capa_1"
   x="0px"
   y="0px"
   width="100px"
   height="100px"
   viewBox="5.0 -10.0 100.0 135.0"
   enable-background="new 0 0 100 100"
   xml:space="preserve"
   inkscape:version="0.91 r13725"
   sodipodi:docname="balloon.svg"><metadata
     id="metadata16"><rdf:RDF><cc:Work
         rdf:about=""><dc:format>image/svg+xml</dc:format><dc:type
           rdf:resource="http://purl.org/dc/dcmitype/StillImage" /></cc:Work></rdf:RDF></metadata><defs
     id="defs14" /><sodipodi:namedview
     pagecolor="#ffffff"
     bordercolor="#666666"
     borderopacity="1"
     objecttolerance="10"
     gridtolerance="10"
     guidetolerance="10"
     inkscape:pageopacity="0"
     inkscape:pageshadow="2"
     inkscape:window-width="1246"
     inkscape:window-height="755"
     id="namedview12"
     showgrid="false"
     inkscape:zoom="2.36"
     inkscape:cx="50"
     inkscape:cy="50"
     inkscape:window-x="34"
     inkscape:window-y="0"
     inkscape:window-maximized="1"
     inkscape:current-layer="Capa_1" /><g
     id="Capa_25"
     transform="matrix(1.4091705,0,0,1.331773,-11.878218,-9.1525427)"><g
       id="g4"><path
         d="m 52.419,58.061 c 2.701,2.703 4.19,6.312 4.19,10.16 0,3.85 -1.489,7.459 -4.19,10.161 -2.877,2.876 -4.461,6.714 -4.461,10.81 0,4.095 1.584,7.935 4.461,10.81 l 0.647,-0.647 c -2.703,-2.703 -4.191,-6.312 -4.191,-10.16 0,-3.852 1.489,-7.459 4.191,-10.162 2.877,-2.875 4.459,-6.713 4.459,-10.809 0,-4.096 -1.582,-7.935 -4.459,-10.81 l -0.647,0.647 z"
         id="path6"
         inkscape:connector-curvature="0" /><path
         d="M 49.999,0 C 38.418,0 29.03,10.641 29.03,23.767 c 0,13.127 9.388,32.372 20.969,32.372 11.583,0 20.972,-19.244 20.972,-32.372 C 70.971,10.641 61.582,0 49.999,0 Z M 37.242,21.278 c -1.019,4.598 -0.817,10.436 0.496,15.751 -2.178,-4.452 -3.486,-9.56 -3.486,-13.819 0,-9.958 7.122,-18.028 15.906,-18.028 1.063,0 2.101,0.121 3.105,0.346 -7.461,0.902 -14.109,7.103 -16.021,15.75 z"
         id="path8"
         inkscape:connector-curvature="0"
         style="fill:#ff4141" /><path
         d="m 49.454,60.854 1.657,0 c 1.423,-0.028 1.752,-0.726 0.99,-1.498 -0.59,-0.597 -0.621,-1.594 -0.565,-2.256 l -2.504,0 c 0.055,0.662 0.022,1.659 -0.568,2.256 -0.766,0.772 -0.433,1.468 0.99,1.498 z"
         id="path10"
         inkscape:connector-curvature="0"
         style="fill:#ff4141" /></g></g></svg>