<svg
   xmlns:dc="http://purl.org/dc/elements/1.1/"
   xmlns:cc="http://creativecommons.org/ns#"
   xmlns:rdf="http://www.w3.org/1999/02/22-rdf-syntax-ns#"
   xmlns:svg="http://www.w3.org/2000/svg"
   xmlns="http://www.w3.org/2000/svg"
   xmlns:sodipodi="http://sodipodi.sourceforge.net/DTD/sodipodi-0.dtd"
   xmlns:inkscape="http://www.inkscape.org/namespaces/inkscape"
   version="1.1"
   id="Your_Icon"
   x="0px"
   y="0px"
   width="100px"
   height="100px"
   viewBox="5.0 -10.0 100.0 135.0"
   enable-background="new 0 0 100 100"
   xml:space="preserve"
   inkscape:version="0.91 r13725"
   sodipodi:docname="banana.svg"><metadata
     id="metadata9"><rdf:RDF><cc:Work
         rdf:about=""><dc:format>image/svg+xml</dc:format><dc:type
           rdf:resource="http://purl.org/dc/dcmitype/StillImage" /></cc:Work></rdf:RDF></metadata><defs
     id="defs7" /><sodipodi:namedview
     pagecolor="#ffffff"
     bordercolor="#666666"
     borderopacity="1"
     objecttolerance="10"
     gridtolerance="10"
     guidetolerance="10"
     inkscape:pageopacity="0"
     inkscape:pageshadow="2"
     inkscape:window-width="1246"
     inkscape:window-height="755"
     id="namedview5"
     showgrid="false"
     inkscape:zoom="12.461955"
     inkscape:cx="65.84699"
     inkscape:cy="83.931187"
     inkscape:window-x="34"
     inkscape:window-y="0"
     inkscape:window-maximized="1"
     inkscape:current-layer="Your_Icon"
     inkscape:snap-grids="true"
     inkscape:snap-to-guides="false" /><g
     id="g3343"><path
       style="fill:#ffe91f;fill-opacity:1"
       d="M 98.511132,9.6620116 C 96.513991,10.46094 93.369259,11.42686 86.719726,12.056153 l 3.404003,4.569433 c 0,0 4.873577,6.549311 3.583301,16.769531 -0.63064,4.999845 5.861654,49.066758 -54.247852,63.784863 -0.375485,0.09217 -6.900652,3.21203 -7.638574,4.58789 l -1.690136,8.35576 c 0,0 22.349324,31.34852 67.671386,-8.76709 -0.0015,0 25.966116,-24.922539 23.321776,-61.693943 0,0 0.0988,-15.814683 -15.0293,-21.515625 0,0 -3.54852,-1.750649 -7.583198,-8.4849604 z"
       id="path4140" /><path
       style="fill:#ccb800;fill-opacity:1"
       d="m 62.49619,10.903906 -0.03164,4.073731 c 0,0 -0.24526,6.325453 -5.539747,11.024121 0,0 -18.245683,20.251161 -45.190722,9.436816 0,0 -15.0905954,-9.975328 -18.5018554,-8.95166 l -4.6643556,3.475195 c 0,0 -1.265422,17.317225 16.9593756,27.698731 C 35.779166,79.171032 82.171244,44.609746 70.142675,23.473145 69.534589,22.404817 70.335506,16.97244 71.036522,12.478028 66.54123,12.212479 63.953173,11.557775 62.49619,10.903906 Z"
       id="path4138" /><path
       style="fill:#edd400"
       d="m 82.656542,12.362012 c -0.597854,0.03547 -1.124352,0.07808 -1.766602,0.108105 -3.421801,0.159963 -6.231342,0.161927 -8.598339,0.06855 0.97571,3.610567 7.054411,4.928074 7.055859,4.941212 3.622924,34.715839 -33.421721,58.398665 -79.24394537,48.170214 l -3.98671873,6.133008 c 0,0 5.1866804,21.242338 31.2952151,23.437793 0.343591,-0.105335 66.357717,-4.530189 63.178417,-62.216015 -0.131926,-2.383072 -2.462198,-3.889076 -3.849608,-5.566113 0,0 -3.433138,-4.191279 -4.084278,-15.076758 z"
       id="path3" /></g><path
     style="fill:#b8a500;fill-opacity:1;fill-rule:evenodd;stroke:none;stroke-width:1.40670002;stroke-linecap:butt;stroke-linejoin:miter;stroke-miterlimit:4;stroke-dasharray:none;stroke-opacity:1"
     d="m 96.777382,-7.8676524 -1.02569,0.8041993 c -1.52323,1.196311 -4.78325,3.3780769 -6.55488,4.3110352 -7.12469,3.75194325 -16.074246,5.4629982 -25.075196,4.9675782 -1.625912,-0.08949 -3.074466,-0.203281 -3.324903,-0.105469 l -0.421875,0.166113 0,3.728321 0,3.7309568 0.216212,0 c 0.267872,0.6704819 2.472589,3.8800939 20.271092,3.0480459 12.16512,-0.568697 16.14875,-2.149323 18.536132,-3.1746079 0.0186,-0.0023 0.37701,-0.0029 0.37705,-0.0053 0.001,-0.07301 0.226466,-2.9450638 0.366506,-6.4494128 0.14044,-3.50434998 0.14565,-7.0393496 0.14766,-7.7888675 l 0.003,-1.3631835 -1.621578,-0.8516602 -1.89316,-1.0177735 z"
     id="path3363-2"
     inkscape:connector-curvature="0" /><path
     style="opacity:0;fill:#806600;fill-opacity:1;stroke:none;stroke-width:1.04200006;stroke-miterlimit:4;stroke-dasharray:none"
     d="m 54.069179,14.275181 c -0.01411,-0.03675 -0.02564,-1.284061 -0.02564,-2.77179 0,-2.5495274 0.004,-2.7049425 0.07021,-2.7046403 0.03862,1.604e-4 0.284298,0.027024 0.545957,0.059662 2.613716,0.3260227 6.075598,0.3174238 9.013137,-0.022388 C 70.307429,8.068543 76.03916,5.7443776 80.517562,2.0056426 l 0.575202,-0.4802 0.146996,0.080586 c 0.08085,0.044322 0.634479,0.338385 1.230293,0.6534731 0.595813,0.315088 1.087439,0.575799 1.092501,0.5793578 0.01351,0.00949 -0.387146,10.7844917 -0.413304,11.1152627 l -0.02221,0.280855 -14.4916,0.01442 c -9.348614,0.0093 -14.500297,0.02829 -14.516107,0.05352 -0.01348,0.0215 -0.03605,0.009 -0.05015,-0.02773 z"
     id="path4145"
     inkscape:connector-curvature="0"
     transform="matrix(1.35,0,0,1.35,-12.500001,-10)" /></svg>