<svg
   xmlns:dc="http://purl.org/dc/elements/1.1/"
   xmlns:cc="http://creativecommons.org/ns#"
   xmlns:rdf="http://www.w3.org/1999/02/22-rdf-syntax-ns#"
   xmlns:svg="http://www.w3.org/2000/svg"
   xmlns="http://www.w3.org/2000/svg"
   xmlns:sodipodi="http://sodipodi.sourceforge.net/DTD/sodipodi-0.dtd"
   xmlns:inkscape="http://www.inkscape.org/namespaces/inkscape"
   version="1.1"
   id="Layer_1"
   x="0px"
   y="0px"
   viewBox="5.0 -10.0 100.0 135.0"
   enable-background="new 0 0 100 100"
   xml:space="preserve"
   height="100px"
   width="100px"
   inkscape:version="0.91 r13725"
   sodipodi:docname="bat.svg"><metadata
     id="metadata15"><rdf:RDF><cc:Work
         rdf:about=""><dc:format>image/svg+xml</dc:format><dc:type
           rdf:resource="http://purl.org/dc/dcmitype/StillImage" /></cc:Work></rdf:RDF></metadata><defs
     id="defs13" /><sodipodi:namedview
     pagecolor="#ffffff"
     bordercolor="#666666"
     borderopacity="1"
     objecttolerance="10"
     gridtolerance="10"
     guidetolerance="10"
     inkscape:pageopacity="0"
     inkscape:pageshadow="2"
     inkscape:window-width="1246"
     inkscape:window-height="755"
     id="namedview11"
     showgrid="false"
     inkscape:zoom="5.53"
     inkscape:cx="50"
     inkscape:cy="50"
     inkscape:window-x="34"
     inkscape:window-y="0"
     inkscape:window-maximized="1"
     inkscape:current-layer="Layer_1" /><g
     id="g3"
     transform="matrix(1.407739,0,0,1.3924611,-15.279422,-16.804662)"><path
       d="M 97.8,32.4 C 81.9,26.6 60.7,43 60.7,43 l 2.7,-10.6 c 0,0 -6.5,4.4 -12.9,4.4 -6.4,0 -13.6,-4.4 -13.6,-4.4 L 39.5,43 c 0,0 -21.2,-16.4 -37.1,-10.6 0,0 16.3,8.1 11,18.7 0,0 14.8,-1.1 15.8,15.7 0,0 14.7,2.1 20.9,11 C 56.3,68.9 71,66.8 71,66.8 72,50 86.8,51.1 86.8,51.1 81.5,40.5 97.8,32.4 97.8,32.4 Z M 46,51.7 c -1.8,0 -3.2,-2.1 -3.2,-4.7 0,-2.6 1.4,-4.7 3.2,-4.7 1.8,0 3.2,2.1 3.2,4.7 0,2.6 -1.4,4.7 -3.2,4.7 z m 8.1,0 c -1.8,0 -3.2,-2.1 -3.2,-4.7 0,-2.6 1.4,-4.7 3.2,-4.7 1.8,0 3.2,2.1 3.2,4.7 0,2.6 -1.4,4.7 -3.2,4.7 z"
       id="path5"
       inkscape:connector-curvature="0"
       style="fill:#0e232e" /></g><ellipse
     cx="49.870396"
     cy="48.641014"
     rx="2.3931565"
     ry="3.3419068"
     id="ellipse7"
     style="fill:#d40000" /><ellipse
     cx="60.626213"
     cy="48.641014"
     rx="2.3931565"
     ry="3.3419068"
     id="ellipse9"
     style="fill:#d40000" /></svg>