<svg
   xmlns:dc="http://purl.org/dc/elements/1.1/"
   xmlns:cc="http://creativecommons.org/ns#"
   xmlns:rdf="http://www.w3.org/1999/02/22-rdf-syntax-ns#"
   xmlns:svg="http://www.w3.org/2000/svg"
   xmlns="http://www.w3.org/2000/svg"
   xmlns:sodipodi="http://sodipodi.sourceforge.net/DTD/sodipodi-0.dtd"
   xmlns:inkscape="http://www.inkscape.org/namespaces/inkscape"
   version="1.1"
   id="Layer_1"
   x="0px"
   y="0px"
   width="100px"
   height="100px"
   viewBox="5.0 -10.0 100.0 135.0"
   enable-background="new 0 0 100 100"
   xml:space="preserve"
   inkscape:version="0.91 r13725"
   sodipodi:docname="bottle.svg"><metadata
     id="metadata17"><rdf:RDF><cc:Work
         rdf:about=""><dc:format>image/svg+xml</dc:format><dc:type
           rdf:resource="http://purl.org/dc/dcmitype/StillImage" /></cc:Work></rdf:RDF></metadata><defs
     id="defs15" /><sodipodi:namedview
     pagecolor="#ffffff"
     bordercolor="#666666"
     borderopacity="1"
     objecttolerance="10"
     gridtolerance="10"
     guidetolerance="10"
     inkscape:pageopacity="0"
     inkscape:pageshadow="2"
     inkscape:window-width="1246"
     inkscape:window-height="755"
     id="namedview13"
     showgrid="false"
     inkscape:zoom="5.53"
     inkscape:cx="50"
     inkscape:cy="50"
     inkscape:window-x="34"
     inkscape:window-y="0"
     inkscape:window-maximized="1"
     inkscape:current-layer="Layer_1" /><g
     id="g3"
     transform="matrix(1.91587,0,0,1.5829176,-53.850475,-17.15766)"
     style="fill:#2b0000"><path
       d="m 45.58,10.173 0,13.635 8.837,0 0,-13.635 c 0,0 0.481,0.101 0.481,-0.704 0,0 0.347,-3.117 -0.481,-2.515 0,0 0.481,-1.708 -1.631,-1.81 l -2.758,0 -0.057,0 -2.759,0 C 45.1,5.246 45.579,6.954 45.579,6.954 44.753,6.351 45.1,9.469 45.1,9.469 c 10e-4,0.804 0.48,0.704 0.48,0.704 z"
       id="path5"
       inkscape:connector-curvature="0"
       style="fill:#280b0b" /><path
       d="m 57.807,37.061494 c 0,0 -2.156,-2.904201 -3.39,-12.587668 l 0,-0.720284 -8.837,0 0,0.719236 c -1.229,9.684515 -3.387,12.587667 -3.387,12.587667 -3.077,7.102187 -3.387,15.495014 -3.387,15.495014 l 0,7.910541 22.385,0 0,-7.910541 c 0,0 -0.306,-8.391778 -3.384,-15.493965 z"
       id="path7"
       inkscape:connector-curvature="0"
       style="fill:#280b0b" /><path
       d="m 38.807,86.786 c 0,2.694 3.478,2.534 3.478,2.534 l 7.688,0 0.057,0 7.688,0 c 0,0 3.478,0.16 3.478,-2.534 l 0,-5.368 -22.389,0 0,5.368 z"
       id="path9"
       inkscape:connector-curvature="0"
       style="fill:#280b0b" /><rect
       x="38.806999"
       y="62.105"
       width="22.386"
       height="17.67"
       id="rect11"
       style="fill:#782121" /></g><path
     style="opacity:0;fill:#550000;fill-opacity:1;stroke:none;stroke-width:1.04200006;stroke-miterlimit:4;stroke-dasharray:none"
     d="m 34.195298,14.50572 c 0,-7.5588428 -0.01582,-7.9396477 -0.33336,-8.0226853 -0.260353,-0.068084 -0.358621,-0.3288629 -0.448706,-1.1907566 -0.141889,-1.3575154 0.01413,-2.2222474 0.420105,-2.3284119 0.204011,-0.05335 0.281134,-0.2129412 0.230614,-0.4772154 -0.126103,-0.6596683 0.560203,-1.3292364 1.588512,-1.54976921 1.156934,-0.24811788 8.312964,-0.24792766 9.390074,2.496e-4 1.043864,0.24051751 1.449326,0.61771181 1.449326,1.34828581 0,0.4317137 0.09421,0.6084318 0.361663,0.6783712 0.3237,0.084649 0.361664,0.2466576 0.361664,1.5433715 0,1.6046544 -0.09709,2.0208692 -0.471427,2.0208692 -0.211496,0 -0.2519,1.2762206 -0.2519,7.9566001 l 0,7.956601 -6.148283,0 -6.148282,0 0,-7.93551 z"
     id="path4145"
     inkscape:connector-curvature="0"
     transform="matrix(1.35,0,0,1.35,-12.500001,-10)" /><path
     style="opacity:0;fill:#550000;fill-opacity:1;stroke:none;stroke-width:1.04200006;stroke-miterlimit:4;stroke-dasharray:none"
     d="m 24.611212,77.866184 0,-10.216998 15.732368,0 15.732369,0 0,10.216998 0,10.216999 -15.732369,0 -15.732368,0 0,-10.216999 z"
     id="path4147"
     inkscape:connector-curvature="0"
     transform="matrix(1.35,0,0,1.35,-12.500001,-10)" /><path
     style="opacity:0;fill:#2b0000;fill-opacity:1;stroke:none;stroke-width:1.04200006;stroke-miterlimit:4;stroke-dasharray:none"
     d="m 24.611212,77.866184 0,-10.216998 15.732368,0 15.732369,0 0,10.216998 0,10.216999 -15.732369,0 -15.732368,0 0,-10.216999 z"
     id="path4149"
     inkscape:connector-curvature="0"
     transform="matrix(1.35,0,0,1.35,-12.500001,-10)" /></svg>