<svg
   xmlns:dc="http://purl.org/dc/elements/1.1/"
   xmlns:cc="http://creativecommons.org/ns#"
   xmlns:rdf="http://www.w3.org/1999/02/22-rdf-syntax-ns#"
   xmlns:svg="http://www.w3.org/2000/svg"
   xmlns="http://www.w3.org/2000/svg"
   xmlns:sodipodi="http://sodipodi.sourceforge.net/DTD/sodipodi-0.dtd"
   xmlns:inkscape="http://www.inkscape.org/namespaces/inkscape"
   version="1.1"
   id="Layer_1"
   x="0px"
   y="0px"
   width="100px"
   height="100px"
   viewBox="5.0 -10.0 100.0 135.0"
   enable-background="new 0 0 100 100"
   xml:space="preserve"
   inkscape:version="0.91 r13725"
   sodipodi:docname="noun_58204_cc.svg"><metadata
     id="metadata21"><rdf:RDF><cc:Work
         rdf:about=""><dc:format>image/svg+xml</dc:format><dc:type
           rdf:resource="http://purl.org/dc/dcmitype/StillImage" /></cc:Work></rdf:RDF></metadata><defs
     id="defs19" /><sodipodi:namedview
     pagecolor="#ffffff"
     bordercolor="#666666"
     borderopacity="1"
     objecttolerance="10"
     gridtolerance="10"
     guidetolerance="10"
     inkscape:pageopacity="0"
     inkscape:pageshadow="2"
     inkscape:window-width="1246"
     inkscape:window-height="755"
     id="namedview17"
     showgrid="false"
     inkscape:zoom="2.36"
     inkscape:cx="50"
     inkscape:cy="49.364407"
     inkscape:window-x="34"
     inkscape:window-y="0"
     inkscape:window-maximized="1"
     inkscape:current-layer="Layer_1" /><path
     d="m 82.285416,37.690543 -52.559314,0 0,7.573997 52.559314,0 0,-7.573997 0,0 z"
     id="path3"
     inkscape:connector-curvature="0"
     style="fill:#483e37" /><path
     d="m 82.285416,47.347631 -52.559314,0 c 0,17.240754 21.513,7.841981 21.513,19.80594 0,7.401327 -3.854199,24.557818 -3.854199,35.375259 0,10.82018 6.194205,20.85577 8.41231,20.85577 l 0.418286,0 c 2.216911,0 8.413506,-10.03559 8.413506,-20.85577 0,-10.817441 -3.856589,-27.973932 -3.856589,-35.375259 0,-11.963959 21.513,-2.563805 21.513,-19.80594 z M 56.006357,115.19175 c -1.158052,0 -2.093816,-1.08437 -2.093816,-2.42014 0,-1.33717 0.936959,-2.42153 2.093816,-2.42153 1.155661,0 2.09262,1.08436 2.09262,2.42153 0.0012,1.33577 -0.935764,2.42014 -2.09262,2.42014 z"
     id="path5"
     inkscape:connector-curvature="0"
     style="fill:#502d16" /><path
     d="m 36.470052,-5.0805088 -6.74395,0 0,16.6025668 c 0.01793,0 0.03466,-0.0055 0.0514,-0.0055 3.047505,0 0.647744,7.227276 5.357635,7.227276 4.237824,0 1.694652,-9.8919199 7.720347,-9.8919199 5.705408,0 1.708993,10.2165389 9.006276,10.2165389 7.297282,0 2.771437,-11.7457039 10.369884,-11.7457039 8.547358,0 2.685391,17.2545679 7.593668,17.2545679 3.781296,0 0.216313,-14.6617557 5.664775,-14.6617557 4.044219,0 1.01703,9.3214177 6.796535,9.4885617 l 0,-24.4846062 -43.86735,0"
     id="path7"
     inkscape:connector-curvature="0"
     style="fill:#ff6600" /><g
     id="g9"
     transform="matrix(1.1951003,0,0,1.3813601,-3.748656,-9.9152692)"><path
       d="M 71.95,22.819 C 71.51,22.808 71.115,22.753 70.754,22.67 l 0,9.048 -41.507,0 0,-10.869 c -0.705,-0.924 -0.964,-2.065 -1.126,-2.796 -0.031,-0.142 -0.069,-0.312 -0.11,-0.478 l 0,15.38 43.979,0 0,-10.134 -0.04,-0.002 z"
       id="path11"
       inkscape:connector-curvature="0" /></g></svg>