<svg
   xmlns:dc="http://purl.org/dc/elements/1.1/"
   xmlns:cc="http://creativecommons.org/ns#"
   xmlns:rdf="http://www.w3.org/1999/02/22-rdf-syntax-ns#"
   xmlns:svg="http://www.w3.org/2000/svg"
   xmlns="http://www.w3.org/2000/svg"
   xmlns:sodipodi="http://sodipodi.sourceforge.net/DTD/sodipodi-0.dtd"
   xmlns:inkscape="http://www.inkscape.org/namespaces/inkscape"
   version="1.1"
   id="Layer_1"
   x="0px"
   y="0px"
   width="100px"
   height="100px"
   viewBox="5.0 -10.0 100.0 135.0"
   enable-background="new 0 0 100 100"
   xml:space="preserve"
   inkscape:version="0.91 r13725"
   sodipodi:docname="candy.svg"><metadata
     id="metadata9"><rdf:RDF><cc:Work
         rdf:about=""><dc:format>image/svg+xml</dc:format><dc:type
           rdf:resource="http://purl.org/dc/dcmitype/StillImage" /></cc:Work></rdf:RDF></metadata><defs
     id="defs7" /><sodipodi:namedview
     pagecolor="#ffffff"
     bordercolor="#666666"
     borderopacity="1"
     objecttolerance="10"
     gridtolerance="10"
     guidetolerance="10"
     inkscape:pageopacity="0"
     inkscape:pageshadow="2"
     inkscape:window-width="1246"
     inkscape:window-height="755"
     id="namedview5"
     showgrid="false"
     inkscape:zoom="5.69"
     inkscape:cx="50"
     inkscape:cy="50"
     inkscape:window-x="34"
     inkscape:window-y="0"
     inkscape:window-maximized="1"
     inkscape:current-layer="Layer_1" /><path
     d="m 112.40298,91.703698 7.54999,0 c 0,0 -9.91749,-15.253814 -39.160474,-12.218585 C 92.356348,66.188283 91.854427,45.885906 79.26859,33.207391 66.682753,20.528877 46.528784,20.021736 33.327639,31.672262 36.340681,2.2124201 21.19837,-7.7750515 21.19837,-7.7750515 l 0,7.60406305 -7.548479,0 0,7.60406305 -7.5499903,0 0,7.6055864 -7.5484786,0 0,7.604062 -7.5499903,0 c 0,0 9.91597658,15.253814 39.1589602,12.218587 -11.563852,13.298352 -11.06193,33.599206 1.523908,46.279244 12.585837,12.680038 32.739806,13.185655 45.94095,1.535127 -3.01153,29.459839 12.12927,39.448839 12.12927,39.448839 l 0,-7.60559 7.548479,0 0,-7.60254 7.549991,0 0,-7.605583 7.54697,0 0,-7.607109 z M 39.923676,30.689964 c 11.541175,-4.791185 25.306226,-2.521997 34.756564,6.860865 9.429173,9.358496 11.88738,23.1381 7.348919,34.814518 -0.699969,1.244245 -1.495182,2.448894 -2.382616,3.604809 2.929892,-9.253412 -1.229103,-22.108588 -11.22067,-32.024481 -10.008197,-9.932646 -22.855578,-13.930376 -31.999018,-10.819 1.121764,-0.901583 2.288883,-1.717881 3.496821,-2.436711 z m -4.580791,3.35657 c 6.354147,-0.432516 17.341999,5.609005 27.457534,15.649779 10.103441,10.027069 16.259541,20.989225 15.940548,27.3993 -0.326552,0.386828 -0.663686,0.766041 -1.012914,1.139162 C 76.019705,73.993374 68.327605,64.519134 58.166714,54.434194 47.99373,44.337072 38.463265,36.722348 34.236238,35.076044 c 0.362835,-0.353323 0.730206,-0.699031 1.106647,-1.02951 z m 37.02277,48.763167 C 60.745867,87.815621 46.778233,85.604304 37.220556,76.114836 27.124673,66.093859 25.017207,51.001477 30.938976,38.851425 c 0.272126,-0.370076 0.5503,-0.735583 0.842079,-1.096521 -3.338081,9.293009 0.778583,22.519785 11.004481,32.668687 9.831316,9.759031 22.403547,13.784173 31.512215,10.969771 -0.630425,0.501049 -1.271434,0.974685 -1.932096,1.416339 z m 3.781042,-2.994109 C 69.757779,80.088199 58.915061,74.072568 48.920471,64.153629 38.596305,53.905733 32.393339,42.681631 33.008647,36.338566 c 0.126994,-0.140111 0.260032,-0.277177 0.39156,-0.414242 1.531466,4.13175 9.312762,13.758283 19.644488,24.013793 10.015755,9.94026 19.407134,17.47579 23.730916,19.275911 -0.208629,0.204075 -0.415748,0.406627 -0.628914,0.601564 z"
     id="path3"
     inkscape:connector-curvature="0"
     style="fill:#ffb039" /></svg>