<svg
   xmlns:dc="http://purl.org/dc/elements/1.1/"
   xmlns:cc="http://creativecommons.org/ns#"
   xmlns:rdf="http://www.w3.org/1999/02/22-rdf-syntax-ns#"
   xmlns:svg="http://www.w3.org/2000/svg"
   xmlns="http://www.w3.org/2000/svg"
   xmlns:sodipodi="http://sodipodi.sourceforge.net/DTD/sodipodi-0.dtd"
   xmlns:inkscape="http://www.inkscape.org/namespaces/inkscape"
   version="1.1"
   id="Layer_3"
   x="0px"
   y="0px"
   width="100px"
   height="100px"
   viewBox="5.0 -10.0 100.0 135.0"
   enable-background="new 0 0 100 100"
   xml:space="preserve"
   inkscape:version="0.91 r13725"
   sodipodi:docname="coat.svg"><metadata
     id="metadata23"><rdf:RDF><cc:Work
         rdf:about=""><dc:format>image/svg+xml</dc:format><dc:type
           rdf:resource="http://purl.org/dc/dcmitype/StillImage" /></cc:Work></rdf:RDF></metadata><defs
     id="defs21" /><sodipodi:namedview
     pagecolor="#ffffff"
     bordercolor="#666666"
     borderopacity="1"
     objecttolerance="10"
     gridtolerance="10"
     guidetolerance="10"
     inkscape:pageopacity="0"
     inkscape:pageshadow="2"
     inkscape:window-width="1246"
     inkscape:window-height="755"
     id="namedview19"
     showgrid="false"
     inkscape:zoom="5.53"
     inkscape:cx="50"
     inkscape:cy="48.553345"
     inkscape:window-x="34"
     inkscape:window-y="0"
     inkscape:window-maximized="1"
     inkscape:current-layer="Layer_3" /><g
     id="g3"
     transform="matrix(1.3264222,0,0,1.3195382,-10.616799,-8.3164818)"><path
       d="m 48.403,26.955 c 0.194,0.456 0.372,0.883 0.53,1.273 1.292,-1.195 5.506,-3.986 9.26,-6.472 2.72,-1.802 5.07,-3.359 5.681,-3.892 0.746,-0.653 1.09,-1.124 1.117,-1.526 0.021,-0.33 -0.16,-0.68 -0.628,-1.208 -0.981,-1.114 -4.629,-3.706 -5.723,-4.475 -0.912,-0.641 -1.855,-0.758 -2.347,-0.771 -0.375,0.929 -1.972,4.834 -3.261,7.188 -1.36,2.485 -4.246,9.015 -4.629,9.883 z"
       id="path5"
       inkscape:connector-curvature="0"
       style="fill:#000000" /><path
       d="m 46.534,26.922 c 0.906,0.72 1.576,1.275 2.077,1.8 -0.891,-2.253 -2.613,-6.008 -4.072,-9.187 -1.073,-2.337 -1.999,-4.357 -2.493,-5.543 -0.599,-1.437 -0.942,-2.543 -1.16,-3.544 -0.299,0.031 -0.888,0.148 -1.763,0.577 -1.678,0.82 -6.261,3.714 -7.124,5.677 -0.229,0.597 0.639,1.337 1.737,2.272 l 0.313,0.267 c 0.606,0.52 2.861,1.828 5.249,3.212 2.796,1.622 5.966,3.46 7.236,4.469 z"
       id="path7"
       inkscape:connector-curvature="0"
       style="fill:#000000" /><path
       d="m 78.494,66.402 c -0.965,0.076 -4.711,0.369 -7.18,0.369 -0.805,0 -1.473,-0.032 -1.864,-0.111 l 0.098,-0.475 c 1.515,0.311 7.736,-0.172 8.933,-0.269 -0.035,-1.226 -0.051,-2.196 -0.037,-2.647 0.064,-1.922 0,-9.545 -0.256,-11.852 -0.256,-2.306 0,-4.099 0,-5.188 0,-1.089 -1.602,-11.915 -1.984,-15.438 -0.385,-3.523 -1.28,-14.156 -1.857,-15.694 -0.576,-1.537 -2.818,-3.587 -2.818,-3.587 0,0 -0.256,-0.448 -0.514,-0.832 C 70.759,10.293 67.877,9.525 67.043,9.333 66.211,9.141 65.122,8.755 64.994,8.179 64.914,7.818 64.278,7.432 63.534,7.115 c 0.341,0.545 1.087,1.765 1.482,2.558 0.146,0.289 0.281,0.65 0.06,0.883 -0.091,0.096 -0.216,0.142 -0.384,0.142 -0.393,0 -1.021,-0.245 -2.039,-0.697 C 61.874,9.654 60.938,9.014 60.03,8.395 58.944,7.654 57.819,6.887 57.216,6.817 56.284,6.712 56.125,7.043 56.124,7.046 l 0,0 c -0.084,0.205 -0.172,0.37 -0.245,0.504 -0.03,0.057 -0.062,0.11 -0.086,0.161 -0.062,0.162 0.188,0.94 0.539,1.689 0.549,0.021 1.59,0.159 2.587,0.86 1.416,0.993 4.816,3.428 5.809,4.549 0.408,0.465 0.783,0.974 0.746,1.558 -0.037,0.548 -0.418,1.104 -1.281,1.857 -0.631,0.551 -2.965,2.099 -5.68,3.897 0.275,0.547 0.821,1.376 1.793,1.914 1.555,0.859 5.405,1.713 5.444,1.722 l -0.104,0.471 c -0.16,-0.036 -3.959,-0.878 -5.574,-1.77 -1.049,-0.581 -1.651,-1.464 -1.965,-2.068 -3.653,2.421 -8,5.312 -8.98,6.32 0.282,0.725 0.473,1.288 0.538,1.623 0.128,0.345 0.223,0.721 0.291,1.159 0.286,1.847 1.272,16.777 1.315,17.412 0.004,0.108 0.379,10.332 0,24.558 -0.373,13.943 -1.144,24.025 -1.181,24.51 l 0.747,0 c 0.721,-0.048 3.508,0.721 7.109,0.625 3.604,-0.097 11.58,-2.162 13.214,-2.69 1.633,-0.527 4.788,-2.724 4.788,-2.724 0,0 -0.064,-0.319 -0.258,-1.151 -0.768,-2.05 -3.203,-15.949 -3.203,-15.949 0,0 2.18,0.769 3.717,0.832 1.537,0.063 2.689,-0.319 2.689,-0.319 0,0 -0.278,-6.166 -0.399,-10.194 z M 63.773,39.057 c 0.576,-2.05 1.763,-8.648 1.812,-8.969 0,0 0.815,12.684 0.944,16.655 0.128,3.972 1.09,11.657 1.537,13.13 0.449,1.475 0.449,1.475 0.449,1.475 0,0 -2.756,-5.572 -3.203,-6.599 -0.449,-1.024 -1.985,-3.778 -1.985,-4.419 0,-0.64 0.256,-4.484 -0.769,-5.958 -0.065,-0.063 0.64,-3.265 1.215,-5.315 z m 2.789,30.452 -4.064,-8.1 -1.611,-8.597 1.696,-1.389 0.306,0.373 -1.476,1.208 1.554,8.281 3.723,7.401 1.494,-1.535 0.346,0.337 -1.968,2.021 z"
       id="path9"
       inkscape:connector-curvature="0" /><path
       d="m 41.984,1.318 c -0.014,0.021 -1.433,2.113 -1.157,4.773 0.042,0.403 0.076,0.779 0.109,1.14 0.195,2.119 0.335,3.649 1.555,6.575 0.491,1.179 1.46,3.291 2.487,5.528 1.094,2.386 2.265,4.937 3.166,7.017 0.754,-1.705 3.23,-7.253 4.467,-9.509 1.332,-2.434 3.004,-6.558 3.279,-7.243 C 55.627,9.04 55.152,7.914 55.359,7.498 55.386,7.443 55.42,7.384 55.454,7.323 c 0.123,-0.225 0.274,-0.506 0.368,-0.93 0.06,-0.269 0.09,-0.572 0.09,-0.902 0,-1.189 -0.837,-3.852 -1.695,-4.48 l 0.105,-0.144 c -1.7,0.118 -4.702,0.397 -4.702,0.397 l -1.282,0 c 0,0 -4.804,-0.448 -5.701,-0.448 -0.274,0 -0.561,0.145 -0.85,0.367 l 0.197,0.135 z"
       id="path11"
       inkscape:connector-curvature="0"
       style="fill:#2e3436" /><path
       d="m 56.395,5.49 c 0,0.326 -0.027,0.619 -0.08,0.894 0.229,-0.063 0.539,-0.091 0.955,-0.043 0.724,0.083 1.846,0.848 3.03,1.658 0.89,0.607 1.81,1.235 2.55,1.563 0.393,0.175 1.545,0.686 1.857,0.659 C 64.701,10.174 64.678,10.075 64.585,9.891 64.084,8.889 62.962,7.112 62.95,7.094 L 63.152,6.965 C 62.822,6.84 62.484,6.73 62.173,6.644 61.021,6.324 58.903,3.89 58.072,3.121 57.24,2.352 56.215,0.815 55.317,0.815 c -0.125,0 -0.326,0.009 -0.58,0.023 0.956,1.007 1.658,3.579 1.658,4.652 z"
       id="path13"
       inkscape:connector-curvature="0"
       style="fill:#000000" /><path
       d="m 33.109,8.449 c 0,0 -0.428,1.436 -0.652,2.173 -0.125,0.415 -0.099,0.779 0.003,0.847 0.009,0.006 0.229,0.138 1.021,-0.525 C 34.647,9.967 35.934,9.22 36.873,8.673 37.205,8.48 37.491,8.314 37.7,8.179 37.961,8.01 38.23,7.75 38.489,7.499 c 0.543,-0.525 1.103,-1.067 1.563,-0.608 0.043,0.043 0.088,0.087 0.137,0.135 0.083,0.082 0.175,0.172 0.268,0.268 C 40.456,7.288 40.455,7.282 40.455,7.276 40.422,6.917 40.388,6.542 40.346,6.141 40.145,4.199 40.768,2.576 41.203,1.712 40.741,2.186 40.288,2.746 39.881,3.121 39.048,3.89 36.934,6.324 35.781,6.644 34.628,6.965 33.091,7.605 32.963,8.181 32.947,8.25 32.918,8.317 32.877,8.379 l 0.232,0.07 z"
       id="path15"
       inkscape:connector-curvature="0"
       style="fill:#000000" /><path
       d="m 49.606,97.955 c 0.008,-0.104 0.802,-10.297 1.181,-24.505 0.379,-14.208 0.004,-24.418 0,-24.52 -0.01,-0.131 -0.799,-12.085 -1.181,-16.18 -0.005,-0.042 -0.055,-0.443 -0.412,-2.3 -0.397,-1.02 -1.187,-1.743 -2.96,-3.152 -1.242,-0.987 -4.395,-2.816 -7.178,-4.43 -0.091,-0.053 -0.18,-0.105 -0.271,-0.157 -0.268,0.449 -0.953,1.513 -1.898,2.354 -1.24,1.102 -5.54,1.167 -5.723,1.168 l -0.005,-0.482 c 1.193,-0.015 4.49,-0.231 5.408,-1.047 0.885,-0.787 1.545,-1.811 1.801,-2.237 -2.211,-1.285 -4.051,-2.365 -4.631,-2.863 l -0.312,-0.266 c -1.245,-1.059 -2.227,-1.896 -1.871,-2.822 0.992,-2.259 6.022,-5.274 7.357,-5.928 0.884,-0.432 1.51,-0.574 1.877,-0.619 C 40.673,9.347 40.6,8.753 40.537,8.129 40.328,7.832 40.067,7.575 39.854,7.368 39.804,7.319 39.756,7.272 39.712,7.228 39.587,7.104 39.147,7.531 38.825,7.842 38.549,8.109 38.263,8.386 37.963,8.58 c -0.219,0.142 -0.51,0.311 -0.846,0.507 -0.925,0.538 -2.191,1.275 -3.326,2.224 -0.523,0.438 -0.94,0.654 -1.264,0.654 -0.125,0 -0.235,-0.032 -0.332,-0.097 -0.381,-0.252 -0.353,-0.883 -0.199,-1.389 0.15,-0.49 0.387,-1.287 0.531,-1.766 -0.423,0.287 -1.072,0.494 -1.613,0.619 -0.833,0.192 -3.716,0.96 -3.972,1.345 -0.256,0.384 -0.512,0.832 -0.512,0.832 0,0 -2.242,2.05 -2.819,3.587 -0.577,1.538 -1.473,12.171 -1.857,15.694 -0.384,3.523 -1.986,14.349 -1.986,15.438 0,1.088 0.256,2.882 0,5.188 -0.256,2.307 -0.32,9.93 -0.256,11.852 0.015,0.457 -0.002,1.455 -0.038,2.707 l 0.075,-0.23 c 1.494,0.492 8.298,0.553 8.367,0.553 l -0.004,0.482 c -0.279,-0.002 -6.77,-0.062 -8.445,-0.557 -0.118,4.021 -0.404,10.368 -0.404,10.368 0,0 1.153,0.386 2.69,0.32 1.537,-0.063 3.715,-0.832 3.715,-0.832 0,0 -2.435,13.899 -3.203,15.948 -0.192,0.832 -0.256,1.152 -0.256,1.152 0,0 3.154,2.195 4.788,2.723 1.634,0.529 9.609,2.596 13.212,2.691 3.603,0.096 6.39,-0.673 7.11,-0.625 l 2.726,0 -0.239,-0.013 z m -19.719,-30.466 0.346,-0.337 1.494,1.535 3.723,-7.401 1.554,-8.281 -1.476,-1.208 0.306,-0.373 1.696,1.389 -1.611,8.597 -4.064,8.1 -1.968,-2.021 z m 0.002,-7.615 c 0.449,-1.474 1.409,-9.159 1.537,-13.13 0.128,-3.971 0.945,-16.655 0.945,-16.655 0.047,0.321 1.233,6.919 1.81,8.969 0.576,2.05 1.281,5.251 1.217,5.315 -1.025,1.474 -0.769,5.318 -0.769,5.958 0,0.642 -1.537,3.396 -1.985,4.419 -0.448,1.025 -3.203,6.6 -3.203,6.6 0,0 -10e-4,0 0.448,-1.476 z m 17.616,-28.41 c 0.7,0 1.268,0.568 1.268,1.268 0,0.701 -0.568,1.268 -1.268,1.268 -0.701,0 -1.268,-0.567 -1.268,-1.268 0,-0.7 0.567,-1.268 1.268,-1.268 z M 47.028,67.58 c -0.7,0 -1.267,-0.566 -1.267,-1.27 0,-0.697 0.567,-1.267 1.267,-1.267 0.701,0 1.268,0.567 1.268,1.267 -10e-4,0.704 -0.567,1.27 -1.268,1.27 z m 0.477,-17.338 c -0.701,0 -1.268,-0.567 -1.268,-1.268 0,-0.701 0.567,-1.269 1.268,-1.269 0.7,0 1.268,0.567 1.268,1.269 0,0.701 -0.568,1.268 -1.268,1.268 z"
       id="path17"
       inkscape:connector-curvature="0" /></g></svg>