<svg
   xmlns:dc="http://purl.org/dc/elements/1.1/"
   xmlns:cc="http://creativecommons.org/ns#"
   xmlns:rdf="http://www.w3.org/1999/02/22-rdf-syntax-ns#"
   xmlns:svg="http://www.w3.org/2000/svg"
   xmlns="http://www.w3.org/2000/svg"
   xmlns:sodipodi="http://sodipodi.sourceforge.net/DTD/sodipodi-0.dtd"
   xmlns:inkscape="http://www.inkscape.org/namespaces/inkscape"
   version="1.1"
   id="Layer_1"
   x="0px"
   y="0px"
   width="100px"
   height="72.241px"
   viewBox="4.998 9.7069 100.0 97.52535"
   enable-background="new -0.002 16.931 100 72.241"
   xml:space="preserve"
   inkscape:version="0.91 r13725"
   sodipodi:docname="dog.svg"><metadata
     id="metadata10"><rdf:RDF><cc:Work
         rdf:about=""><dc:format>image/svg+xml</dc:format><dc:type
           rdf:resource="http://purl.org/dc/dcmitype/StillImage" /></cc:Work></rdf:RDF></metadata><defs
     id="defs8" /><sodipodi:namedview
     pagecolor="#ffffff"
     bordercolor="#666666"
     borderopacity="1"
     objecttolerance="10"
     gridtolerance="10"
     guidetolerance="10"
     inkscape:pageopacity="0"
     inkscape:pageshadow="2"
     inkscape:window-width="1246"
     inkscape:window-height="755"
     id="namedview6"
     showgrid="false"
     inkscape:zoom="3.266843"
     inkscape:cx="50"
     inkscape:cy="36.120499"
     inkscape:window-x="34"
     inkscape:window-y="0"
     inkscape:window-maximized="1"
     inkscape:current-layer="Layer_1" /><g
     id="Your_Icon"
     transform="matrix(0.9421444,0,0,0.96567818,7.0252287,3.0605359)"><path
       d="m 98.55,26.94 c -0.333,-0.167 -2.786,-0.749 -4.823,-1.163 -2.037,-0.415 -1.871,-1.623 -2.245,-2.289 -0.374,-0.666 -0.941,-1.661 -2.272,-2.051 -0.739,-0.213 -2.082,-0.593 -3.638,-0.799 -0.106,-0.081 -0.225,-0.154 -0.354,-0.209 -0.521,-0.226 -0.823,-0.55 -2.322,-0.536 -1.368,0.012 -2.755,1.005 -3.029,1.429 0,0 0.013,0.011 0.015,0.012 -1.986,1.142 -3.293,3.263 -3.949,3.986 -0.832,0.913 -3.16,3.825 -5.488,5.821 -2.328,1.993 -3.494,3.407 -5.489,4.24 -1.992,0.833 -4.073,0.666 -5.987,1.514 -1.911,0.849 -4.739,1.148 -8.646,0.649 C 46.415,37.043 39.596,36.627 35.854,36.297 32.11,35.962 27.208,37.47 26.956,37.544 26.276,37.741 25.903,37.57 24.294,37.017 22.687,36.461 15.813,34.577 12.098,32.97 8.385,31.363 5.89,26.651 4.116,22.547 3.192,20.416 2.166,18.988 1.394,18.108 0.678,17.294 0.373,16.829 0.179,16.949 c -0.194,0.119 -0.24,0.241 -0.082,1.526 0.123,0.993 0.022,1.511 0.41,4.414 0.887,6.654 5.271,11.192 7.822,13.13 2.551,1.942 13.307,5.437 13.804,5.712 0.499,0.277 0.555,0.887 0.444,1.72 -0.111,0.831 -0.444,1.219 -0.887,1.608 -0.444,0.386 -1.274,3.214 -1.441,4.268 -0.166,1.05 0.222,4.766 0.776,5.504 0.555,0.743 0.887,3.2 1.164,4.639 0.277,1.439 0.61,4.324 0.057,4.988 -0.556,0.665 -0.444,1.055 -0.942,1.499 -0.5,0.444 -1.289,3.562 -1.528,4.805 -0.242,1.241 -0.247,1.735 -0.247,1.735 0,0 -0.499,0.777 -0.998,1.22 -0.498,0.444 -0.333,0.776 -0.277,1.109 0.056,0.332 -0.054,1.83 0,2.327 0.056,0.499 0.555,1.662 0.611,2.327 0.055,0.665 0.831,4.712 0.942,5.214 0.11,0.498 0.611,1.661 0.611,2.16 0,0.497 0.941,1.385 1.664,1.886 0.72,0.499 1.772,0.499 2.826,0.331 1.053,-0.168 0.832,-0.498 1.332,-0.773 0.499,-0.28 0.555,-0.613 0.387,-1.11 -0.166,-0.5 -1.496,-1.72 -2.218,-1.773 -0.72,-0.056 -1.519,-0.556 -1.783,-0.989 -0.252,-0.418 0.07,-2.448 0.07,-2.448 0,0 0.882,0.331 1.658,0.221 0.776,-0.11 0.832,-0.499 1.275,-0.555 0.443,-0.056 0.555,-0.497 0.665,-0.996 0.111,-0.501 -0.166,-1.109 -0.941,-1.389 -0.776,-0.276 -1.831,-0.33 -2.386,-0.664 -0.555,-0.332 -0.11,-1.884 0,-2.437 0.11,-0.556 1.774,-3.606 2.772,-4.604 0.999,-1 2.329,-2.494 3.105,-3.992 0.776,-1.497 1.607,-1.773 2.938,-4.879 1.331,-3.105 2.495,-6.374 2.826,-6.763 0.333,-0.39 3.771,0.444 6.543,0.557 2.771,0.108 7.262,1.606 12.307,3.491 5.044,1.888 10.866,2.161 11.475,2.329 0.611,0.164 0.457,0.119 0.657,0.578 0.194,0.443 0.063,1.915 -0.046,2.523 -0.112,0.61 0.331,1.275 0.277,1.995 -0.056,0.725 0.444,6.487 0.61,8.764 0.166,2.271 0.108,4.821 0.666,5.374 0.552,0.556 0.884,2.055 1.164,2.773 0.275,0.72 0.387,2.051 2.05,3.159 1.664,1.109 2.997,0.39 4.438,0.168 1.44,-0.222 1.438,-0.832 0.828,-1.941 -0.609,-1.108 -2.161,-1.498 -2.771,-1.773 -0.61,-0.276 -1.164,-1.996 -1.164,-1.996 0,0 1.164,0.112 1.663,0 0.498,-0.11 0.665,-0.498 1.054,-0.332 0.388,0.168 0.83,-0.332 0.998,-0.718 0.165,-0.391 0,-1.109 -0.223,-1.5 -0.222,-0.388 -1.164,-1.054 -1.663,-1.163 -0.497,-0.112 -1.441,-0.167 -1.718,-0.501 -0.277,-0.331 -0.724,-1.938 -0.777,-2.381 -0.056,-0.444 0.166,-1.888 0.276,-2.883 0.111,-1 0.501,-5.712 0.723,-6.931 0.221,-1.218 0.775,-2.439 1.108,-3.271 0.332,-0.83 1.052,-1.884 1.496,-2.215 0.444,-0.335 1.886,-2.108 2.606,-3.606 0.72,-1.494 1.387,-3.102 1.607,-3.381 0.221,-0.278 0.887,-0.998 1.219,-2.16 0.332,-1.167 -0.124,-2.691 0.082,-3.188 0.21,-0.499 1.083,-1.331 1.79,-2.163 0.706,-0.83 1.082,-1.704 1.621,-2.578 0.539,-0.871 1.08,-2.993 1.206,-3.448 0.124,-0.459 1.496,-2.372 2.122,-3.536 0.621,-1.163 2.325,-1.621 3.614,-1.163 1.288,0.457 2.788,0.251 3.119,0 0.333,-0.251 1.361,-0.575 1.66,-0.536 0.482,0.063 0.792,0.039 1.623,-0.422 0.831,-0.456 1.955,-2.159 2.328,-2.867 0.374,-0.707 0.208,-1.414 0.208,-1.414 0,0 0.309,0.181 0.584,-1.057 0.25,-1.139 -1.086,-1.399 -1.418,-1.567 z"
       id="path4"
       inkscape:connector-curvature="0"
       style="fill:#804d00" /></g></svg>