<svg
   xmlns:dc="http://purl.org/dc/elements/1.1/"
   xmlns:cc="http://creativecommons.org/ns#"
   xmlns:rdf="http://www.w3.org/1999/02/22-rdf-syntax-ns#"
   xmlns:svg="http://www.w3.org/2000/svg"
   xmlns="http://www.w3.org/2000/svg"
   xmlns:sodipodi="http://sodipodi.sourceforge.net/DTD/sodipodi-0.dtd"
   xmlns:inkscape="http://www.inkscape.org/namespaces/inkscape"
   version="1.1"
   x="0px"
   y="0px"
   width="150px"
   height="150px"
   viewBox="5.0 -10.0 100.0 135.0"
   enable-background="new 0 0 100 100"
   xml:space="preserve"
   id="svg2"
   inkscape:version="0.91 r13725"
   sodipodi:docname="dress.svg"><metadata
     id="metadata15"><rdf:RDF><cc:Work
         rdf:about=""><dc:format>image/svg+xml</dc:format><dc:type
           rdf:resource="http://purl.org/dc/dcmitype/StillImage" /></cc:Work></rdf:RDF></metadata><defs
     id="defs13" /><sodipodi:namedview
     pagecolor="#ffffff"
     bordercolor="#666666"
     borderopacity="1"
     objecttolerance="10"
     gridtolerance="10"
     guidetolerance="10"
     inkscape:pageopacity="0"
     inkscape:pageshadow="2"
     inkscape:window-width="1246"
     inkscape:window-height="755"
     id="namedview11"
     showgrid="false"
     inkscape:zoom="1.5733333"
     inkscape:cx="-44.809322"
     inkscape:cy="75"
     inkscape:window-x="34"
     inkscape:window-y="0"
     inkscape:window-maximized="1"
     inkscape:current-layer="svg2" /><g
     id="Your_Icon"
     transform="matrix(1.2161696,0,0,1.286017,-11.696757,-6.2923726)"><g
       id="g5"><path
         d="m 37,50 c -1.048,7.799 3.27,10.057 3.27,19.602 0,25.398 -40.086,30.333 9.642,30.396 l 0,0.002 c 0.083,0 0.161,-0.001 0.245,-0.001 0.084,0 0.16,0.001 0.245,0.001 l 0,-0.002 C 68.707,99.975 74.834,98.675 75.279,96.003 51,81 45,67.179 37,50 Z"
         id="path7"
         inkscape:connector-curvature="0"
         style="fill:#66b913;fill-opacity:1" /></g><path
       d="M 38.275,41.361 C 34,51 57,86 75,94 70.603,89.044 60.043,78.987 60.043,69.602 60.043,57.285 70.176,56.81 62.036,41.362 53.897,25.914 60.874,21.927 64.029,18.605 67.187,15.282 62.701,9.801 60.376,0 l -2.295,2.987 c 0.592,3.58 -0.948,7.395 -2.531,7.395 -4.484,0 -5.481,3.571 -5.481,3.571 0,0 -1.495,-3.571 -5.316,-3.571 -1.618,0 -3.335,-3.991 -2.709,-7.642 L 39.938,0 c -2.325,9.801 -6.811,15.282 -3.655,18.604 3.155,3.323 9.072,6.794 1.992,22.757 z"
       id="path9"
       inkscape:connector-curvature="0"
       style="fill:#73d216" /></g></svg>