<svg
   xmlns:dc="http://purl.org/dc/elements/1.1/"
   xmlns:cc="http://creativecommons.org/ns#"
   xmlns:rdf="http://www.w3.org/1999/02/22-rdf-syntax-ns#"
   xmlns:svg="http://www.w3.org/2000/svg"
   xmlns="http://www.w3.org/2000/svg"
   xmlns:sodipodi="http://sodipodi.sourceforge.net/DTD/sodipodi-0.dtd"
   xmlns:inkscape="http://www.inkscape.org/namespaces/inkscape"
   version="1.1"
   id="Слой_1"
   x="0px"
   y="0px"
   viewBox="5.0 -10.0 100.0 135.0"
   enable-background="new 0 0 100 100"
   xml:space="preserve"
   height="100px"
   width="100px"
   inkscape:version="0.91 r13725"
   sodipodi:docname="glass.svg"><metadata
     id="metadata13"><rdf:RDF><cc:Work
         rdf:about=""><dc:format>image/svg+xml</dc:format><dc:type
           rdf:resource="http://purl.org/dc/dcmitype/StillImage" /></cc:Work></rdf:RDF></metadata><defs
     id="defs11" /><sodipodi:namedview
     pagecolor="#ffffff"
     bordercolor="#666666"
     borderopacity="1"
     objecttolerance="10"
     gridtolerance="10"
     guidetolerance="10"
     inkscape:pageopacity="0"
     inkscape:pageshadow="2"
     inkscape:window-width="751"
     inkscape:window-height="480"
     id="namedview9"
     showgrid="false"
     inkscape:zoom="2.36"
     inkscape:cx="50"
     inkscape:cy="50"
     inkscape:window-x="0"
     inkscape:window-y="0"
     inkscape:window-maximized="0"
     inkscape:current-layer="Слой_1" /><g
     id="g3"
     transform="matrix(1.3722307,0,0,1.3828231,-14.017483,-11.4187)"><path
       stroke-miterlimit="10"
       d="m 68.4,93.2 -36.8,0 c -1.8,0 -3.5,-1.6 -3.9,-4 L 12.6,13.6 c -0.7,-3.4 1.3,-6.8 3.9,-6.8 l 66.9,0 c 2.7,0 4.6,3.3 3.9,6.8 l -15,75.6 c -0.4,2.3 -2,4 -3.9,4 z"
       id="path5"
       inkscape:connector-curvature="0"
       style="fill:none;stroke:#000000;stroke-width:4.84299994;stroke-miterlimit:10" /><path
       stroke-miterlimit="10"
       d="m 62.7,86.5 -25.8,0 c -1.3,0 -2.4,-1 -2.8,-2.4 0,0 -10.5,-45.7 -10.6,-45.7 -0.3,-1.4 0.4,-3.9 2.2,-4.1 1.2,-0.1 3.3,2.2 4.4,2.8 3.5,1.7 7.7,1.9 11.2,0.2 2,-1 3.9,-2.5 6.1,-2.9 3.7,-0.5 6.8,2.4 10.3,3.8 3.5,1.5 7.7,1.2 11.1,-0.5 1.2,-0.6 3.4,-3.3 4.4,-3.4 2,-0.3 3,2.5 2.6,4 L 65.4,84.1 c -0.3,1.4 -1.4,2.4 -2.7,2.4 z"
       id="path7"
       inkscape:connector-curvature="0"
       style="fill:#0084c8;stroke:#204a87;stroke-width:3.15440011;stroke-miterlimit:10" /></g></svg>