<svg
   xmlns:dc="http://purl.org/dc/elements/1.1/"
   xmlns:cc="http://creativecommons.org/ns#"
   xmlns:rdf="http://www.w3.org/1999/02/22-rdf-syntax-ns#"
   xmlns:svg="http://www.w3.org/2000/svg"
   xmlns="http://www.w3.org/2000/svg"
   xmlns:sodipodi="http://sodipodi.sourceforge.net/DTD/sodipodi-0.dtd"
   xmlns:inkscape="http://www.inkscape.org/namespaces/inkscape"
   version="1.1"
   id="Layer_1"
   x="0px"
   y="0px"
   width="99.998px"
   height="94.77px"
   viewBox="-5.9471 -13.923 99.998 127.9395"
   enable-background="new -10.947 -4.446 99.998 94.77"
   xml:space="preserve"
   inkscape:version="0.91 r13725"
   sodipodi:docname="hammer.svg"><metadata
     id="metadata11"><rdf:RDF><cc:Work
         rdf:about=""><dc:format>image/svg+xml</dc:format><dc:type
           rdf:resource="http://purl.org/dc/dcmitype/StillImage" /></cc:Work></rdf:RDF></metadata><defs
     id="defs9" /><sodipodi:namedview
     pagecolor="#ffffff"
     bordercolor="#666666"
     borderopacity="1"
     objecttolerance="10"
     gridtolerance="10"
     guidetolerance="10"
     inkscape:pageopacity="0"
     inkscape:pageshadow="2"
     inkscape:window-width="751"
     inkscape:window-height="480"
     id="namedview7"
     showgrid="false"
     inkscape:zoom="2.4902396"
     inkscape:cx="49.999001"
     inkscape:cy="47.384998"
     inkscape:window-x="0"
     inkscape:window-y="0"
     inkscape:window-maximized="0"
     inkscape:current-layer="Layer_1" /><path
     d="M 47.596711,28.033094 60.488773,41.207542 2.840934,104.58237 c -2.50678979,2.67251 -6.9861746,2.67251 -9.6726157,0 l -6.9790363,-7.119604 c -2.686441,-2.491504 -2.686441,-6.942139 0,-9.6111 L 47.596711,28.033094 Z"
     id="path3"
     inkscape:connector-curvature="0"
     style="fill:#c17d11" /><path
     d="m 101.67175,41.561274 -9.672617,9.79329 c -1.966646,1.959132 -5.01358,1.959132 -7.159878,0 l -2.147487,-2.312863 c -1.612103,-1.425576 -2.333087,-4.096903 -1.432451,-5.342655 1.606154,-1.067111 1.073149,-4.271995 -1.973785,-7.123146 -4.291405,-4.450635 -9.845128,-4.62691 -11.991426,-2.314046 -0.893498,0.713379 -3.759589,3.738439 -3.759589,3.738439 L 50.283151,25.006851 52.436588,22.869079 c 0,0 0.533005,-0.533555 1.607343,-1.779307 C 58.164013,16.994052 53.86428,12.365959 53.86428,12.365959 42.232157,0.97200165 25.939807,1.1506423 25.939807,1.1506423 l -0.179651,-4.0969031 c 32.76435,-8.3688982 45.116268,5.8762108 49.596843,10.3268459 4.111754,4.0933539 8.411487,8.3653489 9.485826,9.4360089 2.325949,2.312864 0,8.897721 3.399098,12.640893 1.612102,1.600667 3.759589,2.314046 5.372879,2.314046 1.79414,-1.600667 4.65309,-1.067111 6.08554,0.533556 l 1.973788,2.137771 c 1.96426,1.959132 1.96426,4.984191 -0.002,7.118414 z"
     id="path5"
     inkscape:connector-curvature="0"
     style="fill:#999999" /></svg>