<svg
   xmlns:dc="http://purl.org/dc/elements/1.1/"
   xmlns:cc="http://creativecommons.org/ns#"
   xmlns:rdf="http://www.w3.org/1999/02/22-rdf-syntax-ns#"
   xmlns:svg="http://www.w3.org/2000/svg"
   xmlns="http://www.w3.org/2000/svg"
   xmlns:sodipodi="http://sodipodi.sourceforge.net/DTD/sodipodi-0.dtd"
   xmlns:inkscape="http://www.inkscape.org/namespaces/inkscape"
   version="1.1"
   id="Layer_1"
   x="0px"
   y="0px"
   width="100px"
   height="100px"
   viewBox="5.0 -10.0 100.0 135.0"
   enable-background="new 0 0 100 100"
   xml:space="preserve"
   inkscape:version="0.91 r13725"
   sodipodi:docname="hat.svg"><metadata
     id="metadata15"><rdf:RDF><cc:Work
         rdf:about=""><dc:format>image/svg+xml</dc:format><dc:type
           rdf:resource="http://purl.org/dc/dcmitype/StillImage" /></cc:Work></rdf:RDF></metadata><defs
     id="defs13" /><sodipodi:namedview
     pagecolor="#ffffff"
     bordercolor="#666666"
     borderopacity="1"
     objecttolerance="10"
     gridtolerance="10"
     guidetolerance="10"
     inkscape:pageopacity="0"
     inkscape:pageshadow="2"
     inkscape:window-width="1246"
     inkscape:window-height="755"
     id="namedview11"
     showgrid="false"
     inkscape:zoom="2.36"
     inkscape:cx="50"
     inkscape:cy="50"
     inkscape:window-x="34"
     inkscape:window-y="0"
     inkscape:window-maximized="1"
     inkscape:current-layer="Layer_1" /><path
     d="m 18.24932,73.880329 c 0,0 21.051851,15.07484 26.732227,16.712127 5.680376,1.638628 17.70981,3.932975 25.39623,-2.621536 7.686421,-6.553171 21.620708,-13.695014 26.155163,-15.00243 4.53309,-1.308757 13.602,-3.31346 18.75864,-0.08582 5.15665,3.224959 -20.35992,-13.078181 -20.35992,-13.078181 0,0 -9.335563,-4.708038 -16.26852,-3.749266 -6.934325,0.958772 -22.315371,7.148548 -31.828702,10.200525 -9.514699,3.051978 -28.585118,7.624581 -28.585118,7.624581 z"
     id="path3"
     inkscape:connector-curvature="0"
     style="fill:#9329a3;fill-opacity:1" /><path
     d="m 97.332897,73.402954 c 0,0 7.799923,-1.724447 12.268743,-1.307414 5.60243,0.522965 8.08981,2.179025 8.08981,2.179025 0,0 4.35669,3.750607 4.53446,4.883701 0.17777,1.133094 0.71107,3.659424 -1.6888,4.358053 -2.39987,0.69863 -4.09003,0.261483 -6.66767,-0.958771 -2.57901,-1.220255 -16.536543,-9.154594 -16.536543,-9.154594 z"
     id="path5"
     inkscape:connector-curvature="0"
     style="fill:#75507b" /><path
     d="m 93.952568,58.051881 c 0,0 -9.067543,-4.096569 -13.690882,-3.660764 -4.623339,0.435806 -26.229006,7.32421 -32.27449,9.939042 -6.045485,2.614832 -29.445242,8.686605 -32.362007,8.89311 -7.0204744,0.494807 -12.5039379,-0.09253 -18.7080461,1.504533 -3.3584504,0.866248 -6.4529841,1.438829 -6.4529841,1.438829 0,0 -0.6153508,-23.835197 2.5708014,-31.74808 1.140451,-2.832064 2.9892397,-19.738627 18.7682138,-28.127543 9.721183,-5.16798 33.427248,-7.4971919 45.073797,-5.143843 11.646548,2.35469 26.405406,8.195822 30.051021,19.965246 3.646981,11.770765 7.024576,26.93947 7.024576,26.93947 z"
     id="path7"
     inkscape:connector-curvature="0"
     style="fill:#8b3399;fill-opacity:1" /><path
     d="m 31.000767,10.062345 c 0,0 2.665154,-0.7898135 4.023029,-0.7898135 1.357875,0 4.325235,-0.048274 4.325235,-0.048274 0,0 -1.055669,-2.2192546 -2.816941,-2.3184842 -1.759905,-0.099229 -2.230306,-0.060342 -3.621,0.3942362 -1.8105,0.5926952 -1.910323,2.7623355 -1.910323,2.7623355 z"
     id="path9"
     inkscape:connector-curvature="0"
     style="fill:#75507b" /></svg>