<svg
   xmlns:dc="http://purl.org/dc/elements/1.1/"
   xmlns:cc="http://creativecommons.org/ns#"
   xmlns:rdf="http://www.w3.org/1999/02/22-rdf-syntax-ns#"
   xmlns:svg="http://www.w3.org/2000/svg"
   xmlns="http://www.w3.org/2000/svg"
   xmlns:sodipodi="http://sodipodi.sourceforge.net/DTD/sodipodi-0.dtd"
   xmlns:inkscape="http://www.inkscape.org/namespaces/inkscape"
   version="1.1"
   id="Your_Icon"
   x="0px"
   y="0px"
   width="100px"
   height="100px"
   viewBox="5.0 -10.0 100.0 135.0"
   enable-background="new 0 0 100 100"
   xml:space="preserve"
   inkscape:version="0.91 r13725"
   sodipodi:docname="helmet.svg"><metadata
     id="metadata13"><rdf:RDF><cc:Work
         rdf:about=""><dc:format>image/svg+xml</dc:format><dc:type
           rdf:resource="http://purl.org/dc/dcmitype/StillImage" /></cc:Work></rdf:RDF></metadata><defs
     id="defs11" /><sodipodi:namedview
     pagecolor="#ffffff"
     bordercolor="#666666"
     borderopacity="1"
     objecttolerance="10"
     gridtolerance="10"
     guidetolerance="10"
     inkscape:pageopacity="0"
     inkscape:pageshadow="2"
     inkscape:window-width="1246"
     inkscape:window-height="755"
     id="namedview9"
     showgrid="false"
     inkscape:zoom="2.36"
     inkscape:cx="50"
     inkscape:cy="50"
     inkscape:window-x="34"
     inkscape:window-y="0"
     inkscape:window-maximized="1"
     inkscape:current-layer="Your_Icon" /><g
     id="g3"
     transform="matrix(1.2957146,0,0,1.2506156,-10.495626,-2.5200615)"><polygon
       points="9.645,75.551 12.281,84.281 24.874,87.661 29.777,77.637 47.471,74.222 50.233,64.674 14.747,72.923 "
       id="polygon5"
       style="fill:#aa8800" /><path
       d="M 93.491,47.028 83.17,46.459 80.774,34.901 80.675,34.718 c -7.251,-13.385 -22.021,-22.38 -36.75,-22.38 -22.505,0 -40.82,17.258 -40.82,38.469 0,2.36 0.424,4.645 0.836,6.855 0.437,2.345 0.851,4.569 0.665,6.521 l -3.933,4.68 4.656,6.093 9.003,-3.758 L 64.474,60 95.57,56.544 99.328,50.672 93.491,47.028 Z M 45.456,20.868 c -14.31,0 -27.234,6.403 -35.066,16.436 5.863,-12.044 18.81,-20.432 33.802,-20.432 10.92,0 21.869,5.44 29.131,14.051 C 65.397,24.62 55.345,20.868 45.456,20.868 Z"
       id="path7"
       style="fill:#decc0f;fill-opacity:0.94117647"
       inkscape:connector-curvature="0" /></g></svg>