<svg
   xmlns:dc="http://purl.org/dc/elements/1.1/"
   xmlns:cc="http://creativecommons.org/ns#"
   xmlns:rdf="http://www.w3.org/1999/02/22-rdf-syntax-ns#"
   xmlns:svg="http://www.w3.org/2000/svg"
   xmlns="http://www.w3.org/2000/svg"
   xmlns:sodipodi="http://sodipodi.sourceforge.net/DTD/sodipodi-0.dtd"
   xmlns:inkscape="http://www.inkscape.org/namespaces/inkscape"
   version="1.1"
   id="Your_Icon"
   x="0px"
   y="0px"
   width="100px"
   height="100px"
   viewBox="5.0 -10.0 100.0 135.0"
   enable-background="new 0 0 100 100"
   xml:space="preserve"
   inkscape:version="0.91 r13725"
   sodipodi:docname="hen.svg"><metadata
     id="metadata9"><rdf:RDF><cc:Work
         rdf:about=""><dc:format>image/svg+xml</dc:format><dc:type
           rdf:resource="http://purl.org/dc/dcmitype/StillImage" /></cc:Work></rdf:RDF></metadata><defs
     id="defs7" /><sodipodi:namedview
     pagecolor="#ffffff"
     bordercolor="#666666"
     borderopacity="1"
     objecttolerance="10"
     gridtolerance="10"
     guidetolerance="10"
     inkscape:pageopacity="0"
     inkscape:pageshadow="2"
     inkscape:window-width="1246"
     inkscape:window-height="755"
     id="namedview5"
     showgrid="false"
     inkscape:zoom="2.36"
     inkscape:cx="50"
     inkscape:cy="50"
     inkscape:window-x="34"
     inkscape:window-y="0"
     inkscape:window-maximized="1"
     inkscape:current-layer="Your_Icon" /><path
     d="m 109.26199,42.208457 6.42558,-5.264427 -1.34027,-7.193626 -8.18542,2.372758 4.70873,-7.507815 -4.55454,-4.624678 L 89.17873,42.852472 68.109543,35.604821 42.033624,34.719124 27.037154,8.0088735 31.987546,4.696393 31.496806,0.16981034 27.108318,-1.2319519 22.749483,1.496224 l 1.193491,-5.0056839 -3.150519,-3.2712528 -4.830302,1.261017 -1.555244,5.18054974 -3.109006,-4.59055784 -3.2113051,0.9553592 -1.4158803,7.5277186 -14.7666673,8.201588 13.6917844,0.914131 -2.8095216,4.112878 3.4796556,1.155814 0.2223895,2.568949 2.9918809,-0.901336 0.7205419,41.740098 11.44565,21.455775 19.851975,9.454076 1.611583,4.449813 12.143953,5.99374 2.496693,5.82314 -8.213587,8.04805 -17.945356,2.31447 2.410703,1.62496 30.706069,0 -2.584166,-1.62496 -7.590898,-1.28661 8.222484,-7.3628 -0.538183,-8.39209 7.312168,-8.734715 16.711836,-5.42081 13.969035,-12.647135 16.46572,-27.308772 0,-4.363092 -7.41447,-1.160079 z M 85.559709,76.708013 62.140607,82.207015 42.89353,82.720236 30.574631,75.664511 25.381093,62.086184 33.26258,49.568419 l 0.739815,0.432187 -5.681312,11.858111 4.922223,11.973267 10.750311,6.390386 18.482056,0.258743 22.154449,-5.149272 1.363989,-3.173157 -6.772504,0.147853 1.420328,-4.947396 -6.822912,0.806084 -0.77688,-4.087288 -8.634646,1.721637 9.427835,-3.157519 0.997788,4.209552 7.183183,-0.71652 -1.046713,4.830819 7.269173,-0.355416 -2.679054,6.097523 z"
     id="path3"
     inkscape:connector-curvature="0"
     style="fill:#ffaa00;fill-opacity:1" /></svg>