<svg
   xmlns:dc="http://purl.org/dc/elements/1.1/"
   xmlns:cc="http://creativecommons.org/ns#"
   xmlns:rdf="http://www.w3.org/1999/02/22-rdf-syntax-ns#"
   xmlns:svg="http://www.w3.org/2000/svg"
   xmlns="http://www.w3.org/2000/svg"
   xmlns:sodipodi="http://sodipodi.sourceforge.net/DTD/sodipodi-0.dtd"
   xmlns:inkscape="http://www.inkscape.org/namespaces/inkscape"
   version="1.1"
   id="Glyphs_-_Outdoors"
   x="0px"
   y="0px"
   viewBox="2.0 -4.0 40.0 54.0"
   enable-background="new 0 0 40 40"
   xml:space="preserve"
   height="100px"
   width="100px"
   inkscape:version="0.91 r13725"
   sodipodi:docname="hut.svg"><metadata
     id="metadata8"><rdf:RDF><cc:Work
         rdf:about=""><dc:format>image/svg+xml</dc:format><dc:type
           rdf:resource="http://purl.org/dc/dcmitype/StillImage" /></cc:Work></rdf:RDF></metadata><defs
     id="defs6" /><sodipodi:namedview
     pagecolor="#ffffff"
     bordercolor="#666666"
     borderopacity="1"
     objecttolerance="10"
     gridtolerance="10"
     guidetolerance="10"
     inkscape:pageopacity="0"
     inkscape:pageshadow="2"
     inkscape:window-width="1246"
     inkscape:window-height="755"
     id="namedview4"
     showgrid="false"
     inkscape:zoom="5.53"
     inkscape:cx="50"
     inkscape:cy="50"
     inkscape:window-x="34"
     inkscape:window-y="0"
     inkscape:window-maximized="1"
     inkscape:current-layer="Glyphs_-_Outdoors" /><path
     style="clip-rule:evenodd;fill:#a87412;fill-rule:evenodd"
     d="m 12.547921,23.83378 4.858046,-3.438698 4.858048,3.266763 4.858047,-3.438699 4.858046,3.266764 0.539784,-0.34387 -7.73689,-14.7864019 1.799277,-6.8773958 C 26.762206,0.96643753 26.402351,0.62256775 25.862568,0.45063286 25.322785,0.27869786 24.962929,0.62256775 24.783002,1.1383724 l -0.899638,3.4386983 0,-4.9861124 c 0,-0.8596744 -0.719712,-1.719349 -1.799277,-1.719349 -1.079566,0 -1.799277,0.6877396 -1.799277,1.719349 l 0,4.9861124 -0.899638,-3.4386983 C 19.205244,0.62256775 18.845388,0.45063286 18.305606,0.45063286 17.765823,0.62256775 17.585895,0.96643753 17.585895,1.4822423 l 1.799277,6.7054616 -7.916818,14.9583361 1.079567,0.68774 z"
     id="path4140" /><path
     style="clip-rule:evenodd;fill:#a87412;fill-rule:evenodd"
     d="m 36.4783,30.367306 -4.318264,3.094828 -4.858046,-3.266763 -4.858048,3.438698 -4.858047,-3.266763 -4.858046,3.438699 -5.0379757,-3.266764 -0.1799278,0 -9.8960216,18.912839 19.7920431,0 0,-10.316095 10.795661,10.316095 17.992767,0 L 36.4783,30.367306 Z"
     id="path4138" /><path
     style="clip-rule:evenodd;fill:#ff0000;fill-rule:evenodd"
     d="m 17.405967,26.068933 4.858048,3.266764 4.858047,-3.438699 4.858046,3.266764 2.698915,-2.063219 -1.439421,-2.579023 -1.259494,1.031608 -4.858046,-3.266762 -4.858047,3.438698 -4.858048,-3.266764 -4.858046,3.438698 -1.799277,-1.203544 -1.4394211,2.750959 3.2386981,2.235153 4.858046,-3.610633 z"
     id="Wigwam_1_" /></svg>