<svg
   xmlns:dc="http://purl.org/dc/elements/1.1/"
   xmlns:cc="http://creativecommons.org/ns#"
   xmlns:rdf="http://www.w3.org/1999/02/22-rdf-syntax-ns#"
   xmlns:svg="http://www.w3.org/2000/svg"
   xmlns="http://www.w3.org/2000/svg"
   xmlns:sodipodi="http://sodipodi.sourceforge.net/DTD/sodipodi-0.dtd"
   xmlns:inkscape="http://www.inkscape.org/namespaces/inkscape"
   version="1.1"
   id="Your_Icon"
   x="0px"
   y="0px"
   width="100px"
   height="100px"
   viewBox="5.0 -10.0 100.0 135.0"
   enable-background="new 0 0 100 100"
   xml:space="preserve"
   inkscape:version="0.91 r13725"
   sodipodi:docname="icecream.svg"><metadata
     id="metadata89"><rdf:RDF><cc:Work
         rdf:about=""><dc:format>image/svg+xml</dc:format><dc:type
           rdf:resource="http://purl.org/dc/dcmitype/StillImage" /></cc:Work></rdf:RDF></metadata><defs
     id="defs87" /><sodipodi:namedview
     pagecolor="#ffffff"
     bordercolor="#666666"
     borderopacity="1"
     objecttolerance="10"
     gridtolerance="10"
     guidetolerance="10"
     inkscape:pageopacity="0"
     inkscape:pageshadow="2"
     inkscape:window-width="1246"
     inkscape:window-height="755"
     id="namedview85"
     showgrid="false"
     inkscape:zoom="5.69"
     inkscape:cx="17.047452"
     inkscape:cy="50"
     inkscape:window-x="34"
     inkscape:window-y="0"
     inkscape:window-maximized="1"
     inkscape:current-layer="Your_Icon" /><polygon
     points="54,62.14 52.263,67.467 54,72.794 55.737,67.467 "
     id="polygon3"
     transform="matrix(1.6915796,0,0,1.5201302,-35.495163,-19.755077)"
     style="fill:#cc9900" /><polygon
     points="52,68.272 50.263,73.601 52,78.928 53.737,73.6 "
     id="polygon5"
     transform="matrix(1.6915796,0,0,1.5201302,-35.495163,-19.755077)"
     style="fill:#cc9900" /><polygon
     points="50,62.14 48.263,67.467 50,72.794 51.737,67.467 "
     id="polygon7"
     transform="matrix(1.6915796,0,0,1.5201302,-35.495163,-19.755077)"
     style="fill:#cc9900" /><polygon
     points="48,68.272 46.263,73.601 48,78.928 49.737,73.6 "
     id="polygon9"
     transform="matrix(1.6915796,0,0,1.5201302,-35.495163,-19.755077)"
     style="fill:#cc9900" /><polygon
     points="46,62.14 44.263,67.467 46,72.794 47.737,67.467 "
     id="polygon11"
     transform="matrix(1.6915796,0,0,1.5201302,-35.495163,-19.755077)"
     style="fill:#cc9900" /><polygon
     points="58,49.872 56.263,55.2 58,60.528 59.737,55.2 "
     id="polygon13"
     transform="matrix(1.6915796,0,0,1.5201302,-35.495163,-19.755077)"
     style="fill:#cc9900" /><polygon
     points="63.62,53.23 65,49 62.284,49 62.263,49.067 "
     id="polygon15"
     transform="matrix(1.6915796,0,0,1.5201302,-35.495163,-19.755077)"
     style="fill:#cc9900" /><polygon
     points="50.263,49.066 52,54.394 53.737,49.066 53.716,49 50.284,49 "
     id="polygon17"
     transform="matrix(1.6915796,0,0,1.5201302,-35.495163,-19.755077)"
     style="fill:#cc9900" /><polygon
     points="56,56.006 54.263,61.333 56,66.661 57.737,61.333 "
     id="polygon19"
     transform="matrix(1.6915796,0,0,1.5201302,-35.495163,-19.755077)"
     style="fill:#cc9900" /><polygon
     points="54.263,49.067 56,54.395 57.737,49.066 57.716,49 54.284,49 "
     id="polygon21"
     transform="matrix(1.6915796,0,0,1.5201302,-35.495163,-19.755077)"
     style="fill:#cc9900" /><polygon
     points="46,60.527 47.737,55.2 46,49.874 44.263,55.2 "
     id="polygon23"
     transform="matrix(1.6915796,0,0,1.5201302,-35.495163,-19.755077)"
     style="fill:#cc9900" /><polygon
     points="42,60.527 43.737,55.2 42,49.874 40.263,55.2 "
     id="polygon25"
     transform="matrix(1.6915796,0,0,1.5201302,-35.495163,-19.755077)"
     style="fill:#cc9900" /><polygon
     points="52,66.661 53.737,61.334 52,56.006 50.263,61.333 "
     id="polygon27"
     transform="matrix(1.6915796,0,0,1.5201302,-35.495163,-19.755077)"
     style="fill:#cc9900" /><polygon
     points="58.263,49.067 60,54.395 61.737,49.066 61.716,49 58.284,49 "
     id="polygon29"
     transform="matrix(1.6915796,0,0,1.5201302,-35.495163,-19.755077)"
     style="fill:#cc9900" /><polygon
     points="44,56.007 42.263,61.334 44,66.66 45.737,61.333 "
     id="polygon31"
     transform="matrix(1.6915796,0,0,1.5201302,-35.495163,-19.755077)"
     style="fill:#cc9900" /><polygon
     points="54,49.872 52.263,55.199 54,60.527 55.737,55.2 "
     id="polygon33"
     transform="matrix(1.6915796,0,0,1.5201302,-35.495163,-19.755077)"
     style="fill:#cc9900" /><polygon
     points="48,66.661 49.737,61.334 48,56.006 46.263,61.333 "
     id="polygon35"
     transform="matrix(1.6915796,0,0,1.5201302,-35.495163,-19.755077)"
     style="fill:#cc9900" /><polygon
     points="50,60.527 51.737,55.2 50,49.873 48.263,55.199 "
     id="polygon37"
     transform="matrix(1.6915796,0,0,1.5201302,-35.495163,-19.755077)"
     style="fill:#cc9900" /><polygon
     points="39.737,55.2 38,49.874 36.643,54.037 38.379,59.363 "
     id="polygon39"
     transform="matrix(1.6915796,0,0,1.5201302,-35.495163,-19.755077)"
     style="fill:#cc9900" /><polygon
     points="58.263,61.334 59.62,65.498 61.357,60.17 60,56.006 "
     id="polygon41"
     transform="matrix(1.6915796,0,0,1.5201302,-35.495163,-19.755077)"
     style="fill:#cc9900" /><polygon
     points="46.263,49.067 48,54.394 49.737,49.066 49.715,49 46.285,49 "
     id="polygon43"
     transform="matrix(1.6915796,0,0,1.5201302,-35.495163,-19.755077)"
     style="fill:#cc9900" /><polygon
     points="56.263,67.467 57.62,71.631 59.357,66.303 58,62.139 "
     id="polygon45"
     transform="matrix(1.6915796,0,0,1.5201302,-35.495163,-19.755077)"
     style="fill:#cc9900" /><polygon
     points="52.263,79.733 53.62,83.897 55.357,78.569 54,74.406 "
     id="polygon47"
     transform="matrix(1.6915796,0,0,1.5201302,-35.495163,-19.755077)"
     style="fill:#cc9900" /><polygon
     points="54.263,73.601 55.62,77.764 57.357,72.437 56,68.272 "
     id="polygon49"
     transform="matrix(1.6915796,0,0,1.5201302,-35.495163,-19.755077)"
     style="fill:#cc9900" /><polygon
     points="48.642,90.836 50,95 51.357,90.836 50,86.672 "
     id="polygon51"
     transform="matrix(1.6915796,0,0,1.5201302,-35.495163,-19.755077)"
     style="fill:#cc9900" /><polygon
     points="60.263,55.2 61.62,59.364 63.357,54.036 62,49.872 "
     id="polygon53"
     transform="matrix(1.6915796,0,0,1.5201302,-35.495163,-19.755077)"
     style="fill:#cc9900" /><polygon
     points="37.715,49 35,49 36.379,53.229 37.737,49.066 "
     id="polygon55"
     transform="matrix(1.6915796,0,0,1.5201302,-35.495163,-19.755077)"
     style="fill:#cc9900" /><polygon
     points="52,80.539 50.263,85.867 51.62,90.031 53.357,84.703 "
     id="polygon57"
     transform="matrix(1.6915796,0,0,1.5201302,-35.495163,-19.755077)"
     style="fill:#cc9900" /><polygon
     points="40,56.007 38.643,60.17 40.379,65.496 41.737,61.333 "
     id="polygon59"
     transform="matrix(1.6915796,0,0,1.5201302,-35.495163,-19.755077)"
     style="fill:#cc9900" /><polygon
     points="50,74.406 48.263,79.733 50,85.061 51.737,79.733 "
     id="polygon61"
     transform="matrix(1.6915796,0,0,1.5201302,-35.495163,-19.755077)"
     style="fill:#cc9900" /><polygon
     points="38.263,49.067 40,54.394 41.737,49.066 41.715,49 38.285,49 "
     id="polygon63"
     transform="matrix(1.6915796,0,0,1.5201302,-35.495163,-19.755077)"
     style="fill:#cc9900" /><polygon
     points="42.263,49.067 44,54.394 45.737,49.066 45.715,49 42.285,49 "
     id="polygon65"
     transform="matrix(1.6915796,0,0,1.5201302,-35.495163,-19.755077)"
     style="fill:#cc9900" /><polygon
     points="42,62.14 40.643,66.303 42.379,71.631 43.737,67.467 "
     id="polygon67"
     transform="matrix(1.6915796,0,0,1.5201302,-35.495163,-19.755077)"
     style="fill:#cc9900" /><polygon
     points="48,80.539 46.642,84.703 48.379,90.03 49.737,85.866 "
     id="polygon69"
     transform="matrix(1.6915796,0,0,1.5201302,-35.495163,-19.755077)"
     style="fill:#cc9900" /><polygon
     points="44,68.272 42.642,72.437 44.379,77.764 45.737,73.6 "
     id="polygon71"
     transform="matrix(1.6915796,0,0,1.5201302,-35.495163,-19.755077)"
     style="fill:#cc9900" /><polygon
     points="46,74.406 44.643,78.57 46.379,83.897 47.737,79.733 "
     id="polygon73"
     transform="matrix(1.6915796,0,0,1.5201302,-35.495163,-19.755077)"
     style="fill:#cc9900" /><path
     d="m 23.710122,53.211174 c 5.074739,0 37.214752,0 45.67265,0 7.329615,0 9.797629,-4.496546 9.797629,-9.056936 0,-4.43422 -0.634343,-7.474481 -4.72289,-10.704757 -4.934338,8.1707 -25.377077,11.21096 -40.597911,7.600651 C 21.952571,38.22573 18.635384,47.130653 23.710122,53.211174 Z"
     id="path75"
     inkscape:connector-curvature="0"
     style="fill:#0066cc" /><path
     d="m 30.246386,26.897719 c 10.521625,1.421322 33.00441,1.813516 37.515852,-10.169671 8.457898,0 9.79763,13.174969 2.960265,18.051547 -11.841057,7.880355 -30.157481,6.19301 -36.862903,4.470703 -5.008767,-1.286031 -8.363169,-0.414996 -10.881931,1.123375 -4.738115,-4.280686 -2.57966,-14.841031 7.268717,-13.475954 z"
     id="path77"
     inkscape:connector-curvature="0"
     style="fill:#0083d7" /><path
     d="M 24.344465,25.468797 C 21.73605,20.084496 25.190255,7.9234538 39.357234,9.6974456 52.725788,11.371109 54.018155,1.9067789 45.348809,-7.7840514 67.028093,0.32280254 66.914757,8.7960087 66.422508,15.081747 65.410943,20.719911 56.239198,24.681369 47.392237,25.722659 35.551179,27.115098 28.361967,24.012512 24.344465,25.468797 Z"
     id="path79"
     inkscape:connector-curvature="0"
     style="fill:#0099ff" /></svg>