<svg
   xmlns:dc="http://purl.org/dc/elements/1.1/"
   xmlns:cc="http://creativecommons.org/ns#"
   xmlns:rdf="http://www.w3.org/1999/02/22-rdf-syntax-ns#"
   xmlns:svg="http://www.w3.org/2000/svg"
   xmlns="http://www.w3.org/2000/svg"
   xmlns:sodipodi="http://sodipodi.sourceforge.net/DTD/sodipodi-0.dtd"
   xmlns:inkscape="http://www.inkscape.org/namespaces/inkscape"
   version="1.1"
   id="Layer_1"
   x="0px"
   y="0px"
   width="93.953px"
   height="100px"
   viewBox="8.67165 -9.776 93.953 135.0"
   enable-background="new 3.974 0.224 93.953 100"
   xml:space="preserve"
   inkscape:version="0.91 r13725"
   sodipodi:docname="ladybug.svg"><metadata
     id="metadata22"><rdf:RDF><cc:Work
         rdf:about=""><dc:format>image/svg+xml</dc:format><dc:type
           rdf:resource="http://purl.org/dc/dcmitype/StillImage" /></cc:Work></rdf:RDF></metadata><defs
     id="defs20" /><sodipodi:namedview
     pagecolor="#ffffff"
     bordercolor="#666666"
     borderopacity="1"
     objecttolerance="10"
     gridtolerance="10"
     guidetolerance="10"
     inkscape:pageopacity="0"
     inkscape:pageshadow="2"
     inkscape:window-width="1246"
     inkscape:window-height="755"
     id="namedview18"
     showgrid="false"
     inkscape:zoom="2.36"
     inkscape:cx="46.976501"
     inkscape:cy="50"
     inkscape:window-x="34"
     inkscape:window-y="0"
     inkscape:window-maximized="1"
     inkscape:current-layer="Layer_1" /><g
     id="Your_Icon"
     transform="matrix(1.2557135,0,0,1.188771,-7.8806118,-0.04228471)"><path
       style="fill:#b50000"
       d="m 4.128,22.292 c 0.167,-1.373 1.26,-2.294 3.277,-2.757 l 1.138,0.135 c 1.347,0.168 2.301,1.222 2.86,3.158 l 7.072,2.603 c 1.364,-3.63 3.447,-6.445 6.245,-8.444 2.393,-1.638 5.234,-2.639 8.512,-3.008 L 33.248,13.85 31.531,7.541 31.312,7.515 C 28.987,6.871 27.944,5.57 28.185,3.614 L 28.271,2.91 c 0.161,-1.313 1.174,-2.196 3.042,-2.653 l 0.806,-0.033 0.523,0.066 c 1.52,0.188 2.477,1.356 2.863,3.511 L 35.436,4.37 c -0.097,0.792 -0.538,1.612 -1.328,2.465 l 1.957,7.271 1.227,0.151 c 4.824,0.593 8.818,3.458 11.986,8.592 0.577,1.11 0.891,1.937 0.944,2.477 5.204,-1.32 9.898,-1.725 14.077,-1.212 l 2.017,0.251 c 8.535,1.047 16.138,5.227 22.808,12.546 6.952,8.625 9.789,18.157 8.504,28.594 l -0.079,0.658 C 96.458,75.05 92.57,82.778 85.893,89.346 L 85.758,89.328 42.79,40.527 l -0.017,0.13 c 16.236,23.415 28.433,41.293 36.591,53.63 l -0.017,0.133 c -3.64,2.31 -7.146,3.812 -10.523,4.495 -4.574,1.246 -9.04,1.603 -13.393,1.069 L 53.676,99.766 C 44.41,98.629 36.325,93.899 29.427,85.572 23.376,77.089 20.935,68.092 22.101,58.591 l 0.125,-1.007 c 0.479,-3.919 1.74,-8.022 3.78,-12.309 -3.33,-1.863 -5.841,-4.859 -7.531,-8.983 -0.801,-2.651 -1.023,-5.438 -0.664,-8.358 l -0.09,-0.013 -7.072,-2.559 C 9.706,26.522 8.545,27.014 7.172,26.848 5.448,26.633 4.381,25.525 3.974,23.517 l 0.154,-1.225 z"
       id="path4" /><path
       stroke-miterlimit="3.8637"
       d="m 84.743,71.848 c 2.57,0.317 4.51,-0.96 5.813,-3.826 l 0.148,-1.227 c 0.289,-2.369 -0.959,-4.26 -3.754,-5.669 l -0.867,-0.197 -0.879,-0.106 c -2.219,-0.272 -3.996,0.903 -5.327,3.53 l -0.267,1.08 c -0.308,2.483 0.888,4.485 3.581,6.002 l 1.552,0.413 z"
       id="path6"
       inkscape:connector-curvature="0"
       style="stroke:#000000;stroke-width:4;stroke-miterlimit:3.86369991" /><path
       stroke-miterlimit="3.8637"
       d="m 78.318,50.229 c 2.396,0.292 4.247,-0.888 5.555,-3.549 l 0.222,-1.083 c 0.329,-2.691 -0.936,-4.728 -3.789,-6.119 l -1.209,-0.282 c -2.637,-0.325 -4.543,0.837 -5.728,3.48 l -0.27,1.124 -0.01,0.089 c -0.298,2.425 0.786,4.338 3.256,5.742 0.442,0.292 1.098,0.492 1.973,0.598 z"
       id="path8"
       inkscape:connector-curvature="0"
       style="stroke:#001100;stroke-width:4;stroke-miterlimit:3.86369991" /><path
       stroke-miterlimit="3.8637"
       d="m 60.777,94.497 c 2.688,0.33 4.604,-0.903 5.753,-3.699 l 0.237,-0.859 c 0.337,-2.721 -0.96,-4.763 -3.875,-6.132 l -1.345,-0.296 c -2.427,-0.301 -4.276,0.869 -5.549,3.5 l -0.198,0.911 -0.041,0.307 c -0.344,2.81 1.067,4.863 4.229,6.171 l 0.789,0.097 z"
       id="path10"
       inkscape:connector-curvature="0"
       style="stroke:#000000;stroke-width:4;stroke-miterlimit:3.86369991" /><path
       stroke-miterlimit="3.8637"
       d="m 57.002,41.157 c 2.367,0.291 4.215,-0.848 5.536,-3.414 l 0.211,-0.998 0.068,-0.571 c 0.305,-2.456 -0.971,-4.376 -3.829,-5.767 l -1.08,-0.267 -0.131,-0.016 c -2.192,-0.267 -3.912,0.544 -5.152,2.44 -0.479,0.77 -0.763,1.492 -0.847,2.166 -0.33,2.688 0.966,4.731 3.878,6.128 l 1.346,0.299 z"
       id="path12"
       inkscape:connector-curvature="0"
       style="stroke:#000000;stroke-width:4;stroke-miterlimit:3.86369991" /><path
       stroke-miterlimit="3.8637"
       d="m 40.447,83.544 c 2.629,0.324 4.598,-0.843 5.904,-3.501 l 0.241,-1.221 c 0.304,-2.484 -0.851,-4.436 -3.468,-5.851 -0.273,-0.184 -0.673,-0.308 -1.201,-0.374 l -0.57,-0.07 c -2.368,-0.288 -4.161,0.782 -5.377,3.215 -0.187,0.304 -0.317,0.779 -0.397,1.418 -0.327,2.661 0.896,4.649 3.671,5.97 l 1.197,0.414 z"
       id="path14"
       inkscape:connector-curvature="0"
       style="stroke:#000000;stroke-width:4;stroke-miterlimit:3.86369991" /><path
       stroke-miterlimit="3.8637"
       d="m 35.508,61.042 0.791,0.098 c 2.31,0.282 4.081,-0.851 5.311,-3.4 l 0.229,-1.127 0.027,-0.222 C 42.179,53.848 40.978,51.89 38.269,50.52 l -1.287,-0.38 c -2.692,-0.33 -4.652,0.898 -5.886,3.684 l -0.165,1.356 c -0.291,2.367 0.947,4.255 3.714,5.665 l 0.863,0.197 z"
       id="path16"
       inkscape:connector-curvature="0"
       style="stroke:#000000;stroke-width:4;stroke-miterlimit:3.86369991" /></g></svg>