<svg
   xmlns:dc="http://purl.org/dc/elements/1.1/"
   xmlns:cc="http://creativecommons.org/ns#"
   xmlns:rdf="http://www.w3.org/1999/02/22-rdf-syntax-ns#"
   xmlns:svg="http://www.w3.org/2000/svg"
   xmlns="http://www.w3.org/2000/svg"
   xmlns:sodipodi="http://sodipodi.sourceforge.net/DTD/sodipodi-0.dtd"
   xmlns:inkscape="http://www.inkscape.org/namespaces/inkscape"
   version="1.1"
   id="Your_Icon"
   x="0px"
   y="0px"
   width="100px"
   height="100px"
   viewBox="5.0 -10.0 100.0 135.0"
   enable-background="new 0 0 100 100"
   xml:space="preserve"
   inkscape:version="0.91 r13725"
   sodipodi:docname="lion.svg"><metadata
     id="metadata17"><rdf:RDF><cc:Work
         rdf:about=""><dc:format>image/svg+xml</dc:format><dc:type
           rdf:resource="http://purl.org/dc/dcmitype/StillImage" /></cc:Work></rdf:RDF></metadata><defs
     id="defs15" /><sodipodi:namedview
     pagecolor="#ffffff"
     bordercolor="#666666"
     borderopacity="1"
     objecttolerance="10"
     gridtolerance="10"
     guidetolerance="10"
     inkscape:pageopacity="0"
     inkscape:pageshadow="2"
     inkscape:window-width="751"
     inkscape:window-height="480"
     id="namedview13"
     showgrid="false"
     inkscape:zoom="2.36"
     inkscape:cx="50"
     inkscape:cy="50"
     inkscape:window-x="0"
     inkscape:window-y="0"
     inkscape:window-maximized="0"
     inkscape:current-layer="Your_Icon" /><polygon
     points="22.716,24.994 18.507,23.185 19.814,22.996 19.249,21.752 22.981,17.869 27.429,16.7 22.491,20.885 27.165,17.907 31.802,16.474 28.598,19.15 27.731,20.885 31.614,18.773 39.518,23.636 44.042,30.673 49.168,35.9 52.889,44.144 48.253,40.827 41.025,38.715 40.221,48.566 34.391,52.989 29.565,58.318 27.957,58.318 21.624,51.282 21.121,52.386 18.507,49.909 18.507,45.753 19.965,39.318 20.417,35.021 21.624,33.061 "
     id="polygon3"
     transform="matrix(1.3961711,0,0,1.3303812,-15.943411,-6.0147341)"
     style="fill:#815400" /><polygon
     points="74.25,43.541 83.9,49.271 87.67,57.262 96.566,64.425 98,70.457 94.531,75.961 84.73,76.715 75.402,74.655 64.852,77.066 75.402,74.428 84.779,76.589 93.25,75.056 95.762,71.186 94.707,65.758 87.369,60.63 85.107,61.585 85.107,63.245 89.932,65.758 89.781,68.874 78.07,69.527 67.113,74.655 64.047,74.001 66.309,71.186 63.367,73.648 61.08,71.538 62.387,69.478 64.801,67.567 62.205,69.194 60.729,71.035 60.125,69.125 65.504,65.456 68.018,67.014 76.813,67.817 84.102,64.502 76.563,66.662 68.268,65.908 65.102,63.849 52.385,67.768 41.83,65.707 35.698,68.221 27.906,67.817 18.507,68.472 11.722,74.503 9.51,74.302 8.807,73.195 12.677,68.925 8.48,73.021 6.771,72.552 6.192,71.085 9.762,67.265 5.992,70.684 5.59,69.226 12.425,64.148 30.118,58.922 35.145,53.393 41.327,49.12 41.83,40.022 48.253,41.731 52.889,45.275 59.396,47.059 "
     id="polygon5"
     transform="matrix(1.3961711,0,0,1.3303812,-15.943411,-6.0147341)"
     style="fill:#d49725" /><path
     d="m 8.6333892,25.430156 -4.6310996,4.146798 0.7022737,2.272291 -8.841951,10.966333 2.5270699,5.349462 4.9131255,-0.802219 -2.52706935,4.011099 3.36896055,5.216425 4.4914823,-3.075841 1.8247958,-6.687827 0.700878,-6.686496 1.824795,-2.808435 1.263536,-8.960117 -5.6167968,-2.941473 z m -10.677916,19.559265 -1.0192054,-2.028832 2.36232125,-1.005768 -1.34311585,3.0346 z M 6.5628679,34.157457 7.3000455,32.251021 8.8791152,33.05457 6.5628679,34.157457 Z"
     id="path7"
     inkscape:connector-curvature="0"
     style="fill:#d49725" /><polygon
     points="55.703,84 63.016,82.944 65.391,76.925 64.146,76.498 59.471,77.816 58.568,81.513 "
     id="polygon9"
     transform="matrix(1.3961711,0,0,1.3303812,-15.943411,-6.0147341)"
     style="fill:#815400" /><polygon
     points="21.92,52.757 26.675,58.318 18.507,60.882 16.346,56.66 17.251,54.171 "
     id="polygon11"
     transform="matrix(1.3961711,0,0,1.3303812,-15.943411,-6.0147341)"
     style="fill:#a87412" /></svg>