<svg
   xmlns:dc="http://purl.org/dc/elements/1.1/"
   xmlns:cc="http://creativecommons.org/ns#"
   xmlns:rdf="http://www.w3.org/1999/02/22-rdf-syntax-ns#"
   xmlns:svg="http://www.w3.org/2000/svg"
   xmlns="http://www.w3.org/2000/svg"
   xmlns:sodipodi="http://sodipodi.sourceforge.net/DTD/sodipodi-0.dtd"
   xmlns:inkscape="http://www.inkscape.org/namespaces/inkscape"
   version="1.1"
   x="0px"
   y="0px"
   viewBox="5.0 -10.0 100.0 135.0"
   enable-background="new 0 0 100 100"
   xml:space="preserve"
   height="100px"
   width="100px"
   id="svg2"
   inkscape:version="0.91 r13725"
   sodipodi:docname="lollipop.svg"><metadata
     id="metadata11"><rdf:RDF><cc:Work
         rdf:about=""><dc:format>image/svg+xml</dc:format><dc:type
           rdf:resource="http://purl.org/dc/dcmitype/StillImage" /></cc:Work></rdf:RDF></metadata><defs
     id="defs9" /><sodipodi:namedview
     pagecolor="#ffffff"
     bordercolor="#666666"
     borderopacity="1"
     objecttolerance="10"
     gridtolerance="10"
     guidetolerance="10"
     inkscape:pageopacity="0"
     inkscape:pageshadow="2"
     inkscape:window-width="1246"
     inkscape:window-height="755"
     id="namedview7"
     showgrid="false"
     inkscape:zoom="5.69"
     inkscape:cx="50"
     inkscape:cy="50"
     inkscape:window-x="34"
     inkscape:window-y="0"
     inkscape:window-maximized="1"
     inkscape:current-layer="svg2" /><g
     id="Layer_2"
     transform="matrix(1.516446,0,0,1.4692148,-20.721245,-15.395284)"><path
       d="M 73.2,28.3 C 73.2,15.4 62.8,5 50,5 37.2,5 26.8,15.4 26.8,28.3 c 0,12.1 9.3,22.1 21.2,23.1 l 0,41 c 0,1.1 0.9,2.1 2.1,2.1 1.2,0 2.1,-0.9 2.1,-2.1 l 0,-41 c 11.7,-1 21,-11 21,-23.1 z M 64.4,12.1 c 0.3,0.3 0.6,0.6 0.9,0.9 2,2 3.6,4.3 4.6,6.9 0.3,0.7 0.6,1.4 0.8,2.2 C 69.6,20 68,18.2 65.8,17 59.6,13.4 51.5,15.8 47.7,22.3 47,23.5 46.5,24.7 46.2,25.9 44,21.7 46.6,15.8 52,12.7 56.4,10.1 61.2,10 64.4,12.1 Z M 43.3,7.7 C 45.4,7 47.7,6.6 50,6.6 c 1.8,0 3.6,0.2 5.4,0.7 -2.5,-0.2 -5.1,0.3 -7.4,1.6 -6.2,3.6 -8.3,11.8 -4.5,18.3 0.7,1.2 1.5,2.2 2.4,3.1 -4.8,-0.2 -8.6,-5.4 -8.6,-11.6 0,-5.1 2.5,-9.4 6,-11 z M 30.1,19.9 c 1,-2.4 2.4,-4.6 4.2,-6.4 -1.4,2 -2.1,4.4 -2.1,7 0,7.2 6.1,13 13.6,13 1.3,0 2.6,-0.2 3.9,-0.5 -2.6,4 -8.9,4.7 -14.4,1.6 -4.1,-2.4 -6.6,-6.4 -6.6,-10 0.2,-1.6 0.7,-3.2 1.4,-4.7 z m 6.5,25.4 c -0.7,-0.5 -1.3,-1.1 -1.9,-1.7 -2,-2 -3.6,-4.3 -4.6,-6.9 -0.2,-0.5 -0.4,-1 -0.6,-1.6 1.1,1.9 2.7,3.6 4.7,4.8 6.2,3.6 14.3,1.2 18.1,-5.3 0.7,-1.2 1.2,-2.4 1.5,-3.6 2.2,4.2 -0.4,10.1 -5.8,13.2 -4,2.3 -8.3,2.6 -11.4,1.1 z M 58,48.4 c -2.5,1 -5.2,1.5 -8,1.5 -1.3,0 -2.7,-0.1 -4,-0.4 2.1,0 4.1,-0.6 6,-1.7 6.2,-3.6 8.3,-11.8 4.5,-18.3 -0.7,-1.2 -1.5,-2.2 -2.4,-3.1 4.8,0.2 8.6,5.4 8.6,11.6 0,4.6 -1.9,8.5 -4.7,10.4 z M 54.3,23.3 c -1.3,0 -2.6,0.2 -3.9,0.5 2.6,-4 8.9,-4.7 14.4,-1.6 4,2.3 6.5,6.2 6.6,9.7 -0.3,1.6 -0.7,3.2 -1.4,4.7 -0.9,2.2 -2.2,4.1 -3.7,5.9 1,-1.8 1.6,-4 1.6,-6.2 0,-7.1 -6.1,-13 -13.6,-13 z"
       id="path5"
       inkscape:connector-curvature="0"
       style="fill:#b57edc" /></g><path
     style="fill:#ffff99;fill-opacity:0"
     d="m 49.239206,98.523348 c -0.331442,-0.173782 -0.766415,-0.539236 -0.966608,-0.812121 -0.36312,-0.494974 -0.364097,-0.550069 -0.410521,-23.154658 -0.02671,-13.006899 -0.11285,-22.658502 -0.202219,-22.658502 -0.08563,0 -1.053262,-0.153735 -2.150303,-0.341633 C 34.907726,49.740585 26.593039,41.76103 24.501679,31.395302 24.058021,29.19633 24.067691,24.297063 24.520009,22.108963 26.135145,14.29569 31.052391,7.9207286 38.24624,4.3135947 46.780134,0.03453731 56.991684,0.71744246 65.004278,6.1030589 c 5.502789,3.6986659 9.500578,9.8452461 10.696147,16.4452711 0.400454,2.210666 0.404419,6.20421 0.0083,8.387269 -1.240904,6.839236 -5.132385,12.763292 -10.928434,16.636515 -3.426352,2.289666 -6.753088,3.510948 -11.552136,4.240914 l -0.655824,0.09976 -0.04716,22.627842 c -0.04434,21.276312 -0.06568,22.656096 -0.357167,23.100914 -0.677347,1.033643 -1.923601,1.408866 -2.928821,0.881808 l -5e-6,0 z m 5.959543,-48.649824 c 0.723109,-0.160345 1.947255,-0.491346 2.720323,-0.735559 1.28593,-0.406225 1.510624,-0.550754 2.639564,-1.697847 2.733499,-2.777455 3.919645,-6.189322 3.730267,-10.729854 -0.112363,-2.694016 -0.382012,-3.803937 -1.476509,-6.077575 -1.404849,-2.918343 -4.142095,-5.243837 -6.828828,-5.801601 -0.530907,-0.110216 -1.040012,-0.174636 -1.131346,-0.143157 -0.09133,0.03148 0.273146,0.571296 0.809954,1.199591 2.66678,3.121267 3.928083,6.739842 3.701995,10.620719 -0.127969,2.196648 -0.453983,3.435545 -1.436821,5.460125 -2.023757,4.168804 -5.971353,7.008087 -10.721724,7.711529 -1.475724,0.218527 -1.534612,0.242597 -0.878735,0.359167 0.386644,0.06872 0.821617,0.155138 0.966608,0.192047 0.7148,0.181953 6.691232,-0.08838 7.905252,-0.357585 z M 41.270354,46.260812 c 6.345787,-0.707598 11.987915,-4.993794 13.586614,-10.321439 0.317568,-1.05829 0.371324,-1.583157 0.305999,-2.987698 -0.07755,-1.667427 -0.550656,-3.396476 -0.842036,-3.077385 -0.07196,0.07881 -0.230351,0.459629 -0.351971,0.846272 -1.090688,3.467391 -4.279213,7.06164 -7.853566,8.852895 -2.599347,1.30264 -6.187611,1.87832 -8.960319,1.437543 -3.664553,-0.582554 -7.286989,-2.813571 -9.289707,-5.721429 -0.36603,-0.53146 -0.697382,-0.934416 -0.736339,-0.89546 -0.03896,0.03896 0.183245,0.691437 0.49378,1.449959 1.180974,2.884677 3.249052,5.834506 5.646932,8.054577 1.756139,1.625914 2.759461,2.089005 5.148537,2.376346 0.579965,0.06976 1.07737,0.137647 1.105345,0.150873 0.02797,0.01322 0.814004,-0.06105 1.746731,-0.165054 z m 28.570461,-5.749148 c 1.993435,-2.678537 3.319368,-5.483555 4.077777,-8.626555 0.271382,-1.124657 0.284378,-1.454415 0.09835,-2.495346 -0.5246,-2.93548 -2.950732,-6.395768 -5.913551,-8.434241 -1.247986,-0.858636 -3.877769,-2.033821 -5.519915,-2.466713 -2.171536,-0.572446 -5.375631,-0.577231 -7.205624,-0.01076 -1.612714,0.49921 -2.630712,1.074718 -3.745443,2.117419 -1.403961,1.313241 -1.388692,1.398886 0.198895,1.115653 1.937112,-0.345591 5.688137,-0.193477 7.41298,0.300618 4.158568,1.191253 7.628011,4.011406 9.416313,7.654092 1.084206,2.208478 1.375216,3.453643 1.376042,5.887773 7.03e-4,2.196921 -0.363337,3.894009 -1.213448,5.656205 -0.74762,1.54974 -0.559012,1.420345 1.01762,-0.698144 z M 44.393673,35.448459 c 1.71319,-0.406062 3.426659,-1.344234 4.470077,-2.447496 0.510899,-0.540199 0.891092,-1.019993 0.844876,-1.066209 -0.04622,-0.04622 -0.430584,-0.0021 -0.854148,0.09801 -0.423566,0.100125 -1.640067,0.230849 -2.703336,0.290501 -3.217569,0.180512 -6.250867,-0.546912 -9.050966,-2.170541 -1.416567,-0.821394 -4.267427,-3.637104 -5.072982,-5.010436 -0.816514,-1.392018 -1.592851,-3.735823 -1.774794,-5.358202 -0.297758,-2.655105 0.374238,-6.026736 1.598336,-8.019396 0.288517,-0.469665 0.490211,-0.888303 0.448208,-0.930306 -0.042,-0.042 -0.412355,0.302726 -0.823004,0.766064 -2.407419,2.716304 -4.662323,7.166175 -5.269726,10.399376 -0.469777,2.500622 0.851807,5.827172 3.407963,8.57816 3.798451,4.08797 9.773482,6.056998 14.779496,4.870473 z m 0.371081,-7.291563 c -1.836272,-2.042378 -3.099638,-4.461545 -3.729208,-7.140908 -0.209827,-0.892997 -0.260779,-1.786484 -0.203259,-3.564318 0.06698,-2.070347 0.144766,-2.568014 0.610592,-3.90673 1.969429,-5.6598541 6.605907,-9.1112117 12.8562,-9.5700544 L 55.99297,3.8505348 55.026362,3.6246299 C 53.457021,3.257861 50.176923,3.0753603 48.084359,3.2383852 c -2.546454,0.1983862 -5.349153,0.9014457 -6.596916,1.654842 -1.2113,0.7313798 -2.884683,2.467138 -3.729481,3.8684962 -1.345387,2.2317396 -2.205195,5.9295566 -1.979702,8.5141996 0.512068,5.869407 3.619358,10.311752 8.046793,11.504114 0.506063,0.136288 1.105386,0.253002 1.331831,0.259364 0.377592,0.01061 0.34509,-0.06254 -0.39213,-0.882505 z m 1.797817,-5.872186 c 2.638085,-6.280302 9.47886,-10.29762 16.020909,-9.408449 4.061212,0.551985 7.845671,2.817077 9.882313,5.91481 0.401894,0.611282 0.765251,1.076889 0.807458,1.034681 0.235016,-0.235016 -1.761775,-4.381532 -2.977683,-6.183431 -1.290157,-1.91193 -3.725635,-4.385111 -4.90406,-4.9799779 -3.246577,-1.6388663 -7.632972,-1.4754549 -11.704796,0.4360525 -2.203373,1.0343684 -3.612311,2.0189614 -5.162986,3.6079934 -3.277383,3.358454 -4.477566,7.570251 -3.079974,10.808549 0.345422,0.800359 0.197561,0.962944 1.118819,-1.230228 z"
     id="path4139"
     inkscape:connector-curvature="0"
     transform="matrix(1.35,0,0,1.35,-12.500001,-10)" /></svg>