<svg
   xmlns:dc="http://purl.org/dc/elements/1.1/"
   xmlns:cc="http://creativecommons.org/ns#"
   xmlns:rdf="http://www.w3.org/1999/02/22-rdf-syntax-ns#"
   xmlns:svg="http://www.w3.org/2000/svg"
   xmlns="http://www.w3.org/2000/svg"
   xmlns:sodipodi="http://sodipodi.sourceforge.net/DTD/sodipodi-0.dtd"
   xmlns:inkscape="http://www.inkscape.org/namespaces/inkscape"
   version="1.1"
   x="0px"
   y="0px"
   width="100px"
   height="100px"
   viewBox="5.0 -10.0 100.0 135.0"
   enable-background="new 0 0 100 100"
   xml:space="preserve"
   id="svg2"
   inkscape:version="0.91 r13725"
   sodipodi:docname="mummy.svg"><metadata
     id="metadata11"><rdf:RDF><cc:Work
         rdf:about=""><dc:format>image/svg+xml</dc:format><dc:type
           rdf:resource="http://purl.org/dc/dcmitype/StillImage" /></cc:Work></rdf:RDF></metadata><defs
     id="defs9" /><sodipodi:namedview
     pagecolor="#ffffff"
     bordercolor="#666666"
     borderopacity="1"
     objecttolerance="10"
     gridtolerance="10"
     guidetolerance="10"
     inkscape:pageopacity="0"
     inkscape:pageshadow="2"
     inkscape:window-width="1246"
     inkscape:window-height="755"
     id="namedview7"
     showgrid="false"
     inkscape:zoom="5.53"
     inkscape:cx="50"
     inkscape:cy="50"
     inkscape:window-x="34"
     inkscape:window-y="0"
     inkscape:window-maximized="1"
     inkscape:current-layer="svg2" /><g
     id="Layer_12"
     transform="matrix(1.4394556,0,0,1.3645676,-13.184162,-11.026777)"
     style="fill:#dcb028"><path
       style="fill:#dcb028"
       d="m 58.999,65.475 c -0.046,0.027 -2.896,1.703 -5.236,1.996 1.526,-0.072 4.478,-0.266 4.98,-0.692 0.084,-0.443 0.171,-0.88 0.256,-1.304 z"
       id="path4433" /><path
       style="fill:#dcb028"
       d="m 58.532,73.087 c 0.011,0.011 0.019,0.02 0.028,0.028 -0.077,-0.226 -0.145,-0.447 -0.2,-0.666 -0.008,0.017 -0.015,0.033 -0.022,0.05 0.04,0.279 0.102,0.495 0.194,0.588 z"
       id="path4431" /><path
       style="fill:#dcb028"
       d="m 53.844,75.591 c 0.99,0.125 2.037,0.062 2.946,-0.059 0.466,-0.679 0.875,-1.469 1.131,-2.368 -0.959,1.194 -2.77,1.983 -4.077,2.427 z"
       id="path4429" /><path
       style="fill:#dcb028"
       d="m 58.167,70.479 c 0,0 -1.223,0.26 -2.736,0.399 -2.188,1.082 -4.46,3.355 -4.46,3.355 0.37,0.45 0.854,0.768 1.401,0.989 4.004,-0.703 5.795,-4.743 5.795,-4.743 z"
       id="path4427" /><path
       style="fill:#dcb028"
       d="m 58.259,69.801 c 0.059,-0.529 0.142,-1.098 0.241,-1.684 l -0.124,0.589 c 0,0 -0.377,0.243 -0.996,0.541 0.574,-0.119 0.943,-0.177 0.943,-0.177 l -0.082,0.745 c 0.006,-0.004 0.011,-0.009 0.018,-0.014 z"
       id="path4425" /><path
       style="fill:#dcb028"
       d="m 59.106,77.989 c -0.445,0.116 -0.878,0.19 -1.296,0.233 -0.44,0.47 -0.933,0.888 -1.409,1.244 0.073,0.028 0.147,0.058 0.224,0.087 1.367,-0.65 2.481,-1.564 2.481,-1.564 z"
       id="path4423" /><path
       style="fill:#dcb028"
       d="m 58.181,71.611 c 0.004,-0.046 0.005,-0.093 0.007,-0.138 -0.009,-0.112 -0.016,-0.225 -0.016,-0.334 0,-0.134 0.005,-0.277 0.012,-0.424 -0.004,-0.078 -0.01,-0.157 -0.017,-0.236 -0.109,0.331 -0.064,0.764 0.014,1.132 z"
       id="path4421" /><path
       style="fill:#dcb028"
       d="m 56.444,77.475 c 0.13,0.009 0.259,0.017 0.388,0.023 0.828,-0.723 1.491,-1.387 1.491,-1.387 -0.333,0.16 -0.657,0.289 -0.972,0.394 -0.247,0.335 -0.548,0.664 -0.907,0.97 z"
       id="path4419" /><path
       style="fill:#dcb028"
       d="m 53.774,70.326 c -0.184,0.019 -0.367,0.03 -0.555,0.037 0.14,0.003 0.288,0.007 0.446,0.009 0.037,-0.016 0.073,-0.031 0.109,-0.046 z"
       id="path4417" /><path
       style="fill:#dcb028"
       d="m 56.303,85.732 c -0.143,-0.427 -0.274,-0.808 -0.274,-0.808 0.614,0.187 1.703,-0.145 2.623,-0.514 -1.441,-0.132 -2.918,-0.879 -3.445,-1.168 0.603,1.286 1.432,3.122 1.705,4.849 -0.026,-0.204 -0.048,-0.351 -0.048,-0.351 0.698,0.257 2.04,-0.132 2.775,-0.385 -1.285,0.316 -2.938,-0.273 -2.984,-0.502 -0.026,-0.135 -0.192,-0.643 -0.346,-1.104 -0.006,-0.006 -0.012,-0.012 -0.02,-0.018 0,0.002 0.007,0.001 0.014,0.001 z"
       id="path4415" /><path
       style="fill:#dcb028"
       d="m 56.303,85.732 c 0.002,0.006 0.004,0.013 0.006,0.019 2.155,2.13 4.933,0.618 5.199,0.465 0.058,-0.896 0.132,-2.04 0.168,-3.16 -0.379,2.303 -5.113,2.658 -5.373,2.676 z"
       id="path4413" /><path
       style="fill:#dcb028"
       d="m 56.915,90.27 c 2.153,0 4.091,0.899 4.559,1.3 0.026,-1.023 0.008,-1.982 -0.012,-2.729 -0.704,1.138 -4.547,1.429 -4.547,1.429 z"
       id="path4411" /><path
       style="fill:#dcb028"
       d="m 56.993,88.314 c 0.862,1.148 3.961,0.52 4.466,0.407 -0.012,-0.452 -0.023,-0.818 -0.023,-1.059 0,-0.273 0.029,-0.767 0.069,-1.385 -0.765,2.265 -4.512,2.037 -4.512,2.037 z"
       id="path4409" /><path
       style="fill:#dcb028"
       d="m 61.678,82.996 c 0.002,-0.082 0.005,-0.165 0.007,-0.246 -0.045,0.099 -0.092,0.185 -0.132,0.252 0.064,-0.003 0.107,-0.005 0.125,-0.006 z"
       id="path4407" /><path
       style="fill:#dcb028"
       d="m 61.64,81.136 c 0.019,0.03 0.034,0.061 0.05,0.092 -0.002,-0.097 -0.006,-0.192 -0.01,-0.285 -0.01,0.063 -0.023,0.126 -0.04,0.193 z"
       id="path4405" /><path
       style="fill:#dcb028"
       d="m 54.465,77.943 c -0.923,-0.25 -1.482,-0.552 -1.485,-0.554 l 0.909,1.706 c 0,0 0.009,0.073 0.029,0.201 0.083,0.019 0.181,0.016 0.293,-0.013 -0.214,-0.231 -0.41,-0.486 -0.58,-0.773 0,10e-4 0.34,-0.193 0.834,-0.567 z"
       id="path4403" /><path
       style="fill:#dcb028"
       d="m 55.854,80.471 c -0.929,0.255 -1.599,0.335 -1.599,0.335 1.118,1.756 4.154,2.136 5.982,2.199 1.09,-0.761 1.401,-1.869 1.401,-1.869 0,0 -3.24,0.536 -5.784,-0.665 z"
       id="path4401" /><path
       style="fill:#dcb028"
       d="m 58.584,73.296 c 0,0 -0.051,0.918 -0.543,2.022 0.74,-0.154 1.222,-0.302 1.222,-0.302 0.043,0.911 -0.323,1.762 -0.874,2.516 1.077,-0.007 1.936,-0.064 2.197,-0.085 -0.653,-1.314 -1.457,-2.764 -1.953,-4.126 -0.027,-0.013 -0.049,-0.025 -0.049,-0.025 z"
       id="path4399" /><path
       style="fill:#dcb028"
       d="m 39.881,41.25 c -0.011,0.195 -0.033,0.399 -0.064,0.61 0.036,-0.204 0.055,-0.408 0.064,-0.61 z"
       id="path4397" /><path
       style="fill:#dcb028"
       d="m 35.576,84.573 c -0.09,0.462 -0.189,0.936 -0.274,1.394 0.208,-0.004 1.012,-0.026 1.947,-0.192 -0.791,-0.45 -1.561,-1.105 -1.673,-1.202 z"
       id="path4395" /><path
       style="fill:#dcb028"
       d="m 39.159,44.9 c 2.098,0.173 4.017,0.069 5.736,-0.196 -2.647,-1.008 -4.85,-2.043 -5.193,-2.206 -0.179,0.864 -0.45,1.806 -0.649,2.7 0.056,-0.209 0.106,-0.298 0.106,-0.298 z"
       id="path4393" /><path
       style="fill:#dcb028"
       d="m 35.172,86.758 c 0.035,-0.071 0.076,-0.086 0.076,-0.086 0.076,0.034 0.175,0.054 0.288,0.064 -0.131,-0.188 -0.222,-0.391 -0.265,-0.607 -0.038,0.215 -0.072,0.425 -0.099,0.629 z"
       id="path4391" /><path
       style="fill:#dcb028"
       d="m 35.291,89.88 c 0.107,1.012 0.292,2.213 0.683,3.272 0.898,-0.509 1.976,-0.862 2.936,-1.101 -1.454,-0.377 -3.014,-1.035 -3.619,-2.171 z"
       id="path4389" /><path
       style="fill:#dcb028"
       d="m 50.797,52.052 c -2.065,0.192 -4.618,0.229 -7.752,-0.015 0.947,0.72 1.991,1.374 3.08,1.966 1.582,-0.377 2.772,-0.537 2.772,-0.537 0.222,-0.138 0.657,-0.297 1.228,-0.466 0.229,-0.315 0.453,-0.632 0.672,-0.948 z"
       id="path4387" /><path
       style="fill:#dcb028"
       d="m 48.444,55.145 c 0.282,-0.333 0.557,-0.671 0.824,-1.013 -0.188,0.073 -0.293,0.116 -0.293,0.116 -0.556,0.058 -1.114,0.185 -1.668,0.364 0.378,0.185 0.756,0.363 1.137,0.533 z"
       id="path4385" /><path
       style="fill:#dcb028"
       d="m 38.745,49.785 0.042,-1.24 c -0.006,-0.015 -0.008,-0.028 -0.012,-0.042 -0.007,0.401 -0.018,0.834 -0.03,1.282 z"
       id="path4383" /><path
       style="fill:#dcb028"
       d="m 54.569,78.562 c 0,0 0.189,0.119 0.517,0.294 0.279,-0.179 0.578,-0.397 0.878,-0.635 -0.175,-0.018 -0.344,-0.039 -0.508,-0.065 -0.271,0.151 -0.565,0.287 -0.887,0.406 z"
       id="path4381" /><path
       style="fill:#dcb028"
       d="m 38.591,55.229 c 0,0.412 -0.209,2.028 -0.31,3.919 0.049,-0.312 0.096,-0.521 0.096,-0.521 0.521,-2.152 3.715,-3.507 6.447,-4.286 -1.133,-0.829 -2.14,-1.652 -2.992,-2.411 -0.992,-0.096 -2.035,-0.218 -3.138,-0.371 -0.051,1.703 -0.103,3.257 -0.103,3.67 z"
       id="path4379" /><path
       style="fill:#dcb028"
       d="m 52.573,76.629 0.402,0.756 c -0.023,-0.051 -0.264,-0.552 -0.362,-0.7 -0.01,-0.016 -0.024,-0.036 -0.04,-0.056 z"
       id="path4377" /><path
       style="fill:#dcb028"
       d="m 61.558,79.866 c 0,0 0.005,0.012 0.015,0.035 -0.153,-0.688 -0.518,-1.506 -0.952,-2.385 -0.736,1.103 -1.904,1.851 -3.042,2.351 1.245,0.35 2.695,0.508 3.979,-0.001 z"
       id="path4375" /><path
       style="fill:#dcb028"
       d="m 55.189,77.344 c 0.17,-0.152 0.346,-0.322 0.523,-0.505 -1.416,0.11 -2.547,-0.277 -3.324,-0.659 0.44,0.632 1.541,0.98 2.801,1.164 z"
       id="path4373" /><path
       style="fill:#dcb028"
       d="m 56.726,90.937 c 0.146,-0.302 0.242,-1.162 0.242,-1.162 0.678,0.156 2.451,-0.417 2.451,-0.417 -1.199,0.104 -2.399,-0.104 -2.399,-0.104 0,-0.133 -0.016,-0.335 -0.037,-0.548 0.031,0.415 0.024,0.818 -0.034,1.201 -0.052,0.324 -0.129,0.671 -0.223,1.03 z"
       id="path4371" /><path
       style="fill:#dcb028"
       d="m 59.601,62.104 c 0.021,-0.24 0.023,-0.43 0,-0.551 l 0,0.551 z"
       id="path4369" /><path
       style="fill:#dcb028"
       d="m 37.979,70.937 -0.114,-1.026 c -0.011,0.313 0.019,0.65 0.114,1.026 z"
       id="path4367" /><path
       style="fill:#dcb028"
       d="m 41.854,73.051 c -2.352,-0.677 -3.876,-2.114 -3.876,-2.114 0.066,0.27 0.08,0.516 0.056,0.748 0.204,0.812 0.853,1.59 1.62,2.261 1.732,-0.048 3.572,-0.259 3.572,-0.259 -0.444,-0.115 -0.909,-0.343 -1.372,-0.636 z"
       id="path4365" /><path
       style="fill:#dcb028"
       d="m 37.622,90.881 3.746,0.726 c 0.037,-0.004 0.06,-0.007 0.06,-0.007 l 0.01,0.021 0.134,0.025 c -0.237,-0.543 -0.506,-1.058 -0.769,-1.558 -0.316,0.208 -1.585,0.964 -3.181,0.793 z"
       id="path4363" /><path
       style="fill:#dcb028"
       d="m 57.152,32.384 c 0.031,-1.008 0.289,-1.954 0.662,-2.813 -2.061,-0.703 -4.637,-1.645 -7.229,-2.754 -0.622,0.282 -1.247,0.521 -1.868,0.721 l 8.435,4.846 z"
       id="path4361" /><path
       style="fill:#dcb028"
       d="m 52.457,16.062 0,0 c -10e-4,0 -10e-4,10e-4 -0.002,10e-4 0.001,-10e-4 0.001,-10e-4 0.002,-10e-4 z"
       id="path4359" /><path
       style="fill:#dcb028"
       d="m 52.455,16.062 c -0.099,0.11 -0.138,0.204 -0.136,0.283 0.046,-0.095 0.091,-0.188 0.136,-0.283 z"
       id="path4357" /><path
       style="fill:#dcb028"
       d="m 48.702,16.687 c 2.444,0 3.747,-0.622 3.754,-0.625 0.101,-0.211 0.199,-0.419 0.291,-0.624 -0.007,0.002 -0.011,0.003 -0.018,0.005 -0.079,0.175 -0.142,0.306 -0.142,0.306 -0.86,0.364 -3.885,0.938 -3.885,0.938 z"
       id="path4355" /><path
       style="fill:#dcb028"
       d="m 53.578,12.489 c -1.198,1.573 -5.945,1.855 -8.527,1.889 4.032,1.248 7.979,0.302 7.979,0.302 -0.046,0.182 -0.188,0.514 -0.3,0.759 0.007,-10e-4 0.012,-0.002 0.017,-0.004 0.517,-1.156 0.881,-2.217 1.118,-3.188 -0.127,0.189 -0.287,0.242 -0.287,0.242 z"
       id="path4353" /><path
       style="fill:#dcb028"
       d="m 52.88,16.733 c -0.143,-0.081 -0.302,-0.152 -0.478,-0.211 0.117,0.113 0.327,0.178 0.478,0.211 z"
       id="path4351" /><path
       style="fill:#dcb028"
       d="m 45.09,14.999 c 0.062,0.537 0.145,1.09 0.249,1.662 0,0 -0.019,0.008 -0.049,0.022 2.522,0.093 6.696,-1.034 7.439,-1.241 0,-10e-4 10e-4,-0.002 10e-4,-0.004 -2.813,0.747 -5.812,0.123 -7.64,-0.439 z"
       id="path4349" /><path
       style="fill:#dcb028"
       d="m 53.996,18.121 c -2.172,1.017 -4.589,1.173 -6.607,1.032 0.713,0.339 1.396,0.677 2.046,1.011 2.724,-0.974 4.561,-2.043 4.561,-2.043 z"
       id="path4347" /><path
       style="fill:#dcb028"
       d="m 45.94,23.292 c 2.557,0.52 4.823,0.443 6.713,0.105 0.223,-0.207 0.433,-0.415 0.63,-0.621 -0.875,-0.485 -1.751,-0.937 -2.603,-1.351 -2.24,0.799 -4.511,1 -6.028,1.026 0.385,0.269 0.813,0.55 1.288,0.841 z"
       id="path4345" /><path
       style="fill:#dcb028"
       d="m 51.248,24.552 c -1.22,-0.007 -2.437,-0.117 -3.61,-0.292 0.691,0.368 1.455,0.748 2.301,1.134 0.466,-0.265 0.903,-0.548 1.309,-0.842 z"
       id="path4343" /><path
       style="fill:#dcb028"
       d="m 53.671,17.395 c -0.162,-0.198 -0.379,-0.407 -0.663,-0.586 -0.868,0.731 -5.479,1.833 -5.479,1.833 1.723,0.406 5.906,-1.158 6.142,-1.247 z"
       id="path4341" /><path
       style="fill:#dcb028"
       d="m 59.437,28.826 c 0.608,0.176 1.235,0.352 1.885,0.526 -0.346,-0.532 -0.758,-1.051 -1.223,-1.556 -0.228,0.329 -0.452,0.679 -0.662,1.03 z"
       id="path4339" /><path
       style="fill:#dcb028"
       d="m 59.566,26.8 c 1.003,-1.194 1.938,-1.899 1.938,-1.899 0.046,0.035 0.088,0.077 0.127,0.122 -0.461,-1.046 -1.15,-2.029 -1.876,-2.881 -1.176,0.865 -2.48,1.457 -3.851,1.837 1.534,1.051 2.737,2.008 3.662,2.821 z"
       id="path4337" /><path
       style="fill:#dcb028"
       d="m 39.133,28.342 c -0.895,-0.462 -1.789,-0.369 -2.605,-0.007 0.772,0.965 1.633,1.864 2.329,2.132 0.121,0.047 0.236,0.074 0.347,0.081 2.243,-0.816 18.153,3.876 18.153,3.876 0,0 -4.904,-3.453 -10.53,-6.381 -4.164,0.894 -7.694,0.299 -7.694,0.299 z"
       id="path4335" /><path
       style="fill:#dcb028"
       d="m 54.192,10.236 c -0.065,0.256 -0.161,0.502 -0.304,0.729 0.075,0.236 0.112,0.435 0.124,0.605 0.09,-0.466 0.149,-0.911 0.18,-1.334 z"
       id="path4333" /><path
       style="fill:#dcb028"
       d="m 62.252,33.138 c 0.006,-0.102 0.012,-0.206 0.019,-0.314 -3.284,0.572 -4.583,0.482 -5.051,0.239 l 0.137,1.361 c -10e-4,0 3.9,-0.172 4.895,-1.286 z"
       id="path4331" /><path
       style="fill:#dcb028"
       d="m 60.254,38.876 c 2.919,0.522 3.337,-1.564 3.337,-1.564 l 0.51,0.708 c -0.467,-0.734 -0.895,-1.457 -1.223,-2.077 0.054,0.143 0.087,0.222 0.087,0.222 0.104,1.668 -2.711,2.711 -2.711,2.711 z"
       id="path4329" /><path
       style="fill:#dcb028"
       d="m 38.249,62.017 c 0.018,-0.372 0.049,-0.611 0.049,-0.611 -0.028,-0.098 -0.051,-0.2 -0.069,-0.308 10e-4,0.307 0.007,0.616 0.02,0.919 z"
       id="path4327" /><path
       style="fill:#dcb028"
       d="m 51.368,7.07 c -2.017,0.613 -4.499,1.824 -6.296,2.771 -0.114,0.957 -0.166,2.009 -0.129,3.157 3.633,0.291 8.945,-2.033 8.945,-2.033 0,0 -0.621,-2.259 -2.52,-3.895 z"
       id="path4325" /><path
       style="fill:#dcb028"
       d="m 53.769,6.881 c 0.02,0.05 0.04,0.099 0.059,0.15 -0.022,-0.056 -0.042,-0.106 -0.059,-0.15 z"
       id="path4323" /><path
       style="fill:#dcb028"
       d="m 53.685,6.682 c 0,0 0.033,0.072 0.084,0.199 C 53.677,6.636 53.577,6.402 53.463,6.182 l 0.222,0.5 z"
       id="path4321" /><path
       style="fill:#dcb028"
       d="M 46.172,5.439 C 45.906,6.099 45.647,6.881 45.433,7.785 46.773,7.128 48.322,6.497 49.659,5.989 48.703,5.572 47.553,5.342 46.172,5.439 Z"
       id="path4319" /><path
       style="fill:#dcb028"
       d="m 39.863,20.259 c 0,0 0.039,-0.036 0.106,-0.091 -0.584,0.368 -1.208,0.78 -1.828,1.234 1.078,0.227 2.172,0.321 3.257,0.315 -0.59,-0.478 -1.11,-0.965 -1.535,-1.458 z"
       id="path4317" /><path
       style="fill:#dcb028"
       d="M 42.467,9.742 C 42.779,9.351 43.355,8.93 44.079,8.506 44.262,7.555 44.536,6.577 44.933,5.608 44.231,5.747 43.479,5.963 42.67,6.275 42.009,7.156 42.182,8.633 42.544,10.287 L 42.467,9.742 Z"
       id="path4315" /><path
       style="fill:#dcb028"
       d="m 60.319,27.486 c 1.384,1.31 1.915,2.108 1.915,2.108 0,0 0.163,0.413 0.115,0.831 -0.012,0.471 -0.219,0.524 -0.219,0.524 0,0 -1.312,-0.377 -3.315,-1.042 -0.51,0.933 -0.857,1.667 -0.857,1.667 1.982,1.251 4.381,0.104 4.381,0.104 -0.048,0.352 -0.064,0.701 -0.062,1.04 0.118,-1.799 0.344,-4.43 -0.282,-6.67 -0.482,0.027 -1.085,0.635 -1.676,1.438 z"
       id="path4313" /><path
       style="fill:#dcb028"
       d="m 46.277,3.102 c 0,0 0.008,-0.005 0.021,-0.013 -1.633,0.599 -2.738,2 -3.628,3.186 0,0 1.04,-0.832 2.605,-1.438 0.284,-0.588 0.615,-1.169 1.002,-1.735 z"
       id="path4311" /><path
       style="fill:#dcb028"
       d="M 58.702,21.004 C 57.542,19.849 56.54,19.125 56.54,19.125 L 56.457,19.09 c 0.604,0.404 1.188,1.116 1.188,1.116 -0.412,0.771 -0.867,1.47 -1.354,2.108 1.31,-0.558 2.145,-1.12 2.411,-1.31 z"
       id="path4309" /><path
       style="fill:#dcb028"
       d="M 51.874,5.184 C 52.182,5.077 52.431,4.993 52.602,4.934 51.327,3.507 49.571,2.891 48.381,2.806 48.117,2.787 47.863,2.787 47.619,2.805 47.543,2.9 47.12,3.439 46.631,4.419 c 1.567,-0.356 3.427,-0.33 5.243,0.765 z"
       id="path4307" /><path
       style="fill:#dcb028"
       d="m 54.183,49.662 c 1.762,-0.921 2.606,-2.031 3.009,-2.909 -0.591,0.173 -1.167,0.33 -1.728,0.472 -0.381,0.832 -0.811,1.645 -1.281,2.437 z"
       id="path4305" /><path
       style="fill:#dcb028"
       d="M 58.034,46.491 C 57.866,45.969 57.702,45.519 57.56,45.235 l 0.386,1.256 c 0.039,0 0.07,0 0.088,0 z"
       id="path4303" /><path
       style="fill:#dcb028"
       d="m 55.842,46.346 c 0.607,0.069 1.102,0.105 1.47,0.124 0.275,-0.727 0.249,-1.235 0.249,-1.235 -0.267,-0.532 -0.417,-1.911 -0.502,-3.3 -0.216,1.513 -0.64,2.988 -1.217,4.411 z"
       id="path4301" /><path
       style="fill:#dcb028"
       d="m 52.785,51.798 c -0.151,0.214 -0.307,0.425 -0.464,0.635 3.024,-0.705 6.863,-1.393 6.863,-1.393 l 0,1.564 c -2.305,-0.548 -5.394,0.103 -7.567,0.74 -0.642,0.802 -1.312,1.572 -1.994,2.308 0.158,0.065 0.317,0.129 0.476,0.192 1.083,-1.021 4.243,-3.349 9.164,-1.637 l 0.038,1.683 c 0,0 -5.13,-1.608 -8.356,0.281 1.5,0.564 2.943,1.023 4.198,1.382 1.39,0.029 2.877,0.299 4.236,1.035 0.006,0.146 0.034,0.456 0.069,0.794 -0.143,-3.191 -0.256,-8.641 -0.256,-8.641 0,0 -0.6,-2.517 -1.155,-4.244 -0.027,0.008 -0.054,0.016 -0.081,0.024 l 0.421,1.364 c -1.248,0.944 -2.48,1.673 -3.669,2.232 1.26,-0.154 2.615,-0.351 4.076,-0.601 0,0.002 -1.422,1.53 -5.999,2.282 z"
       id="path4299" /><path
       style="fill:#dcb028"
       d="m 44.97,18.477 c 3.231,-0.144 6.825,-1.777 7.302,-1.999 -0.002,-0.001 -0.005,-0.002 -0.008,-0.003 -2.151,0.814 -5.437,0.477 -7.032,0.24 -0.281,0.156 -1.015,0.671 -0.952,1.734 0.234,0.008 0.47,0.018 0.69,0.028 z"
       id="path4297" /><path
       style="fill:#dcb028"
       d="m 35.776,27.342 c 1.733,-0.56 3.722,-0.251 3.722,-0.251 2.039,0.291 3.851,0.263 5.458,0.015 -3.411,-1.645 -6.915,-2.947 -9.637,-3.075 -0.547,0.699 -0.984,1.458 -1.239,2.282 0.102,-0.299 0.238,-0.631 0.412,-0.891 0,0 0.538,0.886 1.284,1.92 z"
       id="path4295" /><path
       style="fill:#dcb028"
       d="m 42.739,11.13 c 0.163,0.683 0.341,1.382 0.488,2.073 0.006,-0.335 0.025,-0.61 0.025,-0.61 0.165,0.078 0.342,0.143 0.525,0.198 -0.028,-0.697 -0.024,-1.462 0.035,-2.27 -0.542,0.301 -0.925,0.522 -1.073,0.609 z"
       id="path4293" /><path
       style="fill:#dcb028"
       d="m 53.566,22.469 c 1.571,-1.74 2.291,-3.339 2.396,-3.584 l -0.75,-0.313 c -1.122,1.191 -2.48,2.023 -3.881,2.602 0.799,0.44 1.541,0.873 2.235,1.295 z"
       id="path4291" /><path
       style="fill:#dcb028"
       d="m 44.23,16.645 c 0.021,-0.03 0.042,-0.059 0.065,-0.088 0,0 -0.207,-0.747 -0.363,-1.955 -0.222,-0.085 -0.385,-0.153 -0.479,-0.193 0.012,0.077 0.022,0.153 0.033,0.229 0.099,0.742 0.368,1.411 0.744,2.007 z"
       id="path4289" /><path
       style="fill:#dcb028"
       d="m 48.743,25.999 c -1.694,-0.78 -3.343,-1.625 -4.802,-2.515 -3.015,-0.803 -5.286,-1.805 -5.835,-2.056 -0.003,0.003 -0.007,0.005 -0.01,0.008 l 9.011,5.177 c 0.578,-0.178 1.122,-0.384 1.636,-0.614 z"
       id="path4287" /><path
       style="fill:#dcb028"
       d="m 43.505,21.59 c 1.82,-0.207 3.559,-0.642 5.079,-1.136 -2.026,-0.896 -3.712,-1.523 -4.55,-1.821 -0.687,-0.166 -1.094,-0.304 -1.094,-0.304 0.17,0.038 0.346,0.066 0.522,0.09 0.016,-0.112 0.144,-0.913 0.745,-1.745 l -0.11,0.003 c 0,0 -1.02,0.408 -1.224,1.428 -0.06,0.3 -0.793,0.76 -1.817,1.39 0.125,-0.047 0.25,-0.083 0.371,-0.096 10e-4,0 0.44,0.861 2.078,2.191 z"
       id="path4285" /><path
       style="fill:#dcb028"
       d="m 58.355,28.507 c 0.313,-0.536 0.66,-1.025 1.006,-1.457 -1.117,-1.064 -2.453,-2.057 -3.871,-2.962 -0.342,0.083 -0.687,0.156 -1.035,0.216 -0.841,0.756 -1.736,1.381 -2.654,1.897 1.848,0.76 4.016,1.538 6.554,2.306 z"
       id="path4283" /><path
       style="fill:#dcb028"
       d="m 33.734,48.544 c -1.839,-0.916 -3.046,-0.458 -3.371,-0.298 -0.16,1.371 -0.276,2.636 -0.329,3.734 0.221,-0.306 1.82,-2.467 3.7,-3.436 z"
       id="path4281" /><path
       style="fill:#dcb028"
       d="m 41.854,92.354 c -0.022,-0.062 -0.046,-0.122 -0.068,-0.184 0.022,0.13 0.058,0.263 0.11,0.368 l 0.065,0.132 c -0.032,-0.103 -0.068,-0.208 -0.107,-0.316 z"
       id="path4279" /><path
       style="fill:#dcb028"
       d="m 36.734,94.572 c -0.214,-0.285 -0.395,-0.601 -0.529,-0.862 0.521,1.106 1.323,1.963 2.59,2.112 3.259,0.383 3.995,-0.495 3.226,-2.974 -3.112,-0.294 -5.287,1.724 -5.287,1.724 z"
       id="path4277" /><path
       style="fill:#dcb028"
       d="m 40.225,88.958 c -0.018,-0.036 -0.035,-0.073 -0.052,-0.11 -0.435,-0.077 -2.537,-0.489 -3.853,-1.375 -0.722,0.125 -1.151,0.06 -1.151,0.06 -0.026,-0.131 -0.04,-0.242 -0.048,-0.337 -0.027,0.32 -0.031,0.615 10e-4,0.876 0.049,0.389 0.087,1.012 0.162,1.737 0.406,0.093 4.379,0.952 4.941,-0.851 z"
       id="path4275" /><path
       style="fill:#dcb028"
       d="m 38.062,78.72 c 1.498,0.938 3.3,1.322 3.566,1.374 0.016,-0.118 0.022,-0.183 0.022,-0.183 0,0 1.348,-1.35 1.236,-3.672 -1.543,1.911 -3.476,2.405 -4.824,2.481 z"
       id="path4273" /><path
       style="fill:#dcb028"
       d="m 38.533,67.663 c 0,1.323 1.399,2.681 2.882,3.749 1.838,0.624 3.438,0.57 3.788,0.549 0.166,-0.571 0.284,-1.188 0.322,-1.841 l 1.02,-2.652 c 0,0 0.009,-0.012 0.021,-0.032 -2.839,2.44 -8.033,0.227 -8.033,0.227 z"
       id="path4271" /><path
       style="fill:#dcb028"
       d="m 42.129,62.302 c -1.378,1.024 -2.479,1.751 -3.077,2.134 1.943,2.162 7.063,2.847 7.572,2.909 0.267,-0.431 1.114,-1.902 0.941,-2.936 -0.12,-0.716 0.18,-1.36 0.448,-1.772 -1.896,-0.662 -4.076,-0.599 -5.884,-0.335 z"
       id="path4269" /><path
       style="fill:#dcb028"
       d="m 44.933,72.752 -0.245,0.573 c 0.084,-0.183 0.167,-0.375 0.245,-0.573 z"
       id="path4267" /><path
       style="fill:#dcb028"
       d="m 49.961,62.304 -0.046,-0.233 c 0,0 1.314,-2.134 9.604,-1.341 0,-10e-4 0,-0.002 0,-0.003 -1.675,-0.213 -3.319,-0.618 -4.905,-1.158 -1.512,-0.166 -3.251,-0.191 -5.052,0.116 0,0 -1.355,-0.473 -3.234,-0.806 -0.787,0.704 -1.559,1.354 -2.291,1.945 2.591,0.378 5.056,1.05 5.056,1.05 -0.122,0.021 -0.233,0.059 -0.332,0.104 0.359,-0.131 0.887,-0.203 1.2,0.326 z"
       id="path4265" /><path
       style="fill:#dcb028"
       d="m 51.01,72.709 c 0.159,-0.712 0.774,-1.307 1.587,-1.794 -0.972,-0.092 -1.838,-0.326 -2.356,-0.801 0,0 6.049,-0.104 8.292,-2.555 0,0 -6.311,1.407 -8.136,-0.209 0,0 6.568,-0.429 8.989,-3.836 0.021,-0.114 0.041,-0.226 0.06,-0.333 -1.129,-0.024 -8.104,-0.152 -9.229,0.411 0,2.652 -0.612,3.468 0,3.672 0.612,0.203 -1.428,1.836 0,2.855 l 0.815,2.448 c 0,0.001 -0.01,0.053 -0.022,0.142 z"
       id="path4263" /><path
       style="fill:#dcb028"
       d="m 30.641,56.728 c 0.502,0.062 2.534,0.245 2.809,-0.851 0,0 -2.497,0.312 -3.335,-0.935 0.031,0.184 0.068,0.349 0.113,0.491 0.128,0.41 0.267,0.844 0.413,1.295 z"
       id="path4261" /><path
       style="fill:#dcb028"
       d="m 36.369,38.668 c -0.354,0.088 -0.712,0.128 -1.065,0.134 0.13,0.067 0.262,0.141 0.393,0.216 0.407,-0.198 0.672,-0.35 0.672,-0.35 z"
       id="path4259" /><path
       style="fill:#dcb028"
       d="m 34.706,37.672 c 1.657,-0.307 3.279,-0.047 3.279,-0.047 -0.16,-0.94 -0.582,-1.624 -1.12,-2.122 -1.927,1.445 -4.34,1.41 -4.721,1.394 l -0.012,0.089 c 0.252,0.447 1.376,0.626 2.574,0.686 z"
       id="path4257" /><path
       style="fill:#dcb028"
       d="m 35.326,69.228 c -0.093,-0.463 -0.039,-2.608 0.02,-4.281 0.452,-0.602 0.599,-1.618 0.185,-2.169 C 34.92,61.962 35.1,59.219 35.1,59.219 c 0,0 0.839,2.742 1.655,2.335 0.815,-0.408 -1.225,-5.509 -1.225,-5.509 0,0 -1.02,-1.428 -0.815,-3.672 0.048,-0.529 0.244,-1.572 0.516,-2.855 -0.032,0.004 -4.786,0.584 -5.192,3.825 0.006,0.171 0.013,0.341 0.02,0.5 0.308,0.304 1.998,1.787 4.538,0.47 0,0 -0.521,4.381 -3.337,4.067 0,0 1.669,3.442 3.754,2.921 0,0 -0.104,1.146 0.418,1.564 0,0 -2.086,-0.417 -3.442,-2.086 l -1.206,-3.361 c -0.035,2.236 -0.205,11.845 -0.619,15.017 -0.469,3.599 0.469,8.293 0.312,9.387 -0.156,1.096 1.252,0.313 1.252,0.313 0,0 -0.626,-7.822 -0.156,-11.265 0.269,-1.971 0.486,-6.3 0.623,-9.641 0.852,2.26 1.701,4.085 2.266,4.189 -0.39,1.532 -0.765,2.969 -0.542,3.339 0.467,0.783 1.562,1.253 1.406,0.471 z"
       id="path4255" /><path
       style="fill:#dcb028"
       d="m 36.6,34.129 c 0.252,-0.221 0.421,-0.389 0.478,-0.446 -1.164,-0.327 -2.377,-0.048 -2.377,-0.048 0.778,0.02 1.402,0.214 1.899,0.494 z"
       id="path4253" /><path
       style="fill:#dcb028"
       d="m 32.122,36.896 c 0.008,0 0.013,0 0.022,10e-4 l 0.072,-0.528 c -0.03,0.175 -0.062,0.351 -0.094,0.527 z"
       id="path4251" /><path
       style="fill:#dcb028"
       d="m 30.009,53.75 c 0.002,-0.141 0.013,-0.275 0.029,-0.407 -0.011,-0.283 -0.02,-0.573 -0.025,-0.842 -0.014,0.452 -0.016,0.87 -0.004,1.249 z"
       id="path4249" /><path
       style="fill:#dcb028"
       d="m 35.782,34.784 c -1.442,-0.681 -3.037,-0.601 -3.037,-0.601 0.938,-1.225 2.49,-1.383 3.76,-1.254 -1.287,-1.001 -3.483,-0.257 -3.623,-0.208 -0.176,0.957 -0.363,1.977 -0.555,3.036 1.109,0.447 2.47,-0.261 3.455,-0.973 z"
       id="path4247" /><path
       style="fill:#dcb028"
       d="m 30.11,54.917 c -0.006,-0.102 -0.029,-0.538 -0.053,-1.074 -0.029,-0.028 -0.044,-0.044 -0.048,-0.049 0.015,0.428 0.049,0.804 0.101,1.123 z"
       id="path4245" /><path
       style="fill:#dcb028"
       d="m 38.019,71.814 c -0.13,0.769 -0.679,1.391 -1.17,2.169 0.113,-0.133 0.198,-0.219 0.198,-0.219 0.373,0.124 0.981,0.177 1.674,0.188 -0.569,-0.822 -0.771,-1.564 -0.735,-1.674 0.026,-0.08 0.034,-0.259 0.033,-0.464 z"
       id="path4243" /><path
       style="fill:#dcb028"
       d="m 38.591,33.404 c 0.309,0.669 0.739,1.269 1.262,1.808 4.748,-0.738 17.011,3.091 17.011,3.091 -0.594,0.653 -1.305,1.18 -2.095,1.603 1.345,0.075 2.199,0.066 2.199,0.066 l 0.015,0.257 c -0.034,-1.097 -0.034,-1.931 -0.034,-1.931 l 0.816,-2.039 c 0,0 -10.199,-2.448 -13.055,-2.856 -2.856,-0.408 -6.119,0.001 -6.119,0.001 z"
       id="path4241" /><path
       style="fill:#dcb028"
       d="m 63.732,51.589 0.064,-1.62 c -0.037,0.552 -0.064,1.114 -0.064,1.62 z"
       id="path4239" /><path
       style="fill:#dcb028"
       d="m 69.008,45.781 c -0.016,-0.15 -0.024,-0.267 -0.024,-0.342 0,-0.815 -0.408,-2.651 -1.428,-3.06 -0.385,-0.154 -1.203,-1.118 -2.085,-2.337 0.11,3.645 -3.966,4.258 -3.966,4.258 l -1.564,-1.564 c 5.215,-0.313 4.589,-3.963 4.589,-3.963 -3.441,3.129 -6.779,-0.313 -6.779,-0.313 3.253,0.39 4.278,-1.912 4.59,-3.699 -0.044,-0.13 -0.074,-0.244 -0.088,-0.337 0,0 -0.204,2.04 -4.487,1.836 0,0 -0.612,4.284 1.428,5.916 0.552,0.441 1.164,1.003 1.763,1.586 0.149,2.685 0.576,10.654 0.576,13.498 0,3.442 -0.938,5.162 -0.938,5.162 l 1.095,0.312 c 0,0 1.095,-3.128 0.781,-5.475 -0.223,-1.678 -0.207,-8.43 -0.18,-12.146 0.023,0.023 0.044,0.045 0.066,0.069 -0.026,-0.031 -0.043,-0.048 -0.043,-0.048 0,0 4.694,-0.47 4.694,-3.051 0,0 0.626,0.313 0.938,0.626 0.306,0.306 -3.268,3.443 -4.818,3.297 0.011,0.011 0.021,0.024 0.032,0.035 0.692,0.219 3.836,1.096 5.848,-0.26 z"
       id="path4237" /><path
       style="fill:#dcb028"
       d="m 38.872,31.784 c 0,0 -2.291,-0.874 -3.796,-2.501 -1.096,0.939 -1.861,2.09 -1.978,2.269 l -0.003,0.019 c 2.708,-1.34 5.495,1.834 5.495,1.834 l 0.356,-1.665 c -0.046,0.028 -0.074,0.044 -0.074,0.044 z"
       id="path4235" /><path
       style="fill:#dcb028"
       d="m 34.272,28.181 c -0.173,-0.318 -0.305,-0.657 -0.388,-1.014 -0.163,1.01 -0.446,2.542 -0.787,4.385 10e-4,0 10e-4,0 10e-4,-0.001 l 0.454,-2.375 c 0.179,-0.399 0.427,-0.726 0.72,-0.995 z"
       id="path4233" /><path
       style="fill:#dcb028"
       d="m 31.571,40.441 c 0,0 0.006,0.002 0.016,0.005 l 0.193,-0.839 c 0.558,0.507 1.658,0.298 2.642,-0.05 -1.335,-0.451 -2.538,-0.368 -2.538,-0.368 0.255,-0.335 0.567,-0.604 0.915,-0.821 -0.498,-0.171 -0.811,-0.327 -0.811,-0.327 l 0.145,-1.055 c -0.008,-0.014 -0.013,-0.028 -0.019,-0.043 -0.272,1.531 -0.547,3.12 -0.805,4.701 l 0.27,-1.169 c -0.002,-0.011 -0.006,-0.022 -0.008,-0.034 z"
       id="path4231" /><path
       style="fill:#dcb028"
       d="m 66.381,56.398 -0.156,-0.626 c 0.329,0.22 1.504,-0.099 2.176,-0.31 -1.035,0.203 -2.283,-0.296 -2.329,-0.314 0.187,1.195 0.418,2.279 0.668,2.529 0.559,0.56 2.817,-0.074 3.206,-2.361 -0.025,0.089 -0.046,0.144 -0.046,0.144 -3.128,1.643 -3.519,0.938 -3.519,0.938 z"
       id="path4229" /><path
       style="fill:#dcb028"
       d="m 63.801,49.907 c 0.037,0.021 1.433,0.77 3.362,-0.157 0,0 -2.66,-0.156 -3.207,-1.408 0,0 0.006,-0.09 0.008,-0.226 -0.054,0.503 -0.116,1.136 -0.163,1.791 z"
       id="path4227" /><path
       style="fill:#dcb028"
       d="m 69.151,46.873 c -0.341,0.122 -2.584,0.866 -4.961,0.217 0,0 2.269,2.347 5.24,2.034 0,0 -2.894,2.269 -5.631,1.877 0,0 0.156,1.565 1.564,1.565 0,0 -0.235,0.703 -0.626,0.781 0,0 -0.611,-0.536 -1.003,-1.454 0.018,0.798 0.113,1.402 0.352,1.5 1.312,0.538 1.542,-1.927 1.542,-1.927 0,0 0.078,0.871 0.209,1.962 0.784,0.462 2.421,-0.628 2.421,-0.628 -0.86,0.547 -2.348,0.156 -2.348,0.156 l -0.234,-1.252 c 0.391,1.564 3.989,-0.078 3.989,-0.078 -0.392,1.955 -3.676,2.503 -3.676,2.503 1.095,1.173 3.988,0.078 3.988,0.078 0.008,0.032 0.015,0.063 0.021,0.095 -0.048,-2.148 -0.572,-5.49 -0.847,-7.429 z"
       id="path4225" /><path
       style="fill:#dcb028"
       d="m 56.152,92.891 -0.01,0.029 c 2.331,-0.271 5.154,0.949 5.154,0.949 0,0.111 -0.004,0.223 -0.009,0.33 0.103,-0.798 0.156,-1.637 0.181,-2.442 -0.006,-0.001 -0.01,0 -0.016,0 -1.973,-0.142 -4.753,0.916 -5.3,1.134 z"
       id="path4223" /><path
       style="fill:#dcb028"
       d="m 59.889,91.131 c -0.705,-0.353 -3.012,-0.171 -3.173,-0.158 -0.165,0.623 -0.379,1.282 -0.585,1.927 0.007,-0.003 0.013,-0.006 0.021,-0.009 l 0.346,-1.082 c 0.417,-0.366 3.391,-0.678 3.391,-0.678 z"
       id="path4221" /><path
       style="fill:#dcb028"
       d="m 55.725,94.228 0.139,-0.433 c -0.004,-0.003 -0.008,-0.005 -0.012,-0.007 -0.045,0.15 -0.087,0.296 -0.127,0.44 z"
       id="path4219" /><path
       style="fill:#dcb028"
       d="m 55.879,93.699 c 0.005,-0.001 0.01,-0.001 0.015,-0.001 l 0.249,-0.778 c -0.007,0.001 -0.013,0.002 -0.02,0.002 -0.085,0.263 -0.167,0.522 -0.244,0.777 z"
       id="path4217" /><path
       style="fill:#dcb028"
       d="m 58.819,83.604 c -2.433,-0.271 -3.833,-1.262 -4.136,-1.496 0.008,0.016 0.014,0.032 0.021,0.048 0.117,0.271 0.284,0.624 0.478,1.036 1.54,0.541 2.726,0.601 3.637,0.412 z"
       id="path4215" /><path
       style="fill:#dcb028"
       d="m 33.074,31.683 0.021,-0.113 -10e-4,0 c -0.006,0.038 -0.013,0.076 -0.02,0.113 z"
       id="path4213" /><path
       style="fill:#dcb028"
       d="m 49.818,45.096 c 1.71,0.505 3.225,0.828 4.476,1.034 1.781,-3.51 2.674,-6.157 2.674,-6.157 -1.781,2.538 -4.428,4.129 -7.15,5.123 z"
       id="path4211" /><path
       style="fill:#dcb028"
       d="m 58.637,97.075 c -1.018,-1.017 -3.129,-1.877 -3.129,-1.877 l 0.104,-0.365 c 0.626,-0.052 1.826,0.887 1.826,0.887 -0.304,-0.557 -1.682,-1.258 -1.766,-1.3 -0.358,1.354 -0.435,2.427 0.46,2.626 1.758,0.391 4.447,0.218 5.033,-2.122 -1.847,-1.393 -4.6,-1.278 -5.271,-1.226 l -0.03,0.097 c 2.543,1.765 2.773,3.28 2.773,3.28 z"
       id="path4209" /><path
       style="fill:#dcb028"
       d="m 51.707,75.806 c -0.104,-0.063 -0.192,-0.119 -0.268,-0.164 -0.053,-0.031 -0.1,-0.071 -0.144,-0.118 0.071,1.149 0.427,7.153 0.144,8.566 l 0.939,1.408 -0.292,-9.449 c -0.127,-0.043 -0.259,-0.137 -0.379,-0.243 z"
       id="path4207" /><path
       style="fill:#dcb028"
       d="M 66.034,54.899 65.88,53.763 c 0.045,0.37 0.098,0.757 0.154,1.136 z"
       id="path4205" /><path
       style="fill:#dcb028"
       d="m 39.643,81.368 c 0.771,0.324 1.41,0.481 1.581,0.521 0.238,-0.801 0.349,-1.419 0.396,-1.737 -0.492,0.623 -1.209,0.998 -1.977,1.216 z"
       id="path4203" /><path
       style="fill:#dcb028"
       d="m 36.421,78.614 c 0.399,0.914 1.153,1.597 1.95,2.098 0.911,-0.175 1.648,-0.454 1.648,-0.454 -1.555,-0.216 -2.584,-0.956 -3.194,-1.576 -0.256,-0.033 -0.404,-0.068 -0.404,-0.068 z"
       id="path4201" /><path
       style="fill:#dcb028"
       d="m 36.045,76.119 c -0.001,0.014 -0.002,0.027 -0.004,0.041 0.154,0.783 0.607,1.425 1.195,1.946 1.552,0.065 3.641,-1.016 4.57,-1.55 -3.035,0.881 -5.555,-0.333 -5.761,-0.437 z"
       id="path4199" /><path
       style="fill:#dcb028"
       d="m 39.601,86.004 c -0.847,0.608 -1.622,0.982 -2.28,1.208 0.604,0.363 1.439,0.694 2.478,0.709 -0.209,-0.63 -0.305,-1.26 -0.198,-1.917 z"
       id="path4197" /><path
       style="fill:#dcb028"
       d="m 38.768,67.038 c 2.034,1.095 5.711,0.625 5.711,0.625 -3.051,-0.078 -5.711,-2.425 -5.711,-2.425 -0.025,-0.048 -0.047,-0.1 -0.07,-0.15 0.182,0.979 0.057,1.716 -0.146,2.368 0.126,-0.248 0.216,-0.418 0.216,-0.418 z"
       id="path4195" /><path
       style="fill:#dcb028"
       d="m 42.316,60.627 c 0.925,-0.581 1.806,-1.236 2.643,-1.949 -1.285,-0.147 -2.699,-0.188 -4.041,0.021 -1.192,1.092 -2.067,2.064 -2.433,2.486 0.651,-0.597 2.155,-0.69 3.831,-0.558 z"
       id="path4193" /><path
       style="fill:#dcb028"
       d="m 36.566,86.662 c 0.906,-0.153 1.889,-0.46 1.889,-0.46 -0.191,0 -0.412,-0.058 -0.646,-0.152 -0.559,0.129 -1.146,0.231 -1.623,0.231 10e-4,0 0.13,0.159 0.38,0.381 z"
       id="path4191" /><path
       style="fill:#dcb028"
       d="m 46.569,57.188 c -0.956,0.173 -2.197,0.442 -3.812,0.853 0,0 1.528,-0.23 3.204,-0.261 0.206,-0.194 0.409,-0.391 0.608,-0.592 z"
       id="path4189" /><path
       style="fill:#dcb028"
       d="m 42.875,76.054 c 0,-0.006 0,-0.012 -10e-4,-0.019 0,0 0.838,-0.838 1.574,-2.229 -0.916,0.596 -2.49,0.773 -3.987,0.78 1.036,0.758 2.074,1.299 2.414,1.468 z"
       id="path4187" /><path
       style="fill:#dcb028"
       d="m 36.125,77.786 c 0.051,0.274 0.12,0.563 0.213,0.87 0.014,-0.385 -0.158,-0.76 -0.213,-0.87 z"
       id="path4185" /><path
       style="fill:#dcb028"
       d="m 39.751,85.419 c -0.016,0.028 -0.03,0.055 -0.045,0.079 0,0 -0.262,0.094 -0.659,0.216 0.244,0.049 0.45,0.074 0.594,0.085 0.028,-0.125 0.065,-0.252 0.11,-0.38 z"
       id="path4183" /><path
       style="fill:#dcb028"
       d="m 35.795,80.258 c 0,0 0.045,0.167 0.166,0.424 0.404,0.151 0.892,0.188 1.387,0.162 -0.812,-0.745 -1.21,-1.542 -1.083,-1.838 0.041,-0.097 0.062,-0.197 0.071,-0.299 -0.065,0.121 -0.414,0.797 -0.593,1.611 0.017,-0.021 0.033,-0.042 0.052,-0.06 z"
       id="path4181" /><path
       style="fill:#dcb028"
       d="m 40.88,76.424 c -1.742,0 -4.224,-1.211 -4.572,-1.386 -0.073,0.192 -0.134,0.396 -0.183,0.613 1.646,1.006 4.755,0.773 4.755,0.773 z"
       id="path4179" /><path
       style="fill:#dcb028"
       d="m 40.188,84.481 c 0.016,-0.034 0.03,-0.069 0.045,-0.104 -0.301,-0.079 -1.252,-0.346 -2.213,-0.771 -1.17,0.194 -2.067,0.015 -2.067,0.015 0.613,1.074 1.567,1.621 2.379,1.9 0.67,-0.201 1.318,-0.493 1.793,-0.915 0.021,-0.042 0.042,-0.084 0.063,-0.125 z"
       id="path4177" /><path
       style="fill:#dcb028"
       d="m 38.387,82.925 c 0.999,-0.231 1.867,-0.634 1.867,-0.634 -0.708,-0.125 -1.339,-0.378 -1.879,-0.692 -0.677,0.066 -1.319,0.051 -1.812,0.015 0.396,0.468 0.979,0.963 1.824,1.311 z"
       id="path4175" /><path
       style="fill:#dcb028"
       d="m 35.735,81.951 c 0.094,0.329 0.101,0.746 0.058,1.212 l 0.081,-0.481 c 0.28,0.263 0.679,0.376 1.121,0.398 -0.647,-0.394 -1.172,-0.866 -1.321,-1.406 0.014,0.094 0.035,0.185 0.061,0.277 z"
       id="path4173" /><path
       style="fill:#dcb028"
       d="m 41.198,81.974 c -0.576,0.595 -1.213,0.992 -1.839,1.253 0.387,0.085 0.813,0.142 1.286,0.16 0,0 -0.19,0.474 -0.413,0.99 0.003,0.001 0.005,0.002 0.007,0.002 0.442,-0.885 0.748,-1.71 0.959,-2.405 z"
       id="path4171" /><path
       style="fill:#dcb028"
       d="m 39.202,74.557 c -1.429,-0.071 -2.546,-0.244 -2.546,-0.244 0.59,1.033 2.948,1.479 4.614,1.667 -0.889,-0.345 -1.567,-0.872 -2.068,-1.423 z"
       id="path4169" /><path
       style="fill:#dcb028"
       d="m 33.486,44.985 c -1.13,-0.763 -2.303,-1.178 -2.507,-1.247 -0.142,0.93 -0.273,1.845 -0.393,2.731 l 0.255,-0.814 c 0.572,0.43 1.88,-0.219 2.645,-0.67 z"
       id="path4167" /><path
       style="fill:#dcb028"
       d="m 47.541,56.173 c -0.544,-0.336 -1.069,-0.679 -1.575,-1.024 -1.673,0.79 -3.249,1.969 -4.533,3.09 1.789,-0.694 4.029,-1.469 5.881,-1.816 0.077,-0.084 0.152,-0.167 0.227,-0.25 z"
       id="path4165" /><path
       style="fill:#dcb028"
       d="m 36.108,44.665 c -0.095,-0.081 -0.246,-0.157 -0.43,-0.228 0.265,0.146 0.43,0.228 0.43,0.228 z"
       id="path4163" /><path
       style="fill:#dcb028"
       d="m 32.361,41.914 c 0.413,0.486 0.935,0.938 1.457,1.33 1.198,0.081 2.229,0.404 2.564,0.52 l 0.029,-0.098 c -0.808,-1.219 -2.815,-1.62 -4.05,-1.752 z"
       id="path4161" /><path
       style="fill:#dcb028"
       d="m 31.192,42.372 c -0.071,0.448 -0.141,0.894 -0.208,1.337 0.332,-0.167 0.685,-0.284 1.045,-0.36 -0.425,-0.43 -0.732,-0.836 -0.837,-0.977 z"
       id="path4159" /><path
       style="fill:#dcb028"
       d="m 32.008,41.448 c 2.064,-0.949 4.961,-0.069 4.961,-0.069 -0.382,-0.538 -0.845,-0.944 -1.333,-1.251 -1.888,0.972 -3.862,0.378 -4.049,0.318 l -0.008,0.03 c 0.069,0.33 0.22,0.656 0.429,0.972 z"
       id="path4157" /><path
       style="fill:#dcb028"
       d="m 30.854,46.647 c 1.891,-0.029 4.126,1.066 4.704,1.367 0.025,-0.113 0.05,-0.226 0.076,-0.34 -0.168,-0.719 -0.594,-1.34 -1.125,-1.863 -1.371,0.624 -2.978,0.792 -3.655,0.836 z"
       id="path4155" /><path
       style="fill:#dcb028"
       d="m 38.122,34.201 c -0.179,0.257 -0.369,0.492 -0.573,0.702 0.712,0.809 0.906,1.706 0.906,1.706 l -0.704,2.112 c -0.097,-0.057 -0.213,-0.104 -0.342,-0.146 -0.278,0.383 -0.577,0.701 -0.888,0.962 0.485,0.324 0.838,0.592 0.838,0.592 L 36.89,41.85 c -0.156,-0.235 -3.363,-0.313 -2.269,-0.235 1.094,0.078 2.034,1.252 2.034,1.252 l -0.244,0.799 c 0.03,0.046 0.061,0.091 0.087,0.139 0,0 -0.042,-0.016 -0.116,-0.042 l -0.274,0.902 c -0.198,0.236 -0.431,0.443 -0.687,0.627 0.365,0.349 0.608,0.625 0.608,0.625 l -0.012,0.077 c 0.833,-3.597 1.756,-7.287 1.756,-7.287 l 1.208,-3.223 -0.006,-0.049 c -0.188,-0.552 -0.493,-0.949 -0.853,-1.234 z"
       id="path4153" /><path
       style="fill:#dcb028"
       d="m 40.235,49.281 c 1.658,0.772 5.052,1.637 11.645,1.122 0.583,-0.927 1.116,-1.844 1.599,-2.727 -10.006,2.022 -14.606,-0.977 -14.606,-0.977 0.295,0.921 0.764,1.78 1.362,2.582 z"
       id="path4151" /><path
       style="fill:#dcb028"
       d="m 38.958,45.647 c -0.056,0.289 -0.102,0.57 -0.13,0.839 0.024,-0.127 0.049,-0.24 0.071,-0.333 0.015,-0.194 0.037,-0.361 0.059,-0.506 z"
       id="path4149" /><path
       style="fill:#dcb028"
       d="m 51.017,58.085 c -0.764,-0.368 -1.505,-0.76 -2.219,-1.167 -0.123,0.003 -0.261,0.01 -0.417,0.021 -0.302,0.301 -0.604,0.594 -0.905,0.88 0.958,0.076 1.825,0.264 2.321,0.652 0,0.001 0.463,-0.183 1.22,-0.386 z"
       id="path4147" /><path
       style="fill:#dcb028"
       d="m 52.848,46.751 c -1.377,-0.017 -3.193,-0.446 -5.035,-1.026 -2.507,0.667 -4.913,0.897 -6.597,0.969 5.102,1.347 11.632,0.057 11.632,0.057 z"
       id="path4145" /><path
       style="fill:#dcb028"
       d="m 52.415,40.823 c -5.465,1.501 -12.5,-0.121 -12.5,-0.121 2.578,1.555 5.048,2.692 7.292,3.524 4.623,-1.198 7.284,-3.394 7.284,-3.394 -0.726,0.012 -1.416,0.008 -2.076,-0.009 z"
       id="path4143" /><path
       style="fill:#dcb028"
       d="m 39.779,36.82 c -0.329,0.058 -0.521,0.106 -0.575,0.122 0.156,1.075 0.383,2.488 0.61,3.396 0.033,0.135 0.054,0.281 0.064,0.434 -0.045,-1.011 -0.329,-1.844 -0.329,-1.844 2.185,0.639 4.242,0.952 6.105,1.061 -3.342,-0.849 -5.033,-2.168 -5.875,-3.169 z"
       id="path4141" /><path
       style="fill:#dcb028"
       d="m 41.614,36.619 c 2.869,1.809 6.939,2.643 10.169,3.027 2.212,-0.388 3.516,-0.926 3.516,-0.926 -6.575,-2.042 -11.134,-2.248 -13.685,-2.101 z"
       id="path5" /></g></svg>