<svg
   xmlns:dc="http://purl.org/dc/elements/1.1/"
   xmlns:cc="http://creativecommons.org/ns#"
   xmlns:rdf="http://www.w3.org/1999/02/22-rdf-syntax-ns#"
   xmlns:svg="http://www.w3.org/2000/svg"
   xmlns="http://www.w3.org/2000/svg"
   xmlns:sodipodi="http://sodipodi.sourceforge.net/DTD/sodipodi-0.dtd"
   xmlns:inkscape="http://www.inkscape.org/namespaces/inkscape"
   version="1.1"
   x="0px"
   y="0px"
   width="100px"
   height="100px"
   viewBox="5.0 -10.0 100.0 135.0"
   enable-background="new 0 0 100 100"
   xml:space="preserve"
   id="svg2"
   inkscape:version="0.91 r13725"
   sodipodi:docname="music.svg"><metadata
     id="metadata12"><rdf:RDF><cc:Work
         rdf:about=""><dc:format>image/svg+xml</dc:format><dc:type
           rdf:resource="http://purl.org/dc/dcmitype/StillImage" /></cc:Work></rdf:RDF></metadata><defs
     id="defs10" /><sodipodi:namedview
     pagecolor="#ffffff"
     bordercolor="#666666"
     borderopacity="1"
     objecttolerance="10"
     gridtolerance="10"
     guidetolerance="10"
     inkscape:pageopacity="0"
     inkscape:pageshadow="2"
     inkscape:window-width="751"
     inkscape:window-height="480"
     id="namedview8"
     showgrid="false"
     inkscape:zoom="2.36"
     inkscape:cx="50"
     inkscape:cy="50"
     inkscape:window-x="0"
     inkscape:window-y="0"
     inkscape:window-maximized="0"
     inkscape:current-layer="svg2" /><g
     id="Captions" /><g
     id="Your_Icon"
     transform="matrix(1.3454002,0,0,1.2741032,-11.767485,-6.8405793)"><path
       d="M 93.732,14.804 28.318,2 C 28.312,2 28.305,2 28.299,2 L 26.665,2 C 24.862,2 23,3.445 23,5.224 l 0,1.636 c 0,0 0,0.004 0,0.007 l 0.203,46.41 C 20.309,53.362 17.381,53.94 14.388,55.206 4.269,59.487 -1.33,69.224 1.826,76.952 4.979,84.68 15.766,87.473 25.888,83.192 34.775,79.432 39.841,71.464 38.897,64.345 39.168,63.874 39,63.355 39,62.769 l 0,-41.424 42,9.6 0,35.135 c -3,0.125 -5.866,0.713 -8.732,1.926 -10.118,4.28 -15.859,14.018 -12.703,21.745 3.152,7.729 13.871,10.522 23.989,6.241 C 92.666,92.136 98.112,83.861 96.812,76.608 96.924,76.28 97,75.937 97,75.567 l 0,-55.9 c 0,-0.004 0,-0.004 0,-0.004 l 0,-1.641 c 0,-1.777 -1.463,-3.218 -3.268,-3.218 z"
       id="path6"
       inkscape:connector-curvature="0"
       style="fill:#0e232e" /></g></svg>