<svg
   xmlns:dc="http://purl.org/dc/elements/1.1/"
   xmlns:cc="http://creativecommons.org/ns#"
   xmlns:rdf="http://www.w3.org/1999/02/22-rdf-syntax-ns#"
   xmlns:svg="http://www.w3.org/2000/svg"
   xmlns="http://www.w3.org/2000/svg"
   xmlns:sodipodi="http://sodipodi.sourceforge.net/DTD/sodipodi-0.dtd"
   xmlns:inkscape="http://www.inkscape.org/namespaces/inkscape"
   version="1.1"
   x="0px"
   y="0px"
   width="100px"
   height="100px"
   viewBox="5.0 -10.0 100.0 135.0"
   enable-background="new 0 0 100 100"
   xml:space="preserve"
   id="svg2"
   inkscape:version="0.91 r13725"
   sodipodi:docname="shark.svg"><metadata
     id="metadata13"><rdf:RDF><cc:Work
         rdf:about=""><dc:format>image/svg+xml</dc:format><dc:type
           rdf:resource="http://purl.org/dc/dcmitype/StillImage" /></cc:Work></rdf:RDF></metadata><defs
     id="defs11" /><sodipodi:namedview
     pagecolor="#ffffff"
     bordercolor="#666666"
     borderopacity="1"
     objecttolerance="10"
     gridtolerance="10"
     guidetolerance="10"
     inkscape:pageopacity="0"
     inkscape:pageshadow="2"
     inkscape:window-width="1246"
     inkscape:window-height="755"
     id="namedview9"
     showgrid="false"
     inkscape:zoom="2.36"
     inkscape:cx="52.966102"
     inkscape:cy="47.033898"
     inkscape:window-x="34"
     inkscape:window-y="0"
     inkscape:window-maximized="1"
     inkscape:current-layer="svg2" /><g
     id="Your_Icon"
     transform="matrix(1.1369715,-1.0059119,1.1369715,1.0059119,-59.543488,54.629797)"><path
       d="m 78.645,41.31 c -0.154,0 -0.279,0.064 -0.279,0.489 0,0.425 0.125,0.769 0.279,0.769 0.154,0 0.279,-0.344 0.279,-0.769 0,-0.425 -0.125,-0.489 -0.279,-0.489 z"
       id="path5"
       inkscape:connector-curvature="0" /><path
       d="m 97.801,44.39 c -2.632,-3.607 -11.286,-7.182 -34.59,-6.303 -3.193,0.121 -6.25,0.362 -9.157,1.009 0.124,-0.133 -1.543,-7.165 -5.94,-10.096 -2.198,1.612 -0.586,11.286 -3.517,13.044 -3.539,1.338 -8.166,4.885 -14.437,9.086 l 26.281,-0.143 c 10.445,-3.726 22.355,-7.976 27.436,-8.943 4.544,-1.246 8.354,-0.735 11.286,1.319 5.862,3.811 -1.76,7.172 -7.036,8.826 -0.634,0.359 -0.805,0.4 -0.907,0.407 -0.003,-0.395 -0.217,-0.911 -0.771,-1.611 -1.972,-2.492 -16.812,-2.783 -13.711,-2.345 10.739,1.431 12.56,3.75 12.656,5.03 -10.003,6.688 -27.157,5.522 -44.461,5.522 -5.931,0 -2.638,-2.199 -2.638,-2.199 1.84,-0.236 8.149,-2.445 15.619,-5.105 l -23.765,-0.75 c -0.054,0.035 -0.105,0.07 -0.16,0.106 -4.859,-0.179 -8.787,-0.312 -9.723,-0.26 -1.143,0.063 2.746,0.759 7.712,1.587 -2.794,1.818 -5.887,3.722 -9.324,5.596 -2.638,-2.346 -18.8,-9.678 -17.589,-7.33 2.346,4.544 11.726,9.234 10.993,12.752 -0.733,3.517 -1.805,4.606 -2.638,9.087 3.958,-1.613 6.445,-6.915 9.674,-9.967 1.616,-1.175 5.912,-1.563 2.638,2.639 0.049,0.439 3.371,-1.026 4.69,-3.812 11.476,0.145 21.352,2.257 34.623,0.042 5.994,3.479 6.646,7.617 11.269,9.631 2.329,0.094 -0.162,-8.939 -1.335,-11.939 0,0 -0.034,-0.002 -0.094,-0.008 0.08,-0.023 0.159,-0.047 0.241,-0.07 11.344,-1.486 15.825,-5.853 15.969,-6.107 2.42,-0.758 14.475,-3.53 10.706,-8.695 z m -42.405,4.685 c -0.586,-1.466 0,-6.596 0,-4.837 0,1.466 0.585,6.303 0,4.837 z m 1.512,-0.728 c -0.587,-1.465 0,-6.596 0,-4.837 0,1.466 0.586,6.302 0,4.837 z m 1.613,-0.586 c -0.586,-1.466 0,-6.596 0,-4.837 0,1.466 0.585,6.303 0,4.837 z m 20.124,-4.683 c -0.591,0 -1.07,-0.51 -1.07,-1.139 0,-0.63 0.479,-1.14 1.07,-1.14 0.592,0 1.07,0.51 1.07,1.14 0,0.628 -0.479,1.139 -1.07,1.139 z"
       id="path7"
       inkscape:connector-curvature="0"
       style="fill:#0084c8" /></g></svg>