<svg
   xmlns:dc="http://purl.org/dc/elements/1.1/"
   xmlns:cc="http://creativecommons.org/ns#"
   xmlns:rdf="http://www.w3.org/1999/02/22-rdf-syntax-ns#"
   xmlns:svg="http://www.w3.org/2000/svg"
   xmlns="http://www.w3.org/2000/svg"
   xmlns:sodipodi="http://sodipodi.sourceforge.net/DTD/sodipodi-0.dtd"
   xmlns:inkscape="http://www.inkscape.org/namespaces/inkscape"
   version="1.1"
   id="Your_Icon"
   x="0px"
   y="0px"
   width="100px"
   height="100px"
   viewBox="5.0 -10.0 100.0 135.0"
   enable-background="new 0 0 100 100"
   xml:space="preserve"
   inkscape:version="0.91 r13725"
   sodipodi:docname="tie.svg"><metadata
     id="metadata19"><rdf:RDF><cc:Work
         rdf:about=""><dc:format>image/svg+xml</dc:format><dc:type
           rdf:resource="http://purl.org/dc/dcmitype/StillImage" /></cc:Work></rdf:RDF></metadata><defs
     id="defs17" /><sodipodi:namedview
     pagecolor="#ffffff"
     bordercolor="#666666"
     borderopacity="1"
     objecttolerance="10"
     gridtolerance="10"
     guidetolerance="10"
     inkscape:pageopacity="0"
     inkscape:pageshadow="2"
     inkscape:window-width="751"
     inkscape:window-height="480"
     id="namedview15"
     showgrid="false"
     inkscape:zoom="2.36"
     inkscape:cx="50"
     inkscape:cy="50"
     inkscape:window-x="0"
     inkscape:window-y="0"
     inkscape:window-maximized="0"
     inkscape:current-layer="Your_Icon" /><g
     id="g3"
     transform="matrix(1.3457644,0,0,1.4410389,-16.144166,-13.757456)"><path
       d="m 56.476,94.203 c 0,0 7.53,-8.492 8.999,-10.481 1.098,-1.486 1.069,-1.857 1.069,-3.49 0,-1.634 -4.448,-54.494 -4.804,-58.044 -0.356,-3.55 -0.958,-3.528 -2.068,-3.957 -0.555,-0.214 -2.477,-0.732 -4.4,-0.732 -1.923,0 -3.845,0.517 -4.4,0.732 -1.11,0.429 -1.711,0.407 -2.068,3.957 C 48.447,25.738 44,78.598 44,80.232 c 0,1.634 -0.029,2.004 1.069,3.49 1.469,1.989 8.999,10.481 8.999,10.481 0,0 0.441,0.544 1.204,0.544 0.763,0 1.204,-0.544 1.204,-0.544 z"
       id="path5"
       inkscape:connector-curvature="0"
       style="fill:#19aeff" /><g
       id="g7"><path
         d="m 48.832,21.924 c 0.36,-3.284 0.959,-3.275 2.04,-3.693 0.555,-0.214 2.477,-0.732 4.4,-0.732 1.923,0 3.845,0.517 4.4,0.732 1.11,0.429 1.711,0.407 2.068,3.957 0.357,3.55 4.804,56.41 4.804,58.044 0,1.634 0.029,2.004 -1.069,3.49 -1.469,1.989 -8.999,10.481 -8.999,10.481 0,0 -0.441,0.544 -1.204,0.544 -0.763,0 -1.204,-0.544 -1.204,-0.544 0,0 -7.53,-8.492 -8.999,-10.481 C 43.971,82.236 44,81.865 44,80.232 44,79.281 45.507,60.974 46.837,45.138"
         id="path9"
         inkscape:connector-curvature="0"
         style="fill:#0084c8" /></g></g><path
     d="m 58.654767,8.1059875 c 4.204168,0 8.011334,1.8618219 8.011334,1.8618219 0.738825,-0.9957579 1.084689,-2.7768821 1.084689,-2.7768821 0,0 1.036236,-4.8318035 1.590691,-8.3292052 0.554455,-3.4974016 -1.745453,-3.7164395 -1.745453,-3.7164395 -3.879841,-1.2061496 -9.246749,-1.332961 -9.246749,-1.332961 0,0 -5.366909,0.1253705 -9.246748,1.332961 0,0 -2.299911,0.2190379 -1.745456,3.7164395 0.554455,3.4974017 1.590693,8.3292052 1.590693,8.3292052 0,0 0.347208,1.7811242 1.084687,2.7768821 0,0 3.807167,-1.8618219 8.011335,-1.8618219 l 0.610977,0 z"
     id="path11"
     inkscape:connector-curvature="0"
     style="fill:#005c94" /><path
     d="m 28.879729,61.404254 c 0.234163,1.505885 1.881379,8.288856 1.881379,8.288856 0,0 0.08344,0.423666 0.4764,0.63694 0.391618,0.213274 0.761703,0.03746 0.761703,0.03746 0,0 6.092276,-2.562167 7.366714,-3.243779 l 4.202823,-8.847978 C 44.580763,45.322256 45.592777,32.564737 46.210484,24.915702 L 28.879729,61.404254 Z"
     id="path13"
     inkscape:connector-curvature="0"
     style="fill:#005c94" /></svg>