<svg
   xmlns:dc="http://purl.org/dc/elements/1.1/"
   xmlns:cc="http://creativecommons.org/ns#"
   xmlns:rdf="http://www.w3.org/1999/02/22-rdf-syntax-ns#"
   xmlns:svg="http://www.w3.org/2000/svg"
   xmlns="http://www.w3.org/2000/svg"
   xmlns:sodipodi="http://sodipodi.sourceforge.net/DTD/sodipodi-0.dtd"
   xmlns:inkscape="http://www.inkscape.org/namespaces/inkscape"
   version="1.1"
   id="Your_Icon"
   x="0px"
   y="0px"
   width="100px"
   height="100px"
   viewBox="5.0 -10.0 100.0 135.0"
   enable-background="new 0 0 100 100"
   xml:space="preserve"
   inkscape:version="0.91 r13725"
   sodipodi:docname="trex.svg"><metadata
     id="metadata9"><rdf:RDF><cc:Work
         rdf:about=""><dc:format>image/svg+xml</dc:format><dc:type
           rdf:resource="http://purl.org/dc/dcmitype/StillImage" /></cc:Work></rdf:RDF></metadata><defs
     id="defs7" /><sodipodi:namedview
     pagecolor="#ffffff"
     bordercolor="#666666"
     borderopacity="1"
     objecttolerance="10"
     gridtolerance="10"
     guidetolerance="10"
     inkscape:pageopacity="0"
     inkscape:pageshadow="2"
     inkscape:window-width="1246"
     inkscape:window-height="755"
     id="namedview5"
     showgrid="false"
     inkscape:zoom="2.36"
     inkscape:cx="49.576271"
     inkscape:cy="50"
     inkscape:window-x="34"
     inkscape:window-y="0"
     inkscape:window-maximized="1"
     inkscape:current-layer="Your_Icon" /><path
     d="m 26.039028,18.459941 c 0,0 -0.956459,-3.661295 -0.840919,-6.08275 0.116064,-2.4188931 0.69805,-9.034834 -2.754619,-10.9290363 -3.454146,-1.8949416 -3.931687,-3.7286951 -5.280355,-3.3379054 -1.350672,0.3874876 -2.29335,0.2744745 -2.29335,0.2744745 0,0 -6.7690549,-4.6104942 -9.3616526,-1.8335759 C 2.9131059,-0.67084504 4.0251991,0.77063344 3.8155333,1.726345 L 5.1530623,0.80339735 5.2192876,2.6047859 5.9574574,1.7351984 5.900635,2.9440999 7.2199202,2.8882236 7.044438,4.0426301 l 0.7170716,0.00294 0.1626095,0.7915631 1.2348635,-0.4474629 0.2446035,1.1842381 1.1195799,-0.5048743 0.130798,1.1275638 0.714115,0.00147 c 0,0 -0.05096,1.7476284 -0.750092,2.8137316 L 9.4814177,8.4457785 9.392616,7.516201 8.4244062,8.2735306 8.365421,7.0046539 7.7005351,7.7336655 7.4236944,6.8898152 6.7495733,7.0830164 6.3593537,6.1781023 5.6842807,6.3731269 5.2960655,5.4715124 4.3374472,4.2927353 3.6710832,5.021011 c 0,0 -2.025219,0.5850783 -1.0827973,3.1769572 0.9394667,2.5904058 5.8711749,5.2257738 6.6369498,5.9566738 0.7638735,0.73455 0.8556283,1.6656 0.9101853,2.932266 0.05456,1.266667 0.929805,2.058982 1.395212,2.819669 0.463929,0.759951 0.527722,2.562429 0.614619,3.495658 0.08827,0.927015 1.389357,2.280942 1.362872,3.153108 -0.02501,0.872902 -0.02752,5.827336 0.63806,7.575363 0,0 -2.691307,-0.287045 -3.970158,-1.119382 -1.2846617,-0.828332 -2.5529604,0.01181 -2.5352186,1.370526 0,0 0.7618205,-1.16136 1.3639323,-0.923598 0,0 -0.390319,1.34867 -0.013139,1.725074 0,0 0.3404384,-1.752948 1.456319,-1.197237 0,0 2.936851,1.333776 3.496559,2.256405 0,0 -1.481809,0.349778 -2.951926,-0.315652 -1.4721207,-0.668731 -3.9608917,-0.176523 -3.7321378,2.377297 0,0 0.4388245,-0.938173 1.2165121,-0.937222 0,0 -0.1793347,1.833175 0.833793,2.082456 0,0 -0.5790324,-1.37838 0.3281312,-1.825763 0.9076895,-0.444823 4.6815125,0.08696 5.1259565,1.527099 0,0 2.145457,18.200633 6.718077,22.078341 0,0 -2.136251,7.433251 -6.965063,13.649787 -4.8297583,6.218355 -7.3450889,6.632947 -8.4518515,6.47043 C 4.9587927,81.191116 3.8328923,80.922461 3.5166032,80.764949 3.2017911,80.608172 0.80036213,78.82586 -0.25797593,80.552444 c 0,0 1.32724933,-0.41756 1.88263323,0.645499 0.5587669,1.060133 1.001105,1.579381 2.1092405,1.735697 1.1086605,0.158876 2.6129302,0.615948 3.1669424,1.38166 0.5530558,0.767544 1.842011,2.094739 3.2684588,1.333342 1.428443,-0.758082 3.506834,-2.466501 4.074381,-2.183863 0.567547,0.28264 0.554007,0.76572 0.22946,1.388272 0,0 0.752397,0.07804 1.423164,-1.055075 0.672672,-1.136777 0.86387,-2.11777 1.456172,-3.096805 0.589343,-0.980496 3.211487,-4.181926 4.322694,-5.095704 1.113636,-0.914866 5.778001,-5.451783 6.367343,-6.432282 0.590807,-0.979768 0.590807,-0.979768 0.590807,-0.979768 l 2.120352,1.253706 c 0,0 1.712543,8.885431 2.316566,10.165874 0.601593,1.281533 1.755498,4.696215 1.124706,5.752655 -0.631732,1.058272 -3.071177,6.505429 -6.004843,6.808273 0,0 -1.333062,0.118013 -2.088314,-0.258104 -0.753774,-0.37538 -2.744262,-0.97112 -3.230608,-0.03821 0,0 1.894801,-0.134919 2.09392,0.847305 0,0 0.743714,0.862493 1.539364,1.157544 0.79522,0.299448 1.026812,0.315884 1.636133,0.814797 0.611331,0.502201 3.657397,2.115729 4.255825,1.728464 0.599384,-0.389097 1.253751,-1.3372 1.253751,-1.3372 0,0 0.471639,0.920148 0.227991,1.387518 0,0 1.406989,-2.238236 1.427306,-3.502108 0.0238,-1.259839 2.033975,-3.590925 2.7316,-4.322029 0.697626,-0.731105 1.691766,-1.116777 1.508512,-2.286562 -0.184734,-1.170519 -0.225826,-9.908855 0.644806,-11.728911 l 11.21815,6.175355 c 0,0 16.920267,13.032456 26.690632,17.113941 0,0 8.955668,5.340683 12.9817,8.424173 4.024026,3.08018 12.434121,9.62093 13.248171,12.76978 0,0 1.24475,1.112 1.02448,0.0203 -0.22566,-1.09202 -1.47168,-3.57292 -1.47168,-3.57292 0,0 -11.854394,-14.23273 -16.511942,-17.626123 C 82.716686,94.542936 73.561056,86.846736 71.189138,84.097175 68.815741,81.346878 59.938665,71.441483 59.251943,70.023271 58.562691,68.599199 52.903221,56.182149 52.756132,54.639441 52.60609,53.095258 50.55706,43.941074 47.289244,41.235173 44.021428,38.529275 38.51167,32.356671 36.128541,30.385699 33.744785,28.405217 27.862983,26.292441 26.039028,18.459941 Z"
     id="path3"
     inkscape:connector-curvature="0"
     style="fill:#3c7b00" /></svg>