<svg
   xmlns:dc="http://purl.org/dc/elements/1.1/"
   xmlns:cc="http://creativecommons.org/ns#"
   xmlns:rdf="http://www.w3.org/1999/02/22-rdf-syntax-ns#"
   xmlns:svg="http://www.w3.org/2000/svg"
   xmlns="http://www.w3.org/2000/svg"
   xmlns:sodipodi="http://sodipodi.sourceforge.net/DTD/sodipodi-0.dtd"
   xmlns:inkscape="http://www.inkscape.org/namespaces/inkscape"
   version="1.1"
   id="Layer_1"
   x="0px"
   y="0px"
   width="100px"
   height="100px"
   viewBox="5.0 -10.0 100.0 135.0"
   enable-background="new 0 0 100 100"
   xml:space="preserve"
   inkscape:version="0.91 r13725"
   sodipodi:docname="yeti.svg"><metadata
     id="metadata11"><rdf:RDF><cc:Work
         rdf:about=""><dc:format>image/svg+xml</dc:format><dc:type
           rdf:resource="http://purl.org/dc/dcmitype/StillImage" /></cc:Work></rdf:RDF></metadata><defs
     id="defs9" /><sodipodi:namedview
     pagecolor="#ffffff"
     bordercolor="#666666"
     borderopacity="1"
     objecttolerance="10"
     gridtolerance="10"
     guidetolerance="10"
     inkscape:pageopacity="0"
     inkscape:pageshadow="2"
     inkscape:window-width="1246"
     inkscape:window-height="755"
     id="namedview7"
     showgrid="false"
     inkscape:zoom="2.36"
     inkscape:cx="50"
     inkscape:cy="50"
     inkscape:window-x="34"
     inkscape:window-y="0"
     inkscape:window-maximized="1"
     inkscape:current-layer="Layer_1" /><path
     d="m 91.326861,47.613582 c 0.0104,-0.04652 0.0547,-0.818058 0.0508,-0.864583 1.74096,0.06462 3.42076,0.36832 4.73103,1.660671 -1.5666,-2.491653 -5.31526,-5.25987 -8.6072,-5.17199 -0.006,-0.0065 -0.013,-0.01163 -0.0208,-0.01809 1.18275,-0.193853 2.40324,-0.252008 3.63675,-0.08659 -2.22369,-0.828397 -5.12268,-2.269369 -7.73672,-2.69843 -0.53739,-0.354105 -1.02012,-0.845197 -1.68111,-1.135977 -1.95045,-0.858122 -0.36173,-1.223857 -0.75728,-1.634825 -0.74296,-0.771534 -3.353101,0.206777 -4.338082,-0.188683 -1.230903,-0.496263 0.02602,-1.792491 0.968067,-1.853232 -0.813228,-0.807719 -3.501435,0.09304 -4.684194,-0.189975 -1.58482,-0.379952 -1.985578,-1.431926 -2.031119,-2.728154 l 0,-0.619037 c 0.0052,-0.129235 0.0078,-0.255886 0.01562,-0.387705 0.749471,-0.104686 1.580915,1.278135 2.353807,1.235488 0.06375,-1.112714 -0.866576,-4.497384 -1.616047,-5.303811 -0.42418,-0.4562 -1.437787,-0.874921 -0.460613,-1.470696 0.421578,-0.255886 1.687611,0.05299 2.111791,0.174468 -1.527567,-2.102656 -4.469501,-2.160812 -6.838923,-2.9233 l -1.320682,-0.619036 c 0.429385,-0.261054 0.910816,-0.469123 1.409161,-0.525987 -1.925743,-1.271669 -4.663394,-2.044495 -6.967758,-2.708763 -1.880183,-0.541495 -3.435075,-1.146316 -5.385521,-1.146316 l 0,0.0039 -8.525233,-2.828958 c -0.71434,-0.2365 -1.467714,-0.333426 -2.218486,-0.288194 l -0.694822,0.04265 c -2.602331,-0.756024 -5.34909,-0.591896 -8.196039,-0.591896 0.748169,0.158959 1.223095,0.541495 1.591325,0.998987 l -0.53608,0.03231 c -0.689618,0.04265 -1.353212,0.20936 -1.968662,0.475584 -1.96476,0.08013 -3.55088,0.403215 -5.25931,2.372758 2.288749,0.463955 -0.442396,2.596334 -1.111194,3.13783 -1.255625,1.017081 -2.193765,2.439959 -3.108483,3.815022 0.497044,-0.06591 1.013607,0.04911 1.502845,0.01422 0.353917,1.620608 -2.353808,4.866995 -3.117592,6.19424 -1.174952,2.043208 -3.699211,5.586835 -5.870856,6.497944 0.710436,0.324379 1.480726,0.88009 1.856762,1.630947 l -2.238004,4.586556 c -1.596529,-1.09333 -3.775981,4.965214 -5.663971,5.550649 0.640174,0.485924 1.639469,0.757319 2.347302,1.245828 l -0.412469,0.84649 c -1.037029,0.02585 -2.208077,-0.487218 -3.0577378,-0.807721 0.04424,1.134686 0.6622928,2.131088 1.1190018,3.162385 l -0.59203,0.05169 c -3.2216838,0.283025 -5.6015158,3.106813 -5.3152588,6.305382 0.269341,3.025396 2.824829,5.303811 5.8253158,5.303811 0.173054,0 0.348712,-0.0077 0.523068,-0.02326 l 3.870966,-0.341181 c -0.03773,0.832275 -0.192572,1.636117 -0.965465,2.547225 1.03833,-0.771534 1.763079,-1.636117 2.264027,-2.690675 0.500949,-0.08271 0.98238,-0.228747 1.436487,-0.431647 -0.102793,1.254874 -0.448902,2.449007 -1.358416,3.471257 1.937434,-1.366016 3.952939,-4.135525 4.53586,-6.862386 l 0.389048,-0.794797 c 0.106696,0.784457 0.148334,1.584423 0.08588,2.397313 0.624559,-2.007022 1.713634,-4.57751 2.141718,-6.967068 l 4.801299,-9.841257 -1.826836,6.609086 c -0.179561,0.465247 -0.487937,2.053547 -0.753375,3.53329 -0.459311,0.806427 -0.90431,1.67101 -1.228299,2.427035 -0.875684,2.039331 -1.225698,4.64342 -1.066956,7.070455 0.09629,-1.24195 0.94855,-2.579533 1.912713,-3.47384 0.107996,0.351519 0.240715,0.693992 0.394253,1.030004 -0.18997,1.721412 -0.158742,3.983027 0.908213,4.646004 0.07286,-0.761196 0.265438,-1.607687 0.618053,-2.366296 0.753375,0.796089 1.6746,1.457772 2.742856,1.926895 l 3.101977,1.363432 -0.782,2.55627 c -1.528869,2.96207 -4.05443,6.413941 -5.39463,9.289423 1.121604,0.100803 2.102682,-0.338595 2.815721,-1.195425 0.02993,0.02197 0.05205,0.05041 0.08067,0.07367 l -1.808679,5.912508 -5.308754,6.265321 c -2.522958,1.005449 -4.90279,2.114287 -5.771968,5.200422 0.573814,-0.367028 1.246517,-0.600943 1.946544,-0.686238 l -3.716128,4.386235 c -2.292652,0.61646 -4.595715,1.12823 -5.1422038,2.67776 0.7859038,0.0401 1.6745998,0.17705 2.5945228,0.32826 l -1.268636,1.49653 c -3.0082928,3.5501 -2.5489818,8.84874 1.025318,11.83665 1.586121,1.32467 3.519652,1.97213 5.441472,1.97213 2.409758,0 4.8026,-1.01708 6.475898,-2.9905 l 2.379832,-2.80827 c 0.294063,0.52986 0.532176,1.08557 0.654485,1.67746 0.176959,-0.97701 0.350013,-2.03157 0.547791,-3.09647 l 3.958144,-4.67185 c 0.339603,1.3027 -0.130117,2.80441 0.438492,4.36428 0.646679,-2.25516 1.135917,-5.03113 2.208077,-7.2165 0.130117,-0.26493 0.261534,-0.50014 0.391651,-0.73406 l 1.510652,-1.78215 c 0.357821,1.05456 0.629764,2.23836 0.925128,2.85739 0.282354,-1.10367 1.069558,-3.57723 1.609542,-5.847894 l 1.80992,-2.13496 c 0.677907,1.514636 0.498346,3.662524 0.473624,5.124174 1.073462,-3.800806 2.286147,-6.994207 2.794902,-10.658024 l 4.695905,-15.349258 7.535046,3.311005 c -0.411167,3.14429 -1.30637,7.812264 0.774193,9.379887 0.231608,-1.201888 0.444999,-2.589873 0.919924,-3.818898 l 1.1164,5.377474 c 0.04554,1.01708 0.0065,2.062593 -0.21209,3.203738 -0.460613,2.403774 -0.467118,6.145133 0.602439,8.430016 0.448902,-1.49655 0.46972,-3.177897 1.108593,-4.432772 l 3.641961,17.516532 c 0.826239,3.97011 4.345891,6.70343 8.274107,6.70343 0.567309,0 1.141123,-0.0569 1.717538,-0.17576 4.574895,-0.93825 7.516835,-5.38135 6.573485,-9.92525 l -0.70263,-3.37693 c 0.79111,0.29337 1.56791,0.76637 2.13001,1.24971 -0.3357,-1.37894 -1.64598,-2.94397 -2.81052,-4.52582 l -0.68571,-3.30325 c 0.79631,0.55572 1.50154,0.80772 2.2341,1.892 -0.53608,-2.09102 -1.26864,-3.49064 -2.40325,-5.395563 -0.236814,-0.396751 -0.524372,-0.832274 -0.827544,-1.285889 L 74.813778,83.597817 c 0.968067,0.149913 1.845052,0.52728 2.481322,1.486204 -0.405964,-2.75917 -1.911412,-4.257006 -3.375222,-5.785857 l -0.623259,-2.998255 c 1.569205,0.435522 3.159229,0.842612 3.64066,2.014776 0.131417,-3.037026 -1.919219,-5.625607 -4.07655,-7.538287 -0.421577,-0.373489 -0.947248,-0.845198 -1.532772,-1.3518 -0.886094,-1.408663 -2.182054,-2.544639 -3.75256,-3.233463 l -3.61854,-1.5883 c 0.05595,-0.776703 0.450203,-1.486204 1.197072,-1.497835 -3.137109,0 -4.741446,0.254592 -7.086145,-1.641287 -1.402656,-1.134684 -2.515152,-1.570207 -3.994576,-1.725289 l 1.882786,-7.013591 c 0.744266,1.461649 0.979776,3.513903 1.331092,4.87475 0.0026,-2.333987 0.434588,-5.677301 0.06636,-7.888514 -0.07286,-0.435523 -0.158742,-0.854245 -0.248522,-1.265212 l 0.909514,-3.389839 c 0.247222,0.394167 0.498346,0.779289 0.802819,1.045513 0.300569,0.801258 1.001897,1.606392 1.039631,2.523962 -0.0091,-2.566609 -0.753375,-5.254701 -0.720846,-7.750232 l 0.107997,-0.404506 0.102792,-0.874922 c 0.244618,0.91757 0.714339,1.752429 1.357115,2.447714 0.09368,1.577961 0.404662,2.772095 1.32849,4.359102 0.106695,-0.684947 0.205584,-1.561161 0.541284,-2.256446 0.0039,1.47328 0.355218,2.554979 1.524965,3.556551 0.15614,-1.364723 -0.08717,-2.415404 0.01821,-3.506149 l 4.224882,2.14918 c 0.376038,1.24195 1.924424,3.547505 2.917213,3.587568 -0.01562,-0.743102 -0.10019,-1.46165 0.186067,-2.009607 l 2.724639,1.385401 c 0.651884,1.318199 1.237407,2.739785 2.133911,4.050229 -0.252427,-1.306566 0.195174,-2.016067 0.765084,-2.578241 l 2.089671,1.063606 3.06164,6.753829 c 0.97588,2.15435 3.10978,3.429901 5.34258,3.429901 0.80283,0 1.61866,-0.165421 2.39935,-0.513064 2.94974,-1.319491 4.26392,-4.762316 2.93673,-7.690784 l -2.03892,-4.501259 c 1.7956,0.453614 3.15923,-0.12019 4.76486,1.390569 -1.07736,-1.619316 -2.3564,-2.595041 -4.29775,-3.100351 z"
     id="path3"
     inkscape:connector-curvature="0"
     style="fill:#806600" /><path
     d="m 42.148031,7.2973852 c 0.631065,0.084004 1.241311,-0.1628367 1.858063,-0.4019221 0.157442,0.7676575 0.396856,1.5004209 0.703931,2.1969976 -0.202982,0.4187218 -0.395554,0.8400287 -0.48013,1.2910593 -0.202982,1.067482 0.226402,1.93465 0.657088,2.862559 0.200379,-0.68107 0.623258,-1.363431 1.164543,-1.89588 2.226293,2.892283 5.84093,4.634373 9.756135,4.290607 0.632366,-0.05557 1.242613,-0.174467 1.837245,-0.32955 0.05985,0.391583 0.08197,0.833567 0.117105,1.360847 0.863973,-0.312749 1.49634,-1.177333 2.025914,-2.162105 0.780698,-0.388997 1.505447,-0.865875 2.163837,-1.417709 0.04033,0.626791 0,1.28072 0.04684,1.960497 1.048739,-1.191548 1.482027,-2.414113 1.656383,-3.758158 0.713038,-0.939539 1.279045,-1.9876368 1.660287,-3.1171521 0.598536,0.2054838 1.117701,0.5453729 1.37403,1.1889633 0.09759,-1.6257773 -0.244619,-2.9375141 -0.822337,-4.1885103 0.02082,-0.4755858 0.02212,-0.955048 -0.02212,-1.4422644 C 65.739453,2.5557472 65.444089,1.440448 65.001692,0.40527438 65.519556,0.2708698 66.198764,0.21788334 66.993776,0.18686694 66.375723,-1.110654 64.310774,-2.3810354 62.738967,-2.9651783 c -0.797614,-0.8103044 -1.721442,-1.492666 -2.733748,-2.0264071 0.533478,-0.466539 1.359718,-0.9821873 1.660287,-1.106253 -1.164543,-0.8064273 -3.141013,-0.3734895 -4.941825,-0.00776 -0.835348,-0.1447433 -1.696719,-0.1964374 -2.576307,-0.1421586 -1.787801,-0.3515197 -3.470207,-1.1747475 -5.345186,-0.6216212 0.20038,0.7353482 0.969368,1.0403431 1.207482,1.702027 -0.709135,0.3437655 -1.376633,0.7534409 -1.989482,1.231611 -2.182054,0.8594138 -4.120789,2.4994078 -4.862453,4.60206362 C 43.578011,0.5771542 44.103682,0.50478221 44.62675,0.49573576 44.343096,1.1703433 44.129705,1.8785519 43.986577,2.6087305 42.863672,4.0018856 42.017914,5.7142508 42.148031,7.297382 Z"
     id="path5"
     inkscape:connector-curvature="0"
     style="fill:#554400" /></svg>