<svg
   xmlns:dc="http://purl.org/dc/elements/1.1/"
   xmlns:cc="http://creativecommons.org/ns#"
   xmlns:rdf="http://www.w3.org/1999/02/22-rdf-syntax-ns#"
   xmlns:svg="http://www.w3.org/2000/svg"
   xmlns="http://www.w3.org/2000/svg"
   xmlns:sodipodi="http://sodipodi.sourceforge.net/DTD/sodipodi-0.dtd"
   xmlns:inkscape="http://www.inkscape.org/namespaces/inkscape"
   version="1.1"
   id="Layer_1"
   x="0px"
   y="0px"
   width="93.759px"
   height="100px"
   viewBox="4.68795 -10.0 93.759 135.0"
   enable-background="new 0 0 93.759 100"
   xml:space="preserve"
   inkscape:version="0.91 r13725"
   sodipodi:docname="noun_29582_cc.svg"><metadata
     id="metadata19"><rdf:RDF><cc:Work
         rdf:about=""><dc:format>image/svg+xml</dc:format><dc:type
           rdf:resource="http://purl.org/dc/dcmitype/StillImage" /></cc:Work></rdf:RDF></metadata><defs
     id="defs17" /><sodipodi:namedview
     pagecolor="#ffffff"
     bordercolor="#666666"
     borderopacity="1"
     objecttolerance="10"
     gridtolerance="10"
     guidetolerance="10"
     inkscape:pageopacity="0"
     inkscape:pageshadow="2"
     inkscape:window-width="1246"
     inkscape:window-height="755"
     id="namedview15"
     showgrid="false"
     inkscape:zoom="5.83"
     inkscape:cx="46.879501"
     inkscape:cy="50"
     inkscape:window-x="34"
     inkscape:window-y="0"
     inkscape:window-maximized="1"
     inkscape:current-layer="Layer_1" /><path
     d="m 53.697493,70.901606 c -0.240311,0.283362 -0.479248,0.565307 -0.719559,0.848669 0.256789,-0.283362 0.4971,-0.565307 0.736037,-0.848669 l -0.01648,0 z"
     id="path3"
     inkscape:connector-curvature="0" /><path
     d="M 109.14477,112.78816 C 103.59428,102.37887 94.362219,92.128248 86.945538,83.873915 81.772674,78.130169 77.301517,73.16425 75.760781,69.965095 74.733623,67.827129 73.757275,66.253053 73.054193,65.12244 c -1.455597,-2.350487 -1.404789,-2.50917 -0.925539,-2.915794 0.240311,0 0.60009,0.14168 1.010678,0.388205 0,0 3.854588,3.074477 4.059195,3.251578 1.558587,1.413976 1.987028,1.78518 2.518458,1.78518 l 0.770368,-0.423626 c 0.29112,-0.459046 0.08514,-0.99035 0,-1.184453 C 68.530855,37.110697 45.646391,22.599732 43.831014,21.48612 42.923326,20.514189 34.666242,11.535866 28.243761,4.0961991 28.878183,3.7079934 36.551653,1.7627128 37.51015,0.70293938 c 0.873359,-0.99034981 2.706587,-4.17108718 1.833229,-5.86700838 -0.70308,-1.3785558 -3.238018,-1.413976 -3.529137,-1.413976 -0.32545,0 -0.600091,0.017002 -0.82255,0.070841 C 9.246841,-1.1870844 3.421705,7.6495576 3.1827668,8.0207616 c 0,0 -0.7360376,1.8021813 -0.9076886,1.8730226 -2.94552521,1.3615538 -8.7020014,11.1162878 -8.7020014,11.1162878 0,0 6.64631334,1.626498 11.2712686,2.085544 0.4284394,0.406624 1.0793395,1.113612 1.7302385,2.050123 0.7538889,3.799884 1.3869366,7.370244 1.6107689,9.508209 2.4154682,23.064244 17.0098932,32.218251 29.5829602,35.788612 -1.524258,1.025769 -12.487928,8.058813 -14.097325,8.836641 -0.479249,0.229524 -4.471156,1.343135 -5.225045,1.802183 -1.027158,0.654565 -2.193009,1.520235 -1.90189,2.61543 0.240311,0.90109 1.267468,1.326134 3.254496,1.326134 0.03433,0 1.095819,0 1.489928,-0.123263 0.444919,-0.141681 5.772955,-2.792532 6.286534,-3.022055 0.153799,0.123262 1.61077,1.749761 2.328956,1.749761 l 0.39411,-0.07084 c 0.873358,-0.300364 1.010678,-1.326134 1.113669,-2.156383 0.03433,-0.264944 0.102989,-0.689988 0.13732,-0.77783 1.50778,-1.997701 8.033251,-5.602065 10.414389,-6.821938 l 1.6451,-2.033121 c 3.339634,0.565307 6.320863,0.794829 8.581159,0.865671 -2.603597,2.969632 -7.132428,9.460037 -8.792633,10.944854 -0.39411,0.352785 -3.956204,2.527588 -4.556294,3.199156 -0.839029,0.884088 -1.627249,1.943863 -1.23314,2.880373 0.171651,0.406625 0.565762,0.865671 1.592919,0.865671 1.21666,0 3.014185,-0.654566 3.357486,-0.865671 0.394111,-0.264942 1.50778,-1.255293 3.272349,-2.863371 0.804697,-0.742409 1.576439,-1.430979 2.004879,-1.785181 0.18813,0.08785 0.479249,0.264944 0.667378,0.388206 0.839028,0.529887 1.746717,0.936511 2.397616,0.477465 0.75389,-0.529887 0.616569,-1.555657 0.513579,-2.385908 -0.03433,-0.264942 -0.08514,-0.689986 -0.06867,-0.79483 0.547909,-1.395557 4.18553,-7.00329 6.241218,-9.124254 4.196514,4.594714 19.11639,21.59643 32.065714,45.384663 0.719559,1.30913 2.431947,1.9807 5.053395,1.9807 5.019067,0 12.623876,-2.56301 14.337636,-5.56665 0.63305,-1.09661 0.41058,-2.0147 0.10165,-2.58001 z M 2.9603072,11.518864 c 0.137321,-0.07084 3.5456157,1.74976 4.9160747,3.923146 l -11.0144786,3.445681 c 1.7645686,-2.755694 4.487635,-6.626418 6.0984039,-7.368827 z m 6.7657819,9.809991 c -0.5135781,0.106258 -1.1988082,0.158682 -2.0048795,0.158682 -2.8260556,0 -6.6806433,-0.654566 -9.3872303,-1.201455 L 8.7662192,17.016085 c 0.6000904,1.236875 1.2001808,4.25893 0.9598699,4.31277 z M 41.037915,72.29858 c -1.473449,0.75941 -8.90661,4.683973 -10.826351,7.228563 -0.325449,0.423626 -0.410588,1.007352 -0.497099,1.626497 -0.01648,0.106259 -0.03433,0.264944 -0.05081,0.406624 -0.102989,-0.123262 -0.205981,-0.229522 -0.29112,-0.318782 -0.53143,-0.583725 -1.079339,-1.201454 -1.781047,-1.201454 l -0.308972,0.03542 -0.153798,0.07084 c -0.428441,0.177101 -1.524258,0.723989 -2.688736,1.307715 -1.319651,0.654566 -3.288826,1.643499 -3.614277,1.732758 -0.13732,0.03541 -0.547908,0.07084 -1.027157,0.07084 -0.582239,0 -0.9942,-0.05242 -1.267468,-0.106258 0.171651,-0.141681 0.428439,-0.318782 0.804697,-0.548306 0.54791,-0.335784 1.678058,-0.654566 2.672259,-0.93651 0.907688,-0.264944 1.781047,-0.494467 2.381137,-0.794831 3.820257,-1.820599 13.515085,-8.394596 15.279654,-9.596051 l 1.987028,0.229524 -0.617942,0.793413 z m 8.712987,9.724981 c -0.18813,0.494468 -0.11947,1.078192 -0.03433,1.695921 0.01648,0.106258 0.03433,0.264944 0.05081,0.406624 -0.13732,-0.08785 -0.274641,-0.158682 -0.376258,-0.229522 -0.85688,-0.548306 -1.798899,-0.95493 -2.431947,-0.442045 -0.376258,0.300363 -1.28532,1.130614 -2.261669,2.014704 -1.095817,0.99035 -2.740917,2.492167 -3.014185,2.669269 -0.240311,0.123262 -1.404789,0.529886 -2.227339,0.600727 0.119469,-0.177101 0.32545,-0.423626 0.616569,-0.75941 0.444919,-0.477465 1.455598,-1.095194 2.346808,-1.643499 0.804698,-0.494466 1.57644,-0.95493 2.090019,-1.413976 3.185835,-2.809534 12.338249,-15.009682 13.726559,-16.636179 0,0 1.678056,-0.745241 1.987028,-0.335784 0.152426,0.201188 -0.394111,0.936511 -0.394111,0.936511 -1.215286,1.149034 -8.877771,10.150025 -10.077952,13.136659 z m 57.818808,32.460529 c -1.251,2.1918 -8.101915,4.68397 -12.86419,4.68397 -1.884038,0 -3.169358,-0.38821 -3.545616,-1.09519 C 78.107589,94.16137 63.068245,76.982553 58.80307,72.334001 c 0.925541,-0.95493 1.746717,-1.74976 2.312477,-2.262645 0,0 1.371833,-2.640934 0.661885,-3.59303 -0.876104,-1.174535 -4.429959,0.16435 -4.429959,0.16435 0,0 -1.695908,2.014704 -3.648607,4.25893 l 0.01648,0 c -0.240311,0.283362 -0.256789,0.283362 -0.01648,0 -9.57536,-0.03542 -39.671897,-2.827952 -43.680284,-35.452827 2.072167,0.459046 6.731452,-0.671568 6.731452,-2.208806 0,-4.859658 -2.569267,-14.580389 -2.569267,-14.580389 l 1.712387,-1.326133 1.11367,-3.428679 c -0.497101,0.177101 -1.04501,0.300364 -1.6451,0.335784 -2.021358,0.106258 -3.682937,-0.794831 -3.751597,-2.014703 -0.05081,-1.219874 1.524258,-2.2980664 3.529137,-2.4029101 1.695909,-0.070842 3.151507,0.5653071 3.597798,1.5018191 0.29112,-0.512886 0.444918,-0.936512 0.153799,-1.059774 C 13.597155,8.1440236 8.0988415,8.1086035 5.1876462,8.2857052 7.0895357,6.1477389 14.454035,-0.46309436 35.334994,-4.7744464 c 0.119468,-0.017002 0.291119,-0.03542 0.479248,-0.03542 0.976348,0 1.867559,0.3003637 2.021358,0.4590464 0.274641,0.5298868 -0.685229,2.8449536 -1.592918,3.85230574 -0.600091,0.67156769 -2.997707,1.27229407 -4.744425,1.71433936 -2.979855,0.7594097 -4.693615,1.2552934 -5.053394,2.4383289 -0.08514,0.283362 -0.153799,0.8486694 0.376258,1.4493968 6.783634,7.8817123 16.050022,17.8503833 16.050022,17.8503833 0.240311,0.141682 22.370886,13.431357 34.840963,41.019473 0,0 -0.01648,-0.017 -0.03433,-0.03542 -0.01648,0 -37.290762,-29.196195 -37.290762,-29.196195 -0.376258,-0.300364 -0.907688,-0.212522 -1.198808,0.1771 -0.291119,0.388206 -0.20598,0.936512 0.171651,1.236875 l 31.604318,24.743164 c -1.627248,1.484816 -0.68523,3.040473 0.63442,5.160021 0.736039,1.184452 1.627249,2.65085 2.620076,4.683972 1.661579,3.428679 5.995415,8.252916 11.47725,14.332446 7.348021,8.182076 16.494942,18.344856 21.942442,28.560056 0.10165,0.1771 0.17029,0.42504 -0.0687,0.84866 z"
     id="path5"
     inkscape:connector-curvature="0" /><path
     d="m 53.697493,70.901606 c -0.240311,0.283362 -0.222459,0.283362 0.01648,0 l -0.01648,0 z"
     id="path7"
     inkscape:connector-curvature="0" /><path
     d="m 14.448542,10.770788 c 0.194996,0.177102 -0.561641,0.599311 -1.013426,1.129198 -0.451783,0.529887 -0.429813,0.967681 -0.624808,0.789163 -0.194995,-0.177101 -0.534177,-0.902507 -0.08239,-1.432394 0.451784,-0.529888 1.524257,-0.664484 1.720626,-0.485967 z"
     id="path9"
     inkscape:connector-curvature="0" /><path
     style="fill:#ffff00;fill-opacity:1;stroke:none;stroke-opacity:1"
     d="m -2.4681366,18.273261 c 0,-0.433986 3.5047807,-5.008673 4.49764,-5.870638 l 0.9321787,-0.809285 1.498335,0.95152 c 0.824082,0.523337 1.8904459,1.374009 2.3696972,1.890382 l 0.8713632,0.938861 -4.6871312,1.424568 c -2.57792239,0.783513 -4.8659951,1.493991 -5.0846076,1.578838 -0.2186107,0.08484 -0.3974753,0.03793 -0.3974753,-0.104245 z"
     id="path4153"
     inkscape:connector-curvature="0" /><path
     style="fill:#ffff00;fill-opacity:1;stroke:none;stroke-opacity:1"
     d="M 2.8342938,20.907525 C 1.1160631,20.666 -0.44085319,20.416424 -0.62552161,20.352913 -0.90151757,20.257984 7.5145252,17.484594 8.4770973,17.353264 c 0.3825098,-0.0522 1.2399372,2.985715 1.0140897,3.592957 -0.2171802,0.583928 -2.3142175,0.571738 -6.6568932,-0.03869 z"
     id="path4155"
     inkscape:connector-curvature="0" /><path
     style="fill:#ff9900;fill-opacity:1;stroke:none;stroke-opacity:1"
     d="m 91.773386,118.3173 c -0.371632,-0.33672 -1.715763,-2.45766 -2.986962,-4.71319 -6.853133,-12.15979 -17.86182,-27.664929 -27.45721,-38.671992 -1.160011,-1.330669 -2.10911,-2.521037 -2.10911,-2.64526 0,-0.12423 0.446897,-0.659476 0.993105,-1.189452 1.115663,-1.08251 1.86872,-2.659726 1.86872,-3.913875 0,-1.171131 -1.138822,-1.571654 -3.18277,-1.119386 -1.373269,0.303865 -1.814991,0.627975 -3.409213,2.501479 l -1.831531,2.152382 -3.687341,-0.191285 C 40.979368,70.060267 31.259369,66.822822 24.878196,62.16902 17.278217,56.626342 11.882692,47.288737 10.412435,37.134277 l -0.217775,-1.504075 1.538624,-0.05772 c 1.834621,-0.06884 4.351809,-0.873775 4.912585,-1.570927 0.530197,-0.659134 -0.01242,-5.256264 -1.303447,-11.043288 l -0.936402,-4.197381 0.911782,-0.887824 c 0.50148,-0.488303 1.138029,-1.607533 1.414553,-2.487174 l 0.502772,-1.599347 -1.198752,0.197773 c -1.385466,0.228581 -3.315916,-0.237975 -3.878494,-0.937365 -0.221079,-0.274842 -0.301652,-0.836815 -0.187349,-1.306694 0.28196,-1.159091 0.743589,-1.030649 0.574247,0.159786 -0.183955,1.293153 0.208622,1.243503 1.297147,-0.164051 l 0.888003,-1.148262 -0.888003,-0.03271 -0.888003,-0.03271 0.794953,-0.262671 c 1.39383,-0.460557 2.67782,-0.3471179 3.934073,0.347572 1.254943,0.693968 1.672075,0.664669 1.388592,-0.09753 C 18.740516,9.6196545 13.891863,8.4821095 8.5250997,8.0353755 L 5.6861791,7.7990603 7.412168,6.4586394 c 3.940284,-3.0600661 10.161123,-6.11630237 16.522894,-8.1175325 4.621467,-1.4537805 10.559847,-2.8449606 12.143973,-2.8449606 1.344355,0 1.518387,0.081309 1.518387,0.7093509 0,0.3901435 -0.360734,1.3444434 -0.801631,2.1206659 -0.735177,1.29431702 -0.992187,1.46798819 -3.100311,2.09498379 -6.304527,1.87508601 -6.591028,1.98709861 -7.089325,2.77174691 -0.681336,1.0728718 -0.439885,1.476304 3.630817,6.0666016 8.70628,9.8175706 12.283212,13.5225956 14.787867,15.3174316 9.688332,6.942662 19.038671,16.733848 25.462382,26.662866 2.669258,4.125823 6.721349,11.434323 6.478506,11.684876 -0.07065,0.07289 -8.336721,-6.291558 -18.369054,-14.143218 C 40.248652,34.421634 39.028333,33.58757 39.028333,35.406822 c 0,0.546533 3.561267,3.490976 15.813409,13.074467 13.819445,10.809417 15.774087,12.444884 15.501556,12.970284 -0.602223,1.161 -0.2935,2.174694 1.79816,5.904225 4.09508,7.301713 4.138079,7.358016 14.774321,19.345947 3.442087,3.879518 7.361919,8.382387 8.71074,10.00637 5.275531,6.351765 11.698811,15.829545 11.745811,17.331355 0.031,0.9886 -2.30005,2.51668 -5.5686,3.65047 -3.583688,1.24312 -8.978365,1.58055 -10.030344,0.62737 z"
     id="path4157"
     inkscape:connector-curvature="0" /><path
     style="fill:#996600;fill-opacity:1;stroke:none;stroke-opacity:1"
     d="m 28.71407,80.42065 c -0.50301,-0.421263 -1.032901,-0.582095 -1.510409,-0.458444 -1.168009,0.30246 -0.871166,-0.009 1.092827,-1.146382 1.005614,-0.582405 3.935702,-2.451543 6.511306,-4.153638 3.859992,-2.550886 4.865805,-3.076556 5.723652,-2.991352 0.985874,0.09791 0.889879,0.188361 -1.821093,1.71583 -5.339479,3.008471 -8.385947,5.378093 -8.963852,6.97232 L 29.488916,81.06957 28.71407,80.42065 Z"
     id="path4159"
     inkscape:connector-curvature="0" /><path
     style="fill:#996600;fill-opacity:1;stroke:none;stroke-opacity:1"
     d="m 48.61892,83.378323 c -0.321637,-0.192917 -0.929775,-0.282718 -1.351418,-0.199558 -0.984986,0.194272 -0.969278,-0.104026 0.05765,-1.094949 0.453353,-0.43745 2.976511,-3.526609 5.607017,-6.8648 5.284284,-6.705911 5.757297,-7.217709 6.670748,-7.217709 0.529135,0 0.408607,0.265384 -0.750683,1.65287 -7.164128,8.574332 -9.277547,11.559845 -9.277547,13.105899 0,1.08184 -0.08798,1.138748 -0.955772,0.618247 z"
     id="path4165"
     inkscape:connector-curvature="0" /><path
     style="fill:#996600;fill-opacity:1;stroke:none;stroke-opacity:1"
     d="m 18.845746,83.182743 c -0.128971,-0.0205 -0.239583,-0.04254 -0.245815,-0.04897 -0.02128,-0.02195 0.624517,-0.446828 0.890567,-0.585914 0.426,-0.222704 0.967038,-0.407973 2.511181,-0.85991 0.797932,-0.233538 1.611764,-0.48277 1.808514,-0.553848 1.497859,-0.541115 6.06416,-3.299586 12.079197,-7.296955 1.622624,-1.078335 1.87534,-1.247508 2.88983,-1.934511 l 0.898383,-0.608376 0.949879,0.107149 c 0.522434,0.05893 0.956553,0.11304 0.964714,0.120232 0.0082,0.0073 -0.114992,0.181075 -0.273684,0.386374 -0.274905,0.355675 -0.307485,0.383093 -0.690543,0.58118 -1.71136,0.884979 -4.371407,2.416355 -5.879955,3.385064 -0.36766,0.236093 -0.677277,0.420174 -0.688037,0.409073 -0.02422,-0.025 1.107632,-0.766107 2.091839,-1.369697 0.849062,-0.520709 1.60563,-0.96386 2.999828,-1.757125 1.225938,-0.697529 1.672731,-0.973959 1.83944,-1.138061 0.265975,-0.261812 0.136052,-0.336032 -0.586277,-0.334891 -0.492332,7.8e-4 -0.56118,0.01056 -0.834698,0.117554 -0.872543,0.341606 -1.757104,0.872169 -5.071133,3.041693 -2.991206,1.958189 -4.88997,3.166289 -6.2768,3.993653 -0.502808,0.299967 -1.039401,0.627898 -1.192428,0.728736 -0.280469,0.184823 -0.536593,0.409222 -0.536593,0.470149 0,0.05476 0.335658,0.03712 0.62356,-0.03274 0.624756,-0.151638 1.073808,0.008 1.859192,0.660702 0.261524,0.217361 0.48704,0.402563 0.501149,0.41156 0.01409,0.009 0.101961,-0.196112 0.195239,-0.455798 0.09327,-0.259686 0.175649,-0.465906 0.183046,-0.458267 0.0074,0.0077 -0.02087,0.186756 -0.06283,0.398053 -0.04196,0.211289 -0.08838,0.510796 -0.103166,0.665569 l -0.02688,0.281405 -0.581038,-0.585795 c -0.739403,-0.745457 -0.955429,-0.873102 -1.473281,-0.870527 -0.407362,0.0021 -0.203596,-0.08645 -3.042766,1.321307 -2.231077,1.106252 -3.067339,1.511343 -3.517661,1.703976 l -0.298107,0.127519 -0.834698,0.0088 c -0.459085,0.0047 -0.940219,-0.0078 -1.069186,-0.02842 z"
     id="path4169"
     inkscape:connector-curvature="0" /><path
     style="fill:#996600;fill-opacity:1;stroke:none;stroke-opacity:1"
     d="m 39.651683,88.509123 c 0.577347,-0.726912 0.971601,-1.032043 2.800125,-2.167149 1.831784,-1.13713 2.093175,-1.347679 3.413621,-2.749641 0.412793,-0.438277 0.736692,-0.759959 0.719772,-0.714848 -0.01687,0.04512 -0.03891,0.130752 -0.04889,0.190294 -0.02633,0.157223 0.167419,0.217888 0.511764,0.160245 0.13911,-0.0233 0.315534,-0.04045 0.392048,-0.03815 l 0.139112,0.0042 -0.165899,0.03383 c -0.3433,0.07004 -0.274158,0.01339 -2.874798,2.357813 -2.92595,2.637751 -2.785206,2.522463 -3.29338,2.697725 -0.602423,0.207771 -1.055233,0.325246 -1.611689,0.418138 l -0.15524,0.02591 0.173426,-0.218356 z"
     id="path4171"
     inkscape:connector-curvature="0" /><path
     style="fill:#996600;fill-opacity:1;stroke:none;stroke-opacity:1"
     d=""
     id="path4173"
     inkscape:connector-curvature="0" /></svg>