<svg
   xmlns:dc="http://purl.org/dc/elements/1.1/"
   xmlns:cc="http://creativecommons.org/ns#"
   xmlns:rdf="http://www.w3.org/1999/02/22-rdf-syntax-ns#"
   xmlns:svg="http://www.w3.org/2000/svg"
   xmlns="http://www.w3.org/2000/svg"
   xmlns:sodipodi="http://sodipodi.sourceforge.net/DTD/sodipodi-0.dtd"
   xmlns:inkscape="http://www.inkscape.org/namespaces/inkscape"
   version="1.1"
   x="0px"
   y="0px"
   width="100px"
   height="100px"
   viewBox="5.0 -10.0 100.0 135.0"
   enable-background="new 0 0 100 100"
   xml:space="preserve"
   id="svg2"
   inkscape:version="0.91 r13725"
   sodipodi:docname="bread.svg"><metadata
     id="metadata18"><rdf:RDF><cc:Work
         rdf:about=""><dc:format>image/svg+xml</dc:format><dc:type
           rdf:resource="http://purl.org/dc/dcmitype/StillImage" /></cc:Work></rdf:RDF></metadata><defs
     id="defs16" /><sodipodi:namedview
     pagecolor="#ffffff"
     bordercolor="#666666"
     borderopacity="1"
     objecttolerance="10"
     gridtolerance="10"
     guidetolerance="10"
     inkscape:pageopacity="0"
     inkscape:pageshadow="2"
     inkscape:window-width="1246"
     inkscape:window-height="755"
     id="namedview14"
     showgrid="false"
     inkscape:zoom="5.53"
     inkscape:cx="50"
     inkscape:cy="50"
     inkscape:window-x="34"
     inkscape:window-y="0"
     inkscape:window-maximized="1"
     inkscape:current-layer="svg2" /><g
     id="Captions" /><g
     id="Your_Icon"
     transform="matrix(1.3237283,0,0,1.3545667,-11.304113,-8.9399744)"><path
       d="m 71.396,40.649 c 3.669,2.475 5.366,5.021 6.645,9.355 0.256,0.856 0.435,2.166 0.269,3.124 C 76.071,48.017 71.277,44.113 66.258,42.366 60.691,40.428 54.66,41.11 50.517,42.682 c -2.988,1.13 -6.908,3.155 -9.575,6.146 4.866,1.093 8.296,2.536 11.381,7.212 0.744,1.135 0.64,1.854 1.004,2.644 -5.599,-5.213 -16.483,-9.246 -22.882,-5.239 -6.829,3.937 -9.726,10.134 -8.588,14.866 2.261,9.419 20.127,7.176 41.594,2.017 C 84.919,65.171 101.711,59.086 99.59,49.634 97.895,42.056 82.17,36.772 71.396,40.649 Z"
       id="path6"
       inkscape:connector-curvature="0"
       style="fill:#c17d11" /><g
       id="g8"><path
         d="m 28.801,50.707 c 2.228,-1.38 4.9,-2.081 7.941,-2.081 0.001,0 0.001,0 0.002,0 0.033,0 0.065,0 0.099,0 l 1.714,-1.922 c 3.41,-3.824 8.249,-6.032 10.826,-7.007 2.166,-0.822 4.614,-1.366 7.082,-1.59 -2.385,-4.665 -6.876,-8.229 -11.593,-9.872 -5.568,-1.937 -11.598,-1.255 -15.741,0.316 -2.988,1.13 -6.911,3.156 -9.575,6.148 4.866,1.092 8.295,2.535 11.382,7.212 0.743,1.133 0.639,1.854 1.003,2.644 C 26.343,39.34 15.458,35.308 9.059,39.315 2.23,43.25 -0.667,49.447 0.471,54.181 c 1.396,5.818 8.754,7.185 19.232,6.163 1.647,-3.709 4.802,-7.15 9.098,-9.637 z"
         id="path10"
         inkscape:connector-curvature="0"
         style="fill:#8f5902" /><path
         d="m 56.655,35.874 c 0.18,0.605 0.314,1.433 0.325,2.205 0.669,-0.049 1.34,-0.09 2.004,-0.09 2.588,0 5.076,0.358 7.413,1.066 l 3.917,-1.409 c 2.435,-0.877 5.13,-1.347 8.004,-1.451 -0.03,-0.229 -0.062,-0.459 -0.114,-0.692 -1.695,-7.576 -17.419,-12.862 -28.194,-8.984 3.669,2.475 5.367,5.023 6.645,9.355 z"
         id="path12"
         inkscape:connector-curvature="0"
         style="fill:#8f5902" /></g></g></svg>