<svg
   xmlns:dc="http://purl.org/dc/elements/1.1/"
   xmlns:cc="http://creativecommons.org/ns#"
   xmlns:rdf="http://www.w3.org/1999/02/22-rdf-syntax-ns#"
   xmlns:svg="http://www.w3.org/2000/svg"
   xmlns="http://www.w3.org/2000/svg"
   xmlns:sodipodi="http://sodipodi.sourceforge.net/DTD/sodipodi-0.dtd"
   xmlns:inkscape="http://www.inkscape.org/namespaces/inkscape"
   version="1.1"
   id="Calque_1"
   x="0px"
   y="0px"
   width="64.1025641026px"
   height="100px"
   viewBox="5.0 -15.6775 100.0 211.64625"
   enable-background="new 0 0 100 156.775"
   xml:space="preserve"
   inkscape:version="0.91 r13725"
   sodipodi:docname="bulb.svg"><metadata
     id="metadata9"><rdf:RDF><cc:Work
         rdf:about=""><dc:format>image/svg+xml</dc:format><dc:type
           rdf:resource="http://purl.org/dc/dcmitype/StillImage" /></cc:Work></rdf:RDF></metadata><defs
     id="defs7" /><sodipodi:namedview
     pagecolor="#ffffff"
     bordercolor="#666666"
     borderopacity="1"
     objecttolerance="10"
     gridtolerance="10"
     guidetolerance="10"
     inkscape:pageopacity="0"
     inkscape:pageshadow="2"
     inkscape:window-width="1246"
     inkscape:window-height="755"
     id="namedview5"
     showgrid="false"
     inkscape:zoom="2.36"
     inkscape:cx="32.051281"
     inkscape:cy="52.754237"
     inkscape:window-x="34"
     inkscape:window-y="0"
     inkscape:window-maximized="1"
     inkscape:current-layer="Calque_1" /><path
     style="fill:#cccccc"
     d="m 23.595528,139.14296 0,9.89095 61.797192,-10.95073 0,-9.87655 -61.797192,10.93633 z"
     id="path4147" /><path
     style="fill:#cccccc"
     d="m 23.595528,161.79696 61.797192,-10.94353 0,-9.88494 -61.797192,10.93993 0,9.88854 z"
     id="path4145" /><path
     style="fill:#cccccc"
     d="m 27.81301,163.92374 c 0,0.13082 -0.02627,0.24484 -0.02627,0.37086 0,2.40283 0.414116,4.70123 1.142261,6.88322 l 0,0 0,0.007 c 0.09258,0.25564 0.210186,0.50049 0.302768,0.74893 0.156388,0.42608 0.317781,0.85575 0.514205,1.25662 0.03253,0.0924 0.07007,0.18604 0.103842,0.26645 l 0.02002,-0.007 c 4.042328,8.64152 13.622055,14.7134 24.815712,14.7134 12.154507,0 22.421093,-7.15927 25.749038,-16.9854 l -37.702117,0 38.855639,-6.88322 3.804616,-0.66491 0,-9.89215 -6.031588,1.07299 -51.54812,9.11321 z"
     id="path4143" /><path
     style="fill:#f4e83b;fill-opacity:1"
     d="M 116.70793,51.017406 C 113.81537,20.982104 91.485612,0 54.486618,0 17.486371,0 -4.8421398,21.01451 -7.7422064,51.017406 c -2.3520816,30.36416 8.1997569,39.808628 22.2096554,59.390084 4.470206,6.19309 7.2877,12.94429 9.096802,19.29341 l 18.770362,0 c -1.02716,-4.13593 -0.684356,-8.13624 -1.971746,-11.67927 -1.675233,-4.82005 -3.742062,-9.57409 -5.546158,-14.49855 -2.434654,-6.650379 -4.682895,-13.860052 -4.6879,-21.21615 0,-3.140955 0.41787,-6.308314 1.421259,-9.432465 2.548505,-8.072625 9.704839,-11.682863 16.229363,-11.638455 0.661835,0 1.317417,0.03601 1.974247,0.108019 1.643955,-1.466659 3.581921,-2.602059 5.665014,-3.274178 1.865401,-0.585703 3.606943,-0.877355 5.235884,-0.877355 5.835164,-0.03361 9.654795,3.813073 11.634047,8.471096 2.058071,4.690428 2.7124,10.447844 2.717404,15.534342 0,2.231194 -0.128863,4.329164 -0.33905,6.153486 -1.040921,8.876767 -3.096491,17.64071 -5.124536,26.0638 -1.094718,4.39038 -3.912211,10.41304 -3.882185,14.7446 0,0.5545 0.0563,1.06099 0.148882,1.54228 l 19.594841,0 c 1.809101,-6.34912 4.625344,-13.10032 9.093049,-19.29341 C 108.51693,90.826034 119.06628,81.381566 116.70793,51.017406 Z"
     id="path4141" /><path
     style="fill:#fcf452;fill-opacity:0.94117647"
     d="m 66.317087,112.69989 c 2.020539,-8.40988 4.039826,-17.059807 5.055725,-25.704933 0.191419,-1.6995 0.322786,-3.690651 0.322786,-5.799423 0.0062,-4.809249 -0.670594,-10.255811 -2.460928,-14.300525 -1.85289,-4.075919 -4.387634,-6.495547 -8.577593,-6.526752 -1.211071,0 -2.607306,0.218438 -4.199966,0.722527 -0.907053,0.274849 -1.787832,0.687722 -2.619819,1.207414 4.448938,1.635888 7.894488,5.115303 7.929518,10.120186 0,2.069165 -0.605536,4.291958 -1.891673,6.621569 -1.351197,2.521645 -3.643225,3.889887 -5.947765,3.856281 -4.224989,-0.120021 -7.7406,-3.611438 -8.897874,-7.670554 -0.278997,-1.030982 -0.414117,-2.072766 -0.414117,-3.097747 0.02628,-2.77489 0.93833,-5.426158 2.449668,-7.693358 -5.1408,0.267647 -10.295362,3.008931 -12.345927,9.370054 -0.899545,2.786892 -1.272376,5.631394 -1.272376,8.503501 -0.005,6.724787 2.098107,13.616404 4.493978,20.16356 1.760308,4.80805 3.838397,9.57889 5.569929,14.53937 1.575144,4.66882 1.137256,9.04959 2.241984,12.69104 l 16.714793,0 c -0.06756,-0.51129 -0.118855,-1.02498 -0.118855,-1.54228 0.04253,-5.43336 3.065213,-11.57244 3.968512,-15.45993 z"
     id="path4139" /><path
     style="fill:#fce94f"
     d="m 53.928623,79.709671 c 1.035917,-0.03001 1.993013,-0.400871 3.015168,-2.163982 1.080958,-1.961146 1.510087,-3.664247 1.510087,-5.129705 -0.0088,-3.873084 -3.184067,-6.703184 -7.510397,-7.656152 -1.840378,2.085968 -3.03894,4.738437 -3.007662,7.3657 0,0.768136 0.09508,1.537472 0.299016,2.302007 0.705624,2.882909 3.715787,5.400953 5.693788,5.282132 z"
     id="path3" /></svg>