<svg
   xmlns:dc="http://purl.org/dc/elements/1.1/"
   xmlns:cc="http://creativecommons.org/ns#"
   xmlns:rdf="http://www.w3.org/1999/02/22-rdf-syntax-ns#"
   xmlns:svg="http://www.w3.org/2000/svg"
   xmlns="http://www.w3.org/2000/svg"
   xmlns:sodipodi="http://sodipodi.sourceforge.net/DTD/sodipodi-0.dtd"
   xmlns:inkscape="http://www.inkscape.org/namespaces/inkscape"
   version="1.1"
   id="Your_Icon"
   x="0px"
   y="0px"
   width="100px"
   height="100px"
   viewBox="5.0 -10.0 100.0 135.0"
   enable-background="new 0 0 100 100"
   xml:space="preserve"
   inkscape:version="0.91 r13725"
   sodipodi:docname="butterfly.svg"><metadata
     id="metadata9"><rdf:RDF><cc:Work
         rdf:about=""><dc:format>image/svg+xml</dc:format><dc:type
           rdf:resource="http://purl.org/dc/dcmitype/StillImage" /></cc:Work></rdf:RDF></metadata><defs
     id="defs7" /><sodipodi:namedview
     pagecolor="#ffffff"
     bordercolor="#666666"
     borderopacity="1"
     objecttolerance="10"
     gridtolerance="10"
     guidetolerance="10"
     inkscape:pageopacity="0"
     inkscape:pageshadow="2"
     inkscape:window-width="751"
     inkscape:window-height="480"
     id="namedview5"
     showgrid="false"
     inkscape:zoom="2.36"
     inkscape:cx="50"
     inkscape:cy="50"
     inkscape:window-x="0"
     inkscape:window-y="0"
     inkscape:window-maximized="0"
     inkscape:current-layer="Your_Icon" /><path
     d="m 110.23588,18.422835 c -20.283764,0 -47.800528,23.742562 -51.54863,38.521315 -0.818368,-1.689732 -1.94884,-2.89129 -2.964251,-3.545336 1.812206,-5.78258 10.572639,-13.234665 12.008021,-19.227619 0.156772,-0.652698 -1.28005,-1.268985 -1.459831,-0.596058 -1.892749,7.108204 -9.315602,13.401884 -10.910631,19.610606 -0.399836,-0.211722 -0.770906,-0.333092 -1.085884,-0.356018 l 0,-0.004 c -0.0187,0 -0.03596,0.0013 -0.05465,0.0013 -0.0187,0 -0.03596,-0.0013 -0.05465,-0.0013 l 0,0.004 c -0.314979,0.02293 -0.68605,0.142947 -1.085886,0.356018 -1.596467,-6.208722 -9.016443,-12.502402 -10.910629,-19.610606 -0.179783,-0.674276 -1.615164,-0.05664 -1.458394,0.596058 1.433943,5.992954 10.195814,13.446387 12.006583,19.227619 -1.013973,0.655395 -2.144444,1.855604 -2.962812,3.545336 C 46.007563,42.165397 18.489361,18.422835 -1.7944017,18.422835 c -6.7181058,0 -9.6895473,1.090976 -9.6895473,4.482578 0,9.812046 16.5931888,39.141649 22.592166,42.275678 2.483873,1.297304 5.603455,1.627699 8.510176,1.101765 -3.574072,2.763177 -6.168691,7.004365 -6.168691,12.828751 0,13.989849 10.362654,21.200543 20.542647,21.200543 11.001241,0 16.150207,-8.896374 16.150207,-30.889872 1.162113,2.664734 2.455107,5.449489 2.455107,10.297524 0,8.389329 -1.897063,19.033426 1.570579,19.254586 l 0,0.005 c 0.0187,0 0.03596,-0.003 0.05465,-0.004 0.0187,0.002 0.03596,0.004 0.05465,0.004 l 0,-0.007 c 3.467642,-0.22116 1.570579,-10.866615 1.570579,-19.25459 0,-4.848036 1.290117,-7.632791 2.453669,-10.297525 0,21.994847 5.148965,30.889877 16.150206,30.889877 10.179994,0 20.542645,-7.210697 20.542645,-21.200549 0,-5.823036 -2.594615,-10.065573 -6.167251,-12.828751 2.905283,0.525935 6.023431,0.19554 8.507298,-1.101765 5.997532,-3.134029 22.590732,-32.463631 22.590732,-42.275677 0,-3.391602 -2.97145,-4.48123 -9.68955,-4.48123 z"
     id="path3"
     inkscape:connector-curvature="0"
     style="fill:#b57edc" /></svg>