<svg
   xmlns:dc="http://purl.org/dc/elements/1.1/"
   xmlns:cc="http://creativecommons.org/ns#"
   xmlns:rdf="http://www.w3.org/1999/02/22-rdf-syntax-ns#"
   xmlns:svg="http://www.w3.org/2000/svg"
   xmlns="http://www.w3.org/2000/svg"
   xmlns:sodipodi="http://sodipodi.sourceforge.net/DTD/sodipodi-0.dtd"
   xmlns:inkscape="http://www.inkscape.org/namespaces/inkscape"
   version="1.1"
   id="Your_Icon"
   x="0px"
   y="0px"
   width="100px"
   height="100px"
   viewBox="5.0 -10.0 100.0 135.0"
   enable-background="new 0 0 100 100"
   xml:space="preserve"
   inkscape:version="0.91 r13725"
   sodipodi:docname="cabbage.svg"><metadata
     id="metadata9"><rdf:RDF><cc:Work
         rdf:about=""><dc:format>image/svg+xml</dc:format><dc:type
           rdf:resource="http://purl.org/dc/dcmitype/StillImage" /></cc:Work></rdf:RDF></metadata><defs
     id="defs7" /><sodipodi:namedview
     pagecolor="#ffffff"
     bordercolor="#666666"
     borderopacity="1"
     objecttolerance="10"
     gridtolerance="10"
     guidetolerance="10"
     inkscape:pageopacity="0"
     inkscape:pageshadow="2"
     inkscape:window-width="1246"
     inkscape:window-height="755"
     id="namedview5"
     showgrid="false"
     inkscape:zoom="2.36"
     inkscape:cx="50"
     inkscape:cy="50"
     inkscape:window-x="34"
     inkscape:window-y="0"
     inkscape:window-maximized="1"
     inkscape:current-layer="Your_Icon" /><path
     style="clip-rule:evenodd;fill:#73d216;fill-rule:evenodd"
     d="M -11.30695,53.963158 C -7.2761501,26.313069 10.039644,13.220083 29.757997,2.7682201 c -0.936419,2.536428 -0.160654,6.950989 -1.026154,9.5651439 1.425615,0.532984 5.62141,0.298217 7.187415,2.24773 0.906026,2.530085 0.693269,7.085821 -0.5138,9.002022 1.606531,0.866098 3.974354,0.896238 6.159815,1.124658 4.221846,2.94727 2.014675,12.150748 2.567554,17.440923 2.41269,23.118145 30.606578,25.327806 33.363731,45.005354 3.409898,24.337979 -21.38133,28.968269 -37.98504,19.128699 2.156515,-6.26096 5.596806,-11.119671 6.159816,-19.128699 C 42.637741,93.016869 39.811115,99.109689 35.40401,103.46874 30.776913,101.60329 27.330833,98.438699 23.596736,95.592949 28.131203,88.559477 32.073717,80.880395 34.377858,71.402494 30.199431,76.388108 24.905117,85.020532 18.978322,89.968075 14.181887,86.22609 12.612988,78.941986 9.7400473,73.090275 15.401982,66.916553 20.166575,59.764109 23.08583,50.584426 19.67159,54.908568 14.194914,61.845281 8.7138937,65.774446 5.6122777,58.05888 5.7685878,45.392598 7.6877413,36.520648 2.254484,46.805956 1.7508143,66.757926 6.1477872,78.715151 1.6972631,75.525182 -2.6591843,72.238453 -4.6318878,66.335982 -3.9053311,75.66636 1.7450258,84.474858 10.255295,87.150878 16.060515,96.728719 23.337664,104.69173 33.353152,109.65514 10.04688,106.32083 -7.5598258,91.865246 -11.30695,65.21291 c 0,-3.748331 0,-7.498248 0,-11.249752 z"
     id="path4141" /><path
     style="clip-rule:evenodd;fill:#adef6b;fill-rule:evenodd;fill-opacity:1"
     d="m 33.865505,10.643997 c 4.857222,0.06821 6.3031,5.758124 5.13366,10.688218 9.362745,0.0032 8.26712,11.367134 7.699768,20.816482 1.749816,0.414014 5.148135,-2.774367 8.212122,-1.124657 0.552878,-5.772399 3.626995,-8.776774 9.239722,-9.002023 0.662874,-4.71119 2.885965,-7.713981 7.185967,-8.438901 0.337227,-5.818399 2.034938,-10.147301 7.187415,-10.689802 C 68.809715,5.7154901 45.528048,4.3417881 33.865505,10.643997 Z"
     id="path4139" /><path
     style="clip-rule:evenodd;fill:#85e821;fill-rule:evenodd;fill-opacity:1"
     d="m 83.656372,3.8928781 c -1.83376,2.247729 -0.988523,8.1597179 0,10.6882159 -6.420333,0.279181 -10.619021,2.990098 -9.241168,11.816047 -2.632685,-0.450497 -3.896198,0.601193 -5.646015,1.124658 -1.241804,2.200142 -2.373612,4.524013 -2.052306,8.4389 -6.067186,-2.33656 -10.167457,1.846406 -9.239722,9.000436 -2.849782,-1.54343 -8.168701,-1.735367 -9.752074,1.127831 7.035446,20.689582 38.603047,22.566127 31.311425,53.441073 5.918111,-3.07417 9.731811,-8.456341 13.858135,-13.49906 -5.143793,-6.928781 -9.863519,-14.322337 -11.805829,-24.755165 3.996064,6.873262 8.432115,13.264302 14.373383,18.005632 1.486403,-3.85937 4.50263,-8.169237 4.106064,-11.816048 C 98.922756,61.512167 86.927326,53.41114 87.25008,44.961135 c 4.062641,5.114101 8.026863,10.331309 13.34434,14.063777 2.09427,-5.512251 0.98852,-16.16557 0,-21.939554 5.31312,10.35986 5.57075,29.117378 1.53995,41.068257 3.58792,-1.324527 8.50304,-6.054753 10.26587,-11.252925 0.77143,10.819876 -7.64911,15.039326 -13.85813,20.253361 -7.26702,6.105508 -11.493208,18.075429 -21.045552,20.816479 21.678033,-3.80861 38.361352,-17.965971 42.604902,-42.75762 0,-4.122689 0,-8.250136 0,-12.375996 C 116.73064,26.903158 98.19909,17.58547 83.656372,3.8928781 Z"
     id="path3" /></svg>