<svg
   xmlns:dc="http://purl.org/dc/elements/1.1/"
   xmlns:cc="http://creativecommons.org/ns#"
   xmlns:rdf="http://www.w3.org/1999/02/22-rdf-syntax-ns#"
   xmlns:svg="http://www.w3.org/2000/svg"
   xmlns="http://www.w3.org/2000/svg"
   xmlns:sodipodi="http://sodipodi.sourceforge.net/DTD/sodipodi-0.dtd"
   xmlns:inkscape="http://www.inkscape.org/namespaces/inkscape"
   version="1.1"
   id="Layer_1"
   x="0px"
   y="0px"
   width="100px"
   height="100px"
   viewBox="5.0 -10.0 100.0 135.0"
   enable-background="new 0 0 100 100"
   xml:space="preserve"
   inkscape:version="0.91 r13725"
   sodipodi:docname="candycane.svg"><metadata
     id="metadata11"><rdf:RDF><cc:Work
         rdf:about=""><dc:format>image/svg+xml</dc:format><dc:type
           rdf:resource="http://purl.org/dc/dcmitype/StillImage" /></cc:Work></rdf:RDF></metadata><defs
     id="defs9" /><sodipodi:namedview
     pagecolor="#ffffff"
     bordercolor="#666666"
     borderopacity="1"
     objecttolerance="10"
     gridtolerance="10"
     guidetolerance="10"
     inkscape:pageopacity="0"
     inkscape:pageshadow="2"
     inkscape:window-width="749"
     inkscape:window-height="480"
     id="namedview7"
     showgrid="false"
     inkscape:zoom="2.36"
     inkscape:cx="50"
     inkscape:cy="50"
     inkscape:window-x="0"
     inkscape:window-y="0"
     inkscape:window-maximized="0"
     inkscape:current-layer="Layer_1" /><g
     id="g3"
     transform="matrix(1.2771747,0,0,1.3410298,-9.3600029,-9.1547899)"><path
       d="m 16.151,47.758 c 1.541,-0.759 2.748,-2.133 3.065,-3.861 -3.367,-1.079 -7.234,-0.354 -10.074,2.224 1.826,2.502 4.738,2.755 7.009,1.637 l 0,0 z M 17.308,27.887 C 14.307,26.15 10.456,25.992 7.15,27.814 6.597,28.116 6.082,28.464 5.606,28.848 5.228,32.097 5.41,35.444 6.194,38.739 6.42,38.483 6.661,38.236 6.918,38 c 2.833,-2.627 6.72,-3.382 10.108,-2.315 -0.516,-2.628 -0.401,-5.298 0.282,-7.798 l 0,0 z M 28.453,16.34 C 28.419,12.542 26.215,8.888 22.489,7.135 22.204,7 21.915,6.879 21.625,6.772 c -0.446,0.203 -0.893,0.42 -1.333,0.652 -5.043,2.625 -8.931,6.589 -11.463,11.241 4.166,-1.524 8.839,-0.226 11.525,3.2 1.403,-1.766 3.194,-3.273 5.328,-4.386 0.903,-0.467 1.831,-0.848 2.771,-1.139 l 0,0 z m 16.46,3.616 c 2.488,-2.11 3.932,-5.411 3.57,-8.947 C 48.389,10.084 48.178,9.2 47.866,8.372 43.398,5.716 38.291,4.292 33.126,4.287 c 3.05,2.903 4.107,7.453 2.343,11.426 3.456,0.414 6.767,1.885 9.444,4.243 l 0,0 z m 11.433,19.042 c 4.143,-1.119 7.695,-4.026 8.746,-7.354 l -6.63,-12.413 c -0.379,-0.673 -0.783,-1.327 -1.206,-1.959 -0.234,3.971 -2.84,9.279 -6.46,11.341 l 5.55,10.385 0,0 z m 11.653,21.814 c 4.145,-1.137 7.697,-4.059 8.726,-7.396 L 70.116,41.049 c -1.169,2.409 -2.976,4.633 -5.197,5.79 -1.176,0.614 -2.401,1.088 -3.627,1.425 l 6.707,12.548 0,0 z m 11.839,22.167 c 4.167,-1.179 7.707,-4.16 8.654,-7.535 L 81.755,62.832 c -1.174,2.421 -2.989,4.667 -5.221,5.834 -1.164,0.604 -2.377,1.076 -3.587,1.413 l 6.891,12.9 0,0 z m 12.233,11.013 c 2.504,-1.303 4.067,-4.24 2.267,-7.604 l -0.803,-1.503 c -1.167,2.479 -3.01,4.789 -5.286,5.978 -1.109,0.579 -2.264,1.034 -3.419,1.368 1.868,2.728 4.916,2.974 7.241,1.761 l 0,0 z M 60.744,17.976 96.637,85.162 c 5.209,9.746 -9.316,17.35 -14.52,7.608 L 46.326,25.774 C 37.012,9.357 12.404,22.242 20.911,39.032 25.904,48.887 11.212,56.167 6.223,46.313 -1.429,31.21 4.194,12.87 19.091,5.111 33.995,-2.651 52.46,3.252 60.744,17.976 l 0,0 z"
       id="path5"
       inkscape:connector-curvature="0"
       style="fill:#ff4141" /></g></svg>