<svg
   xmlns:dc="http://purl.org/dc/elements/1.1/"
   xmlns:cc="http://creativecommons.org/ns#"
   xmlns:rdf="http://www.w3.org/1999/02/22-rdf-syntax-ns#"
   xmlns:svg="http://www.w3.org/2000/svg"
   xmlns="http://www.w3.org/2000/svg"
   xmlns:sodipodi="http://sodipodi.sourceforge.net/DTD/sodipodi-0.dtd"
   xmlns:inkscape="http://www.inkscape.org/namespaces/inkscape"
   version="1.1"
   id="Layer_1"
   x="0px"
   y="0px"
   width="100px"
   height="100px"
   viewBox="5.0 -10.0 100.0 135.0"
   enable-background="new 0 0 100 100"
   xml:space="preserve"
   inkscape:version="0.91 r13725"
   sodipodi:docname="chocolate.svg"><metadata
     id="metadata55"><rdf:RDF><cc:Work
         rdf:about=""><dc:format>image/svg+xml</dc:format><dc:type
           rdf:resource="http://purl.org/dc/dcmitype/StillImage" /></cc:Work></rdf:RDF></metadata><defs
     id="defs53" /><sodipodi:namedview
     pagecolor="#ffffff"
     bordercolor="#666666"
     borderopacity="1"
     objecttolerance="10"
     gridtolerance="10"
     guidetolerance="10"
     inkscape:pageopacity="0"
     inkscape:pageshadow="2"
     inkscape:window-width="1246"
     inkscape:window-height="755"
     id="namedview51"
     showgrid="false"
     inkscape:zoom="5.69"
     inkscape:cx="50"
     inkscape:cy="50"
     inkscape:window-x="34"
     inkscape:window-y="0"
     inkscape:window-maximized="1"
     inkscape:current-layer="Layer_1" /><g
     id="g3"
     transform="matrix(1.474624,0,0,1.662267,-18.392885,-24.423618)"><polygon
       points="84.641,44.45 74.59,52.193 74.59,52.326 74.414,52.327 73.459,53.064 73.459,53.064 73.218,53.249 73.2,53.264 60.168,63.305 60.168,75.314 94.24,45.099 94.24,37.053 85.479,43.803 85.536,44.065 85.242,43.985 84.641,44.449 "
       id="polygon5"
       style="fill:#5a3600" /><polygon
       points="85.355,43.229 94.078,36.508 88.995,32.361 83.917,36.614 "
       id="polygon7"
       style="fill:#5a3600" /><polygon
       points="67.57,32.078 67.57,32.079 66.436,32.763 83.551,36.228 88.376,32.188 71.782,29.537 "
       id="polygon9"
       style="fill:#996600" /><polygon
       points="79.256,38.961 79.038,39.14 82.904,42.804 84.832,43.325 83.4,36.739 65.846,33.186 63.95,36.318 78.656,38.859 "
       id="polygon11"
       style="fill:#996600" /><polygon
       points="83.716,43.573 84.25,44.08 84.598,43.812 "
       id="polygon13"
       style="fill:#5a3600" /><polygon
       points="73.324,43.805 74.516,51.579 83.825,44.407 82.637,43.282 82.637,43.282 78.623,39.479 "
       id="polygon15"
       style="fill:#5a3600" /><polygon
       points="54.113,40.148 72.964,43.413 78.016,39.29 60.466,36.319 58.062,37.766 58.008,37.799 58.008,37.799 57.999,37.805 56.48,38.746 56.479,38.748 56.318,38.848 56.314,38.845 "
       id="polygon17"
       style="fill:#996600" /><polygon
       points="71.359,51.268 74.006,51.736 72.805,43.925 53.477,40.577 51.102,43.858 67.064,47.586 "
       id="polygon19"
       style="fill:#996600" /><polygon
       points="72.156,51.948 73.047,52.712 73.686,52.219 "
       id="polygon21"
       style="fill:#5a3600" /><polygon
       points="58.954,53.188 60.109,62.678 72.618,53.042 71.146,51.782 71.146,51.782 71.07,51.719 66.917,48.159 "
       id="polygon23"
       style="fill:#5a3600" /><polygon
       points="66.746,31.956 63.833,28.721 57.225,32.162 58.116,37.112 60.359,35.764 63.387,36.225 65.521,32.694 "
       id="polygon25"
       style="fill:#5a3600" /><polygon
       points="43.199,46.709 43.196,46.709 39.376,49.009 58.618,52.771 66.264,47.944 50.766,44.324 50.766,44.325 48.168,43.718 43.615,46.457 "
       id="polygon27"
       style="fill:#996600" /><polygon
       points="63.08,28.515 47.688,25.773 41.313,28.993 56.887,31.74 "
       id="polygon29"
       style="fill:#996600" /><polygon
       points="6.336,50.911 5.76,50.777 5.76,62.964 59.637,75.57 59.637,63.385 32.715,57.086 32.717,57.085 31.253,56.742 30.912,57.059 30.91,56.664 "
       id="polygon31"
       style="fill:#996600" /><polygon
       points="33.663,56.761 59.593,62.828 58.43,53.275 38.767,49.431 35.521,54.093 35.52,54.093 "
       id="polygon33"
       style="fill:#996600" /><polygon
       points="39.057,32.388 52.262,34.379 56.361,38.171 57.63,37.406 56.701,32.247 40.625,29.411 "
       id="polygon35"
       style="fill:#996600" /><polygon
       points="48.08,43.151 50.541,43.728 52.895,40.476 52.609,40.428 53.174,40.088 53.175,40.087 53.24,40.049 55.887,38.455 52.109,34.961 45.151,39.272 45.151,44.907 47.956,43.226 47.987,43.206 "
       id="polygon37"
       style="fill:#5a3600" /><polygon
       points="44.833,38.845 51.389,34.782 38.608,32.855 34.864,32.292 28.15,35.674 "
       id="polygon39"
       style="fill:#996600" /><polygon
       points="43.34,46.003 44.62,45.226 44.62,39.344 27.458,36.083 25.194,39.618 37.968,41.91 38.036,41.923 43.147,46.12 43.321,46.014 43.321,46.014 "
       id="polygon41"
       style="fill:#996600" /><polygon
       points="31.366,56.021 35.147,53.698 38.463,48.938 42.664,46.41 37.894,42.493 29.729,47.099 "
       id="polygon43"
       style="fill:#5a3600" /><polygon
       points="12.43,43.579 29.387,46.682 37.148,42.303 24.195,39.98 24.197,39.979 20.985,39.401 "
       id="polygon45"
       style="fill:#996600" /><polygon
       points="31.864,56.34 33.107,56.631 34.39,54.787 "
       id="polygon47"
       style="fill:#5a3600" /><polygon
       points="29.206,47.188 11.686,43.983 5.993,50.286 30.841,56.102 "
       id="polygon49"
       style="fill:#996600" /></g></svg>