<svg
   xmlns:dc="http://purl.org/dc/elements/1.1/"
   xmlns:cc="http://creativecommons.org/ns#"
   xmlns:rdf="http://www.w3.org/1999/02/22-rdf-syntax-ns#"
   xmlns:svg="http://www.w3.org/2000/svg"
   xmlns="http://www.w3.org/2000/svg"
   xmlns:sodipodi="http://sodipodi.sourceforge.net/DTD/sodipodi-0.dtd"
   xmlns:inkscape="http://www.inkscape.org/namespaces/inkscape"
   version="1.1"
   id="Layer_1"
   x="0px"
   y="0px"
   width="90px"
   height="90px"
   viewBox="4.5 -9.0 90.0 121.5"
   enable-background="new 0 0 90 90"
   xml:space="preserve"
   inkscape:version="0.91 r13725"
   sodipodi:docname="clover.svg"><metadata
     id="metadata13"><rdf:RDF><cc:Work
         rdf:about=""><dc:format>image/svg+xml</dc:format><dc:type
           rdf:resource="http://purl.org/dc/dcmitype/StillImage" /></cc:Work></rdf:RDF></metadata><defs
     id="defs11" /><sodipodi:namedview
     pagecolor="#ffffff"
     bordercolor="#666666"
     borderopacity="1"
     objecttolerance="10"
     gridtolerance="10"
     guidetolerance="10"
     inkscape:pageopacity="0"
     inkscape:pageshadow="2"
     inkscape:window-width="1246"
     inkscape:window-height="755"
     id="namedview9"
     showgrid="false"
     inkscape:zoom="2.6222222"
     inkscape:cx="-26.885593"
     inkscape:cy="45"
     inkscape:window-x="34"
     inkscape:window-y="0"
     inkscape:window-maximized="1"
     inkscape:current-layer="Layer_1" /><g
     id="g3"
     transform="matrix(1.4659371,0,0,1.5370091,-18.56689,-15.559182)"><g
       id="g5"><path
         d="m 42.511,36.175 c 1.136,-2.413 -0.385,-5.507 -1.122,-8.07 -0.839,-2.925 -2.07,-5.918 -2.112,-8.52 -0.093,-6.101 4.474,-12.012 10.037,-13.368 6.115,-1.49 8.346,4.056 13.271,5.415 2.282,0.628 5.097,0.417 6.783,1.28 9.524,4.879 3.491,17.297 -3.333,20.983 -2.091,1.127 -4.346,2.306 -6.688,3.34 -1.96,0.863 -4.957,1.232 -6.026,3.638 1.709,1.292 4.672,-0.662 7.08,-1.569 2.611,-0.984 5.135,-2.179 7.438,-2.802 7.185,-1.937 19.616,2.521 16.941,12.253 -0.741,2.699 -3.236,4.095 -4.042,6.727 -0.575,1.883 0.01,3.863 -0.351,5.614 -1.102,5.295 -8.005,8.86 -13.767,7.1 -4.887,-1.493 -8.117,-5.492 -11.448,-10.757 -0.891,-1.41 -1.552,-3.633 -3.487,-4.168 -0.904,2.684 1.476,7.039 2.715,9.391 3.362,6.377 8.687,11.789 13.523,14.086 -1.472,1.192 -4.369,1.737 -6.39,2.68 C 55.11,75.026 51.108,64.379 47.605,54.809 c -2.087,1.035 -0.649,4.535 -0.322,6.422 1.354,7.755 0.735,17.768 -8.313,20.117 -5.994,1.558 -7.738,-2.363 -11.803,-5.145 -2.9,-1.984 -8.366,-1.461 -10.692,-5.837 -3.427,-6.456 1.349,-14.288 7.211,-17.238 2.206,-1.11 4.979,-1.874 7.439,-2.8 2.08,-0.783 4.749,-1.105 6.208,-3.16 -2.151,-1.678 -4.917,0.338 -6.781,0.91 C 23.096,50.369 16.914,51.459 11.645,48.072 8.337,45.942 5.5,40.649 7.218,36.314 c 0.825,-2.079 2.844,-3.621 4.015,-5.346 3.27,-4.819 0.846,-11.628 9.285,-13.908 4.625,-1.251 10.803,1.007 13.721,4.422 3.525,4.13 4.195,10.893 8.272,14.693 z"
         id="path7"
         inkscape:connector-curvature="0"
         style="fill:#4e9a06" /></g></g></svg>