<svg
   xmlns:dc="http://purl.org/dc/elements/1.1/"
   xmlns:cc="http://creativecommons.org/ns#"
   xmlns:rdf="http://www.w3.org/1999/02/22-rdf-syntax-ns#"
   xmlns:svg="http://www.w3.org/2000/svg"
   xmlns="http://www.w3.org/2000/svg"
   xmlns:sodipodi="http://sodipodi.sourceforge.net/DTD/sodipodi-0.dtd"
   xmlns:inkscape="http://www.inkscape.org/namespaces/inkscape"
   version="1.1"
   id="Calque_1"
   x="0px"
   y="0px"
   width="100px"
   height="100px"
   viewBox="5.0 -10.0 100.0 135.0"
   enable-background="new 0 0 100 100"
   xml:space="preserve"
   inkscape:version="0.91 r13725"
   sodipodi:docname="coffee.svg"><metadata
     id="metadata19"><rdf:RDF><cc:Work
         rdf:about=""><dc:format>image/svg+xml</dc:format><dc:type
           rdf:resource="http://purl.org/dc/dcmitype/StillImage" /></cc:Work></rdf:RDF></metadata><defs
     id="defs17" /><sodipodi:namedview
     pagecolor="#ffffff"
     bordercolor="#666666"
     borderopacity="1"
     objecttolerance="10"
     gridtolerance="10"
     guidetolerance="10"
     inkscape:pageopacity="0"
     inkscape:pageshadow="2"
     inkscape:window-width="1246"
     inkscape:window-height="755"
     id="namedview15"
     showgrid="false"
     inkscape:zoom="2.36"
     inkscape:cx="50"
     inkscape:cy="50"
     inkscape:window-x="34"
     inkscape:window-y="0"
     inkscape:window-maximized="1"
     inkscape:current-layer="Calque_1" /><g
     id="g3"
     transform="matrix(1.4506852,0,0,1.5838761,-15.847257,-20.325282)"><path
       d="m 7.239,80.486 c 0,3.455 2.774,6.25 6.203,6.25 l 72.635,0 c 3.428,0 6.202,-2.795 6.202,-6.25 l -85.04,0 z"
       id="path5"
       inkscape:connector-curvature="0"
       style="fill:#2e3436" /><path
       d="m 38.939,30.167 0.033,-0.051 c 0,0 7.251,-2.246 4.445,-10.664 -2.02,-6.061 -0.338,-9.013 -0.264,-9.134 l -0.033,0.051 c 0,0 -7.252,2.245 -4.445,10.663 2.02,6.062 0.337,9.013 0.264,9.135 z"
       id="path7"
       inkscape:connector-curvature="0"
       style="fill:#804d00" /><path
       d="m 47.652,30.167 0.033,-0.051 c 0,0 7.251,-2.246 4.445,-10.664 -2.02,-6.061 -0.338,-9.013 -0.264,-9.134 l -0.033,0.051 c 0,0 -7.252,2.245 -4.445,10.663 2.02,6.062 0.337,9.013 0.264,9.135 z"
       id="path9"
       inkscape:connector-curvature="0"
       style="fill:#804d00" /><path
       d="m 56.365,30.167 0.032,-0.051 c 0,0 7.251,-2.246 4.445,-10.664 -2.02,-6.061 -0.338,-9.013 -0.264,-9.134 l -0.033,0.051 c 0,0 -7.252,2.245 -4.445,10.663 2.021,6.062 0.338,9.013 0.265,9.135 z"
       id="path11"
       inkscape:connector-curvature="0"
       style="fill:#804d00" /><path
       d="m 28.299,35.251 c -1.267,0 -2.292,1.025 -2.292,2.292 l 0,28.969 c 0,5.527 4.473,10 10,10 l 27.503,0 c 5.527,0 10,-4.473 10,-10 l 0,-26.251 5.164,0 c 2.068,0 3.751,1.683 3.751,3.751 l 0,10 c 0,2.068 -1.683,3.751 -3.749,3.751 l -0.357,-0.014 c -1.322,0 -2.391,1.069 -2.391,2.391 l 0.008,2.622 2.738,10e-4 c 4.825,0 8.751,-3.926 8.751,-8.751 l 0,-10 c 0,-4.825 -3.926,-8.751 -8.751,-8.751 l -50.375,-0.01 z m 35.211,6.132 c 0,-0.69 0.559,-1.25 1.25,-1.25 0.689,0 1.25,0.56 1.25,1.25 l 0,23.88 c 0,0.69 -0.561,1.25 -1.25,1.25 -0.691,0 -1.25,-0.56 -1.25,-1.25 l 0,-23.88 z"
       id="path13"
       inkscape:connector-curvature="0"
       style="fill:#2e3436" /></g></svg>