<svg
   xmlns:dc="http://purl.org/dc/elements/1.1/"
   xmlns:cc="http://creativecommons.org/ns#"
   xmlns:rdf="http://www.w3.org/1999/02/22-rdf-syntax-ns#"
   xmlns:svg="http://www.w3.org/2000/svg"
   xmlns="http://www.w3.org/2000/svg"
   xmlns:sodipodi="http://sodipodi.sourceforge.net/DTD/sodipodi-0.dtd"
   xmlns:inkscape="http://www.inkscape.org/namespaces/inkscape"
   version="1.1"
   id="Layer_1"
   x="0px"
   y="0px"
   width="100px"
   height="66px"
   viewBox="4.937 -0.964 100.0 89.1"
   enable-background="new -0.063 5.636 100 66"
   xml:space="preserve"
   inkscape:version="0.91 r13725"
   sodipodi:docname="computer.svg"><metadata
     id="metadata11"><rdf:RDF><cc:Work
         rdf:about=""><dc:format>image/svg+xml</dc:format><dc:type
           rdf:resource="http://purl.org/dc/dcmitype/StillImage" /></cc:Work></rdf:RDF></metadata><defs
     id="defs9" /><sodipodi:namedview
     pagecolor="#ffffff"
     bordercolor="#666666"
     borderopacity="1"
     objecttolerance="10"
     gridtolerance="10"
     guidetolerance="10"
     inkscape:pageopacity="0"
     inkscape:pageshadow="2"
     inkscape:window-width="1246"
     inkscape:window-height="755"
     id="namedview7"
     showgrid="false"
     inkscape:zoom="7.31"
     inkscape:cx="54.409919"
     inkscape:cy="33"
     inkscape:window-x="34"
     inkscape:window-y="0"
     inkscape:window-maximized="1"
     inkscape:current-layer="Layer_1" /><path
     d="m 89.053216,5.9316891 -68.899649,0 c -1.633038,0 -2.954038,1.5253149 -2.954038,3.4109316 l 0,1.1343243 0,46.603941 c 0,1.88107 1.321,3.410931 2.954038,3.410931 l 0.985335,0 66.938821,0 0.974508,0 c 1.629099,0 2.954038,-1.529861 2.954038,-3.410931 l 0,-46.603941 0,-1.1343243 C 92.00708,7.457004 90.689205,5.9316891 89.053216,5.9316891 Z m -0.975493,50.0057789 -66.938821,0 0,-45.460523 66.938821,0 0,45.460523 z"
     id="path3"
     inkscape:connector-curvature="0" /><path
     d="M 92.112578,62.777517 C 91.51901,62.144431 90.362397,61.625006 89.55425,61.625006 l -69.895812,0 c -0.811105,0 -1.960826,0.519425 -2.554391,1.152511 L 5.3873173,75.25964 l 0,2.276605 c 0,0 0,3.410932 2.9540374,3.410932 l 92.5270253,0 c 2.95404,0 2.95404,-3.410932 2.95404,-3.410932 l 0,-2.276605 -11.709842,-12.482123 z m -50.441098,7.225355 25.865792,0 1.994295,3.709857 -29.855367,0 1.99528,-3.709857 z m 19.821876,6.400185 c 0,0.623992 -0.441973,1.133188 -0.982382,1.133188 l -11.812212,0 c -0.544346,0 -0.982382,-0.509196 -0.982382,-1.133188 l 0,-1.143417 13.775992,0 0,1.143417 z"
     id="path5"
     inkscape:connector-curvature="0" /><path
     style="fill:#deffff;fill-opacity:1;stroke:#b4e2ff;stroke-width:0.32603857;stroke-opacity:1"
     d="m 21.253042,33.154571 0,-22.593473 33.33456,0 33.334559,0 0,22.593473 0,22.593475 -33.334559,0 -33.33456,0 0,-22.593475 z"
     id="path4139"
     inkscape:connector-curvature="0" /><path
     style="fill:#ff3300;fill-opacity:1;stroke:#b4e2ff;stroke-width:0.32603857;stroke-opacity:1"
     d="m 40.213984,73.276436 c 0,-0.109339 0.357127,-0.891422 0.793614,-1.737959 l 0.793614,-1.539162 12.789218,0 12.789217,0 0.940871,1.737959 0.94087,1.73796 -14.523702,0 c -7.988035,0 -14.523702,-0.08947 -14.523702,-0.198798 z"
     id="path4141"
     inkscape:connector-curvature="0" /><path
     style="fill:#ff3300;fill-opacity:1;stroke:#b4e2ff;stroke-width:0.32603857;stroke-opacity:1"
     d="m 51.77502,77.38687 c 1.733016,-0.06207 4.485411,-0.06182 6.116432,5.6e-4 1.631023,0.06237 0.213099,0.113167 -3.150939,0.112856 -3.364038,-3.07e-4 -4.698511,-0.05135 -2.965493,-0.113415 z"
     id="path4143"
     inkscape:connector-curvature="0" /><path
     style="fill:#555753;fill-opacity:1;stroke:#b4e2ff;stroke-width:0.32603857;stroke-opacity:1"
     d="m 41.233313,71.740142 0.66269,-1.387501 12.691599,-1.9e-4 12.691598,-1.91e-4 0.69723,1.38769 0.697232,1.387691 -14.051521,0 -14.05152,0 0.662692,-1.387499 z"
     id="path4147"
     inkscape:connector-curvature="0" /><path
     style="fill:#555753;fill-opacity:1;stroke:#b4e2ff;stroke-width:0.32603857;stroke-opacity:1"
     d="m 53.90498,77.742017 c 0.549669,-0.07736 1.375387,-0.07577 1.83493,0.0036 0.459543,0.07931 0.0099,0.142606 -0.999397,0.140655 -1.009212,-0.002 -1.385201,-0.06684 -0.835533,-0.144202 z"
     id="path4149"
     inkscape:connector-curvature="0" /><path
     style="fill:#babdb6;fill-opacity:1;stroke:#b4e2ff;stroke-width:0.05763602;stroke-opacity:1"
     d="m 48.251416,77.365491 c -0.391727,-0.235193 -0.530684,-0.632619 -0.531154,-1.519146 l -3.02e-4,-0.568377 6.865892,0 6.865892,0 0,0.713625 c 0,0.832311 -0.07681,1.060978 -0.448301,1.334762 -0.220961,0.162844 -0.227358,0.163674 -1.261834,0.163674 -0.965673,0 -1.042018,-0.0081 -1.07162,-0.114136 -0.04859,-0.174036 -0.414538,-0.192223 -3.867889,-0.192223 -3.459846,0 -3.815941,0.01772 -3.856013,0.191888 -0.02474,0.107548 -0.100989,0.11431 -1.261313,0.11175 -1.114855,-0.0025 -1.25427,-0.01431 -1.433358,-0.121817 z"
     id="path4155"
     inkscape:connector-curvature="0" /><path
     style="fill:#babdb6;fill-opacity:1;stroke:#b4e2ff;stroke-width:0.05763602;stroke-opacity:1"
     d="m 53.801951,77.991936 c -0.184974,-0.03513 -0.218722,-0.06551 -0.233355,-0.210038 l -0.01711,-0.168976 -1.264967,0 c -1.186273,0 -1.268378,-0.0072 -1.319795,-0.116436 -0.131386,-0.279025 -0.10017,-0.281696 3.53278,-0.302384 3.487256,-0.01986 4.034013,-0.0012 4.15976,0.141688 0.0395,0.04491 0.130512,0.09421 0.202238,0.109575 0.10696,0.02291 0.09939,0.02944 -0.04211,0.0363 -0.09487,0.0046 -0.187547,0.03603 -0.205924,0.06982 -0.02078,0.0382 -0.525089,0.06145 -1.333497,0.06145 -1.093384,0 -1.295458,0.01371 -1.270984,0.0862 0.01601,0.0474 -0.0028,0.135598 -0.04151,0.19598 -0.06248,0.09711 -0.179087,0.111401 -1.009952,0.123842 -0.516628,0.0077 -1.036635,-0.0045 -1.155572,-0.02701 z"
     id="path4157"
     inkscape:connector-curvature="0" /><path
     style="fill:#babdb6;fill-opacity:1;stroke:#b4e2ff;stroke-width:0.05763602;stroke-opacity:1"
     d="m 53.749144,77.925504 c -0.05878,-0.0261 -0.12068,-0.114025 -0.137562,-0.195383 l -0.0307,-0.147923 -1.236735,-0.01655 c -0.836162,-0.01119 -1.261118,-0.03954 -1.312017,-0.08755 -0.19368,-0.182694 0.126916,-0.203173 3.499652,-0.22353 3.304166,-0.01995 3.949294,-0.0017 4.110452,0.116025 0.183981,0.134432 -0.112874,0.179026 -1.197855,0.179942 -1.293598,0.0011 -1.432105,0.02122 -1.474722,0.214203 -0.02445,0.110668 -0.08107,0.146313 -0.282241,0.177654 -0.346869,0.05404 -1.807217,0.04132 -1.938279,-0.01689 z"
     id="path4159"
     inkscape:connector-curvature="0" /><path
     style="fill:#babdb6;fill-opacity:1;stroke:#b4e2ff;stroke-width:0.05763602;stroke-opacity:1"
     d="m 53.730923,77.8087 c -0.05757,-0.06544 -0.113797,-0.147736 -0.124948,-0.182895 -0.01265,-0.03989 -0.483142,-0.08068 -1.251704,-0.108505 -0.677288,-0.02452 -1.242113,-0.06424 -1.255169,-0.08823 -0.01305,-0.02402 0.212662,-0.06145 0.501594,-0.08319 0.670732,-0.05049 6.513937,-0.05129 6.781947,-9.35e-4 0.447519,0.08409 0.08863,0.145242 -0.867112,0.147774 -1.169469,0.0032 -1.448339,0.04748 -1.583991,0.252102 -0.09372,0.141384 -0.118262,0.14505 -1.095908,0.163742 -0.929551,0.01778 -1.007411,0.01069 -1.104709,-0.09985 z"
     id="path4161"
     inkscape:connector-curvature="0" /></svg>