<svg
   xmlns:dc="http://purl.org/dc/elements/1.1/"
   xmlns:cc="http://creativecommons.org/ns#"
   xmlns:rdf="http://www.w3.org/1999/02/22-rdf-syntax-ns#"
   xmlns:svg="http://www.w3.org/2000/svg"
   xmlns="http://www.w3.org/2000/svg"
   xmlns:sodipodi="http://sodipodi.sourceforge.net/DTD/sodipodi-0.dtd"
   xmlns:inkscape="http://www.inkscape.org/namespaces/inkscape"
   version="1.1"
   id="Layer_1"
   x="0px"
   y="0px"
   width="100px"
   height="100px"
   viewBox="5.0 -10.0 100.0 135.0"
   enable-background="new 0 0 100 100"
   xml:space="preserve"
   inkscape:version="0.91 r13725"
   sodipodi:docname="crane.svg"><metadata
     id="metadata15"><rdf:RDF><cc:Work
         rdf:about=""><dc:format>image/svg+xml</dc:format><dc:type
           rdf:resource="http://purl.org/dc/dcmitype/StillImage" /></cc:Work></rdf:RDF></metadata><defs
     id="defs13" /><sodipodi:namedview
     pagecolor="#ffffff"
     bordercolor="#666666"
     borderopacity="1"
     objecttolerance="10"
     gridtolerance="10"
     guidetolerance="10"
     inkscape:pageopacity="0"
     inkscape:pageshadow="2"
     inkscape:window-width="1246"
     inkscape:window-height="755"
     id="namedview11"
     showgrid="false"
     inkscape:zoom="5.69"
     inkscape:cx="50"
     inkscape:cy="51.142355"
     inkscape:window-x="34"
     inkscape:window-y="0"
     inkscape:window-maximized="1"
     inkscape:current-layer="Layer_1" /><g
     id="g3"
     transform="matrix(1.4558258,0,0,1.4892999,-18.154695,-9.8593623)"><path
       d="m 11.843,47.861 0,-26.584 c 0,-0.004 -0.002,-0.007 -0.002,-0.012 0.072,-0.05 0.146,-0.103 0.213,-0.17 l 0.317,-0.317 37.628,37.628 c -0.104,0.31 -0.205,0.614 -0.303,0.909 l 0,0.364 0,5.286 0,0.909 0,1.095 c 0,1.041 0.804,1.885 1.794,1.885 l 36.086,0 c 0.991,0 1.794,-0.844 1.794,-1.885 l 0,-7.29 c 0,-1.043 -0.803,-1.885 -1.794,-1.885 l -17.747,0 0,-3.663 c 0,-1.23 -0.43,-2.226 -0.96,-2.226 l -15.658,0 L 17.254,15.896 17.66,15.49 c 0.348,-0.348 0.473,-0.786 0.281,-0.979 L 16.396,12.967 C 16.204,12.774 15.765,12.9 15.417,13.248 L 9.812,18.854 C 9.463,19.2 9.337,19.639 9.53,19.831 l 1.545,1.544 c 0.007,0.007 0.019,0.006 0.027,0.013 l 0,26.473 c -2.564,0.19 -4.586,2.326 -4.586,4.938 0,2.739 2.219,4.959 4.957,4.959 2.738,0 4.957,-2.22 4.957,-4.959 0,-2.612 -2.022,-4.748 -4.587,-4.938 z m 8.323,-27.403 0,-0.244 0,0 0,0.244 0,2.988 -3.272,0 0,0.389 0,0 0,-0.389 0,-3.232 3.029,0 0.243,0.244 z m -4.05,-1.022 -2.302,0 2.302,-2.303 0,-0.099 0,0 0,0.099 0,2.303 z m -0.001,4.399 0,-0.962 -2.658,-2.658 0,0 2.658,0 0,2.658 0,0.962 0,0 z m 0.389,0.389 0,-0.389 0,0 0,0 0,0.389 0.962,0 2.699,0 0,2.7 -2.7,-2.699 -0.961,0 z m 11.414,3.985 0,-0.047 0,0 0,0.047 0,2.989 0,0 -3.075,0 0,0.39 0,0 0,-0.39 0,-3.035 3.029,0 0,0 0.046,0.046 z m 0.777,6.955 0,-3.188 0,0 2.989,0 0.159,0.159 0,-0.159 0,0 0,0.159 0,3.028 0.778,0 -0.001,-2.25 2.249,2.248 -2.249,0.002 -0.778,0 -3.147,0.001 0,0.389 0,0 0,-0.389 z m -4.631,-4.342 -2.66,-2.66 2.66,0 0,2.66 z m 3.853,4.731 0,-0.877 -2.699,-2.699 2.7,0 0,2.699 0,0.877 -10e-4,0 z m 0.389,0.389 0,-0.389 0,0 0,0.389 0,0 z m 0.878,0 2.66,0 10e-4,2.661 0,0 -2.661,-2.661 0,0 z m 7.429,7.224 0,-3.232 -0.778,0 -10e-4,2.66 0,0 -2.66,-2.66 0,0 2.66,0 0.778,-10e-4 3.028,0 0.245,0 0,0 0,0 -0.246,0 0.246,0.245 0,2.988 0,0.778 -10e-4,2.699 -2.699,-2.699 2.7,0 0,-0.779 -3.272,0 z m 7.171,0.91 0,3.027 0,0 -3.121,0 0,0.389 0,0 0,-0.389 0,-3.158 2.989,0 0.132,0.131 z m -3.509,3.417 0,0 0,0 0,0.389 0,0 0,-0.389 z m 3.509,0.389 0,2.661 -2.662,-2.661 2.662,0 z m 0.39,3.424 0,0 0,0 0,0.39 0,0 0,-0.39 z m 3.463,3.966 0,-0.877 -2.7,-2.7 2.701,0 0,-0.779 -3.075,0 0,0.389 0,0 0,-0.389 0,-3.035 0,0 3.028,0 0.047,0.047 0,2.988 0,0.778 0,2.7 0,0.878 -10e-4,0 z m 3.926,-3.417 0,-0.16 0,0 0,0.16 0,2.101 c -0.109,0.29 -0.224,0.602 -0.342,0.927 l -2.806,0 0,-3.188 2.989,0 0.159,0.16 z m -3.537,3.807 0,-0.39 0,0 0,0.39 0,0 z m 0.877,0 2.04,0 c -0.174,0.49 -0.351,1 -0.526,1.514 l -1.514,-1.514 z m 8.496,-2.147 0,5.058 c 0,0.155 -0.124,0.28 -0.279,0.28 l -5.247,0 c -0.156,0 -0.28,-0.125 -0.28,-0.28 l 1.656,-5.058 c 0,-0.155 0.127,-0.279 0.28,-0.279 l 3.591,0 c 0.155,-10e-4 0.279,0.123 0.279,0.279 z m -5.057,-1.369 c 0,0 0,0 0,0 l 0,-0.84 0,0 0,0.84 z m -0.389,-1.229 0,0.389 -0.001,0 0.001,-0.389 -1.327,0 -2.21,0 0,-2.21 2.21,2.21 1.327,0 z m -7.391,-3.814 0,0 0,-2.25 2.25,2.25 -2.25,0 z m -0.389,-3.158 0,0 0,-0.39 0,0 0,0.39 z m -3.508,-4.401 0,1.411 2.21,2.211 -2.211,0 0,-2.211 10e-4,-1.411 0,0 z m -4.051,-0.389 -0.778,0 0,0 -3.213,0 0,0 -10e-4,-3.214 0,0 3.028,0 0,0 0.186,0.187 -10e-4,3.028 0.779,-10e-4 0,-2.25 2.25,2.25 -2.25,0 z m -7.918,-11.383 0,1.215 2.21,2.21 0,0 -2.21,0 0,-2.21 0,-1.215 0,0 z m -1.604,-0.389 1.215,0 0,0.389 0,0 0,-0.388 -1.215,-0.001 -2.25,0.001 -0.778,0 -3.121,0 0,-0.001 0,-3.159 2.989,0 0.131,0.132 0,3.027 0.778,0 0,-2.25 0,-1.298 0,0 0,1.298 2.251,2.25 z m -6.537,-7.948 0,0.389 0.389,0 0,1.411 2.21,2.21 1.299,0 0,0 -1.299,0 -2.211,0 0,-2.21 0,-1.411 -0.389,0 0,0.389 0,0 0,-0.389 0.001,-0.389 0,0 z m -3.661,0 0,-2.25 0,0 2.25,2.251 -2.25,0 z"
       id="path5"
       inkscape:connector-curvature="0"
       style="fill:#0bb20b" /><path
       d="m 89.792,71.821 -40.256,0 c -0.808,0 -1.463,0.71 -1.463,1.588 l 0,2.269 c 0,0.879 0.655,1.588 1.463,1.588 l 40.256,0 c 0.808,0 1.462,-0.709 1.462,-1.588 l 0,-2.269 c 0,-0.878 -0.654,-1.588 -1.462,-1.588 z"
       id="path7"
       inkscape:connector-curvature="0"
       style="fill:#803300" /><path
       d="m 91.114,69.892 -43.031,0 c -1.307,0 -2.371,1.063 -2.371,2.371 l 0,4.563 c 0,1.307 1.063,2.37 2.371,2.37 l 43.031,0 c 1.307,0 2.37,-1.063 2.37,-2.37 l 0,-4.563 c 0,-1.308 -1.063,-2.371 -2.37,-2.371 z m 1.616,6.934 c 0,0.891 -0.726,1.616 -1.616,1.616 l -43.031,0 c -0.891,0 -1.616,-0.726 -1.616,-1.616 l 0,-4.563 c 0,-0.891 0.725,-1.616 1.616,-1.616 l 43.031,0 c 0.891,0 1.616,0.726 1.616,1.616 l 0,4.563 z"
       id="path9"
       inkscape:connector-curvature="0"
       style="fill:#504416;fill-opacity:0.94117647" /></g></svg>