<svg
   xmlns:dc="http://purl.org/dc/elements/1.1/"
   xmlns:cc="http://creativecommons.org/ns#"
   xmlns:rdf="http://www.w3.org/1999/02/22-rdf-syntax-ns#"
   xmlns:svg="http://www.w3.org/2000/svg"
   xmlns="http://www.w3.org/2000/svg"
   xmlns:sodipodi="http://sodipodi.sourceforge.net/DTD/sodipodi-0.dtd"
   xmlns:inkscape="http://www.inkscape.org/namespaces/inkscape"
   version="1.1"
   id="Your_Icon"
   x="0px"
   y="0px"
   width="100px"
   height="100px"
   viewBox="5.0 -10.0 100.0 135.0"
   enable-background="new 0 0 100 100"
   xml:space="preserve"
   inkscape:version="0.91 r13725"
   sodipodi:docname="donut.svg"><metadata
     id="metadata27"><rdf:RDF><cc:Work
         rdf:about=""><dc:format>image/svg+xml</dc:format><dc:type
           rdf:resource="http://purl.org/dc/dcmitype/StillImage" /></cc:Work></rdf:RDF></metadata><defs
     id="defs25" /><sodipodi:namedview
     pagecolor="#ffffff"
     bordercolor="#666666"
     borderopacity="1"
     objecttolerance="10"
     gridtolerance="10"
     guidetolerance="10"
     inkscape:pageopacity="0"
     inkscape:pageshadow="2"
     inkscape:window-width="1246"
     inkscape:window-height="755"
     id="namedview23"
     showgrid="false"
     inkscape:zoom="5.69"
     inkscape:cx="50"
     inkscape:cy="50"
     inkscape:window-x="34"
     inkscape:window-y="0"
     inkscape:window-maximized="1"
     inkscape:current-layer="Your_Icon" /><g
     id="g3"
     transform="matrix(1.2942004,0,0,1.3467622,-10.676626,-11.881168)"><path
       id="path7"
       style="fill:#9ade00"
       d="m 15.203,55.379 c 2.957,0 5.361,-2.237 5.361,-4.986 0,-2.747 -2.404,-4.983 -5.361,-4.983 -2.957,0 -5.363,2.236 -5.363,4.983 0,2.749 2.406,4.986 5.363,4.986 z"
       inkscape:connector-curvature="0"
       sodipodi:nodetypes="sssss" /><path
       d="M 100,50 C 100,34.604 88.498,21.263 71.846,14.927 c -0.707,-0.865 -1.811,-1.432 -3.062,-1.432 -0.301,0 -0.593,0.041 -0.875,0.101 C 62.344,11.926 56.309,11 49.998,11 c -4.578,0 -9.01,0.493 -13.228,1.396 -0.415,-0.086 -0.845,-0.137 -1.287,-0.137 -1.619,0 -3.085,0.604 -4.164,1.574 C 12.978,19.619 0,33.645 0,50 c 0,0.607 0.025,1.207 0.059,1.803 l 0,0.002 C 1.273,72.474 23.205,89 49.998,89 76.875,89 98.857,72.372 99.947,51.615 L 99.98,50.693 C 99.99,50.464 100,50.233 100,50 Z M 68.783,15.229 c 1.164,0 2.111,0.842 2.111,1.878 0,1.036 -0.947,1.879 -2.111,1.879 -1.163,0 -2.111,-0.843 -2.111,-1.879 0,-1.036 0.948,-1.878 2.111,-1.878 z m -33.3,-1.236 c 2.341,0 4.247,1.722 4.247,3.839 0,2.119 -1.906,3.842 -4.247,3.842 -2.341,0 -4.247,-1.723 -4.247,-3.842 0,-2.118 1.907,-3.839 4.247,-3.839 z m -5.968,4.142 c 0.173,2.929 2.771,5.272 5.969,5.272 3.31,0 6.001,-2.501 6.001,-5.576 0,-0.958 -0.285,-1.847 -0.745,-2.634 2.993,-0.467 6.085,-0.731 9.259,-0.731 5.249,0 10.285,0.69 14.996,1.923 -0.049,0.232 -0.076,0.472 -0.076,0.718 0,1.992 1.734,3.612 3.865,3.612 1.471,0 2.737,-0.78 3.392,-1.912 13.595,5.667 23.11,16.353 24.204,28.791 l -0.007,0 c 0.07,0.796 0.118,1.595 0.118,2.402 0,0.021 -0.002,0.039 -0.002,0.06 -0.951,0.737 -1.989,1.106 -3.218,1.15 -4.456,0.157 -5.821,4.187 -7.026,7.739 -0.736,2.174 -1.498,4.421 -2.859,5.672 -0.514,0.473 -1.119,0.674 -2.027,0.674 -0.002,0 -0.002,0 -0.002,0 -0.681,0 -1.441,-0.111 -2.245,-0.229 -0.917,-0.136 -1.864,-0.274 -2.847,-0.274 -3.549,0 -5.906,1.906 -7.422,5.995 -1.312,3.548 -3.304,3.958 -4.688,3.958 -3.524,0 -8.035,-3.154 -9.516,-4.189 -0.986,-0.692 -1.919,-1.027 -2.848,-1.027 -1.83,0 -3.012,1.223 -4.262,2.52 -1.648,1.707 -3.699,3.831 -8.168,4.276 -0.367,0.037 -0.727,0.054 -1.083,0.054 -7.265,0 -13.35,-7.652 -15.552,-11.699 -1.209,-2.221 -3.756,-2.221 -4.592,-2.221 -0.672,0 -1.397,0.057 -2.139,0.118 -1.568,0.124 -3.244,0.177 -4.109,-0.219 C 7.435,60.313 5.094,55.464 3.555,51.379 3.531,50.921 3.51,50.462 3.51,50 c 0,-0.808 0.048,-1.606 0.118,-2.402 l -0.002,0 C 4.762,34.648 15.021,23.599 29.515,18.135 Z m 20.483,67.398 c -19.586,0 -36.367,-9.311 -43.203,-22.439 1.054,0.942 2.244,1.778 3.612,2.406 0.976,0.447 2.096,0.655 3.523,0.655 0.779,0 1.576,-0.062 2.353,-0.128 0.643,-0.051 1.27,-0.104 1.852,-0.104 1.285,0 1.438,0.277 1.5,0.396 0.303,0.552 7.491,13.524 18.644,13.524 0.474,0 0.951,-0.023 1.437,-0.071 5.762,-0.573 8.525,-3.438 10.354,-5.333 0.622,-0.646 1.395,-1.446 1.723,-1.446 0.062,0 0.303,0.027 0.818,0.39 2.963,2.072 7.385,4.828 11.545,4.828 2.59,0 6.076,-1.082 7.984,-6.232 1.27,-3.434 2.795,-3.722 4.125,-3.722 0.722,0 1.503,0.116 2.329,0.235 0.896,0.133 1.821,0.268 2.763,0.268 1.803,0 3.249,-0.523 4.421,-1.6 2.014,-1.854 2.962,-4.646 3.796,-7.109 1.222,-3.607 1.998,-5.312 3.823,-5.377 0.979,-0.034 1.897,-0.24 2.772,-0.555 -2.683,17.658 -22.357,31.414 -46.171,31.414 z"
       id="path17"
       style="fill:#996600"
       inkscape:connector-curvature="0" /><path
       d="m 32.016,44.451 -0.004,0.032 0.524,0.341 c 3.81,2.526 9.683,4.123 16.396,4.123 6.683,0 12.535,-1.581 16.345,-4.09 l 0.579,-0.372 -0.003,-0.038 c 2.531,-1.836 4.03,-4.109 4.03,-6.607 0,-1.613 -0.638,-3.222 -1.846,-4.648 l -2.019,1.666 c 0.817,0.968 1.232,1.972 1.232,2.982 0,1.351 -0.735,2.635 -2.002,3.783 C 63.338,36.817 56.8,33.4 48.931,33.4 c -7.871,0 -14.411,3.418 -16.316,8.226 -1.27,-1.147 -2.007,-2.435 -2.007,-3.786 0,-0.771 0.242,-1.539 0.719,-2.285 l -2.225,-1.389 c -0.747,1.168 -1.126,2.404 -1.126,3.674 0.002,2.5 1.503,4.775 4.04,6.611 z m 16.917,-8.45 c 7.041,0 12.985,3.099 14.074,7.187 -1.577,0.888 -3.523,1.628 -5.714,2.17 -1.513,-1.412 -4.541,-3.681 -8.36,-3.681 -3.816,0 -6.849,2.269 -8.364,3.681 -2.192,-0.544 -4.139,-1.283 -5.707,-2.17 1.082,-4.088 7.027,-7.187 14.071,-7.187 z m 0,8.276 c 1.958,0 3.692,0.852 4.979,1.729 -1.592,0.217 -3.26,0.341 -4.979,0.341 -1.721,0 -3.388,-0.124 -4.979,-0.341 1.287,-0.877 3.023,-1.729 4.979,-1.729 z"
       id="path21"
       style="fill:#996600"
       inkscape:connector-curvature="0" /></g><path
     style="fill:#00ff00"
     id="path4169"
     sodipodi:type="arc"
     sodipodi:cx="5.651464"
     sodipodi:cy="52.458622"
     sodipodi:rx="4.9428616"
     sodipodi:ry="3.4290717"
     sodipodi:start="0"
     sodipodi:end="0.012567575"
     sodipodi:open="true"
     d="m 10.594326,52.458622 a 4.9428616,3.4290717 0 0 1 -3.91e-4,0.04309" /><path
     style="fill:#9ade00;fill-opacity:0"
     id="path4173"
     sodipodi:type="arc"
     sodipodi:cx="4.8136954"
     sodipodi:cy="52.952637"
     sodipodi:rx="3.2114637"
     sodipodi:ry="2.9931731"
     sodipodi:start="0"
     sodipodi:end="0.012567575"
     sodipodi:open="true"
     d="m 8.0251591,52.952637 a 3.2114637,2.9931731 0 0 1 -2.536e-4,0.03762" /><path
     style="fill:#9ade00;fill-opacity:1"
     id="path4177"
     sodipodi:type="arc"
     sodipodi:cx="9.1980381"
     sodipodi:cy="55.742386"
     sodipodi:rx="5.0545645"
     sodipodi:ry="4.4461694"
     sodipodi:start="6.2518576"
     sodipodi:end="6.0896952"
     sodipodi:open="true"
     d="M 14.250122,55.60312 A 5.0545645,4.4461694 0 0 1 9.5609885,60.177078 5.0545645,4.4461694 0 0 1 4.1753742,56.241123 5.0545645,4.4461694 0 0 1 8.4279557,51.348121 5.0545645,4.4461694 0 0 1 14.15828,54.887454" /><path
     style="fill:#3465a4;fill-opacity:1"
     id="path4180"
     sodipodi:type="arc"
     sodipodi:cx="14.79124"
     sodipodi:cy="30.173187"
     sodipodi:rx="5.4302883"
     sodipodi:ry="5.4247971"
     sodipodi:start="6.2577108"
     sodipodi:end="6.0896981"
     sodipodi:open="true"
     d="m 20.219766,30.035008 a 5.4302883,5.4247971 0 0 1 -5.062381,5.550631 5.4302883,5.4247971 0 0 1 -5.7639222,-4.819726 5.4302883,5.4247971 0 0 1 4.5783172,-5.955399 5.4302883,5.4247971 0 0 1 6.148417,4.319581" /><path
     style="fill:#19aeff;fill-opacity:1"
     id="path4193"
     sodipodi:type="arc"
     sodipodi:cx="60.166626"
     sodipodi:cy="24.185555"
     sodipodi:rx="4.1691899"
     sodipodi:ry="4.3385153"
     sodipodi:start="6.2577035"
     sodipodi:end="6.0896981"
     sodipodi:open="true"
     d="m 64.334462,24.075013 a 4.1691899,4.3385153 0 0 1 -3.886699,4.439182 4.1691899,4.3385153 0 0 1 -4.425364,-3.854589 4.1691899,4.3385153 0 0 1 3.515066,-4.762882 4.1691899,4.3385153 0 0 1 4.720552,3.454611" /><path
     style="fill:#4e9a06;fill-opacity:1"
     id="path4206"
     sodipodi:type="arc"
     sodipodi:cx="90.858955"
     sodipodi:cy="27.693287"
     sodipodi:rx="5.7659016"
     sodipodi:ry="6.0000739"
     sodipodi:start="6.2577035"
     sodipodi:end="6.0896981"
     sodipodi:open="true"
     d="m 96.622985,27.540411 a 5.7659016,6.0000739 0 0 1 -5.375224,6.139293 5.7659016,6.0000739 0 0 1 -6.120184,-5.330814 5.7659016,6.0000739 0 0 1 4.861263,-6.586964 5.7659016,6.0000739 0 0 1 6.528423,4.777654" /><path
     style="fill:#9999ff;fill-opacity:1"
     id="path4217"
     sodipodi:type="arc"
     sodipodi:cx="96.71357"
     sodipodi:cy="49.7551"
     sodipodi:rx="4.5240149"
     sodipodi:ry="4.8000593"
     sodipodi:start="6.2577035"
     sodipodi:end="6.0896981"
     sodipodi:open="true"
     d="m 101.23612,49.632799 a 4.5240149,4.8000593 0 0 1 -4.217487,4.911435 4.5240149,4.8000593 0 0 1 -4.801991,-4.264651 4.5240149,4.8000593 0 0 1 3.814221,-5.269572 4.5240149,4.8000593 0 0 1 5.122307,3.822123" /><path
     style="fill:#ef2929;fill-opacity:1"
     id="path4237"
     sodipodi:type="arc"
     sodipodi:cx="72.14196"
     sodipodi:cy="60.924473"
     sodipodi:rx="5.8546071"
     sodipodi:ry="6.1846919"
     sodipodi:start="6.2577035"
     sodipodi:end="6.0896981"
     sodipodi:open="true"
     d="m 77.994667,60.766893 a 5.8546071,6.1846919 0 0 1 -5.457919,6.328195 5.8546071,6.1846919 0 0 1 -6.214341,-5.494839 5.8546071,6.1846919 0 0 1 4.936051,-6.789641 5.8546071,6.1846919 0 0 1 6.62886,4.924659" /><path
     style="fill:#ffff00;fill-opacity:1"
     id="path4248"
     sodipodi:type="arc"
     sodipodi:cx="37.369137"
     sodipodi:cy="72.186134"
     sodipodi:rx="5.144958"
     sodipodi:ry="4.8923678"
     sodipodi:start="6.2577035"
     sodipodi:end="6.0896981"
     sodipodi:open="true"
     d="m 42.512425,72.061481 a 5.144958,4.8923678 0 0 1 -4.796354,5.005886 5.144958,4.8923678 0 0 1 -5.461087,-4.346664 5.144958,4.8923678 0 0 1 4.337742,-5.370909 5.144958,4.8923678 0 0 1 5.825362,3.895625" /><path
     style="fill:#ff9900;fill-opacity:1"
     id="path4250"
     sodipodi:type="arc"
     sodipodi:cx="35.417603"
     sodipodi:cy="12.554642"
     sodipodi:rx="7.9835553"
     sodipodi:ry="8.2154865"
     sodipodi:start="6.2577035"
     sodipodi:end="6.0896981"
     sodipodi:open="true"
     d="m 43.398566,12.345319 a 7.9835553,8.2154865 0 0 1 -7.442617,8.40611 7.9835553,8.2154865 0 0 1 -8.474101,-7.299115 7.9835553,8.2154865 0 0 1 6.730979,-9.0190746 7.9835553,8.2154865 0 0 1 9.039355,6.5417106" /><path
     style="fill:#ffff00;fill-opacity:1"
     id="path4252"
     sodipodi:type="arc"
     sodipodi:cx="78.883636"
     sodipodi:cy="10.893082"
     sodipodi:rx="5.4997826"
     sodipodi:ry="5.8154564"
     sodipodi:start="6.2577035"
     sodipodi:end="6.0896981"
     sodipodi:open="true"
     d="M 84.381634,10.744909 A 5.4997826,5.8154564 0 0 1 79.254498,16.695301 5.4997826,5.8154564 0 0 1 73.416784,11.528513 5.4997826,5.8154564 0 0 1 78.05368,5.1442242 5.4997826,5.8154564 0 0 1 84.280791,9.774873" /><path
     style="fill:#ffdb9d;fill-opacity:1"
     d="M 49.615821,103.10558 C 28.301542,101.89213 8.9378946,91.310443 -0.26530523,75.846945 -0.80046183,74.94776 -1.2851216,74.085135 -1.3423292,73.930001 c -0.057203,-0.155141 0.52733787,0.175976 1.29898969,0.735805 3.29475351,2.39032 4.09527821,2.591509 9.98526111,2.509506 4.2967044,-0.05982 4.5142504,-0.04625 4.7030864,0.293299 0.108903,0.195813 0.89197,1.441981 1.740163,2.769265 5.263972,8.237262 11.955013,13.60776 18.771545,15.06678 1.578559,0.33788 2.255393,0.38462 4.435307,0.30628 5.539458,-0.19908 9.578759,-2.04591 13.665031,-6.247869 2.400094,-2.46804 2.959731,-2.936109 3.333929,-2.788428 0.164304,0.06486 1.296689,0.798833 2.516399,1.631085 2.619679,1.787496 4.705663,2.97421 6.637867,3.776272 5.777361,2.39819 10.533014,1.89089 13.760714,-1.467897 1.37506,-1.430906 2.373086,-3.09989 3.289043,-5.50021 0.773258,-2.026372 1.684641,-3.444582 2.68265,-4.174496 0.988944,-0.723286 2.377783,-0.82685 5.469372,-0.407844 3.039117,0.411891 5.629527,0.322665 7.013657,-0.241589 3.049115,-1.242999 4.984035,-4.143441 7.287325,-10.92362 1.29006,-3.797546 1.95969,-5.340965 2.69559,-6.213155 0.7214,-0.855004 1.24105,-1.101332 2.64535,-1.253977 0.65185,-0.07085 1.60617,-0.244389 2.1207,-0.385636 0.51454,-0.14125 0.94867,-0.2391 0.96473,-0.217454 0.11959,0.161196 -0.8042,4.005116 -1.45142,6.039429 -2.03756,6.404246 -6.04734,12.811645 -11.22723,17.94044 C 88.472595,97.575586 69.398217,104.23181 49.615821,103.10558 Z"
     id="path4256"
     inkscape:connector-curvature="0" /><path
     style="fill:#ffccff;fill-opacity:1"
     d="M 36.043776,90.592484 C 32.163762,89.684433 28.648324,87.465902 24.951564,83.592389 22.794438,81.332124 20.831293,78.723644 19.377861,76.186473 18.159637,74.05989 17.623713,73.479039 16.28662,72.836087 l -1.088794,-0.523555 -4.967544,0 -4.9675464,0 -1.2645357,-0.703316 c -3.23291772,-1.798102 -5.9135346,-5.030517 -8.1435584,-9.819891 -1.6759087,-3.599313 -1.85759,-4.259604 -1.85759,-6.75107 0,-7.780059 2.7101532,-15.913941 7.6110293,-22.842688 C 6.980246,24.600518 15.151741,18.078414 24.511975,13.914753 c 3.009864,-1.338864 2.740905,-1.337623 2.977501,-0.01363 0.639681,3.579405 3.2495,6.229405 6.722802,6.826305 5.268947,0.905487 9.994051,-3.984696 9.127307,-9.446181 -0.114265,-0.719939 -0.367135,-1.6341181 -0.561956,-2.0315061 -0.252227,-0.514487 -0.289326,-0.72295 -0.128855,-0.724 0.123963,-8.12e-4 1.160708,-0.122892 2.303893,-0.271288 8.351595,-1.084119 18.114786,-0.53171 26.419963,1.494864 l 1.887694,0.4606231 0.07181,1.143278 c 0.187363,2.982742 2.667793,5.379383 5.556713,5.369008 1.649912,-0.0061 2.804399,-0.536499 3.978594,-1.82846 l 0.890982,-0.980345 3.064996,1.607834 c 15.878071,8.329313 25.708411,21.555315 27.116641,36.483418 0.10537,1.116937 0.16566,2.396512 0.134,2.843503 -0.0556,0.785314 -0.0918,0.83071 -1.07141,1.346689 -0.75309,0.396645 -1.52684,0.604119 -3.00845,0.80669 -3.1332,0.428383 -4.75371,1.402719 -6.26344,3.765916 -1.02318,1.601585 -1.60646,2.973348 -2.8393,6.677457 -1.696535,5.09726 -2.912225,7.329486 -4.399822,8.078866 -0.935665,0.471344 -2.414054,0.505068 -5.006514,0.114219 -7.065415,-1.065246 -10.445345,0.930451 -13.128316,7.751676 -1.159863,2.948851 -2.56662,4.57552 -4.406663,5.095532 -1.0243,0.289477 -3.50897,0.09716 -4.907683,-0.379851 -1.827417,-0.623221 -5.316682,-2.492397 -7.492439,-4.013649 -2.806102,-1.961979 -3.657489,-2.346898 -5.19887,-2.350455 -1.905608,-0.0043 -2.794403,0.535191 -5.726674,3.476669 -3.316635,3.327048 -4.475618,4.109517 -7.429671,5.016036 -1.978814,0.607244 -5.363418,0.776974 -7.151043,0.358611 z m 3.636454,-14.00976 c 3.760843,-1.791697 3.835412,-6.841923 0.128994,-8.735917 -0.856242,-0.437544 -1.238194,-0.518952 -2.434851,-0.518952 -1.196654,0 -1.578608,0.08141 -2.434851,0.518952 -4.195995,2.144168 -3.414793,7.958752 1.231552,9.16658 0.956976,0.248767 2.473735,0.06261 3.50916,-0.430663 z m 34.598959,-9.836923 c 0.625613,-0.220807 1.203883,-0.644118 1.978337,-1.448197 0.950785,-0.987157 1.145815,-1.312597 1.486878,-2.481071 0.876081,-3.001444 -0.262543,-5.933765 -2.876804,-7.408699 -1.045675,-0.58996 -1.234566,-0.633726 -2.720411,-0.630313 -1.300648,0.003 -1.74922,0.08195 -2.419217,0.425838 -1.32556,0.680378 -2.215291,1.599093 -2.851348,2.94423 -0.525033,1.110338 -0.583273,1.394017 -0.576427,2.80767 0.0091,1.868941 0.368767,2.858274 1.506095,4.142238 0.930071,1.04999 1.617619,1.497908 2.847328,1.854948 1.102778,0.320189 2.331272,0.250169 3.625569,-0.206644 z M 10.756315,62.52172 c 2.18865,-0.593223 3.776533,-1.927168 4.679171,-3.930867 0.395344,-0.877594 0.47199,-1.303194 0.47199,-2.620867 0,-1.405337 -0.0622,-1.704601 -0.583111,-2.8057 -0.998724,-2.111095 -2.78012,-3.414847 -5.272401,-3.858725 -3.0922157,-0.550724 -6.2795075,1.218545 -7.5795945,4.207449 -0.5940575,1.365732 -0.5626969,3.675734 0.068925,5.077843 1.4284998,3.171019 4.8963473,4.830378 8.2150115,3.930867 z m 88.154511,-8.539881 c 2.549594,-1.444016 3.164934,-5.066709 1.255004,-7.388641 -0.980491,-1.192012 -1.852258,-1.595522 -3.447032,-1.595522 -1.027739,0 -1.49787,0.09212 -2.06553,0.404744 -1.433061,0.789208 -2.549114,2.706473 -2.5462,4.374112 0.0036,2.105268 1.605818,4.209677 3.606153,4.736677 0.881824,0.232321 2.250917,0.0047 3.197605,-0.53137 z M 59.196088,53.67107 c 7.656971,-1.063051 13.802102,-3.700864 17.38641,-7.463161 2.230749,-2.341523 3.184547,-4.475985 3.184547,-7.126556 0,-0.858127 -0.125011,-1.902377 -0.298345,-2.492338 -0.323035,-1.099417 -1.521183,-3.294361 -1.953015,-3.577816 -0.201235,-0.132091 -0.578118,0.0912 -1.531469,0.907344 -0.695502,0.595404 -1.264547,1.108243 -1.264547,1.13964 0,0.03139 0.241598,0.404148 0.536882,0.828337 1.097155,1.576085 1.311325,3.61823 0.562543,5.363907 -0.346162,0.807033 -1.716386,2.723829 -1.94626,2.722612 -0.07092,-3.7e-4 -0.400156,-0.546495 -0.73165,-1.213596 -1.904741,-3.833125 -7.033203,-7.360047 -12.767723,-8.780563 -9.926421,-2.458901 -21.101215,0.165977 -26.413254,6.204292 -0.845335,0.960912 -2.099012,2.869997 -2.422278,3.688619 -0.13109,0.331975 -1.341074,-1.22325 -1.924287,-2.473351 -0.696256,-1.492401 -0.752019,-2.954555 -0.164949,-4.325195 0.212109,-0.495221 0.385653,-0.964321 0.385653,-1.042443 0,-0.175413 -2.546684,-1.841817 -2.814769,-1.841817 -0.237736,0 -0.752552,1.041255 -1.186625,2.40003 -0.47827,1.497139 -0.422956,3.807822 0.128225,5.356696 1.560741,4.385775 6.372799,8.084725 13.364724,10.273241 2.639599,0.826209 6.025481,1.433544 10.023799,1.797993 1.673841,0.152577 7.80825,-0.06291 9.846385,-0.345875 z M 17.300936,35.041008 c 1.156298,-0.588704 1.955148,-1.478343 2.558087,-2.848823 0.374529,-0.851302 0.427002,-1.192256 0.356457,-2.316145 -0.09589,-1.527554 -0.495545,-2.463763 -1.496377,-3.505241 -2.693997,-2.803411 -7.428833,-1.946506 -8.9443593,1.618741 -1.2512781,2.943607 0.1826822,6.245627 3.2054283,7.38122 1.189514,0.446878 3.078496,0.302714 4.320764,-0.329752 z m 76.164911,-1.963445 c 1.26771,-0.646489 2.053947,-1.502241 2.702776,-2.941742 0.609455,-1.352144 0.640606,-3.5249 0.0694,-4.840915 -0.527185,-1.214599 -1.691235,-2.456328 -2.864954,-3.056135 -0.855306,-0.437088 -1.2202,-0.511479 -2.50888,-0.511479 -1.288678,0 -1.653572,0.07439 -2.508877,0.511479 -1.168081,0.596925 -2.331082,1.833988 -2.873162,3.056135 -0.541656,1.221187 -0.528177,3.648092 0.02688,4.838158 1.515455,3.249246 4.901867,4.50242 7.956823,2.944499 z M 61.33719,28.378829 c 1.875271,-0.582193 2.990331,-2.132599 2.991317,-4.159199 0.0012,-2.667923 -2.081753,-4.648162 -4.604482,-4.377219 -1.131467,0.121518 -1.741214,0.434411 -2.605889,1.337209 -2.251748,2.351031 -1.070263,6.500648 2.077952,7.298206 0.830068,0.210286 1.199992,0.193181 2.141102,-0.099 z"
     id="path4258"
     inkscape:connector-curvature="0" /><path
     style="fill:#ffdb9d;fill-opacity:0"
     d="m 39.555031,48.420495 c -2.529474,-0.866537 -4.930553,-2.014857 -4.930553,-2.358047 0,-0.704695 1.200446,-2.641823 2.38127,-3.842594 2.209636,-2.246964 5.660126,-4.008586 9.594063,-4.898175 2.721313,-0.615374 7.961669,-0.717169 10.822153,-0.210222 6.276778,1.112398 11.085037,4.041226 12.842033,7.822397 0.50368,1.083947 0.519717,1.179897 0.236027,1.412076 -0.634462,0.519261 -3.443482,1.709604 -5.519893,2.339096 l -1.489863,0.451672 -0.656031,-0.616757 c -1.685061,-1.584179 -4.478428,-3.189377 -6.691151,-3.845041 -1.797784,-0.532713 -5.055429,-0.568897 -6.793383,-0.07545 -2.245838,0.63764 -4.711369,2.018724 -6.681259,3.742552 -0.503447,0.440562 -0.942542,0.798566 -0.975768,0.795564 -0.03324,-0.003 -0.995165,-0.325679 -2.137645,-0.717064 z"
     id="path4262"
     inkscape:connector-curvature="0" /><path
     style="fill:#ffdb9d;fill-opacity:0"
     d="m 39.555031,48.420495 c -2.529474,-0.866537 -4.930553,-2.014857 -4.930553,-2.358047 0,-0.704695 1.200446,-2.641823 2.38127,-3.842594 2.209636,-2.246964 5.660126,-4.008586 9.594063,-4.898175 2.721313,-0.615374 7.961669,-0.717169 10.822153,-0.210222 6.276778,1.112398 11.085037,4.041226 12.842033,7.822397 0.50368,1.083947 0.519717,1.179897 0.236027,1.412076 -0.634462,0.519261 -3.443482,1.709604 -5.519893,2.339096 l -1.489863,0.451672 -0.656031,-0.616757 c -1.685061,-1.584179 -4.478428,-3.189377 -6.691151,-3.845041 -1.797784,-0.532713 -5.055429,-0.568897 -6.793383,-0.07545 -2.245838,0.63764 -4.711369,2.018724 -6.681259,3.742552 -0.503447,0.440562 -0.942542,0.798566 -0.975768,0.795564 -0.03324,-0.003 -0.995165,-0.325679 -2.137645,-0.717064 z"
     id="path4264"
     inkscape:connector-curvature="0" /><path
     style="fill:#ffdb9d;fill-opacity:0"
     d="m 39.555031,48.420495 c -2.529474,-0.866537 -4.930553,-2.014857 -4.930553,-2.358047 0,-0.704695 1.200446,-2.641823 2.38127,-3.842594 2.209636,-2.246964 5.660126,-4.008586 9.594063,-4.898175 2.721313,-0.615374 7.961669,-0.717169 10.822153,-0.210222 6.276778,1.112398 11.085037,4.041226 12.842033,7.822397 0.50368,1.083947 0.519717,1.179897 0.236027,1.412076 -0.634462,0.519261 -3.443482,1.709604 -5.519893,2.339096 l -1.489863,0.451672 -0.656031,-0.616757 c -1.685061,-1.584179 -4.478428,-3.189377 -6.691151,-3.845041 -1.797784,-0.532713 -5.055429,-0.568897 -6.793383,-0.07545 -2.245838,0.63764 -4.711369,2.018724 -6.681259,3.742552 -0.503447,0.440562 -0.942542,0.798566 -0.975768,0.795564 -0.03324,-0.003 -0.995165,-0.325679 -2.137645,-0.717064 z"
     id="path4266"
     inkscape:connector-curvature="0" /><path
     style="fill:#ffdb9d;fill-opacity:0"
     d="m 39.555031,48.420495 c -2.529474,-0.866537 -4.930553,-2.014857 -4.930553,-2.358047 0,-0.704695 1.200446,-2.641823 2.38127,-3.842594 2.209636,-2.246964 5.660126,-4.008586 9.594063,-4.898175 2.721313,-0.615374 7.961669,-0.717169 10.822153,-0.210222 6.276778,1.112398 11.085037,4.041226 12.842033,7.822397 0.50368,1.083947 0.519717,1.179897 0.236027,1.412076 -0.634462,0.519261 -3.443482,1.709604 -5.519893,2.339096 l -1.489863,0.451672 -0.656031,-0.616757 c -1.685061,-1.584179 -4.478428,-3.189377 -6.691151,-3.845041 -1.797784,-0.532713 -5.055429,-0.568897 -6.793383,-0.07545 -2.245838,0.63764 -4.711369,2.018724 -6.681259,3.742552 -0.503447,0.440562 -0.942542,0.798566 -0.975768,0.795564 -0.03324,-0.003 -0.995165,-0.325679 -2.137645,-0.717064 z"
     id="path4268"
     inkscape:connector-curvature="0" /><path
     style="fill:#ffdb9d;fill-opacity:0"
     d="m 48.817465,53.83562 c -0.341519,-0.04151 -1.37938,-0.164269 -2.30636,-0.272794 -5.629761,-0.659089 -11.076206,-2.519856 -14.856788,-5.075794 -4.333434,-2.929708 -6.579462,-6.998185 -5.92258,-10.728226 0.240246,-1.364212 1.024368,-3.385203 1.31342,-3.385203 0.140141,0 2.289952,1.317963 2.591592,1.588797 0.03769,0.03383 -0.102017,0.474074 -0.31047,0.978302 -0.576419,1.394339 -0.524271,3.120445 0.137188,4.54068 0.283742,0.609239 0.841578,1.481557 1.239634,1.938485 0.826703,0.948973 0.733793,0.996763 1.775014,-0.913013 2.515699,-4.61422 8.796084,-8.12489 16.224037,-9.069067 2.559355,-0.325321 8.035252,-0.123323 10.316532,0.380554 4.814779,1.063477 8.713205,3.008298 11.533635,5.753825 1.122842,1.093023 2.550151,3.097369 2.913136,4.090867 0.237668,0.650498 0.397786,0.625713 1.064799,-0.164831 0.973908,-1.154273 1.417887,-1.993195 1.712646,-3.236154 0.264941,-1.11722 0.264629,-1.300832 -0.0041,-2.39535 -0.160058,-0.65196 -0.507462,-1.517692 -0.772015,-1.923851 -0.264554,-0.406158 -0.481008,-0.787083 -0.481008,-0.8465 0,-0.163049 2.177137,-2.015074 2.368801,-2.015074 0.09168,0 0.425426,0.419581 0.741659,0.932403 2.544366,4.126083 1.998419,8.245118 -1.592455,12.014684 -3.585949,3.764394 -9.058213,6.201529 -16.570331,7.379781 -2.2307,0.34988 -9.465515,0.628098 -11.115995,0.427473 z m 7.929539,-3.417005 c 1.24942,-0.110745 2.305762,-0.236213 2.347427,-0.278834 0.202328,-0.206968 -2.067754,-1.46839 -3.596778,-1.998633 -1.411151,-0.489365 -3.242845,-0.568608 -4.801621,-0.20773 -1.331073,0.308162 -4.539751,1.810706 -4.539751,2.125851 0,0.08634 0.778395,0.212289 1.72977,0.279872 0.951375,0.06758 1.809605,0.15185 1.907184,0.187272 0.406976,0.147724 4.847573,0.07887 6.953769,-0.107794 z M 42.596617,48.619786 c 2.049464,-1.791503 4.508042,-3.189331 6.753086,-3.839482 1.777218,-0.514669 5.179742,-0.469836 6.91144,0.09107 2.234554,0.72378 4.232291,1.875988 6.318471,3.644216 l 0.942608,0.798946 1.473886,-0.459036 c 1.933453,-0.602165 3.047482,-1.04161 4.663151,-1.839448 l 1.32832,-0.655945 -0.343163,-0.939812 c -1.387493,-3.799889 -6.039092,-6.982732 -12.11568,-8.290122 -2.330181,-0.501343 -7.021829,-0.683398 -9.44205,-0.366393 -6.622095,0.867381 -12.037464,3.864779 -13.998463,7.74813 -0.352637,0.698322 -0.641157,1.401871 -0.641157,1.56344 0,0.420892 2.147153,1.494582 4.878472,2.439493 1.2687,0.438912 2.341506,0.801345 2.384015,0.805407 0.04251,0.004 0.441686,-0.311145 0.887064,-0.700462 z"
     id="path4270"
     inkscape:connector-curvature="0" /><path
     style="fill:#ffdb9d;fill-opacity:0"
     d="m 51.959637,36.794291 c -2.007814,0.039 -4.00029,0.221416 -5.360946,0.529103 -3.933939,0.889589 -7.382741,2.649912 -9.592378,4.896874 -1.180823,1.200772 -2.381883,3.137525 -2.381883,3.842219 0,0.34319 2.401505,1.49135 4.93098,2.357887 1.142478,0.391384 2.102957,0.714398 2.136188,0.717308 0.03322,0.003 0.472512,-0.35487 0.975959,-0.795431 1.969889,-1.723829 4.435724,-3.10515 6.68156,-3.74279 1.737955,-0.493444 4.996389,-0.458141 6.794173,0.07457 2.212724,0.655665 5.006739,2.26159 6.691799,3.845769 l 0.655189,0.617881 1.491239,-0.450982 c 2.076411,-0.629491 4.883457,-1.820869 5.517919,-2.34013 0.283689,-0.232179 0.26822,-0.329366 -0.235458,-1.413311 C 68.506981,41.152085 63.699734,38.222731 57.422956,37.110332 55.992714,36.856857 53.96745,36.755288 51.959637,36.79429 Z"
     id="path4272"
     inkscape:connector-curvature="0" /><path
     style="fill:#ffdb9d;fill-opacity:0"
     d="m 38.624387,43.277103 c -0.835579,-0.280786 -2.03685,-0.771469 -2.669492,-1.090407 l -1.150257,-0.579888 0.539504,-1.079643 c 1.299932,-2.601395 4.832472,-4.76159 9.115065,-5.573984 1.889429,-0.358419 5.679005,-0.364748 7.535457,-0.01259 4.338176,0.822938 7.876976,2.976177 9.181405,5.586569 l 0.539504,1.079643 -1.150257,0.579888 c -0.632643,0.318938 -1.83391,0.80962 -2.669485,1.090405 l -1.519228,0.510518 -0.940666,-0.766261 c -4.752356,-3.871242 -9.758295,-3.838466 -14.485392,0.09484 l -0.806924,0.671423 -1.519234,-0.510521 z"
     id="path4275"
     inkscape:connector-curvature="0"
     transform="matrix(1.35,0,0,1.35,-12.500001,-10)" /><path
     style="fill:#ffdb9d;fill-opacity:0"
     d="m 38.624387,43.277103 c -0.835579,-0.280786 -2.03685,-0.771469 -2.669492,-1.090407 l -1.150257,-0.579888 0.539504,-1.079643 c 1.299932,-2.601395 4.832472,-4.76159 9.115065,-5.573984 1.889429,-0.358419 5.679005,-0.364748 7.535457,-0.01259 4.338176,0.822938 7.876976,2.976177 9.181405,5.586569 l 0.539504,1.079643 -1.150257,0.579888 c -0.632643,0.318938 -1.83391,0.80962 -2.669485,1.090405 l -1.519228,0.510518 -0.940666,-0.766261 c -4.752356,-3.871242 -9.758295,-3.838466 -14.485392,0.09484 l -0.806924,0.671423 -1.519234,-0.510521 z"
     id="path4277"
     inkscape:connector-curvature="0"
     transform="matrix(1.35,0,0,1.35,-12.500001,-10)" /><path
     style="fill:#ffdb9d;fill-opacity:0"
     d="m 44.393673,44.524757 -0.702988,-0.117807 1.405976,-0.692052 c 1.352444,-0.665702 1.472889,-0.692051 3.163444,-0.692051 1.688055,0 1.813002,0.02721 3.163445,0.688835 l 1.405975,0.688836 -0.790861,0.132935 c -0.961772,0.161664 -6.667131,0.155174 -7.644991,-0.0087 z"
     id="path4279"
     inkscape:connector-curvature="0"
     transform="matrix(1.35,0,0,1.35,-12.500001,-10)" /></svg>