<svg
   xmlns:dc="http://purl.org/dc/elements/1.1/"
   xmlns:cc="http://creativecommons.org/ns#"
   xmlns:rdf="http://www.w3.org/1999/02/22-rdf-syntax-ns#"
   xmlns:svg="http://www.w3.org/2000/svg"
   xmlns="http://www.w3.org/2000/svg"
   xmlns:sodipodi="http://sodipodi.sourceforge.net/DTD/sodipodi-0.dtd"
   xmlns:inkscape="http://www.inkscape.org/namespaces/inkscape"
   version="1.1"
   id="Ebene_1"
   x="0px"
   y="0px"
   width="100px"
   height="100px"
   viewBox="5.0 -10.0 100.0 135.0"
   enable-background="new 0 0 100 100"
   xml:space="preserve"
   inkscape:version="0.91 r13725"
   sodipodi:docname="excavator.svg"><metadata
     id="metadata11"><rdf:RDF><cc:Work
         rdf:about=""><dc:format>image/svg+xml</dc:format><dc:type
           rdf:resource="http://purl.org/dc/dcmitype/StillImage" /></cc:Work></rdf:RDF></metadata><defs
     id="defs9" /><sodipodi:namedview
     pagecolor="#ffffff"
     bordercolor="#666666"
     borderopacity="1"
     objecttolerance="10"
     gridtolerance="10"
     guidetolerance="10"
     inkscape:pageopacity="0"
     inkscape:pageshadow="2"
     inkscape:window-width="1246"
     inkscape:window-height="755"
     id="namedview7"
     showgrid="false"
     inkscape:zoom="2.36"
     inkscape:cx="50"
     inkscape:cy="50"
     inkscape:window-x="34"
     inkscape:window-y="0"
     inkscape:window-maximized="1"
     inkscape:current-layer="Ebene_1" /><g
     id="g3"
     transform="matrix(1.4348404,0,0,1.2288133,-15.449393,-2.2881357)"><path
       d="M 55.609,40.706 28.859,14.314 c -0.467,-0.459 -1.147,-0.51 -1.704,-0.236 L 14.695,2.365 C 14.284,1.005 13.631,0 12.588,0 c -2.487,0 -5.91,7.002 -5.91,11.514 0,8.967 -1.404,28.544 -1.404,28.544 -0.032,0.654 0.394,1.23 0.969,1.465 L 6,49.52 c 0,0.007 0,0.015 0,0.021 0,0.021 -0.032,0.044 -0.029,0.066 0.002,0.012 -0.012,0.024 -0.01,0.036 0.005,0.02 10e-4,0.039 0.008,0.058 0.003,0.012 0.002,0.023 0.007,0.034 0.008,0.02 0.005,0.038 0.015,0.057 0.006,0.01 0.009,0.02 0.009,0.029 0,0.001 0,0.003 0,0.004 l 3.928,5.98 c 0.387,0.924 1.875,2.454 2.512,3.039 4.092,3.755 6.588,4.607 10.175,3.405 4.29,-1.438 4.812,-3.855 9.216,-13.162 l 0.802,-2.052 -4.003,2.201 c 0,0 -0.8,-0.1 -7.405,-0.1 l -7.47,-0.05 1.262,-31.904 33.458,29.32 C 49.41,47.317 50,48.997 50,50.235 l 0,10.711 C 50,61.088 50.353,61 50.363,61 l -7.071,0 c -1.651,0 -3.179,1.537 -3.395,3.176 l -2.519,18.98 C 37.163,84.793 38.338,86 39.989,86 l 7.011,0 0,3.024 c -8,0 -19.118,2.302 -19.118,7.13 0,3.523 6.311,3.16 7.292,3.535 1.177,0.451 42.787,0.377 44.213,0 1.426,-0.375 8.671,-1.513 8.671,-5.036 0,-3.523 -7.109,-4.44 -14.265,-5.14 C 70.855,89.225 65.037,89 63.8,89 l 0.2,0 0,-3 28.077,0 c 1.651,0 2.833,-1.107 2.626,-2.746 L 93.805,76.565 C 93.599,74.926 92.077,74 90.426,74 l -2.59,0 -0.732,-1.629 C 87.032,72.223 86.839,72 86.674,72 l -0.901,0 C 85.607,72 85,71.469 85,71.304 l 0,-1.051 C 85,70.088 85.337,70 85.172,70 l -0.6,0 C 84.407,70 84,70.088 84,70.253 l 0,1.051 C 84,71.469 84.137,72 83.972,72 l -6.005,0 c -0.165,0 -0.358,0.223 -0.43,0.371 L 76.805,74 66.04,74 64.716,64.47 C 64.491,62.834 62.956,61 61.305,61 l -1.968,0 C 59.348,61 59,61.088 59,60.946 l 0,-14.007 c 0,-2.46 -0.266,-3.152 -3.391,-6.233 z m -45.557,5.641 0.266,2.741 c 0,0.505 0.226,1.775 0.226,1.775 0.154,0.901 -0.298,2.046 -0.562,3.092 L 7.12,49.589 7.033,48.118 7.261,41.552 c 0.563,-0.193 0.981,-0.713 1.012,-1.345 l 0.4,-8.113 1.242,12.837 0.137,1.416 z M 15.796,9.792 C 15.65,9.677 15.489,9.584 15.321,9.508 l 0.05,-1.251 c 0,-1.013 -0.049,-2.569 -0.274,-4.058 l 11.35,10.682 c -0.229,0.55 -0.119,1.208 0.332,1.652 L 35.727,25.325 15.796,9.792 Z M 50,79.95 c 0,0.826 -0.364,1.91 -1.022,2.409 l 0.026,-0.111 C 48.347,82.748 47.22,83 46.395,83 l -5.205,0 c -0.826,0 -1.405,-0.512 -1.287,-1.33 L 42.327,65.157 C 42.445,64.339 43.217,64 44.042,64 l 4.804,0 C 49.671,64 50,64.173 50,64.999 l 0,14.951 z m 9.358,-5.337 -5.864,4.223 C 52.838,79.335 52,79.067 52,78.242 L 52,64.999 C 52,64.173 53.274,64 54.1,64 l 3.603,0 c 0.825,0 1.59,0.418 1.698,1.236 l 0.957,7.107 c 0.108,0.819 -0.341,1.771 -1,2.27 z"
       id="path5"
       inkscape:connector-curvature="0"
       style="fill:#c17d11" /></g></svg>