<svg
   xmlns:dc="http://purl.org/dc/elements/1.1/"
   xmlns:cc="http://creativecommons.org/ns#"
   xmlns:rdf="http://www.w3.org/1999/02/22-rdf-syntax-ns#"
   xmlns:svg="http://www.w3.org/2000/svg"
   xmlns="http://www.w3.org/2000/svg"
   xmlns:sodipodi="http://sodipodi.sourceforge.net/DTD/sodipodi-0.dtd"
   xmlns:inkscape="http://www.inkscape.org/namespaces/inkscape"
   version="1.1"
   id="Layer_1"
   x="0px"
   y="0px"
   width="100px"
   height="100px"
   viewBox="5.0 -10.0 100.0 135.0"
   enable-background="new 0 0 100 100"
   xml:space="preserve"
   inkscape:version="0.91 r13725"
   sodipodi:docname="gloves.svg"><metadata
     id="metadata21"><rdf:RDF><cc:Work
         rdf:about=""><dc:format>image/svg+xml</dc:format><dc:type
           rdf:resource="http://purl.org/dc/dcmitype/StillImage" /></cc:Work></rdf:RDF></metadata><defs
     id="defs19" /><sodipodi:namedview
     pagecolor="#ffffff"
     bordercolor="#666666"
     borderopacity="1"
     objecttolerance="10"
     gridtolerance="10"
     guidetolerance="10"
     inkscape:pageopacity="0"
     inkscape:pageshadow="2"
     inkscape:window-width="1246"
     inkscape:window-height="755"
     id="namedview17"
     showgrid="false"
     inkscape:zoom="5.53"
     inkscape:cx="50"
     inkscape:cy="50"
     inkscape:window-x="34"
     inkscape:window-y="0"
     inkscape:window-maximized="1"
     inkscape:current-layer="Layer_1" /><path
     d="M 6.2771067,54.545281 47.592466,46.911118 c 0,0 17.255049,-28.239432 3.73102,-34.541753 C 45.677845,9.734396 41.054019,19.075067 40.416301,17.270107 35.921485,4.6640964 28.462379,-9.4186994 14.280106,-6.8015062 -14.260359,-1.5302004 6.2771067,54.545281 6.2771067,54.545281 Z"
     id="path3"
     inkscape:connector-curvature="0"
     style="fill:#ff6600" /><path
     d="m 33.45564,123.71904 c 4.679535,0 8.614331,-1.82138 11.713496,-5.42446 2.864602,-3.33507 4.581311,-7.65467 6.100107,-11.46287 0.910397,-2.28492 1.765087,-4.44677 2.682815,-5.87159 0.639185,-0.988624 1.127369,-1.345519 1.344341,-1.345519 2.001116,-0.02734 2.593388,0.533289 3.429018,5.671959 0.312263,1.91982 0.633321,3.90665 1.439631,5.69657 1.952738,4.34283 5.698418,7.34017 10.018778,8.02113 4.145902,0.65361 8.357776,-0.87377 11.544902,-4.18833 2.88366,-2.99596 3.556563,-9.08223 4.266117,-15.522662 0.444203,-4.065265 1.002757,-9.12189 2.115466,-10.587737 l -4.96834,-3.273543 c -2.027504,2.680094 -2.57433,7.595877 -3.195923,13.280136 -0.498445,4.517866 -1.180145,10.694396 -2.742922,12.316116 -1.792942,1.86377 -3.931864,2.71428 -6.010679,2.38474 -2.288456,-0.36099 -4.266116,-2.04289 -5.422806,-4.62726 -0.516039,-1.13494 -0.76966,-2.7006 -1.036476,-4.35242 -0.36064,-2.2521 -0.741806,-4.576668 -1.889699,-6.536143 -1.54665,-2.626765 -4.172291,-3.987322 -7.617437,-3.958607 -2.57433,0.03008 -4.760165,1.405682 -6.491534,4.102184 -1.205068,1.881532 -2.160912,4.278576 -3.173932,6.817826 -3.373311,8.49426 -6.151417,13.99529 -13.680893,13.0887 -0.14367,-0.0204 -0.488185,-0.0629 -0.966107,-0.67412 -1.089252,-1.39338 -3.434883,-6.58128 -1.656602,-24.655493 0.703689,-7.176087 1.939544,-15.321656 3.673845,-24.198781 0.08503,-0.438933 0.139272,-0.724719 0.15833,-0.825907 l -6.007748,-0.86556 c -0.01319,0.08751 -0.06597,0.318603 -0.131941,0.672758 -1.765087,9.043947 -3.025865,17.354972 -3.751544,24.700614 -1.464554,14.908699 -0.548292,24.237069 2.808893,28.517009 1.317951,1.68874 3.078641,2.70471 5.088553,2.94674 0.809243,0.10667 1.593563,0.15452 2.360291,0.15452 z"
     id="path5"
     inkscape:connector-curvature="0"
     style="fill:#ff6600" /><polygon
     points="35.533,46.314 35.318,46.628 34.515,47.825 34.52,47.829 31.26,52.7 26.389,49.44 25.886,49.099 24.684,48.298 24.557,48.489 24.344,48.803 20.283,54.87 14.461,50.973 14.068,48.993 45.74,42.721 46.13,44.7 42.235,50.521 35.662,46.123 "
     id="polygon7"
     transform="matrix(1.4660194,0,0,1.3673945,-16.056233,-10.069579)"
     style="fill:#ff9900" /><polygon
     points="20.943,57.576 21.274,57.085 25.249,51.15 31.818,55.546 31.846,55.508 32.165,55.039 36.224,48.975 42.654,53.279 42.657,53.278 42.797,53.372 46.695,47.549 47.925,53.762 16.256,60.033 15.026,53.819 20.851,57.72 20.943,57.574 "
     id="polygon9"
     transform="matrix(1.4660194,0,0,1.3673945,-16.056233,-10.069579)"
     style="fill:#ff9900" /><path
     d="M 110.00385,75.346086 68.906922,66.741073 c 0,0 -16.486854,-28.638711 -2.794232,-34.621062 5.720407,-2.49823 10.081815,6.946364 10.769378,5.160547 4.842262,-12.497986 12.673737,-26.401653 26.784182,-23.449449 28.38213,5.939963 6.3376,61.514977 6.3376,61.514977 z"
     id="path11"
     inkscape:connector-curvature="0"
     style="fill:#ff6600" /><polygon
     points="65.721,61.017 65.926,61.334 66.697,62.553 66.693,62.556 69.83,67.507 74.783,64.371 75.291,64.042 76.516,63.269 76.637,63.465 76.846,63.784 80.748,69.948 86.67,66.204 87.109,64.231 55.605,57.167 55.166,59.134 58.916,65.05 65.594,60.82 "
     id="polygon13"
     transform="matrix(1.4660194,0,0,1.3673945,-16.056233,-10.069579)"
     style="fill:#ff9900" /><polygon
     points="80.021,72.64 79.699,72.139 75.881,66.104 69.199,70.337 69.172,70.297 68.867,69.818 64.961,63.657 58.426,67.797 58.424,67.794 58.281,67.884 54.529,61.966 53.141,68.146 84.645,75.215 86.033,69.032 80.111,72.785 80.021,72.64 "
     id="polygon15"
     transform="matrix(1.4660194,0,0,1.3673945,-16.056233,-10.069579)"
     style="fill:#ff9900" /></svg>