<svg
   xmlns:dc="http://purl.org/dc/elements/1.1/"
   xmlns:cc="http://creativecommons.org/ns#"
   xmlns:rdf="http://www.w3.org/1999/02/22-rdf-syntax-ns#"
   xmlns:svg="http://www.w3.org/2000/svg"
   xmlns="http://www.w3.org/2000/svg"
   xmlns:sodipodi="http://sodipodi.sourceforge.net/DTD/sodipodi-0.dtd"
   xmlns:inkscape="http://www.inkscape.org/namespaces/inkscape"
   version="1.1"
   id="Your_Icon"
   x="0px"
   y="0px"
   width="67px"
   height="61.679px"
   viewBox="3.35 -6.1679 67.0 83.26665"
   enable-background="new 0 0 67 61.679"
   xml:space="preserve"
   inkscape:version="0.91 r13725"
   sodipodi:docname="noun_24744_cc.svg"><metadata
     id="metadata19"><rdf:RDF><cc:Work
         rdf:about=""><dc:format>image/svg+xml</dc:format><dc:type
           rdf:resource="http://purl.org/dc/dcmitype/StillImage" /></cc:Work></rdf:RDF></metadata><defs
     id="defs17" /><sodipodi:namedview
     pagecolor="#ffffff"
     bordercolor="#666666"
     borderopacity="1"
     objecttolerance="10"
     gridtolerance="10"
     guidetolerance="10"
     inkscape:pageopacity="0"
     inkscape:pageshadow="2"
     inkscape:window-width="1250"
     inkscape:window-height="755"
     id="namedview15"
     showgrid="false"
     inkscape:zoom="9.2413948"
     inkscape:cx="33.5"
     inkscape:cy="30.8395"
     inkscape:window-x="30"
     inkscape:window-y="0"
     inkscape:window-maximized="1"
     inkscape:current-layer="Your_Icon" /><path
     d="m 33.338645,71.904728 c -12.120682,0 -13.941189,-9.185626 -22.57784,-16.789173 C 2.0000869,47.401545 -3.395604,48.36012 -1.8991923,35.477661 20.590026,24.140459 40.161117,9.9766282 60.134795,-3.7981274 c 7.076939,1.7305894 8.104931,9.325545 11.393998,14.7284214 -3.546064,0.652959 -6.581932,1.801776 -10.127998,2.454736 -1.742016,3.715244 0.603883,4.38416 0,9.818947 -3.006749,2.019021 -5.442533,-4.719232 -10.127998,-4.909473 2.997887,3.230433 7.118717,5.372191 7.595999,11.046315 -0.606414,5.548932 -5.160216,7.270931 -7.595999,11.046316 -0.554508,11.992616 1.609086,21.350073 5.063999,29.456842 -0.941904,2.768942 -7.100992,0.4799 -10.127998,1.227367 -2.407932,-1.388153 -2.492753,-6.848716 -8.861998,-7.36421 -3.619493,-6.069337 0.457025,-13.913449 1.265999,-19.637894 -4.420871,-2.082845 -10.22548,3.58637 -17.723996,2.454737 2.747219,9.610294 10.388794,15.307738 15.032481,19.651395 1.476156,1.380789 4.552535,1.278918 4.503162,3.069648 -0.06836,2.45351 -4.870302,2.659708 -7.085801,2.659708 z"
     id="path3"
     style="clip-rule:evenodd;fill:#502d16;fill-rule:evenodd"
     inkscape:connector-curvature="0" /><path
     d="m 62.666795,14.612398 c 2.219297,-1.121814 6.317339,-0.422214 7.595999,-2.454737 0.79125,5.494929 5.009561,19.333507 -7.595999,17.183158 -3.232097,-4.028224 1.477422,-8.562122 0,-14.728421"
     id="path5"
     style="clip-rule:evenodd;fill:#784421;fill-rule:evenodd"
     inkscape:connector-curvature="0" /><path
     d="m 60.134795,30.568188 c 2.269938,-0.155877 2.669995,1.503526 5.063999,1.227367 2.953578,13.910994 11.404127,22.492754 13.925998,36.821053 -2.539595,3.67474 -10.392592,2.198216 -16.457997,2.454736 0.01773,-2.43878 3.454913,-1.559985 2.531999,-4.909473 -8.06062,-4.45903 -5.084254,-19.618257 -11.393998,-25.774736 1.283725,-4.074864 7.00731,-3.844118 6.329999,-9.818947"
     id="path7"
     style="clip-rule:evenodd;fill:#2f1c0d;fill-opacity:1;fill-rule:evenodd"
     inkscape:connector-curvature="0" /><path
     d="m 3.7978066,37.522457 c 9.8241574,0.294568 3.8157232,26.781178 8.2289984,32.32152 -3.2485555,2.268176 -14.3830232,1.717087 -17.7239966,0 0.6013499,-7.598639 7.7074065,-25.871699 9.4949982,-32.32152"
     id="path9"
     style="clip-rule:evenodd;fill:#502d16;fill-rule:evenodd"
     inkscape:connector-curvature="0" /></svg>