<svg
   xmlns:dc="http://purl.org/dc/elements/1.1/"
   xmlns:cc="http://creativecommons.org/ns#"
   xmlns:rdf="http://www.w3.org/1999/02/22-rdf-syntax-ns#"
   xmlns:svg="http://www.w3.org/2000/svg"
   xmlns="http://www.w3.org/2000/svg"
   xmlns:sodipodi="http://sodipodi.sourceforge.net/DTD/sodipodi-0.dtd"
   xmlns:inkscape="http://www.inkscape.org/namespaces/inkscape"
   version="1.1"
   x="0px"
   y="0px"
   width="100px"
   height="100px"
   viewBox="5.0 -10.0 100.0 135.0"
   enable-background="new 0 0 100 100"
   xml:space="preserve"
   id="svg2"
   inkscape:version="0.91 r13725"
   sodipodi:docname="grapes.svg"><metadata
     id="metadata29"><rdf:RDF><cc:Work
         rdf:about=""><dc:format>image/svg+xml</dc:format><dc:type
           rdf:resource="http://purl.org/dc/dcmitype/StillImage" /></cc:Work></rdf:RDF></metadata><defs
     id="defs27" /><sodipodi:namedview
     pagecolor="#ffffff"
     bordercolor="#666666"
     borderopacity="1"
     objecttolerance="10"
     gridtolerance="10"
     guidetolerance="10"
     inkscape:pageopacity="0"
     inkscape:pageshadow="2"
     inkscape:window-width="1246"
     inkscape:window-height="755"
     id="namedview25"
     showgrid="false"
     inkscape:zoom="5.69"
     inkscape:cx="50"
     inkscape:cy="50"
     inkscape:window-x="34"
     inkscape:window-y="0"
     inkscape:window-maximized="1"
     inkscape:current-layer="svg2" /><g
     id="Calque_4"
     transform="matrix(1.3298618,0,0,1.3164213,-10.897414,-8.0931745)"><path
       d="m 83.327,44.242 c 0,5.115 -4.145,9.268 -9.267,9.268 -5.117,0 -9.27,-4.153 -9.27,-9.268 0,-5.115 4.152,-9.268 9.27,-9.268 5.123,0 9.267,4.152 9.267,9.268 z"
       id="path5"
       inkscape:connector-curvature="0"
       style="clip-rule:evenodd;fill:#960eff;fill-rule:evenodd" /><path
       d="m 64.965,53.13 c 0,4.601 -3.729,8.327 -8.327,8.327 -4.602,0 -8.331,-3.727 -8.331,-8.327 0,-4.598 3.729,-8.332 8.331,-8.332 4.597,0 8.327,3.734 8.327,8.332 z"
       id="path7"
       inkscape:connector-curvature="0"
       style="clip-rule:evenodd;fill:#960eff;fill-rule:evenodd" /><circle
       cx="38.094002"
       cy="64.597"
       r="8.3369999"
       id="circle9"
       style="clip-rule:evenodd;fill:#960eff;fill-rule:evenodd" /><path
       d="m 61.559,71.201 c 0,4.177 -3.387,7.563 -7.567,7.563 -4.174,0 -7.561,-3.386 -7.561,-7.563 0,-4.179 3.386,-7.564 7.561,-7.564 4.18,0 7.567,3.385 7.567,7.564 z"
       id="path11"
       inkscape:connector-curvature="0"
       style="clip-rule:evenodd;fill:#960eff;fill-rule:evenodd" /><path
       d="m 78.988,64.597 c 0,4.812 -3.897,8.714 -8.712,8.714 -4.816,0 -8.718,-3.902 -8.718,-8.714 0,-4.815 3.901,-8.717 8.718,-8.717 4.815,0 8.712,3.901 8.712,8.717 z"
       id="path13"
       inkscape:connector-curvature="0"
       style="clip-rule:evenodd;fill:#960eff;fill-rule:evenodd" /><path
       d="m 49.063,82.473 c 0,4.284 -3.475,7.758 -7.761,7.758 -4.285,0 -7.762,-3.474 -7.762,-7.758 0,-4.288 3.477,-7.762 7.762,-7.762 4.287,0 7.761,3.474 7.761,7.762 z"
       id="path15"
       inkscape:connector-curvature="0"
       style="clip-rule:evenodd;fill:#a637fc;fill-rule:evenodd" /><circle
       cx="64.964996"
       cy="80.390999"
       r="5.678"
       id="circle17"
       style="clip-rule:evenodd;fill:#a637fc;fill-rule:evenodd" /><circle
       cx="55.507"
       cy="92.125999"
       r="7.572"
       id="circle19"
       style="clip-rule:evenodd;fill:#a637fc;fill-rule:evenodd" /><path
       style="clip-rule:evenodd;fill:#8f00ff;fill-rule:evenodd"
       d="m 70.074,25.478 c -1.19,-0.439 -2.313,-1.066 -3.238,-1.892 -0.453,-0.407 -0.862,-0.861 -1.2,-1.354 1.099,-0.394 2.092,-0.951 3.018,-1.569 l 0.019,-0.012 c 0.047,-0.031 0.088,-0.07 0.125,-0.115 0.245,-0.303 0.465,-0.65 0.604,-1.05 0.142,-0.397 0.188,-0.847 0.122,-1.272 -0.136,-0.861 -0.65,-1.553 -1.26,-2.016 -0.615,-0.463 -1.349,-0.769 -2.167,-0.778 -0.405,-10e-4 -0.839,0.088 -1.223,0.307 -0.385,0.215 -0.689,0.562 -0.874,0.929 l -0.014,0.027 c -0.012,0.023 -0.021,0.047 -0.028,0.073 -0.179,0.664 -0.286,1.354 -0.286,2.05 -0.002,0.695 0.106,1.395 0.328,2.054 0.033,0.101 0.086,0.192 0.124,0.29 -0.792,0.125 -1.567,0.066 -2.221,-0.262 -0.859,-0.428 -1.491,-1.301 -1.886,-2.303 -0.395,-1.008 -0.597,-2.128 -0.664,-3.257 -0.055,-0.913 0.008,-1.834 0.131,-2.743 0.921,0.192 1.858,0.321 2.821,0.343 0.861,10e-4 1.751,-0.035 2.661,-0.462 0.441,-0.21 0.933,-0.622 1.104,-1.224 0.173,-0.593 0.039,-1.149 -0.133,-1.599 C 65.93,9.625 65.92,9.605 65.911,9.588 L 65.901,9.571 C 65.593,9.03 65.267,8.49 64.86,7.987 64.45,7.487 63.978,6.995 63.314,6.645 62.681,6.279 61.703,6.182 60.987,6.575 60.264,6.934 59.8,7.504 59.436,8.062 c -0.671,1.067 -1.022,2.215 -1.265,3.367 -0.209,-0.05 -0.42,-0.095 -0.627,-0.15 -0.506,-0.134 -1.008,-0.29 -1.507,-0.457 0.106,-0.3 0.225,-0.598 0.362,-0.891 2.041,-2.534 3.218,-5.532 2.833,-9.093 -0.12,-1.122 -3.058,-0.444 -2.924,0.784 0.224,2.07 -0.163,3.919 -0.974,5.579 -0.618,0.763 -1.124,1.55 -1.522,2.357 -0.071,0.087 -0.146,0.173 -0.22,0.26 C 53.398,9.721 53.2,9.63 53.009,9.526 51.594,8.739 50.234,7.764 49.293,6.399 c 0.791,1.464 2.104,2.593 3.5,3.492 0.159,0.102 0.325,0.191 0.487,0.288 -3.236,3.563 -8.455,6.023 -12.89,7.785 -0.843,-0.272 -1.741,-0.422 -2.674,-0.422 -4.814,0 -8.72,3.902 -8.72,8.717 0,0.228 0.017,0.452 0.034,0.676 -0.522,-0.127 -1.064,-0.203 -1.625,-0.203 -3.766,0 -6.818,3.049 -6.818,6.812 0,3.767 3.052,6.816 6.818,6.816 3.53,0 6.438,-2.688 6.781,-6.134 1.08,0.479 2.272,0.75 3.529,0.75 4.811,0 8.714,-3.902 8.714,-8.716 0,-3.041 -1.559,-5.714 -3.917,-7.274 3.399,-1.408 7.093,-3.197 10.153,-5.508 -0.432,3.622 0.656,7.444 2.346,11.072 -3.469,1.279 -5.948,4.604 -5.948,8.516 0,5.019 4.069,9.087 9.086,9.087 5.021,0 9.089,-4.068 9.089,-9.087 0,-5.017 -4.067,-9.084 -9.089,-9.084 -0.047,0 -0.093,0.006 -0.14,0.007 -2.012,-4.134 -3.291,-8.587 -2.178,-12.528 0.49,0.204 0.987,0.396 1.494,0.563 0.232,0.073 0.469,0.136 0.703,0.203 -0.16,1.053 -0.225,2.116 -0.171,3.184 0.066,1.253 0.27,2.522 0.764,3.738 0.483,1.196 1.316,2.417 2.627,3.063 1.161,0.566 2.458,0.553 3.589,0.277 0.437,0.627 0.965,1.183 1.563,1.627 1.074,0.812 2.299,1.364 3.559,1.718 1.262,0.358 2.575,0.497 3.865,0.427 -1.289,-0.078 -2.555,-0.352 -3.75,-0.783 z"
       id="path4161" /><path
       style="clip-rule:evenodd;fill:#8f00ff;fill-rule:evenodd"
       d="m 60.639,8.815 c 0.268,-0.443 0.606,-0.829 0.96,-1.009 0.349,-0.19 0.701,-0.172 1.111,0.026 0.406,0.194 0.806,0.562 1.157,0.977 0.342,0.411 0.658,0.864 0.956,1.335 0.126,0.293 0.181,0.575 0.129,0.777 -0.044,0.209 -0.215,0.404 -0.5,0.562 -0.575,0.314 -1.38,0.423 -2.154,0.447 -0.89,0.02 -1.791,-0.065 -2.689,-0.211 0.206,-1.036 0.53,-2.056 1.03,-2.904 z"
       id="path4159" /><path
       style="clip-rule:evenodd;fill:#8f00ff;fill-rule:evenodd"
       d="m 64.99,20.942 c -0.041,-0.118 -0.098,-0.23 -0.13,-0.352 -0.322,-1.125 -0.232,-2.328 0.125,-3.454 0.235,-0.39 0.615,-0.563 1.089,-0.543 0.484,0.023 1.008,0.253 1.407,0.589 0.4,0.337 0.693,0.779 0.744,1.214 0.056,0.406 -0.106,0.812 -0.406,1.189 -0.905,0.57 -1.855,1.059 -2.829,1.357 z"
       id="path21" /><path
       d="m 39.789,35.444 c -4.538,0 -8.269,3.433 -8.743,7.845 -1.099,-0.542 -2.331,-0.856 -3.639,-0.856 -4.556,0 -8.244,3.688 -8.244,8.238 0,4.549 3.688,8.237 8.244,8.237 4.116,0 7.517,-3.023 8.129,-6.968 1.261,0.698 2.71,1.099 4.253,1.099 4.858,0 8.799,-3.941 8.799,-8.797 0,-4.861 -3.941,-8.798 -8.799,-8.798 z"
       id="path23"
       inkscape:connector-curvature="0"
       style="clip-rule:evenodd;fill:#960eff;fill-rule:evenodd" /></g></svg>