<svg
   xmlns:dc="http://purl.org/dc/elements/1.1/"
   xmlns:cc="http://creativecommons.org/ns#"
   xmlns:rdf="http://www.w3.org/1999/02/22-rdf-syntax-ns#"
   xmlns:svg="http://www.w3.org/2000/svg"
   xmlns="http://www.w3.org/2000/svg"
   xmlns:sodipodi="http://sodipodi.sourceforge.net/DTD/sodipodi-0.dtd"
   xmlns:inkscape="http://www.inkscape.org/namespaces/inkscape"
   version="1.1"
   x="0px"
   y="0px"
   width="100px"
   height="100px"
   viewBox="5.0 -10.0 100.0 135.0"
   enable-background="new 0 0 100 100"
   xml:space="preserve"
   id="svg2"
   inkscape:version="0.91 r13725"
   sodipodi:docname="heart.svg"><metadata
     id="metadata12"><rdf:RDF><cc:Work
         rdf:about=""><dc:format>image/svg+xml</dc:format><dc:type
           rdf:resource="http://purl.org/dc/dcmitype/StillImage" /></cc:Work></rdf:RDF></metadata><defs
     id="defs10" /><sodipodi:namedview
     pagecolor="#ffffff"
     bordercolor="#666666"
     borderopacity="1"
     objecttolerance="10"
     gridtolerance="10"
     guidetolerance="10"
     inkscape:pageopacity="0"
     inkscape:pageshadow="2"
     inkscape:window-width="751"
     inkscape:window-height="480"
     id="namedview8"
     showgrid="false"
     inkscape:zoom="2.36"
     inkscape:cx="50"
     inkscape:cy="50"
     inkscape:window-x="0"
     inkscape:window-y="0"
     inkscape:window-maximized="0"
     inkscape:current-layer="svg2" /><g
     id="Captions" /><g
     id="Your_Icon"
     transform="matrix(1.3098938,0,0,1.3630392,-10.346304,-11.001447)"><path
       d="M 73.262,6.669 C 57.377,6.758 50,20.143 50,20.143 50,20.143 42.624,6.758 26.736,6.669 1.49,6.528 -7.738,38.265 7.689,59.29 18.508,74.043 31.275,81.133 50,93.331 68.723,81.133 81.488,74.043 92.311,59.29 107.738,38.265 98.508,6.528 73.262,6.669 Z M 88.635,42.72 c -1.838,-0.307 -3.08,-2.045 -2.773,-3.884 1.531,-9.194 -4.705,-17.922 -13.9,-19.454 -1.838,-0.306 -3.08,-2.044 -2.773,-3.883 0.307,-1.837 2.043,-3.081 3.883,-2.774 12.867,2.143 21.59,14.354 19.445,27.221 -0.306,1.836 -2.042,3.079 -3.882,2.774 z"
       id="path6"
       inkscape:connector-curvature="0"
       style="fill:#b50000" /></g></svg>