<svg
   xmlns:dc="http://purl.org/dc/elements/1.1/"
   xmlns:cc="http://creativecommons.org/ns#"
   xmlns:rdf="http://www.w3.org/1999/02/22-rdf-syntax-ns#"
   xmlns:svg="http://www.w3.org/2000/svg"
   xmlns="http://www.w3.org/2000/svg"
   xmlns:sodipodi="http://sodipodi.sourceforge.net/DTD/sodipodi-0.dtd"
   xmlns:inkscape="http://www.inkscape.org/namespaces/inkscape"
   version="1.1"
   id="Layer_1"
   x="0px"
   y="0px"
   width="100px"
   height="100px"
   viewBox="5.0 -10.0 100.0 135.0"
   enable-background="new 0 0 100 100"
   xml:space="preserve"
   inkscape:version="0.91 r13725"
   sodipodi:docname="heeledshoes.svg"><metadata
     id="metadata9"><rdf:RDF><cc:Work
         rdf:about=""><dc:format>image/svg+xml</dc:format><dc:type
           rdf:resource="http://purl.org/dc/dcmitype/StillImage" /></cc:Work></rdf:RDF></metadata><defs
     id="defs7" /><sodipodi:namedview
     pagecolor="#ffffff"
     bordercolor="#666666"
     borderopacity="1"
     objecttolerance="10"
     gridtolerance="10"
     guidetolerance="10"
     inkscape:pageopacity="0"
     inkscape:pageshadow="2"
     inkscape:window-width="1246"
     inkscape:window-height="755"
     id="namedview5"
     showgrid="false"
     inkscape:zoom="2.36"
     inkscape:cx="50"
     inkscape:cy="50"
     inkscape:window-x="34"
     inkscape:window-y="0"
     inkscape:window-maximized="1"
     inkscape:current-layer="Layer_1" /><path
     style="fill:#b50000"
     d="M 111.82001,99.95356 C 107.54639,98.42372 103.07644,97.595006 98.697529,96.360879 92.860408,94.718954 87.182625,92.702617 81.833473,90.147319 75.96221,87.34281 69.362551,85.684191 63.131359,83.540268 c -0.0014,0 1.155189,1.198355 2.964796,2.748466 0.458092,0.383951 0.974512,0.779825 1.502315,1.198355 0.547719,0.405414 1.142385,0.807251 1.751278,1.212664 0.616005,0.400644 1.278959,0.773863 1.971789,1.12085 0.331476,0.18959 0.689983,0.348179 1.04849,0.501997 0.357084,0.160973 0.708478,0.329101 1.09117,0.447148 0.714168,0.29929 1.52081,0.49842 2.220751,0.715436 0.847897,0.184821 1.667342,0.419722 2.411386,0.565194 1.533613,0.324331 2.99325,0.578311 4.229529,0.680857 0.600357,0.02504 1.183642,0.05604 1.610437,-0.02146 0.435329,-0.09658 0.671488,-0.13951 0.655839,-0.343409 -0.05406,-0.220593 -0.254653,-0.459071 -0.395495,-0.569964 -0.147956,-0.127586 -0.227624,-0.196745 -0.227624,-0.196745 0,0 0.108117,0.031 0.314405,0.08705 0.105272,0.02623 0.233314,0.06916 0.375579,0.146664 0.155069,0.05843 0.308714,0.175282 0.459515,0.354141 0.05548,0.09778 0.110966,0.232517 0.125193,0.372027 -0.02703,0.126394 -0.03984,0.326716 -0.147955,0.424492 -0.180676,0.270673 -0.458093,0.423299 -0.738355,0.567579 -0.567635,0.286174 -1.217785,0.426877 -1.934799,0.543731 -0.708477,0.101354 -1.480975,0.170513 -2.283348,0.152627 -0.808063,0.0012 -1.641735,-0.031 -2.512394,-0.138318 -0.892,-0.103738 -1.738474,-0.215823 -2.583526,-0.375604 -0.970245,-0.220593 -1.8594,-0.444762 -2.745708,-0.791749 -0.449556,-0.151434 -0.863547,-0.357718 -1.280383,-0.55327 -0.428216,-0.183629 -0.82229,-0.405414 -1.202136,-0.637931 -0.785301,-0.435223 -1.459636,-0.968223 -2.102672,-1.47499 -0.644458,-0.506767 -1.177952,-1.066 -1.67161,-1.593037 -0.48939,-0.531808 -0.892,-1.068385 -1.234856,-1.570382 C 63.420157,85.090388 63.13705,83.545046 63.13705,83.545046 61.633312,83.027548 60.988853,80.896741 60.411258,79.725811 56.806271,72.421211 54.188602,64.738621 51.53252,57.165732 49.15101,50.386968 46.879043,43.583172 44.617034,36.776992 42.369253,30.020892 38.752885,23.611779 34.94446,17.381525 31.490274,11.724812 27.814155,5.9309731 23.07674,0.942 c 0,0 -24.837988,9.403213 -25.840954,25.519599 0,0 -2.0030865,-0.671318 0.6032022,4.701606 l 6.6096161,15.276942 c 0,0 4.6065303,11.247844 4.8071239,20.819184 l 0.8009498,22.831945 0,20.310034 3.003207,0 4.807124,-39.788969 c 0,0 1.603322,-13.598052 9.617092,-14.774944 0,0 3.2038,-2.182079 5.206886,8.225128 2.197989,9.774047 3.412929,19.833076 6.040558,29.504577 1.286073,4.740955 4.172624,9.632148 7.357929,13.643358 5.754606,7.2426 16.957949,10.3154 26.752871,10.65404 9.885973,0.34221 20.686706,-0.47696 29.872735,-3.71431 3.30338,-1.16616 17.9225,-7.03989 14.60489,-11.1763 -1.16799,-1.44995 -3.67754,-2.36809 -5.49996,-3.02033 z"
     id="path4139" /><path
     style="fill:#b50000"
     d="M 24.569097,49.908818 C 23.024103,48.704501 21.274248,47.26886 19.444724,45.694901 17.652189,44.094709 15.582239,42.511211 13.596224,40.863324 12.617443,40.027456 11.637238,39.191588 10.671262,38.367645 9.6995943,37.550855 8.7947906,36.703064 7.8885644,35.905353 6.0505048,34.340933 4.3404841,32.871905 2.9235281,31.561464 1.4980352,30.260563 0.33715587,29.140906 -0.49651559,28.371813 -1.3159596,27.591988 -1.7669386,27.129339 -1.7669386,27.129339 c 0,0 0.6060474,0.312407 1.63746595,0.885948 1.03995484,0.566387 2.47113755,1.427295 4.13563445,2.529066 0.8365164,0.544924 1.744165,1.135158 2.6774209,1.786205 0.9346795,0.649854 1.9504483,1.31044 2.9306527,2.058071 0.9617096,0.758362 1.9860146,1.516724 2.9761766,2.333513 0.99443,0.81202 2.008777,1.634771 3.020279,2.458715 0.987316,0.843022 1.977479,1.686044 2.950569,2.514757 1.005812,0.803673 1.848018,1.714661 2.705874,2.558876 1.700063,1.70393 3.242212,3.325584 4.519749,4.744532 2.579258,2.818818 4.092955,4.824423 4.092955,4.824423 0,0 -2.246359,-1.489299 -5.310741,-3.914627 z"
     id="path3" /></svg>