<svg
   xmlns:dc="http://purl.org/dc/elements/1.1/"
   xmlns:cc="http://creativecommons.org/ns#"
   xmlns:rdf="http://www.w3.org/1999/02/22-rdf-syntax-ns#"
   xmlns:svg="http://www.w3.org/2000/svg"
   xmlns="http://www.w3.org/2000/svg"
   xmlns:sodipodi="http://sodipodi.sourceforge.net/DTD/sodipodi-0.dtd"
   xmlns:inkscape="http://www.inkscape.org/namespaces/inkscape"
   version="1.1"
   id="Layer_1"
   x="0px"
   y="0px"
   viewBox="4.5 -9.0 90.0 121.5"
   enable-background="new 0 0 90 90"
   xml:space="preserve"
   height="100px"
   width="100px"
   inkscape:version="0.91 r13725"
   sodipodi:docname="house.svg"><metadata
     id="metadata9"><rdf:RDF><cc:Work
         rdf:about=""><dc:format>image/svg+xml</dc:format><dc:type
           rdf:resource="http://purl.org/dc/dcmitype/StillImage" /></cc:Work></rdf:RDF></metadata><defs
     id="defs7" /><sodipodi:namedview
     pagecolor="#ffffff"
     bordercolor="#666666"
     borderopacity="1"
     objecttolerance="10"
     gridtolerance="10"
     guidetolerance="10"
     inkscape:pageopacity="0"
     inkscape:pageshadow="2"
     inkscape:window-width="1246"
     inkscape:window-height="755"
     id="namedview5"
     showgrid="false"
     inkscape:zoom="5.53"
     inkscape:cx="50"
     inkscape:cy="48.553345"
     inkscape:window-x="34"
     inkscape:window-y="0"
     inkscape:window-maximized="1"
     inkscape:current-layer="Layer_1" /><path
     style="fill:#9966cc"
     d="M 57.317136,-3.0887599 104.69242,38.473729 c 6.41737,5.635592 2.07621,15.497878 -6.606112,15.497878 L 3.335733,53.795494 c -8.6823236,0 -12.8347393,-10.038397 -6.6061158,-15.497877 L 44.293652,-3.0887599 c 3.774922,-3.1700203 9.437308,-3.1700203 13.023484,0 z"
     id="path4147" /><path
     style="fill:#b894db;fill-opacity:1"
     d="m 98.463801,59.078861 0,32.756878 c 0,9.333951 -8.116084,17.082891 -18.308379,17.082891 l -58.700057,0 c -10.003547,0 -18.3083781,-7.57283 -18.3083781,-17.082891 l 0,-32.932989 c 0,0 0.1887461,0 0.1887461,0 l 94.750575,0.176111 c 0.188747,0 0.188747,0 0.377493,0 z"
     id="path4145" /><path
     style="fill:#deffff;fill-opacity:1"
     d="m 30.515181,73.696177 -10.192293,0 0,10.038398 10.192293,0 0,-10.038398 z"
     id="path4143" /><path
     style="fill:#deffff;fill-opacity:1"
     d="m 30.515181,63.129443 -10.192293,0 0,8.981724 10.192293,0 0,-8.981724 z"
     id="path4141" /><path
     style="fill:#deffff;fill-opacity:1"
     d="m 42.406189,73.696177 -10.192292,0 0,10.038398 10.192292,0 0,-10.038398 z"
     id="path4139" /><path
     style="fill:#deffff;fill-opacity:1"
     d="m 42.406189,63.129443 -10.192292,0 0,8.981724 10.192292,0 0,-8.981724 z"
     id="path3" /></svg>