<svg
   xmlns:dc="http://purl.org/dc/elements/1.1/"
   xmlns:cc="http://creativecommons.org/ns#"
   xmlns:rdf="http://www.w3.org/1999/02/22-rdf-syntax-ns#"
   xmlns:svg="http://www.w3.org/2000/svg"
   xmlns="http://www.w3.org/2000/svg"
   xmlns:sodipodi="http://sodipodi.sourceforge.net/DTD/sodipodi-0.dtd"
   xmlns:inkscape="http://www.inkscape.org/namespaces/inkscape"
   version="1.1"
   x="0px"
   y="0px"
   width="90px"
   height="90px"
   viewBox="4.5 -9.0 90.0 121.5"
   enable-background="new 0 0 90 90"
   xml:space="preserve"
   id="svg2"
   inkscape:version="0.91 r13725"
   sodipodi:docname="ice.svg"><metadata
     id="metadata27"><rdf:RDF><cc:Work
         rdf:about=""><dc:format>image/svg+xml</dc:format><dc:type
           rdf:resource="http://purl.org/dc/dcmitype/StillImage" /></cc:Work></rdf:RDF></metadata><defs
     id="defs25" /><sodipodi:namedview
     pagecolor="#ffffff"
     bordercolor="#666666"
     borderopacity="1"
     objecttolerance="10"
     gridtolerance="10"
     guidetolerance="10"
     inkscape:pageopacity="0"
     inkscape:pageshadow="2"
     inkscape:window-width="1246"
     inkscape:window-height="755"
     id="namedview23"
     showgrid="false"
     inkscape:zoom="6.3222222"
     inkscape:cx="45"
     inkscape:cy="42.688669"
     inkscape:window-x="34"
     inkscape:window-y="0"
     inkscape:window-maximized="1"
     inkscape:current-layer="svg2" /><g
     id="Layer_2"
     transform="matrix(1.3435273,0,0,1.3120489,-10.292098,-8.1702035)"><g
       id="g5"
       style="fill:#add8e6"><path
         d="m 51.69,71.587 -2.07,4.277 -0.988,2.043 c -0.825,1.704 -2.536,2.699 -4.313,2.699 -0.699,0 -1.407,-0.154 -2.077,-0.478 l -6.99,-3.383 c -0.746,-0.361 -1.058,-1.259 -0.697,-2.004 0.361,-0.745 1.26,-1.057 2.003,-0.697 l 6.99,3.383 c 0.886,0.43 1.954,0.058 2.383,-0.827 l 0.989,-2.043 2.069,-4.277 c 0.362,-0.746 1.259,-1.057 2.004,-0.697 0.746,0.361 1.058,1.258 0.697,2.004 z"
         id="path7"
         inkscape:connector-curvature="0"
         style="fill:none" /><path
         d="m 30.105,45.312 c 0.556,-1.149 1.526,-2.014 2.733,-2.434 0.744,-0.259 1.521,-0.307 2.279,-0.193 l 0,-10.85 0,-8.144 c 0,-0.983 -0.8,-1.783 -1.784,-1.783 l -27.183,0 c -0.983,0 -1.783,0.8 -1.783,1.783 l 0,8.142 0,10.856 0,8.144 c 0,0.983 0.8,1.783 1.784,1.783 l 20.419,0 3.535,-7.304 z m -10.315,-17.53 -7.764,0 c -0.983,0 -1.784,0.801 -1.784,1.785 l 0,7.02 c 0,0.829 -0.671,1.5 -1.5,1.5 -0.829,0 -1.5,-0.671 -1.5,-1.5 l 0,-7.02 c 0,-2.638 2.146,-4.785 4.784,-4.785 l 7.764,0 c 0.829,0 1.5,0.671 1.5,1.5 0,0.829 -0.672,1.5 -1.5,1.5 z"
         id="path9"
         inkscape:connector-curvature="0"
         style="fill:none" /><path
         d="m 80.737,13.92 c -10e-4,-0.002 0,-0.005 -10e-4,-0.007 L 79.027,5.956 C 78.82,4.996 77.869,4.379 76.91,4.588 l -26.577,5.706 c -0.961,0.207 -1.576,1.158 -1.369,2.118 l 3.99,18.575 c 0.002,0.008 10e-4,0.017 0.003,0.025 l 1.704,7.938 c 0.207,0.961 1.154,1.573 2.118,1.369 l 26.577,-5.707 c 0.467,-0.1 0.866,-0.376 1.125,-0.776 0.258,-0.399 0.345,-0.876 0.244,-1.343 L 80.737,13.92 Z m -0.713,17.034 c -0.693,1.073 -1.764,1.812 -3.014,2.081 l -7.593,1.63 c -0.105,0.022 -0.212,0.034 -0.316,0.034 -0.691,0 -1.313,-0.482 -1.465,-1.186 -0.174,-0.81 0.342,-1.607 1.152,-1.782 l 7.592,-1.63 c 0.466,-0.1 0.865,-0.375 1.124,-0.775 0.258,-0.399 0.345,-0.876 0.244,-1.342 l -1.473,-6.866 c -0.174,-0.81 0.342,-1.607 1.152,-1.781 0.805,-0.17 1.607,0.342 1.781,1.152 l 1.473,6.865 c 0.27,1.248 0.037,2.527 -0.657,3.6 z"
         id="path11"
         inkscape:connector-curvature="0"
         style="fill:none" /><path
         d="m 19.79,24.782 -7.764,0 c -2.638,0 -4.784,2.146 -4.784,4.785 l 0,7.02 c 0,0.829 0.671,1.5 1.5,1.5 0.829,0 1.5,-0.671 1.5,-1.5 l 0,-7.02 c 0,-0.984 0.8,-1.785 1.784,-1.785 l 7.764,0 c 0.829,0 1.5,-0.671 1.5,-1.5 0,-0.829 -0.672,-1.5 -1.5,-1.5 z"
         id="path13"
         inkscape:connector-curvature="0" /><path
         d="M 87.659,31.862 85.953,23.916 C 85.952,23.911 85.952,23.907 85.951,23.902 L 81.96,5.324 C 81.403,2.746 78.853,1.102 76.279,1.655 L 49.702,7.36 c -2.578,0.556 -4.226,3.105 -3.672,5.682 l 1.708,7.949 c 0,0.004 0,0.008 10e-4,0.012 l 3.988,18.577 c 0.483,2.242 2.472,3.779 4.676,3.779 0.332,0 0.669,-0.035 1.006,-0.107 l 26.577,-5.707 c 1.251,-0.269 2.321,-1.008 3.015,-2.081 0.693,-1.073 0.927,-2.353 0.658,-3.602 z m -3.178,1.973 c -0.259,0.4 -0.658,0.676 -1.125,0.776 l -26.577,5.707 c -0.964,0.204 -1.911,-0.408 -2.118,-1.369 l -1.704,-7.938 c -0.002,-0.008 -10e-4,-0.017 -0.003,-0.025 l -3.99,-18.575 c -0.207,-0.96 0.408,-1.911 1.369,-2.118 L 76.91,4.588 c 0.959,-0.209 1.91,0.408 2.117,1.368 l 1.709,7.957 c 10e-4,0.002 0,0.005 10e-4,0.007 l 3.988,18.573 c 0.101,0.466 0.014,0.943 -0.244,1.342 z"
         id="path15"
         inkscape:connector-curvature="0" /><path
         d="m 79.21,20.489 c -0.174,-0.81 -0.977,-1.322 -1.781,-1.152 -0.811,0.174 -1.326,0.971 -1.152,1.781 l 1.473,6.866 c 0.101,0.466 0.014,0.942 -0.244,1.342 -0.259,0.4 -0.658,0.675 -1.124,0.775 l -7.592,1.63 c -0.811,0.174 -1.326,0.972 -1.152,1.782 0.151,0.704 0.773,1.186 1.465,1.186 0.104,0 0.211,-0.011 0.316,-0.034 l 7.593,-1.63 c 1.25,-0.269 2.32,-1.007 3.014,-2.081 0.693,-1.073 0.927,-2.352 0.658,-3.6 L 79.21,20.489 Z"
         id="path17"
         inkscape:connector-curvature="0" /><path
         d="m 60.961,54.934 -22.844,-11.059 0,-1.184 0,-10.856 0,-8.144 c 0,-2.638 -2.146,-4.783 -4.784,-4.783 l -27.183,0 c -2.638,0 -4.783,2.146 -4.783,4.783 l 0,8.142 0,10.856 0,8.144 c 0,2.638 2.146,4.783 4.784,4.783 l 18.966,0 -6.837,14.126 c -1.149,2.374 -0.153,5.241 2.222,6.392 l 24.467,11.84 c 0.669,0.325 1.378,0.479 2.077,0.479 1.777,0 3.487,-0.994 4.314,-2.699 l 3.545,-7.324 c 10e-4,-0.002 0.002,-0.003 0.003,-0.005 l 8.276,-17.103 c 1.148,-2.378 0.15,-5.243 -2.223,-6.388 z M 6.151,52.616 c -0.984,0 -1.784,-0.8 -1.784,-1.783 l 0,-8.144 0,-10.856 0,-8.142 c 0,-0.983 0.8,-1.783 1.783,-1.783 l 27.183,0 c 0.984,0 1.784,0.8 1.784,1.783 l 0,8.144 0,10.851 c -0.758,-0.114 -1.535,-0.066 -2.279,0.193 -1.207,0.419 -2.177,1.284 -2.733,2.434 l -3.535,7.304 -20.419,0 z m 54.332,7.4 -3.545,7.324 -0.003,0.007 -4.729,9.771 0,-10e-4 -3.547,7.329 c -0.429,0.886 -1.495,1.259 -2.384,0.828 L 21.81,73.434 c -0.886,-0.43 -1.258,-1.499 -0.829,-2.385 l 3.544,-7.322 c 0.001,-0.003 0.003,-0.005 0.005,-0.008 l 3.922,-8.103 0.807,-1.668 0.645,-1.332 2.903,-5.998 c 0.207,-0.428 0.568,-0.75 1.018,-0.907 0.427,-0.148 0.881,-0.125 1.293,0.053 0.023,0.01 0.048,0.015 0.071,0.026 l 2.929,1.418 21.538,10.426 c 0.884,0.428 1.255,1.496 0.827,2.382 z"
         id="path19"
         inkscape:connector-curvature="0" /><path
         d="M 50.993,69.583 C 50.248,69.224 49.351,69.534 48.989,70.28 L 46.92,74.557 45.931,76.6 c -0.429,0.885 -1.497,1.257 -2.383,0.827 l -6.99,-3.383 c -0.744,-0.359 -1.642,-0.048 -2.003,0.697 -0.361,0.745 -0.049,1.643 0.697,2.004 l 6.99,3.383 c 0.669,0.323 1.378,0.478 2.077,0.478 1.777,0 3.488,-0.995 4.313,-2.699 l 0.988,-2.043 2.07,-4.277 c 0.361,-0.746 0.049,-1.643 -0.697,-2.004 z"
         id="path21"
         inkscape:connector-curvature="0" /></g></g><path
     style="fill:#deffff;fill-opacity:1;stroke:#b4e2ff;stroke-width:0.28350604;stroke-opacity:1"
     d="M 35.714263,96.016236 C 26.53881,91.667287 18.760591,87.868885 18.429337,87.575342 18.074778,87.26115 17.827052,86.698533 17.827052,86.20747 c 0,-1.025073 15.832285,-33.175092 16.688897,-33.88951 0.323332,-0.269658 0.941335,-0.490288 1.373342,-0.490288 1.120945,0 33.828813,15.508192 34.679705,16.443123 0.470722,0.517213 0.627517,0.95544 0.523488,1.463112 -0.182538,0.890825 -16.121421,33.071443 -16.622443,33.560723 -1.087672,1.06219 -1.479721,0.91005 -18.755778,-7.278394 z m 16.108873,1.069212 c 1.904569,-0.766659 2.667409,-1.769762 5.162085,-6.787913 1.342227,-2.69995 2.440414,-5.171277 2.440414,-5.491839 0,-0.805329 -1.105198,-1.879698 -1.933633,-1.879698 -1.334188,0 -1.808588,0.603255 -4.047946,5.147445 -2.232659,4.530595 -2.973809,5.501645 -4.195015,5.496269 -0.319914,-0.0014 -2.823603,-1.07304 -5.563757,-2.381403 -2.744412,-1.310398 -5.353701,-2.378843 -5.809457,-2.378843 -1.579139,0 -2.565919,1.92876 -1.616299,3.159216 0.37886,0.490907 9.305951,4.780769 11.260304,5.41108 1.219798,0.393402 2.876283,0.280111 4.303304,-0.294314 z"
     id="path4155"
     inkscape:connector-curvature="0" /><path
     style="fill:#deffff;fill-opacity:1;stroke:#b4e2ff;stroke-width:0.28350604;stroke-opacity:1"
     d="m -3.5590523,60.105276 -0.7041767,-0.687677 0,-18.73496 0,-18.734959 0.6639855,-0.609169 0.6639856,-0.609166 19.2538219,0 19.253823,0 0.594597,0.738197 c 0.581628,0.722097 0.594596,1.014513 0.594596,13.408899 l 0,12.670706 -1.419011,0.164125 c -3.188205,0.36875 -4.122985,1.36133 -7.400471,7.858036 l -2.635247,5.22365 -14.080863,0 -14.0808635,0 -0.7041768,-0.687678 z M 3.0361158,41.11906 C 3.4019865,40.608945 3.482715,39.541542 3.482715,35.214041 l 0,-5.282349 0.8385908,-0.818945 0.8385929,-0.818943 6.0258683,0 6.025868,0 0.594595,-0.738197 c 0.78019,-0.968609 0.752085,-1.821294 -0.08536,-2.58959 -0.668997,-0.613764 -0.788313,-0.622446 -7.409199,-0.539126 l -6.7292541,0.08468 -1.1949534,0.772847 c -0.6572258,0.425065 -1.55107988,1.297945 -1.98634328,1.939733 l -0.7913878,1.166885 -0.087496,6.145974 c -0.078028,5.480346 -0.03437,6.203308 0.4030724,6.675344 0.7157485,0.772364 2.52891898,0.717983 3.11079638,-0.09329 z"
     id="path4157"
     inkscape:connector-curvature="0" /><path
     style="fill:#deffff;fill-opacity:1;stroke:#b4e2ff;stroke-width:0.28350604;stroke-opacity:1"
     d="M 64.902345,44.559759 C 64.522101,44.46637 63.985608,44.077774 63.710141,43.696216 63.205208,42.996814 55.612133,9.0677054 55.60433,7.4759802 55.595987,5.778071 55.457143,5.8191729 75.21318,1.6719413 c 13.467179,-2.8270628 18.615379,-3.8044669 19.097014,-3.6256416 0.362664,0.1346516 0.847463,0.5341217 1.077328,0.8877036 0.229864,0.35358178 2.166513,8.6257946 4.303665,18.3826947 4.104673,18.739373 4.089793,18.632426 2.708543,19.473394 -0.36206,0.220443 -8.662437,2.062789 -18.445276,4.094102 -9.782839,2.031314 -17.916079,3.727512 -18.073867,3.769331 -0.157797,0.04182 -0.597996,-2.8e-4 -0.978242,-0.09377 z m 23.308673,-8.261361 c 3.232704,-0.68247 6.243977,-1.42766 6.691718,-1.655981 1.009048,-0.514545 2.190415,-1.736858 2.751188,-2.846551 0.885243,-1.75175 0.844433,-2.693837 -0.351935,-8.126049 -0.635166,-2.884013 -1.154847,-5.287865 -1.154847,-5.341894 0,-0.369498 -1.384786,-1.240725 -1.972093,-1.240725 -0.94958,0 -2.044409,1.039107 -2.04398,1.939952 1.88e-4,0.396891 0.452034,2.767719 1.004101,5.268512 0.552072,2.500789 1.003764,4.731579 1.003764,4.957305 0,0.22573 -0.290472,0.738866 -0.645494,1.140307 -0.563379,0.637037 -1.368787,0.883296 -6.330963,1.935741 -3.127009,0.663219 -5.861867,1.381909 -6.077467,1.597093 -0.215598,0.215187 -0.478222,0.734775 -0.583607,1.154647 -0.154587,0.615859 -0.02387,0.927211 0.67627,1.610949 0.477334,0.466151 0.932641,0.847547 1.011789,0.847547 0.07916,0 2.788849,-0.558386 6.021556,-1.240853 z"
     id="path4161"
     inkscape:connector-curvature="0" /></svg>