<svg
   xmlns:dc="http://purl.org/dc/elements/1.1/"
   xmlns:cc="http://creativecommons.org/ns#"
   xmlns:rdf="http://www.w3.org/1999/02/22-rdf-syntax-ns#"
   xmlns:svg="http://www.w3.org/2000/svg"
   xmlns="http://www.w3.org/2000/svg"
   xmlns:sodipodi="http://sodipodi.sourceforge.net/DTD/sodipodi-0.dtd"
   xmlns:inkscape="http://www.inkscape.org/namespaces/inkscape"
   version="1.1"
   x="0px"
   y="0px"
   width="100px"
   height="100px"
   viewBox="5.0 -10.0 100.0 135.0"
   enable-background="new 0 0 100 100"
   xml:space="preserve"
   id="svg2"
   inkscape:version="0.91 r13725"
   sodipodi:docname="icecle.svg"><metadata
     id="metadata11"><rdf:RDF><cc:Work
         rdf:about=""><dc:format>image/svg+xml</dc:format><dc:type
           rdf:resource="http://purl.org/dc/dcmitype/StillImage" /></cc:Work></rdf:RDF></metadata><defs
     id="defs9" /><sodipodi:namedview
     pagecolor="#ffffff"
     bordercolor="#666666"
     borderopacity="1"
     objecttolerance="10"
     gridtolerance="10"
     guidetolerance="10"
     inkscape:pageopacity="0"
     inkscape:pageshadow="2"
     inkscape:window-width="1246"
     inkscape:window-height="755"
     id="namedview7"
     showgrid="false"
     inkscape:zoom="5.69"
     inkscape:cx="50"
     inkscape:cy="49.534974"
     inkscape:window-x="34"
     inkscape:window-y="0"
     inkscape:window-maximized="1"
     inkscape:current-layer="svg2" /><g
     id="IceCream"
     transform="matrix(1.6473258,0,0,1.3717201,-33.315319,-10.400778)"><path
       style="fill:#9ade00"
       d="m 50.00036,1.810709 c -0.45,0 -0.895505,0.022744 -1.336505,0.055744 -0.03,3.6189999 -2.970096,6.543165 -6.596096,6.543165 -0.02,0 -0.03762,-9.223e-4 -0.05762,-0.00192 0.034,0.2719999 0.05762,0.5483899 0.05762,0.8303899 0,3.2529995 -2.356864,5.9492655 -5.454864,6.4912655 0.14,0.49 0.219284,1.007604 0.219284,1.541603 0,2.691 -1.896675,4.93619 -4.425675,5.480189 l 0,48.347147 c 0,0.973 0.790267,1.758812 1.762267,1.758812 l 11.854084,0 0,0.03652 7.953409,0 0,-0.03652 11.857286,0 c 0.973,0 1.759066,-0.787734 1.759066,-1.760735 l 0,-51.691771 c 0,-9.7160007 -7.875255,-17.5938871 -17.592256,-17.593887 z"
       id="path4189" /><path
       style="fill:#c2f257;fill-opacity:1"
       d="m 42.887269,22.262905 c 0.685,0 1.242071,0.55574 1.242071,1.241741 l 0,39.954826 c 0,0.686 -0.556071,1.24174 -1.242071,1.24174 -0.686,0 -1.240469,-0.55674 -1.240469,-1.24174 l 0,-39.954826 c 0,-0.686001 0.555469,-1.241741 1.240469,-1.241741 z"
       id="path4187" /><path
       style="fill:#c2f257;fill-opacity:1"
       d="m 56.95019,22.262905 c 0.685999,0 1.240469,0.55574 1.240469,1.241741 l 0,39.954826 c 0,0.686 -0.55447,1.24174 -1.240469,1.24174 -0.686,0 -1.24207,-0.55674 -1.24207,-1.24174 l 0,-39.954826 c 0,-0.686001 0.55607,-1.241741 1.24207,-1.241741 z"
       id="path4185" /><path
       style="fill:#ffcc66"
       d="m 46.022855,72.936219 0.144026,19.898254 c 0.02901,4.007447 1.925532,5.182324 4.121532,5.182324 2.196,0 4.033937,-1.173506 3.975904,-5.182324 L 53.976264,72.936219 Z"
       id="path5"
       inkscape:connector-curvature="0"
       sodipodi:nodetypes="cssscc" /></g><rect
     style="fill:#cc9900;fill-opacity:0;stroke:none;stroke-opacity:1"
     id="rect4147"
     width="0.47451669"
     height="22.302284"
     x="-7.5175757"
     y="73.752197" /></svg>