<svg
   xmlns:dc="http://purl.org/dc/elements/1.1/"
   xmlns:cc="http://creativecommons.org/ns#"
   xmlns:rdf="http://www.w3.org/1999/02/22-rdf-syntax-ns#"
   xmlns:svg="http://www.w3.org/2000/svg"
   xmlns="http://www.w3.org/2000/svg"
   xmlns:sodipodi="http://sodipodi.sourceforge.net/DTD/sodipodi-0.dtd"
   xmlns:inkscape="http://www.inkscape.org/namespaces/inkscape"
   version="1.1"
   id="Layer_1"
   x="0px"
   y="0px"
   width="100px"
   height="100px"
   viewBox="5.0 -10.0 100.0 135.0"
   enable-background="new 0 0 100 100"
   xml:space="preserve"
   inkscape:version="0.91 r13725"
   sodipodi:docname="igloo.svg"><metadata
     id="metadata9"><rdf:RDF><cc:Work
         rdf:about=""><dc:format>image/svg+xml</dc:format><dc:type
           rdf:resource="http://purl.org/dc/dcmitype/StillImage" /></cc:Work></rdf:RDF></metadata><defs
     id="defs7" /><sodipodi:namedview
     pagecolor="#ffffff"
     bordercolor="#666666"
     borderopacity="1"
     objecttolerance="10"
     gridtolerance="10"
     guidetolerance="10"
     inkscape:pageopacity="0"
     inkscape:pageshadow="2"
     inkscape:window-width="1246"
     inkscape:window-height="755"
     id="namedview5"
     showgrid="false"
     inkscape:zoom="5.53"
     inkscape:cx="50"
     inkscape:cy="48.553345"
     inkscape:window-x="34"
     inkscape:window-y="0"
     inkscape:window-maximized="1"
     inkscape:current-layer="Layer_1" /><path
     style="fill:#70c8ff;fill-opacity:1"
     d="M 115.86839,72.886325 C 111.37709,59.45165 102.23729,46.541963 91.233052,37.356224 l 0,-0.668887 -0.259387,0 C 77.727708,27.199572 60.847207,20.872813 42.23747,25.052174 7.2628596,32.906463 -10.949153,69.355295 -10.949153,101.03336 l 0,2.06834 80.150149,0 45.262004,0 5.06666,0 0,-15.510919 c 0,-5.385889 -1.30164,-10.422311 -3.66127,-14.704456 z"
     id="path4175" /><path
     style="fill:#b4e2ff;fill-opacity:1"
     d="m 69.461954,84.126165 -12.813649,0 0,-12.650355 17.297089,0 c -2.314033,3.162589 -3.892356,7.906472 -4.48344,12.650355 z"
     id="path4173" /><path
     style="fill:#99d8ff;fill-opacity:1"
     d="m 25.952771,87.288754 27.551466,0 0,12.650353 -28.255736,0 c -0.281396,-4.743883 -0.02829,-7.906471 0.70427,-12.650353 z"
     id="path4171" /><path
     style="fill:#b4e2ff;fill-opacity:1"
     d="m 26.451106,84.126165 c 0.696411,-4.743883 1.66164,-9.487766 2.872105,-12.650355 l 24.181026,0 0,12.650355 -27.053131,0 z"
     id="path4169" /><path
     style="fill:#ebf7ff;fill-opacity:1"
     d="m 56.648305,36.687337 0,-8.559546 c 3.144068,2.367198 6.176521,5.396958 8.809678,8.559546 l -8.809678,0 z"
     id="path4167" /><path
     style="fill:#d6efff;fill-opacity:1"
     d="m 67.53464,39.849926 c 2.422504,4.743883 4.445713,7.906471 6.215822,12.650353 l -17.102157,0 0,-12.650353 10.886335,0 z"
     id="path4165" /><path
     style="fill:#ebf7ff;fill-opacity:1"
     d="m 53.504237,36.687337 -8.65719,0 c 2.545123,-3.162588 5.513122,-5.929853 8.65719,-8.23538 l 0,8.23538 z"
     id="path4163" /><path
     style="fill:#d6efff;fill-opacity:1"
     d="m 53.504237,39.849926 0,12.650353 -17.459009,0 c 1.998055,-4.743882 4.236632,-7.90647 6.690577,-12.650353 l 10.768432,0 z"
     id="path4161" /><path
     style="fill:#c2e8ff;fill-opacity:1"
     d="m 53.504237,55.662868 0,12.650355 -23.275534,0 C 31.505195,63.56934 33.006487,58.825457 34.709,55.662868 l 18.795237,0 z"
     id="path4159" /><path
     style="fill:#c2e8ff;fill-opacity:1"
     d="m 26.996601,68.313223 -28.6283091,0 C 0.25001671,63.56934 2.4933092,58.825457 5.0164237,55.662868 l 26.3488593,0 c -1.666355,4.743883 -3.128346,7.906472 -4.368682,12.650355 z"
     id="path4157" /><path
     style="fill:#b4e2ff;fill-opacity:1"
     d="m 26.114691,71.47581 c -1.177454,3.162589 -2.10967,7.906472 -2.779357,12.650355 l -29.7035808,0 c 0.8724795,-4.743883 2.0609363,-9.487766 3.5182122,-12.650355 l 28.9647256,0 z"
     id="path4155" /><path
     style="fill:#c2e8ff;fill-opacity:1"
     d="m 76.231131,68.313223 -19.582826,0 0,-12.650355 18.322055,0 c 1.306361,3.162589 2.479098,6.911838 3.58581,10.126609 -0.817458,0.741627 -1.594043,0.942451 -2.325039,2.523746 z"
     id="path4153" /><path
     style="fill:#c2e8ff;fill-opacity:1"
     d="m 81.087145,63.672124 c -0.894487,-2.588579 -1.832992,-4.846667 -2.85167,-8.009256 l 25.699605,0 c 2.0012,3.162589 3.78704,6.070589 5.33549,9.230015 -4.17375,-3.434571 -9.326877,-5.466535 -14.896595,-5.466535 -4.876449,0 -9.42906,1.555994 -13.28683,4.245776 z"
     id="path4151" /><path
     style="fill:#d6efff;fill-opacity:1"
     d="m 101.74525,52.500279 -24.701378,0 c -1.696224,-4.743882 -3.628254,-7.90647 -5.929711,-12.650353 l 18.812529,0 c 4.412699,4.743883 8.382083,7.906471 11.81856,12.650353 z"
     id="path4149" /><path
     style="fill:#ebf7ff;fill-opacity:1"
     d="m 69.193136,36.687337 c -2.526259,-3.162588 -5.470678,-7.174331 -8.974741,-9.92104 9.407049,1.048398 18.083105,5.177157 25.657164,9.92104 l -16.682423,0 z"
     id="path4147" /><path
     style="fill:#ebf7ff;fill-opacity:1"
     d="m 42.820695,28.039239 c 2.347047,-0.526571 4.667368,-1.024679 6.954678,-1.234991 -3.111056,2.718245 -6.013031,6.720501 -8.674484,9.883089 l -18.105114,0 c 6.302284,-4.743883 13.074606,-7.131637 19.82492,-8.648098 z"
     id="path4145" /><path
     style="fill:#d6efff;fill-opacity:1"
     d="m 18.935211,39.849926 20.173911,0 c -2.369055,4.743883 -4.524312,7.906471 -6.443767,12.650353 l -25.4952451,0 C 10.693038,47.756397 14.670283,43.012514 18.935211,39.849926 Z"
     id="path4143" /><path
     style="fill:#99d8ff;fill-opacity:1"
     d="m -6.921602,87.288754 29.78061,0 c -0.690123,4.743882 -0.9275,7.90647 -0.668115,12.650353 l -30.249076,0 c 0.072311,-4.743883 0.4653217,-9.487765 1.136581,-12.650353 z"
     id="path4141" /><path
     style="fill:#99d8ff;fill-opacity:1"
     d="m 56.648305,99.939107 0,-12.650353 12.569983,0 c -0.0094,0 0.0063,-0.0253 0.0063,0.302027 l 0,12.348326 -12.576271,0 z"
     id="path4139" /><path
     style="fill:#c2e8ff;fill-opacity:1"
     d="m 116.3856,99.939107 -1.9226,0 -1.22147,0 0,-12.50013 c 0,-11.941935 -8.16043,-21.655825 -18.865983,-21.655825 -10.707123,0 -18.862834,9.715472 -18.862834,21.655825 l 0,12.50013 -3.144069,0 0,-12.348326 c 0,-13.820512 9.809492,-25.066677 22.008475,-25.066677 12.202121,0 22.008481,11.244583 22.008481,25.066677 l 0,12.348326 z"
     id="path3" /></svg>