<svg
   xmlns:dc="http://purl.org/dc/elements/1.1/"
   xmlns:cc="http://creativecommons.org/ns#"
   xmlns:rdf="http://www.w3.org/1999/02/22-rdf-syntax-ns#"
   xmlns:svg="http://www.w3.org/2000/svg"
   xmlns="http://www.w3.org/2000/svg"
   xmlns:sodipodi="http://sodipodi.sourceforge.net/DTD/sodipodi-0.dtd"
   xmlns:inkscape="http://www.inkscape.org/namespaces/inkscape"
   version="1.0"
   id="Layer_1"
   x="0px"
   y="0px"
   width="50px"
   height="50px"
   viewBox="2.5 -5.0 50.0 67.5"
   enable-background="new 0 0 50 50"
   xml:space="preserve"
   inkscape:version="0.91 r13725"
   sodipodi:docname="orange.svg"><metadata
     id="metadata31"><rdf:RDF><cc:Work
         rdf:about=""><dc:format>image/svg+xml</dc:format><dc:type
           rdf:resource="http://purl.org/dc/dcmitype/StillImage" /></cc:Work></rdf:RDF></metadata><defs
     id="defs29" /><sodipodi:namedview
     pagecolor="#ffffff"
     bordercolor="#666666"
     borderopacity="1"
     objecttolerance="10"
     gridtolerance="10"
     guidetolerance="10"
     inkscape:pageopacity="0"
     inkscape:pageshadow="2"
     inkscape:window-width="1246"
     inkscape:window-height="755"
     id="namedview27"
     showgrid="false"
     inkscape:zoom="4.72"
     inkscape:cx="25"
     inkscape:cy="25"
     inkscape:window-x="34"
     inkscape:window-y="0"
     inkscape:window-maximized="1"
     inkscape:current-layer="Layer_1" /><g
     id="g3"
     transform="matrix(1.2898228,0,0,1.3163857,-4.3263552,-4.1915378)"><path
       d="m 38.143,45.634 c -1.189,0.27 -2.441,0.419 -3.752,0.419 -7.049,0 -14.778,-3.888 -20.671,-10.401 C 6.575,27.757 3.876,17.862 6.158,10.574 0.787,17.478 -0.332,26.715 2.97,34.619 c 0.28,1.86 0.844,6.241 0.179,7.703 0,0 3.433,-0.06 6.5,1.392 8.052,6.82 19.65,7.582 28.494,1.92 z"
       id="path5"
       inkscape:connector-curvature="0"
       style="fill:#ff7700;fill-opacity:1" /><g
       id="g7"><path
         d="m 28.652,41.906 0.357,0.104 c 1.787,0.52 3.535,0.784 5.195,0.784 2.053,0 3.934,-0.411 5.594,-1.223 0.553,-0.272 1.115,-0.625 1.717,-1.078 L 41.908,40.198 29.506,25.027 28.652,41.906 Z"
         id="path9"
         inkscape:connector-curvature="0"
         style="fill:#ff9900" /><path
         d="m 9.262,20.683 0.172,0.685 c 0.905,3.605 2.729,7.229 5.278,10.483 L 15.009,32.23 25.944,23.217 9.262,20.683 Z"
         id="path11"
         inkscape:connector-curvature="0"
         style="fill:#ff9900" /><path
         d="m 20.501,4.281 c -1.436,0 -2.815,0.21 -4.1,0.623 L 15.746,5.117 27.81,19.873 28.505,6.087 28.202,5.959 C 25.566,4.846 22.975,4.281 20.501,4.281 Z"
         id="path13"
         inkscape:connector-curvature="0"
         style="fill:#ff9900" /><path
         d="M 13.966,6.02 13.61,6.261 C 13.169,6.562 12.814,6.835 12.498,7.122 11.828,7.726 11.243,8.428 10.71,9.267 9.175,11.672 8.547,14.794 8.896,18.295 L 8.931,18.659 26.477,21.324 13.966,6.02 Z"
         id="path15"
         inkscape:connector-curvature="0"
         style="fill:#ff9900" /><path
         d="M 37.848,12.751 C 35.776,10.589 33.496,8.784 31.078,7.389 l -0.666,-0.385 -0.66,13.074 8.445,-6.961 -0.349,-0.366 z"
         id="path17"
         inkscape:connector-curvature="0"
         style="fill:#ff9900" /><path
         d="M 45.748,28.185 C 45.684,27.683 45.586,27.143 45.449,26.488 L 45.381,26.17 31.199,24.016 43.287,38.805 43.644,38.308 c 1.897,-2.634 2.624,-6.134 2.104,-10.123 z"
         id="path19"
         inkscape:connector-curvature="0"
         style="fill:#ff9900" /><path
         d="M 44.813,24.108 44.547,23.367 C 43.486,20.41 41.883,17.581 39.781,14.959 l -0.297,-0.372 -8.928,7.356 14.257,2.165 z"
         id="path21"
         inkscape:connector-curvature="0"
         style="fill:#ff9900" /><path
         d="m 16.624,34.077 c 2.813,2.995 6.093,5.372 9.484,6.875 l 0.625,0.277 0.85,-16.835 -11.303,9.317 0.344,0.366 z"
         id="path23"
         inkscape:connector-curvature="0"
         style="fill:#ff9900" /></g><path
       d="M 34.334,46.435 C 27.219,46.435 19.417,42.591 13.466,36.152 3.732,25.615 1.947,11.376 9.486,4.407 c 2.701,-2.496 6.32,-3.815 10.466,-3.815 7.116,0 14.917,3.845 20.866,10.284 9.737,10.533 11.523,24.774 3.982,31.744 -2.702,2.496 -6.321,3.815 -10.466,3.815 z M 19.953,2.225 c -3.728,0 -6.964,1.17 -9.358,3.382 -6.878,6.357 -5.052,19.563 4.071,29.436 5.648,6.111 13,9.76 19.668,9.76 3.728,0 6.963,-1.169 9.357,-3.381 C 50.57,35.064 48.744,21.858 39.619,11.985 33.973,5.873 26.621,2.225 19.953,2.225 Z"
       id="path25"
       inkscape:connector-curvature="0"
       style="fill:#ff7700;fill-opacity:1" /></g></svg>