<svg
   xmlns:dc="http://purl.org/dc/elements/1.1/"
   xmlns:cc="http://creativecommons.org/ns#"
   xmlns:rdf="http://www.w3.org/1999/02/22-rdf-syntax-ns#"
   xmlns:svg="http://www.w3.org/2000/svg"
   xmlns="http://www.w3.org/2000/svg"
   xmlns:sodipodi="http://sodipodi.sourceforge.net/DTD/sodipodi-0.dtd"
   xmlns:inkscape="http://www.inkscape.org/namespaces/inkscape"
   version="1.0"
   id="Layer_1"
   x="0px"
   y="0px"
   width="100px"
   height="100px"
   viewBox="5.0 -10.0 100.0 135.0"
   enable-background="new 0 0 100 100"
   xml:space="preserve"
   inkscape:version="0.91 r13725"
   sodipodi:docname="pencil.svg"><metadata
     id="metadata11"><rdf:RDF><cc:Work
         rdf:about=""><dc:format>image/svg+xml</dc:format><dc:type
           rdf:resource="http://purl.org/dc/dcmitype/StillImage" /></cc:Work></rdf:RDF></metadata><defs
     id="defs9" /><sodipodi:namedview
     pagecolor="#ffffff"
     bordercolor="#666666"
     borderopacity="1"
     objecttolerance="10"
     gridtolerance="10"
     guidetolerance="10"
     inkscape:pageopacity="0"
     inkscape:pageshadow="2"
     inkscape:window-width="1246"
     inkscape:window-height="755"
     id="namedview7"
     showgrid="false"
     inkscape:zoom="2.36"
     inkscape:cx="50"
     inkscape:cy="46.610169"
     inkscape:window-x="34"
     inkscape:window-y="0"
     inkscape:window-maximized="1"
     inkscape:current-layer="Layer_1" /><path
     d="m 0.62685996,2.8054427 c -7.69988686,7.5551493 -7.69988686,19.8022563 0,27.3574053 L 28.507146,2.8054427 c -7.698669,-7.5551497 -20.1816163,-7.5551497 -27.88028604,0 z"
     id="path3"
     inkscape:connector-curvature="0"
     style="fill:#f25454" /><path
     d="M 68.981161,97.231077 116.58898,116.58898 96.861449,69.87606 36.137644,10.294895 8.2573567,37.649913 68.981161,97.231077 Z m 6.344951,-12.121684 c 2.534571,-2.489318 7.33224,-1.812042 8.391355,-0.772836 -1.05668,-1.036818 -1.748148,-5.747886 0.786422,-8.234814 2.534572,-2.486928 7.598846,-3.370852 7.598846,-3.370852 L 103.43892,99.571084 99.243849,103.6873 71.889466,92.565399 c 0,0.0012 0.902074,-4.967883 3.436646,-7.456006 z"
     id="path5"
     inkscape:connector-curvature="0"
     style="fill:#ffcc00" /></svg>