<svg
   xmlns:dc="http://purl.org/dc/elements/1.1/"
   xmlns:cc="http://creativecommons.org/ns#"
   xmlns:rdf="http://www.w3.org/1999/02/22-rdf-syntax-ns#"
   xmlns:svg="http://www.w3.org/2000/svg"
   xmlns="http://www.w3.org/2000/svg"
   xmlns:sodipodi="http://sodipodi.sourceforge.net/DTD/sodipodi-0.dtd"
   xmlns:inkscape="http://www.inkscape.org/namespaces/inkscape"
   version="1.1"
   id="Your_Icon"
   x="0px"
   y="0px"
   width="100px"
   height="98.953px"
   viewBox="5.859 -8.8723 100.0 133.58655"
   enable-background="new 0.859 1.023 100 98.953"
   xml:space="preserve"
   inkscape:version="0.91 r13725"
   sodipodi:docname="noun_11018_cc.svg"><metadata
     id="metadata13"><rdf:RDF><cc:Work
         rdf:about=""><dc:format>image/svg+xml</dc:format><dc:type
           rdf:resource="http://purl.org/dc/dcmitype/StillImage" /></cc:Work></rdf:RDF></metadata><defs
     id="defs11" /><sodipodi:namedview
     pagecolor="#ffffff"
     bordercolor="#666666"
     borderopacity="1"
     objecttolerance="10"
     gridtolerance="10"
     guidetolerance="10"
     inkscape:pageopacity="0"
     inkscape:pageshadow="2"
     inkscape:window-width="1250"
     inkscape:window-height="755"
     id="namedview9"
     showgrid="false"
     inkscape:zoom="5.8916858"
     inkscape:cx="50"
     inkscape:cy="52.317038"
     inkscape:window-x="30"
     inkscape:window-y="0"
     inkscape:window-maximized="1"
     inkscape:current-layer="Your_Icon" /><path
     d="m 70.482733,-3.7888654 -31.919144,0 0,31.9503374 31.919144,0 0,-31.9503374 0,0 z"
     id="path4163"
     style="fill:#9c44b8" /><path
     d="m 46.774389,17.947247 c -2.907186,0 -5.267217,-2.505518 -5.267217,-5.599981 0,-3.0907208 2.360031,-5.597486 5.267217,-5.597486 2.910705,0 5.26839,2.5080132 5.26839,5.597486 0.0011,3.094463 -2.357685,5.599981 -5.26839,5.599981 z"
     id="path4161"
     style="fill:#7ce0fc" /><path
     d="m 62.271934,17.947247 c -2.910707,0 -5.266043,-2.505518 -5.266043,-5.599981 0,-3.0907208 2.356511,-5.597486 5.266043,-5.597486 2.909532,0 5.268391,2.5080132 5.268391,5.597486 0,3.094463 -2.357683,5.599981 -5.268391,5.599981 z"
     id="path4159"
     style="fill:#7ce0fc" /><path
     d="M 106.60179,66.700024 C 106.13097,55.863163 101.75727,48.292956 96.372637,43.812222 91.919107,40.095123 87.033487,38.313311 82.992079,37.68194 l 0,-3.900522 -56.934313,0 0,3.899274 c -4.043756,0.63137 -8.932899,2.414431 -13.384083,6.132778 -5.3916774,4.479486 -9.7583243,12.047197 -10.2244599,22.882811 -3.8570678,1.437429 -6.6292253,5.294278 -6.6292253,9.876081 0,5.794633 4.41596108,10.497469 9.8757373,10.499965 l 0,-4.662908 c -3.0316433,-0.0037 -5.48208492,-2.615321 -5.49265242,-5.839553 0.00939,-3.225479 2.45983482,-5.835809 5.49265242,-5.8408 3.0363405,0.005 5.4844349,2.614073 5.4914779,5.8408 l 4.390131,0 c -0.0048,-4.687863 -2.910707,-8.612092 -6.9016264,-9.959681 0.510752,-8.88161 3.8406294,-14.179631 7.8597284,-17.619726 3.041037,-2.589119 6.613962,-3.9966 9.524668,-4.608007 l 0,36.495956 5.077005,0 0,23.990822 c -5.746268,2.15989 -9.868692,7.97074 -9.868692,14.8135 l 29.604904,0 c 0,-6.84526 -4.128297,-12.65361 -9.868694,-14.8135 l 0,-23.99207 27.045266,0 0,23.99082 c -5.743918,2.15989 -9.868692,7.97074 -9.868692,14.8135 l 29.606078,0 c 0,-6.84526 -4.125946,-12.65361 -9.868692,-14.8135 l 0,-23.99082 5.07583,0 0,-36.49346 c 2.908358,0.60891 6.480109,2.016393 9.517624,4.60551 4.021446,3.438848 7.352496,8.735621 7.864439,17.618479 -3.990933,1.348837 -6.906337,5.271819 -6.909859,9.962177 l 4.390126,0 c 0.002,-3.221736 2.459833,-5.838304 5.498533,-5.842048 3.02811,0.0037 5.48208,2.619064 5.49147,5.842048 -0.009,3.219241 -2.46336,5.833314 -5.49147,5.838305 l 0,4.662908 c 5.45272,-0.0037 9.87808,-4.702836 9.87808,-10.501213 -0.002,-4.586793 -2.78272,-8.437405 -6.63158,-9.869842 z"
     id="path4157"
     style="fill:#fde910;fill-opacity:1" /><path
     d="m 50.278038,65.288799 -5.661728,0 0,-6.015488 5.661728,0 0,6.015488 z"
     id="path4155"
     style="fill:#ff9933;fill-opacity:1" /><path
     d="m 50.278038,57.956916 -5.661728,0 0,-6.01424 5.661728,0 0,6.01424 z"
     id="path4153"
     style="fill:#ff3300" /><path
     d="m 57.352265,65.288799 -5.657033,0 0,-6.015488 5.657033,0 0,6.015488 z"
     id="path4151"
     style="fill:#9999ff;fill-opacity:1" /><path
     d="m 57.352265,57.956916 -5.657033,0 0,-6.01424 5.657033,0 0,6.01424 z"
     id="path4149"
     style="fill:#66cc33;fill-opacity:1" /><path
     d="m 64.428839,65.288799 -5.665252,0 0,-6.015488 5.665252,0 0,6.015488 z"
     id="path4147"
     style="fill:#996600;fill-opacity:1" /><path
     d="m 64.428839,57.956916 -5.665252,0 0,-6.01424 5.665252,0 0,6.01424 z"
     id="path4145"
     style="fill:#0083d7;fill-opacity:1" /><path
     d="m 82.702065,7.8340902 c 0,-4.7178094 -3.601104,-8.54471281 -8.039374,-8.54471281 l 0,17.09316861 c 4.43827,0 8.039374,-3.828151 8.039374,-8.5484558 z"
     id="path4143"
     style="fill:#ef2929" /><path
     d="m 34.381283,16.382546 0,-17.09192085 c -4.439444,0 -8.037026,3.82690335 -8.037026,8.54471235 0,4.7190575 3.597582,8.5472085 8.037026,8.5472085 z"
     id="path3"
     style="fill:#ef2929" /></svg>