<svg
   xmlns:dc="http://purl.org/dc/elements/1.1/"
   xmlns:cc="http://creativecommons.org/ns#"
   xmlns:rdf="http://www.w3.org/1999/02/22-rdf-syntax-ns#"
   xmlns:svg="http://www.w3.org/2000/svg"
   xmlns="http://www.w3.org/2000/svg"
   xmlns:sodipodi="http://sodipodi.sourceforge.net/DTD/sodipodi-0.dtd"
   xmlns:inkscape="http://www.inkscape.org/namespaces/inkscape"
   version="1.1"
   id="Layer_1"
   x="0px"
   y="0px"
   width="100px"
   height="100px"
   viewBox="5.0 -10.0 100.0 135.0"
   enable-background="new 0 0 100 100"
   xml:space="preserve"
   inkscape:version="0.91 r13725"
   sodipodi:docname="scarecrow.svg"><metadata
     id="metadata9"><rdf:RDF><cc:Work
         rdf:about=""><dc:format>image/svg+xml</dc:format><dc:type
           rdf:resource="http://purl.org/dc/dcmitype/StillImage" /></cc:Work></rdf:RDF></metadata><defs
     id="defs7" /><sodipodi:namedview
     pagecolor="#ffffff"
     bordercolor="#666666"
     borderopacity="1"
     objecttolerance="10"
     gridtolerance="10"
     guidetolerance="10"
     inkscape:pageopacity="0"
     inkscape:pageshadow="2"
     inkscape:window-width="1246"
     inkscape:window-height="755"
     id="namedview5"
     showgrid="false"
     inkscape:zoom="5.53"
     inkscape:cx="50"
     inkscape:cy="50"
     inkscape:window-x="34"
     inkscape:window-y="0"
     inkscape:window-maximized="1"
     inkscape:current-layer="Layer_1" /><path
     style="fill:#a05a2c"
     d="m 100.64877,23.908137 9.52061,0.639735 -0.15661,1.791616 -9.364,-0.628953 0,0.781698 7.10542,3.234613 -0.95412,1.593945 -6.1513,-2.799736 0,1.773646 -26.272382,-0.49238 2.303908,24.635172 -13.411296,0 -5.755648,0 0,-29.799771 7.733959,-6.04693 35.401459,0 0,2.249854 11.82658,-0.411515 0.0803,1.795211 -11.90695,0.41331 0,1.270485 z"
     id="path4145" /><path
     style="fill:#a05a2c"
     d="m 38.529816,29.802321 -2.303908,24.635172 16.156202,0 3.070502,0 0,-29.799771 -7.733956,-6.04693 -35.461214,0 0,2.068356 -7.8596617,-1.053046 -0.3132323,1.775443 8.174955,1.094378 0,1.895842 -11.63081658,0.731382 0.14837374,1.791616 11.48038184,-0.722397 0,0.884128 -7.0642163,1.236341 0.4018442,1.761067 6.6623721,-1.160867 0,1.399869 26.272374,-0.490583 z"
     id="path4143" /><path
     style="fill:#d4aa00"
     d="m 79.860017,97.272748 -5.226036,-41.306002 -11.364981,0 -10.88689,0 -13.726589,0 -6.967361,38.427203 2.491434,0.593011 -2.532649,6.49977 1.951521,0.57684 2.571803,-6.602203 0.8923,0.212048 -2.03395,9.171935 2.023646,0.33963 2.005101,-9.038945 1.287962,0.305484 -1.158135,6.875351 2.040131,0.26236 1.123104,-6.661503 3.348703,0.796079 7.692742,-22.86692 0,47.467944 6.182219,0 0,-45.670938 6.398599,22.356564 3.134385,-0.391746 0.801628,5.35328 2.044253,-0.23181 -0.805749,-5.376643 0.931456,-0.116811 2.202931,7.132324 1.988614,-0.46722 -2.136988,-6.923864 1.125164,-0.140174 2.790242,5.933728 1.908245,-0.68107 -2.594472,-5.515018 2.497617,-0.312684 z"
     id="path4141" /><path
     style="fill:#784421"
     d="M 36.522656,11.208687 43.170602,8.0010293 38.09294,8.7827276 37.449989,5.6092125 44.301949,4.5543695 43.7744,-5.000318 l 20.327138,-3.1249956 3.253909,9.134188 6.845779,-1.0530467 0.642951,3.1735151 -6.808686,1.0476555 c 0.06801,0.2551749 0.13807,0.5067561 0.191649,0.7691185 l 6.099791,1.3818984 -0.517246,1.7359097 -5.362046,-1.2147776 c 0.01026,0.2030617 0.03091,0.4043271 0.03091,0.6091863 0,4.8896564 -2.759331,9.1144194 -6.744802,11.1324584 -1.588831,0.803264 -3.365189,1.268688 -5.248705,1.268688 -1.883516,0 -3.659874,-0.463628 -5.248704,-1.268688 -2.802608,-1.417838 -4.989053,-3.928257 -6.046211,-6.995748 l -1.97419,1.737706 -1.465186,-1.265093 2.915947,-2.5661267 c -0.0083,-0.052112 -0.01649,-0.1060239 -0.02473,-0.1599334 l -7.121916,3.4376751 -0.997399,-1.570585 z"
     id="path4139" /><path
     style="fill:#ffe680;fill-opacity:1"
     d="m 64.812494,6.0243208 -3.478529,-0.7870883 0.01026,-0.034137 -1.073646,0.1653245 3.832976,4.269689 L 62.481751,10.745065 57.972853,5.7224299 52.503649,6.56343 51.996707,11.24104 49.94421,11.07212 50.383148,7.0270578 48.163731,8.9804041 c 0.665619,4.4134499 4.129722,7.7990119 8.321267,7.7990119 4.665516,0 8.459339,-4.181636 8.459339,-9.3210764 0,-0.4905837 -0.06388,-0.9631964 -0.131888,-1.4340128 z"
     id="path3" /></svg>