<svg
   xmlns:dc="http://purl.org/dc/elements/1.1/"
   xmlns:cc="http://creativecommons.org/ns#"
   xmlns:rdf="http://www.w3.org/1999/02/22-rdf-syntax-ns#"
   xmlns:svg="http://www.w3.org/2000/svg"
   xmlns="http://www.w3.org/2000/svg"
   xmlns:sodipodi="http://sodipodi.sourceforge.net/DTD/sodipodi-0.dtd"
   xmlns:inkscape="http://www.inkscape.org/namespaces/inkscape"
   version="1.1"
   id="Layer_1"
   x="0px"
   y="0px"
   width="100px"
   height="97.214px"
   viewBox="5.0 -9.7214 100.0 131.2389"
   enable-background="new 0 0 100 97.214"
   xml:space="preserve"
   inkscape:version="0.91 r13725"
   sodipodi:docname="star.svg"><metadata
     id="metadata9"><rdf:RDF><cc:Work
         rdf:about=""><dc:format>image/svg+xml</dc:format><dc:type
           rdf:resource="http://purl.org/dc/dcmitype/StillImage" /></cc:Work></rdf:RDF></metadata><defs
     id="defs7" /><sodipodi:namedview
     pagecolor="#ffffff"
     bordercolor="#666666"
     borderopacity="1"
     objecttolerance="10"
     gridtolerance="10"
     guidetolerance="10"
     inkscape:pageopacity="0"
     inkscape:pageshadow="2"
     inkscape:window-width="751"
     inkscape:window-height="480"
     id="namedview5"
     showgrid="false"
     inkscape:zoom="2.427634"
     inkscape:cx="50"
     inkscape:cy="48.606998"
     inkscape:window-x="0"
     inkscape:window-y="0"
     inkscape:window-maximized="0"
     inkscape:current-layer="Layer_1" /><path
     d="m 58.201406,-4.14064 c -0.364875,-1.1740909 -1.459503,-1.9751764 -2.702362,-1.9764281 -1.241593,-0.00125 -2.340021,0.7973304 -2.707431,1.9676663 L 40.13371,36.255348 c -0.366143,1.170334 -1.463305,1.968917 -2.70363,1.968917 l -42.3864293,0 c -1.2276558,0 -2.3172161,0.783561 -2.6934945,1.940129 -0.3750114,1.156567 0.046876,2.419528 1.0477516,3.127988 L 27.953439,67.743013 c 1.002142,0.707209 1.422763,1.975177 1.045218,3.132996 L 15.585663,111.90911 c -0.378813,1.16032 0.04688,2.42829 1.052819,3.13675 1.004676,0.70721 2.355224,0.69094 3.342163,-0.0451 L 53.812759,89.845462 c 1.004676,-0.747262 2.391965,-0.751017 3.399175,-0.0038 l 33.930935,25.124038 c 0.983138,0.72849 2.332418,0.74601 3.33456,0.0425 1.002142,-0.70471 1.430365,-1.96641 1.057888,-3.12548 L 82.407382,70.982402 c -0.368677,-1.149056 0.04688,-2.400752 1.033816,-3.107961 L 117.73827,43.282369 c 0.99074,-0.710964 1.40757,-1.971421 1.03002,-3.125485 -0.37881,-1.152812 -1.46457,-1.931367 -2.69097,-1.931367 l -42.657544,0 c -1.241591,0 -2.338753,-0.803589 -2.70363,-1.976428 L 58.201406,-4.14064 Z"
     id="path3"
     inkscape:connector-curvature="0"
     style="fill:#fde910" /></svg>