<svg
   xmlns:sketch="http://www.bohemiancoding.com/sketch/ns"
   xmlns:dc="http://purl.org/dc/elements/1.1/"
   xmlns:cc="http://creativecommons.org/ns#"
   xmlns:rdf="http://www.w3.org/1999/02/22-rdf-syntax-ns#"
   xmlns:svg="http://www.w3.org/2000/svg"
   xmlns="http://www.w3.org/2000/svg"
   xmlns:sodipodi="http://sodipodi.sourceforge.net/DTD/sodipodi-0.dtd"
   xmlns:inkscape="http://www.inkscape.org/namespaces/inkscape"
   width="26px"
   height="33px"
   viewBox="1.3 -3.3 26.0 44.55"
   version="1.1"
   id="svg2"
   inkscape:version="0.91 r13725"
   sodipodi:docname="strawberry.svg">
  <metadata
     id="metadata12">
    <rdf:RDF>
      <cc:Work
         rdf:about="">
        <dc:format>image/svg+xml</dc:format>
        <dc:type
           rdf:resource="http://purl.org/dc/dcmitype/StillImage" />
      </cc:Work>
    </rdf:RDF>
  </metadata>
  <sodipodi:namedview
     pagecolor="#ffffff"
     bordercolor="#666666"
     borderopacity="1"
     objecttolerance="10"
     gridtolerance="10"
     guidetolerance="10"
     inkscape:pageopacity="0"
     inkscape:pageshadow="2"
     inkscape:window-width="1246"
     inkscape:window-height="755"
     id="namedview10"
     showgrid="false"
     inkscape:zoom="17.242424"
     inkscape:cx="13"
     inkscape:cy="16.5"
     inkscape:window-x="34"
     inkscape:window-y="0"
     inkscape:window-maximized="1"
     inkscape:current-layer="svg2" />
  <title
     id="title4">strawberry</title>
  <description>Created with Sketch (http://www.bohemiancoding.com/sketch)</description>
  <defs
     id="defs6" />
  <g
     id="Fruits"
     sketch:type="MSPage"
     transform="matrix(1.3257082,0,0,1.2850206,-2.6833266,-1.7327448)"
     style="fill:none;fill-rule:evenodd;stroke:none;stroke-width:1">
    <path
       style="fill:#ff3300"
       d="m 23.634616,10.982394 c 1.475237,1.912626 1.671128,4.568633 1.671128,6.517606 0,4.694421 -7.950012,15.499998 -12.5,15.5 -4.549988,2e-6 -12.50000022,-10.805579 -12.50000022,-15.5 0,-2.125366 0.55551695,-4.795893 2.13829552,-6.638062 0.7022417,-0.2958 2.7790443,-1.1253656 3.9836122,-1.1253658 1.4659212,0 2.472249,0.3107908 2.472249,0.3107908 0,0 -0.9875486,0.571378 -2.1499023,2.411384 -1.1623538,1.840007 -1.1933592,3.765456 -1.1933592,3.765456 0,0 1.2515872,-1.28373 3.7529295,-1.56543 2.5013425,-0.2817 3.2575685,-2.200026 3.2575685,-2.200026 0,0 0.359914,0.942904 1.960938,1.878249 1.601024,0.935344 4.478923,1.887207 4.478923,1.887207 0,0 -0.635384,-2.719626 -1.130535,-4.240235 -0.49515,-1.520609 -1.195312,-1.692139 -1.195312,-1.692139 0,0 1.031576,-0.220784 2.325847,0 0.964819,0.164585 3.433399,0.520193 4.627618,0.690565 l 0,0 z"
       id="path4180" />
    <path
       style="fill:#ffffff;fill-opacity:1"
       d="m 12.805744,24 c 0.276142,0 0.5,-0.223858 0.5,-0.5 0,-0.276142 -0.223858,-0.5 -0.5,-0.5 -0.276143,0 -0.5,0.223858 -0.5,0.5 0,0.276142 0.223857,0.5 0.5,0.5 z"
       id="path4178" />
    <path
       style="fill:#ffffff;fill-opacity:1"
       d="m 19.805744,16 c 0.276142,0 0.5,-0.223858 0.5,-0.5 0,-0.276142 -0.223858,-0.5 -0.5,-0.5 -0.276143,0 -0.5,0.223858 -0.5,0.5 0,0.276142 0.223857,0.5 0.5,0.5 z"
       id="path4176" />
    <path
       style="fill:#ffffff;fill-opacity:1"
       d="m 16.805744,19 c 0.276142,0 0.5,-0.223858 0.5,-0.5 0,-0.276142 -0.223858,-0.5 -0.5,-0.5 -0.276143,0 -0.5,0.223858 -0.5,0.5 0,0.276142 0.223857,0.5 0.5,0.5 z"
       id="path4174" />
    <path
       style="fill:#ffffff;fill-opacity:1"
       d="m 8.8057438,28 c 0.2761424,0 0.5,-0.223858 0.5,-0.5 0,-0.276142 -0.2238576,-0.5 -0.5,-0.5 -0.2761424,0 -0.5,0.223858 -0.5,0.5 0,0.276142 0.2238576,0.5 0.5,0.5 z"
       id="path4172" />
    <path
       style="fill:#ffffff;fill-opacity:1"
       d="m 18.805744,23 c 0.276142,0 0.5,-0.223858 0.5,-0.5 0,-0.276142 -0.223858,-0.5 -0.5,-0.5 -0.276143,0 -0.5,0.223858 -0.5,0.5 0,0.276142 0.223857,0.5 0.5,0.5 z"
       id="path4170" />
    <path
       style="fill:#ffffff;fill-opacity:1"
       d="m 14.805744,27 c 0.276142,0 0.5,-0.223858 0.5,-0.5 0,-0.276142 -0.223858,-0.5 -0.5,-0.5 -0.276143,0 -0.5,0.223858 -0.5,0.5 0,0.276142 0.223857,0.5 0.5,0.5 z"
       id="path4168" />
    <path
       style="fill:#ffffff;fill-opacity:1"
       d="m 13.805744,30 c 0.276142,0 0.5,-0.223858 0.5,-0.5 0,-0.276142 -0.223858,-0.5 -0.5,-0.5 -0.276143,0 -0.5,0.223858 -0.5,0.5 0,0.276142 0.223857,0.5 0.5,0.5 z"
       id="path4166" />
    <path
       style="fill:#ffffff;fill-opacity:1"
       d="m 5.8057438,22 c 0.2761424,0 0.5,-0.223858 0.5,-0.5 0,-0.276142 -0.2238576,-0.5 -0.5,-0.5 -0.2761424,0 -0.5,0.223858 -0.5,0.5 0,0.276142 0.2238576,0.5 0.5,0.5 z"
       id="path4164" />
    <path
       style="fill:#ffffff;fill-opacity:1"
       d="m 6.8057438,17 c 0.2761424,0 0.5,-0.223858 0.5,-0.5 0,-0.276142 -0.2238576,-0.5 -0.5,-0.5 -0.2761424,0 -0.5,0.223858 -0.5,0.5 0,0.276142 0.2238576,0.5 0.5,0.5 z"
       id="path4162" />
    <path
       style="fill:#ffffff;fill-opacity:1"
       d="m 11.805744,15 c 0.276142,0 0.5,-0.223858 0.5,-0.5 0,-0.276142 -0.223858,-0.5 -0.5,-0.5 -0.276143,0 -0.5,0.223858 -0.5,0.5 0,0.276142 0.223857,0.5 0.5,0.5 z"
       id="path4160" />
    <path
       style="fill:#ffffff;fill-opacity:1"
       d="m 22.805744,14 c 0.276142,0 0.5,-0.223858 0.5,-0.5 0,-0.276142 -0.223858,-0.5 -0.5,-0.5 -0.276143,0 -0.5,0.223858 -0.5,0.5 0,0.276142 0.223857,0.5 0.5,0.5 z"
       id="path4158" />
    <path
       style="fill:#ffffff;fill-opacity:1"
       d="m 14.805744,16 c 0.276142,0 0.5,-0.223858 0.5,-0.5 0,-0.276142 -0.223858,-0.5 -0.5,-0.5 -0.276143,0 -0.5,0.223858 -0.5,0.5 0,0.276142 0.223857,0.5 0.5,0.5 z"
       id="path4156" />
    <path
       style="fill:#ffffff;fill-opacity:1"
       d="m 2.8057438,14 c 0.2761424,0 0.5,-0.223858 0.5,-0.5 0,-0.276142 -0.2238576,-0.5 -0.5,-0.5 -0.2761424,0 -0.5,0.223858 -0.5,0.5 0,0.276142 0.2238576,0.5 0.5,0.5 z"
       id="path4154" />
    <path
       style="fill:#ffffff;fill-opacity:1"
       d="m 3.8057438,18 c 0.2761424,0 0.5,-0.223858 0.5,-0.5 0,-0.276142 -0.2238576,-0.5 -0.5,-0.5 -0.2761424,0 -0.5,0.223858 -0.5,0.5 0,0.276142 0.2238576,0.5 0.5,0.5 z"
       id="path4152" />
    <path
       style="fill:#ffffff;fill-opacity:1"
       d="m 20.805744,18 c 0.276142,0 0.5,-0.223858 0.5,-0.5 0,-0.276142 -0.223858,-0.5 -0.5,-0.5 -0.276143,0 -0.5,0.223858 -0.5,0.5 0,0.276142 0.223857,0.5 0.5,0.5 z"
       id="path4150" />
    <path
       style="fill:#ffffff;fill-opacity:1"
       d="m 23.805744,19 c 0.276142,0 0.5,-0.223858 0.5,-0.5 0,-0.276142 -0.223858,-0.5 -0.5,-0.5 -0.276143,0 -0.5,0.223858 -0.5,0.5 0,0.276142 0.223857,0.5 0.5,0.5 z"
       id="path4148" />
    <path
       style="fill:#ffffff;fill-opacity:1"
       d="m 10.805744,18 c 0.276142,0 0.5,-0.223858 0.5,-0.5 0,-0.276142 -0.223858,-0.5 -0.5,-0.5 -0.276143,0 -0.5,0.223858 -0.5,0.5 0,0.276142 0.223857,0.5 0.5,0.5 z"
       id="path4146" />
    <path
       style="fill:#ffffff;fill-opacity:1"
       d="m 18.805744,26 c 0.276142,0 0.5,-0.223858 0.5,-0.5 0,-0.276142 -0.223858,-0.5 -0.5,-0.5 -0.276143,0 -0.5,0.223858 -0.5,0.5 0,0.276142 0.223857,0.5 0.5,0.5 z"
       id="path4144" />
    <path
       style="fill:#ffffff;fill-opacity:1"
       d="m 13.805744,21 c 0.276142,0 0.5,-0.223858 0.5,-0.5 0,-0.276142 -0.223858,-0.5 -0.5,-0.5 -0.276143,0 -0.5,0.223858 -0.5,0.5 0,0.276142 0.223857,0.5 0.5,0.5 z"
       id="path4142" />
    <path
       style="fill:#66cc33"
       d="m 15.143944,0.36563107 c -0.385921,0.26913447 -3.094262,8.17450903 -3.094262,8.17450903 0,0 -1.469827,-0.8468485 -4.0206086,-0.846848 -2.5507812,3e-7 -5.1978716,2.7390899 -5.1978716,2.7390899 0,0 2.2660292,-1.0569775 3.7319504,-1.0569777 1.4659212,0 3.0738905,0.5369072 3.0738905,0.5369072 0,0 -1.2118215,0.8170755 -2.1428559,2.0942885 -0.9310345,1.277213 -1.5204927,3.484109 -1.5204927,3.484109 0,0 0.9471625,-1.028467 3.4485049,-1.310167 2.501342,-0.2817 3.16173,-2.67953 3.16173,-2.67953 0,0 0.450128,1.462485 2.051152,2.39783 1.601023,0.935345 3.804711,1.670385 3.804711,1.670385 0,0 -0.445066,-1.873376 -0.940217,-3.393985 -0.495151,-1.520609 -1.40769,-2.02209 -1.40769,-2.02209 0,0 1.387201,-0.4816804 2.796563,-0.2408405 1.409362,0.2408405 4.73707,0.6977365 4.73707,0.6977365 0,0 -2.300243,-2.3530438 -4.978044,-2.6426194 -2.677801,-0.2895753 -5.092341,0.5727115 -5.092341,0.5727115 0,0 -0.326773,-1.277689 0.841187,-3.8758335 1.167959,-2.5981445 1.566284,-2.8419189 1.566284,-3.3139038 0,-0.47198475 -0.432739,-1.25390623 -0.81866,-0.98477173 z"
       id="strawberry" />
  </g>
</svg>
