<svg
   xmlns:dc="http://purl.org/dc/elements/1.1/"
   xmlns:cc="http://creativecommons.org/ns#"
   xmlns:rdf="http://www.w3.org/1999/02/22-rdf-syntax-ns#"
   xmlns:svg="http://www.w3.org/2000/svg"
   xmlns="http://www.w3.org/2000/svg"
   xmlns:sodipodi="http://sodipodi.sourceforge.net/DTD/sodipodi-0.dtd"
   xmlns:inkscape="http://www.inkscape.org/namespaces/inkscape"
   version="1.1"
   id="Layer_1"
   x="0px"
   y="0px"
   width="100px"
   height="100px"
   viewBox="-13.0 -28.0 100.0 135.0"
   enable-background="new -18 -18 100 100"
   xml:space="preserve"
   inkscape:version="0.91 r13725"
   sodipodi:docname="sun.svg"><metadata
     id="metadata13"><rdf:RDF><cc:Work
         rdf:about=""><dc:format>image/svg+xml</dc:format><dc:type
           rdf:resource="http://purl.org/dc/dcmitype/StillImage" /></cc:Work></rdf:RDF></metadata><defs
     id="defs11" /><sodipodi:namedview
     pagecolor="#ffffff"
     bordercolor="#666666"
     borderopacity="1"
     objecttolerance="10"
     gridtolerance="10"
     guidetolerance="10"
     inkscape:pageopacity="0"
     inkscape:pageshadow="2"
     inkscape:window-width="1246"
     inkscape:window-height="755"
     id="namedview9"
     showgrid="false"
     inkscape:zoom="2.36"
     inkscape:cx="-29.872881"
     inkscape:cy="46.610169"
     inkscape:window-x="34"
     inkscape:window-y="0"
     inkscape:window-maximized="1"
     inkscape:current-layer="Layer_1" /><path
     d="m 39.151704,73.712864 c 19.011125,0 34.469427,-15.122978 34.469427,-33.704389 0,-18.582663 -15.458302,-33.701886 -34.469427,-33.701886 C 20.1393,6.3053373 4.6797178,21.422057 4.6797178,40.008475 c 0,18.586418 15.4595822,33.704389 34.4719862,33.704389 z m 0,-62.771248 c 16.373714,0 29.728488,13.061436 29.728488,29.066859 0,16.006675 -13.356054,29.066859 -29.728488,29.066859 -16.376274,0 -29.7310474,-13.061436 -29.7310474,-29.066859 0,-16.006675 13.3560544,-29.066859 29.7310474,-29.066859 z"
     id="path3"
     inkscape:connector-curvature="0"
     style="fill:none" /><path
     d="m 39.151704,69.075334 c 16.373714,0 29.728488,-13.061436 29.728488,-29.066859 0,-16.005423 -13.356054,-29.066859 -29.728488,-29.066859 -16.374993,0 -29.7310474,13.060184 -29.7310474,29.066859 0,16.005423 13.3547734,29.066859 29.7310474,29.066859 z"
     id="path5"
     inkscape:connector-curvature="0"
     style="fill:#fce94f" /><path
     d="M -9.6762482,49.676567 -24.864407,59.349665 -6.4563022,58.879028 C 3.6503594,58.623681 9.1479535,65.656955 5.753887,74.525214 L -0.4133021,90.642038 14.182079,80.197896 c 8.015937,-5.729008 16.906317,-3.039115 19.770341,5.979346 l 5.199284,16.415978 5.198004,-16.415978 c 2.861464,-9.018461 11.753124,-11.708354 19.76906,-5.979346 L 78.711589,90.642038 72.544401,74.525214 C 69.150335,65.656955 74.647928,58.623681 84.75587,58.879028 l 18.40682,0.470637 -15.188155,-9.67435 c -8.338572,-5.3172 -8.338572,-14.013977 0.0038,-19.328673 L 103.16525,20.669788 84.757151,21.141677 C 74.647928,21.398274 69.151615,14.362497 72.548242,5.4954907 L 78.717992,-10.622585 64.122609,-0.17593901 C 56.106673,5.5493136 47.216293,2.8594212 44.353549,-6.157789 L 39.151704,-22.576271 33.95242,-6.1602924 C 31.088396,2.8569178 22.198016,5.5468102 14.180799,-0.17844234 L -0.4133021,-10.623836 5.753887,5.494239 C 9.1492331,14.359995 3.6503594,21.39452 -6.4563022,21.140425 l -18.4081048,-0.470637 15.1868785,9.676854 c 8.3411325,5.314696 8.3411325,14.012725 0.00128,19.329925 z M 39.151704,6.3053373 c 19.011125,0 34.469427,15.1192227 34.469427,33.7018867 0,18.58141 -15.458302,33.704388 -34.469427,33.704388 C 20.1393,73.712858 4.6797178,58.594893 4.6797178,40.008475 4.6797178,21.422057 20.1393,6.3053373 39.151704,6.3053373 Z"
     id="path7"
     inkscape:connector-curvature="0"
     style="fill:#ffcc00" /></svg>