<svg
   xmlns:dc="http://purl.org/dc/elements/1.1/"
   xmlns:cc="http://creativecommons.org/ns#"
   xmlns:rdf="http://www.w3.org/1999/02/22-rdf-syntax-ns#"
   xmlns:svg="http://www.w3.org/2000/svg"
   xmlns="http://www.w3.org/2000/svg"
   xmlns:sodipodi="http://sodipodi.sourceforge.net/DTD/sodipodi-0.dtd"
   xmlns:inkscape="http://www.inkscape.org/namespaces/inkscape"
   version="1.1"
   id="Layer_1"
   x="0px"
   y="0px"
   width="100px"
   height="100px"
   viewBox="0 0 100 100"
   enable-background="new 0 0 100 100"
   xml:space="preserve"
   inkscape:version="0.91 r13725"
   sodipodi:docname="tree.svg"><metadata
     id="metadata13"><rdf:RDF><cc:Work
         rdf:about=""><dc:format>image/svg+xml</dc:format><dc:type
           rdf:resource="http://purl.org/dc/dcmitype/StillImage" /></cc:Work></rdf:RDF></metadata><defs
     id="defs11" /><sodipodi:namedview
     pagecolor="#ffffff"
     bordercolor="#666666"
     borderopacity="1"
     objecttolerance="10"
     gridtolerance="10"
     guidetolerance="10"
     inkscape:pageopacity="0"
     inkscape:pageshadow="2"
     inkscape:window-width="1246"
     inkscape:window-height="755"
     id="namedview9"
     showgrid="false"
     inkscape:zoom="2.36"
     inkscape:cx="50"
     inkscape:cy="50"
     inkscape:window-x="34"
     inkscape:window-y="0"
     inkscape:window-maximized="1"
     inkscape:current-layer="Layer_1" /><g
     id="g3"><g
       id="g5"><path
         d="m 93.075,32.489 c 0,0 2.321,-11 -1.814,-15.823 -4.524,-5.271 -13.723,-5.407 -13.723,-5.407 0,0 -5.332,-7.225 -12.108,-8.411 -8.472,-1.484 -17.557,0.2 -17.557,0.2 0,0 -5.199,-4.613 -16.547,-2.603 -8.5,1.504 -9.284,10.415 -9.284,10.415 0,0 -7.755,-0.263 -10.896,4.006 -3.406,4.628 0.202,14.42 0.202,14.42 0,0 -4.626,6.458 -3.229,12.218 1.213,5.002 8.475,5.207 8.475,5.207 0,0 1.392,7.898 7.669,8.212 5.121,0.254 10.696,-2.604 10.696,-2.604 0,0 6.405,2.902 12.915,2.804 6.706,-0.101 13.521,-3.203 13.521,-3.203 0,0 4.965,4.66 11.1,6.008 6.177,1.357 11.502,-5.606 11.502,-5.606 0,0 7.73,1.494 10.291,-4.407 2.776,-6.399 -1.213,-15.426 -1.213,-15.426 z"
         id="path4143"
         style="fill:#009900" /><path
         d="m 66.438,58.126 c 0,0 -1.845,-0.681 -3.43,-1.603 -1.316,-0.767 -2.422,-1.803 -2.422,-1.803 0,0 -0.207,1.53 -0.544,2.529 -0.337,0.999 -1,2.042 -1,2.042 0,0 -0.119,-0.68 -0.275,-1.429 -0.195,-0.94 -0.45,-1.99 -0.602,-1.941 -1.188,0.395 -2.421,0.401 -2.421,0.401 0,0 0.818,2.489 0.402,4.405 -0.646,2.959 -2.222,7.61 -2.222,7.61 0,0 -1.627,-3.662 -2.219,-6.008 -0.515,-2.039 -0.404,-4.606 -0.404,-4.606 0,0 -2.624,-0.08 -5.044,-0.401 C 44.16,57.047 42.22,56.52 42.22,56.52 l 1.009,3.807 c 0,0 -1.816,-0.758 -3.228,-2.002 -1.308,-1.154 -1.615,-2.805 -1.615,-2.805 l -2.421,-0.602 c 0,0 1.156,3 4.237,6.209 12.798,11.248 10.423,12.561 9.173,23.623 -0.438,4.829 -1.538,9.285 -2.389,11.479 -0.631,1.627 -3.834,2.806 -3.834,2.806 0,0 0.99,0.8 5.046,0.8 1.918,0 7.303,-0.962 9.52,-1.138 1.252,-0.101 3.101,0.38 4.438,0.399 1.617,0.023 2.625,-0.399 2.625,-0.399 0,0 -4.922,-1.392 -5.65,-3.005 -0.561,-1.242 -1.01,-2.807 -1.01,-2.807 0,0 -1.434,-5.572 -0.246,-18.322 1.437,-10.688 8.563,-16.437 8.563,-16.437 z"
         id="path7"
         style="fill:#996600" /></g></g></svg>