<svg
   xmlns:dc="http://purl.org/dc/elements/1.1/"
   xmlns:cc="http://creativecommons.org/ns#"
   xmlns:rdf="http://www.w3.org/1999/02/22-rdf-syntax-ns#"
   xmlns:svg="http://www.w3.org/2000/svg"
   xmlns="http://www.w3.org/2000/svg"
   xmlns:sodipodi="http://sodipodi.sourceforge.net/DTD/sodipodi-0.dtd"
   xmlns:inkscape="http://www.inkscape.org/namespaces/inkscape"
   version="1.1"
   id="Layer_1"
   x="0px"
   y="0px"
   width="100px"
   height="100px"
   viewBox="5.0 -10.0 100.0 135.0"
   enable-background="new 0 0 100 100"
   xml:space="preserve"
   inkscape:version="0.91 r13725"
   sodipodi:docname="witch.svg"><metadata
     id="metadata9"><rdf:RDF><cc:Work
         rdf:about=""><dc:format>image/svg+xml</dc:format><dc:type
           rdf:resource="http://purl.org/dc/dcmitype/StillImage" /></cc:Work></rdf:RDF></metadata><defs
     id="defs7" /><sodipodi:namedview
     pagecolor="#ffffff"
     bordercolor="#666666"
     borderopacity="1"
     objecttolerance="10"
     gridtolerance="10"
     guidetolerance="10"
     inkscape:pageopacity="0"
     inkscape:pageshadow="2"
     inkscape:window-width="749"
     inkscape:window-height="480"
     id="namedview5"
     showgrid="false"
     inkscape:zoom="2.36"
     inkscape:cx="50"
     inkscape:cy="50"
     inkscape:window-x="0"
     inkscape:window-y="0"
     inkscape:window-maximized="0"
     inkscape:current-layer="Layer_1" /><path
     d="m 96.442719,73.698943 -5.85583,-3.688183 -0.770996,3.356616 c -3.638884,-0.698799 -7.276435,-1.401563 -10.915319,-2.099041 -0.224095,-0.270801 -0.445523,-0.532356 -0.64961,-0.768812 -1.704726,-1.988078 -4.109752,-3.655159 -3.854976,-6.530938 0.462864,-5.191462 0.177408,-11.197969 -4.501919,-14.672154 -2.178262,-1.615561 -5.338275,-0.990736 -7.596572,-2.525718 -0.832354,-0.56538 -1.584675,-1.431945 -2.136911,-2.260201 -0.134723,-0.199468 -1.041777,-2.21925 -1.149822,-2.221893 3.286733,0.05549 6.664173,0.159839 9.874875,-0.656529 4.251146,-1.079242 7.496529,-4.11486 10.661878,-6.960257 2.042204,-1.832203 3.94168,-3.825566 5.503679,-6.079162 1.129815,-1.62877 2.099561,-3.359259 3.297406,-4.941795 1.121811,-1.486105 2.813199,-3.667048 4.960781,-3.377752 1.904811,0.25627 3.293403,2.2602 4.40321,3.619491 0.290791,0.356666 1.590011,-2.359275 1.636698,-2.545533 0.249439,-1.029044 0.364155,-2.500619 0.004,-3.525702 -0.856381,-2.431929 -4.547287,-3.974837 -6.852269,-4.335465 -2.742503,-0.429319 -6.163961,0.09907 -8.87445,0.57859 -2.827873,0.498011 -6.12928,1.229836 -8.703709,2.525719 -2.711823,1.364575 -4.866075,3.41474 -7.077684,5.438485 -1.788763,1.636698 -3.800287,3.25358 -6.193307,3.904824 -2.135577,0.581233 -4.645981,0.48348 -6.845585,0.763529 -1.84612,0.235134 -3.676233,0.56406 -5.486338,0.990737 -1.177835,0.277406 -2.427701,0.822972 -3.654891,1.155859 -0.488208,0.133419 -0.972414,0.231173 -1.448618,0.266839 -0.04535,-0.492727 -0.02802,-0.986774 -0.02802,-1.480822 0.09604,0 1.437946,-0.004 1.437946,0 -0.03869,-1.638018 -0.252108,-2.278695 -1.25787,-3.557407 0.260112,0.322321 1.667378,0.494049 2.043539,0.606332 0.285454,0.08454 3.858977,1.137366 2.571763,-0.556133 -0.424181,-0.542924 -4.818055,-1.167749 -4.794044,-1.651228 0.122718,-2.414756 1.405933,-5.513782 2.379681,-7.67623 1.912815,-4.242997 7.656596,-6.1214334 11.755677,-7.4212804 -1.195176,0.379122 -2.438372,0.085863 -3.662895,0.101716 -2.106231,0.02642 -4.18445,0.461023 -6.251997,0.8242932 -3.470814,0.6116149 -6.99098,1.5495126 -9.914894,3.5745792 -1.212496,0.840145 -2.284953,1.853338 -3.238692,2.97089 -1.277879,1.495351 -2.275637,3.169037 -3.640218,4.603624 -0.269449,0.28269 -2.188933,-0.635393 -2.467719,-0.715973 -0.278786,-0.08058 -3.035961,-0.467628 -2.787856,0.525752 0.117383,0.464985 1.930157,0.813725 2.299648,0.87449 1.00843,0.167764 1.971506,0.494047 2.955927,0.738429 -0.3108,0.879774 -0.626934,1.665758 -0.488208,2.614225 0.284121,1.943164 -0.776331,3.707998 -0.702967,5.676261 0.350816,-0.05152 0.67362,-0.175691 1.011098,-0.286653 0.320137,0.791269 0.381496,1.750303 0.917724,2.449102 0.721641,0.94186 1.348575,0.549529 2.349001,0.458381 0.849696,-0.07795 2.251627,0.08719 2.659801,0.949786 0.580247,1.227193 -0.465531,3.050149 -0.453527,4.351317 0.012,1.235118 -0.721641,2.885027 -1.131149,4.043528 -0.469533,1.327587 -1.073791,2.603656 -1.844785,3.785935 -1.630029,2.503263 -3.434798,5.141265 -5.849161,6.907419 -2.267633,1.659154 -4.528596,3.771405 -7.184395,4.624761 -1.999519,0.641997 -5.821148,0.133418 -7.156384,1.891646 -0.08404,0.10832 -0.144061,0.233813 -0.190748,0.365912 -7.1777262,-1.377785 -14.35411838,-2.758212 -21.5305106,-4.138638 -0.7910038,-0.153234 -3.5375084,1.096415 -2.5477524,1.286637 8.1247962,1.562722 16.2495927,3.124123 24.374389,4.685524 0.173407,0.260235 0.390834,0.470271 0.64961,0.57727 0.924394,0.372518 1.994184,0.0014 2.953259,0.258913 0.94707,0.25495 1.704727,0.410826 2.621117,0.36327 2.658467,0.5099 5.316933,1.019798 7.9754,1.531019 0.492209,0.607651 0.761658,0.681627 1.771422,0.468949 -0.01601,0.0026 -0.885712,5.451696 -1.001761,5.991977 -0.488208,2.246992 -0.908387,4.528328 -0.888378,6.834764 0.0093,1.051501 0.08137,2.186227 0.528225,3.158469 0.865703,1.879759 3.590864,1.091131 5.002132,0.782022 0.891046,-0.195506 1.747412,-0.30779 2.489061,0.322319 0.660282,0.56274 2.072884,4.257527 2.072884,4.257527 0,0 -1.787429,0.05549 -2.634457,0.355345 0.490875,-0.173049 1.68205,1.875795 1.799433,2.235102 0.633605,1.953734 -0.361487,4.24828 -1.684717,5.684188 -0.883043,0.957712 -2.136911,2.229819 -3.345426,2.75557 0.342813,-0.14795 1.668711,0.408184 2.139578,0.405541 0.748319,-0.0066 1.441949,-0.220603 2.099562,-0.560096 1.085797,-0.562739 3.046632,-1.894289 3.62021,-2.998631 0.429516,-0.825614 0.462863,-1.838807 0.758989,-2.718583 0.477537,0.948467 0.957742,1.896932 1.436613,2.844077 l 2.155585,-1.067354 c -0.178742,0.08851 -0.305463,-3.170359 -0.326805,-3.368505 -0.14006,-1.27607 -1.139153,-2.29851 -1.795432,-3.327556 -0.821684,-1.287957 -1.043112,-2.718583 -1.469961,-4.155811 l 2.873226,0.533677 c 1.455287,2.227177 3.086648,4.287909 4.633975,6.450358 1.180503,1.649907 1.947496,3.435876 2.730497,5.289215 -0.89905,0.05945 -1.796766,0.120208 -2.694482,0.178332 0.205421,-0.01321 1.1725,1.803141 1.296552,2.034312 0.462865,0.861282 0.804344,1.788613 1.107139,2.715938 1.057784,3.24697 -1.684717,5.92196 -3.865647,7.45166 -0.210757,0.14663 1.732738,0.4465 1.867462,0.428 1.635364,-0.22192 3.689573,-0.90223 4.489914,-2.17829 0.342813,-0.54822 1.886137,-2.75822 1.706061,-3.73574 0.02267,0.0251 1.842118,2.00261 1.842118,2.00261 0,0 1.448618,-1.27608 1.611354,-1.41213 -0.362822,-1.007915 -0.913723,-1.960344 -1.13515,-3.017134 -0.178744,-0.844103 0.09604,-1.496669 -0.434854,-2.301147 -0.384162,-0.583876 -0.944402,-0.861281 -1.479296,-1.273428 -1.127147,-0.869206 -1.93149,-6.433184 -2.69048,-6.581136 3.968357,0 8.098119,0.392333 11.496901,-2.153201 2.114234,-1.582536 3.269393,-3.692146 5.895846,-4.70534 2.781185,-1.073958 5.436984,-0.204752 8.207498,-0.693516 1.455287,-0.25627 3.210702,-2.402867 3.236046,-3.812355 0.01735,-1.018478 -0.429516,-2.064696 -1.037776,-3.047507 2.997278,0.575949 5.995889,1.151898 8.993166,1.729167 l -0.660281,2.875779 6.957632,-0.770133 19.791094,11.793732 c 0,0 2.66914,-6.246926 3.17469,-8.4424 0.50556,-2.196794 0.83103,-8.972114 0.83103,-8.972114 L 96.442719,73.698943 Z M 34.00944,56.81018 c -2.978603,1.902216 -3.01195,1.239083 -4.595292,1.634056 -0.911055,0.22853 -3.506828,2.026388 -4.185784,2.504583 -0.799008,-0.154555 -1.598014,-0.307789 -2.397021,-0.462343 3.529503,-2.109611 9.764162,-5.501894 12.645389,-8.141217 1.711396,-1.566685 5.148862,-7.509785 5.677087,-7.509785 0.999093,0.0026 -2.585102,9.065902 -7.144379,11.974706 z m 11.344835,-0.911477 c -0.963076,0.472912 -4.591289,1.19681 -5.126184,2.101683 0.234767,-0.397615 1.998185,-2.007893 2.971933,-3.690825 1.638032,-2.832187 3.114661,-5.888941 3.3641,-5.751558 0.478871,0.264195 4.227135,2.714619 4.465904,2.326249 -1.351243,2.210005 -3.350762,3.87048 -5.675753,5.014451 z"
     id="path3"
     inkscape:connector-curvature="0"
     style="fill:#6900ba" /></svg>