<svg xmlns="http://www.w3.org/2000/svg" xmlns:xlink="http://www.w3.org/1999/xlink" version="1.1" id="Layer_1" x="0px" y="0px" width="100px" height="100px" viewBox="5.0 -10.0 100.0 135.0" enable-background="new 0 0 100 100" xml:space="preserve">
<polygon points="56.646,6.503 43.354,6.503 45.188,23.741 54.813,23.741 "/>
<path d="M50,94.997c-14.2,0-26.524-10.569-28.666-24.585C21.112,68.959,21,67.474,21,65.997c0-11.685,6.897-22.098,17.616-26.672  c0.302-0.57,0.488-1.184,0.488-1.646v-14.59c0-0.524-0.443-0.967-0.967-0.967H37.8c-2.188,0-3.967-1.779-3.967-3.967v-4.232  c0-2.188,1.779-3.968,3.967-3.968H62.2c2.188,0,3.967,1.78,3.967,3.968v4.232c0,2.188-1.779,3.967-3.967,3.967h-0.337  c-0.524,0-0.967,0.443-0.967,0.967v14.59c0,0.463,0.186,1.076,0.488,1.646C72.104,43.898,79,54.312,79,65.997  C79,81.988,65.991,94.997,50,94.997z M37.8,12.955c-0.524,0-0.967,0.443-0.967,0.968v4.232c0,0.524,0.443,0.967,0.967,0.967h0.337  c2.188,0,3.967,1.779,3.967,3.967v14.59c0,1.142-0.446,2.509-1.194,3.657l-0.257,0.394l-0.436,0.177  C30.366,45.912,24,55.368,24,65.997c0,1.326,0.101,2.659,0.3,3.962C26.22,82.523,37.269,91.997,50,91.997c14.336,0,26-11.664,26-26  c0-10.629-6.366-20.085-16.217-24.09l-0.436-0.177l-0.256-0.394c-0.748-1.148-1.195-2.516-1.195-3.658v-14.59  c0-2.188,1.779-3.967,3.967-3.967H62.2c0.524,0,0.967-0.443,0.967-0.967v-4.232c0-0.524-0.443-0.968-0.967-0.968H37.8z"/>
<path d="M71.455,57.104c-0.329-0.076-0.614-0.165-0.83-0.273c-0.911-0.456-1.959-1.095-3.456-1.586  c1.409,2.434,2.32,5.207,2.583,8.193c0.173,1.958-0.167,4.439-0.627,5.479c-0.563,1.271-1.875,2.271-3.01,1.897  c-1.836-0.605-1.66-2.521-1.66-2.521c0.304-1.413,0.403-2.896,0.269-4.411c-0.323-3.667-1.962-6.899-4.405-9.284  c-2.66,0.208-6.012,0.861-10.318,2.233c-11.608,3.699-20.404-0.104-21.24-0.219c-0.01,0.021-0.02,0.043-0.029,0.063  c0.035,0.036,0.092,0.085,0.186,0.155c0.299,0.225,0.096,0.375-0.449,0.471c-1.086,2.687-1.689,5.62-1.689,8.696  c0,12.825,10.396,23.222,23.222,23.222c12.825,0,23.222-10.396,23.222-23.222C73.222,62.846,72.591,59.843,71.455,57.104z"/>
<text x="0.0" y="117.5" font-size="5.0" font-weight="bold" font-family="Helvetica Neue, Helvetica, Arial-Unicode, Arial, Sans-serif" fill="#000000">by B. Agust&#237;n Amen&#225;bar Larra&#237;n</text><text x="0.0" y="122.5" font-size="5.0" font-weight="bold" font-family="Helvetica Neue, Helvetica, Arial-Unicode, Arial, Sans-serif" fill="#000000">from the Noun Project</text></svg>