<?xml version="1.0" encoding="UTF-8" standalone="no"?>
<svg
   xmlns:dc="http://purl.org/dc/elements/1.1/"
   xmlns:cc="http://creativecommons.org/ns#"
   xmlns:rdf="http://www.w3.org/1999/02/22-rdf-syntax-ns#"
   xmlns:svg="http://www.w3.org/2000/svg"
   xmlns="http://www.w3.org/2000/svg"
   xmlns:sodipodi="http://sodipodi.sourceforge.net/DTD/sodipodi-0.dtd"
   xmlns:inkscape="http://www.inkscape.org/namespaces/inkscape"
   version="1.1"
   id="Layer_1"
   x="0px"
   y="0px"
   width="100px"
   height="100px"
   viewBox="5.0 -10.0 100.0 135.0"
   enable-background="new 0 0 100 100"
   xml:space="preserve"
   inkscape:version="0.91 r13725"
   sodipodi:docname="yellow.svg"><metadata
     id="metadata17"><rdf:RDF><cc:Work
         rdf:about=""><dc:format>image/svg+xml</dc:format><dc:type
           rdf:resource="http://purl.org/dc/dcmitype/StillImage" /><dc:title></dc:title></cc:Work></rdf:RDF></metadata><defs
     id="defs15" /><sodipodi:namedview
     pagecolor="#ffffff"
     bordercolor="#666666"
     borderopacity="1"
     objecttolerance="10"
     gridtolerance="10"
     guidetolerance="10"
     inkscape:pageopacity="0"
     inkscape:pageshadow="2"
     inkscape:window-width="1247"
     inkscape:window-height="755"
     id="namedview13"
     showgrid="false"
     inkscape:zoom="2.36"
     inkscape:cx="50"
     inkscape:cy="-17.332436"
     inkscape:window-x="33"
     inkscape:window-y="0"
     inkscape:window-maximized="1"
     inkscape:current-layer="Layer_1" /><path
     d="m 53.146186,121.88259 c -21.342534,0 -39.865448,-15.82983 -43.084864,-36.822426 -0.3336649,-2.176246 -0.5020004,-4.40042 -0.5020004,-6.612612 0,-17.501326 10.3661594,-33.097501 26.4767664,-39.948255 0.453904,-0.853723 0.733461,-1.773348 0.733461,-2.465313 l 0,-21.852319 c 0,-0.784826 -0.665828,-1.448334 -1.453396,-1.448334 l -0.50651,0 c -3.288554,0 -5.962382,-2.664515 -5.962382,-5.9416143 l 0,-6.33852065 c 0,-3.27709895 2.673828,-5.94311185 5.962382,-5.94311185 l 36.673087,0 c 3.288553,0 5.962382,2.6660129 5.962382,5.94311185 l 0,6.33852065 c 0,3.2770993 -2.673829,5.9416143 -5.962382,5.9416143 l -0.50651,0 c -0.787569,0 -1.453397,0.663508 -1.453397,1.448334 l 0,21.852319 c 0,0.693463 0.279557,1.61159 0.733462,2.465313 16.11211,6.849257 26.476766,22.446929 26.476766,39.948255 0,23.950678 -19.552466,43.435038 -43.586865,43.435038 z M 34.809643,-0.99663568 c -0.787569,0 -1.453397,0.66350779 -1.453397,1.44983173 l 0,6.33852065 c 0,0.7848262 0.665828,1.4483338 1.453397,1.4483338 l 0.50651,0 c 3.288553,0 5.962382,2.6645155 5.962382,5.9416145 l 0,21.852319 c 0,1.710442 -0.670336,3.75788 -1.794576,5.477308 l -0.38627,0.590118 -0.655306,0.265103 c -14.806007,5.99853 -24.374075,20.161348 -24.374075,36.081039 0,1.98603 0.151802,3.982545 0.450898,5.934126 2.885751,18.817852 19.492347,33.007632 38.62698,33.007632 21.546941,0 39.077879,-17.469869 39.077879,-38.941758 0,-15.919691 -9.568068,-30.082509 -24.374075,-36.081039 L 67.194683,42.10141 66.809917,41.511292 c -1.12424,-1.719428 -1.796079,-3.768364 -1.796079,-5.478805 l 0,-21.85232 c 0,-3.277099 2.673828,-5.9416142 5.962382,-5.9416142 l 0.50651,0 c 0.787569,0 1.453396,-0.6635077 1.453396,-1.448334 l 0,-6.33852045 c 0,-0.78482624 -0.665827,-1.44983173 -1.453396,-1.44983173 l -36.673087,0 z"
     id="path5"
     inkscape:connector-curvature="0" /><path
     d="m 85.392952,65.127972 c -0.494486,-0.113824 -0.92284,-0.24713 -1.247487,-0.408888 -1.369229,-0.682979 -2.944368,-1.640047 -5.194352,-2.375447 2.117721,3.645548 3.486949,7.798836 3.882237,12.271148 0.260019,2.932614 -0.251,6.648557 -0.942378,8.206227 -0.846187,1.903653 -2.818116,3.401413 -4.524016,2.841251 -2.7595,-0.906145 -2.494972,-3.775853 -2.494972,-3.775853 0.456911,-2.116335 0.605707,-4.337514 0.404305,-6.60662 -0.485467,-5.492286 -2.948877,-10.333046 -6.620694,-13.905204 -3.997967,0.311534 -9.036008,1.289571 -15.507906,3.344498 -17.44677,5.540215 -30.667117,-0.155767 -31.923621,-0.328009 -0.01503,0.03145 -0.03006,0.06441 -0.04359,0.09436 0.05261,0.05392 0.138276,0.12731 0.279557,0.232153 0.449396,0.336996 0.144288,0.56166 -0.674844,0.705445 -1.632254,4.024481 -2.53856,8.417412 -2.53856,13.02452 0,19.208773 15.625139,34.780987 34.902557,34.780987 19.275916,0 34.902559,-15.570716 34.902559,-34.780987 -0.0031,-4.719441 -0.951396,-9.217214 -2.658799,-13.31958 z"
     id="path7"
     inkscape:connector-curvature="0"
     style="fill:#d8c100;fill-opacity:1" /></svg>